<svg id="SvgjsSvg1001" width="288" height="288" xmlns="http://www.w3.org/2000/svg" version="1.1" xmlns:xlink="http://www.w3.org/1999/xlink" xmlns:svgjs="http://svgjs.com/svgjs"><defs id="SvgjsDefs1002"></defs><g id="SvgjsG1008"><svg xmlns="http://www.w3.org/2000/svg" enable-background="new 0 0 512 512" viewBox="0 0 512 512" width="288" height="288"><rect width="309" height="432" x="198" y="5" fill="#ffbf66" class="color9ad2fc svgShape"></rect><rect width="274" height="397" x="198" y="40" fill="#52cc99" class="color68a1d6 svgShape"></rect><rect width="309" height="432" x="136" y="40" fill="#f469a9" class="colorc075ac svgShape"></rect><polygon fill="#ba53de" points="136 472 337 472 409 407 409 75 136 75" class="colorb23998 svgShape"></polygon><polygon fill="#52cc99" points="384 75 75 75 75 507 261 507 384 384" class="color68a1d6 svgShape"></polygon><path fill="#ffbf66" d="M227.2,384H75V75h245v216.2C320,342.5,278.5,384,227.2,384z" class="color9ad2fc svgShape"></path><path fill="#f4fa9c" d="M75,190.7H33.8C15.2,190.7,0,175.5,0,156.8S15.2,123,33.8,123h149.8
				c10.7,0,19.4,8.7,19.4,19.4c0,10.7-8.7,19.4-19.4,19.4h-82.1v-10h82.1c5.2,0,9.4-4.2,9.4-9.4s-4.2-9.4-9.4-9.4H33.8
				C20.7,133,10,143.7,10,156.8s10.7,23.8,23.8,23.8H75V190.7z" class="colorf3e630 svgShape"></path><rect width="99" height="10" x="238" y="152" fill="#a33165" class="colora38c31 svgShape"></rect><rect width="215" height="10" x="122" y="216" fill="#a33165" class="colora38c31 svgShape"></rect><rect width="215" height="10" x="122" y="260" fill="#a33165" class="colora38c31 svgShape"></rect><rect width="215" height="10" x="122" y="304" fill="#a33165" class="colora38c31 svgShape"></rect><rect width="215" height="10" x="122" y="348" fill="#a33165" class="colora38c31 svgShape"></rect><polygon fill="#316faf" points="261 384 384 384 261 507" class="color3179af svgShape"></polygon><path fill="#15061a" d="M75,190.7H33.8C15.2,190.7,0,175.5,0,156.8S15.2,123,33.8,123h149.8
				c10.7,0,19.4,8.7,19.4,19.4c0,10.7-8.7,19.4-19.4,19.4h-82.1v-10h82.1c5.2,0,9.4-4.2,9.4-9.4s-4.2-9.4-9.4-9.4H33.8
				C20.7,133,10,143.7,10,156.8s10.7,23.8,23.8,23.8H75V190.7z" class="color060d1a svgShape"></path><rect width="99" height="10" x="238" y="152" fill="#15061a" class="color060d1a svgShape"></rect><rect width="215" height="10" x="122" y="216" fill="#15061a" class="color060d1a svgShape"></rect><rect width="215" height="10" x="122" y="260" fill="#15061a" class="color060d1a svgShape"></rect><rect width="215" height="10" x="122" y="304" fill="#15061a" class="color060d1a svgShape"></rect><rect width="215" height="10" x="122" y="348" fill="#15061a" class="color060d1a svgShape"></rect><path fill="#15061a" d="M261,512c-0.6,0-1.3-0.1-1.9-0.4c-1.9-0.8-3.1-2.6-3.1-4.6V384c0-2.8,2.2-5,5-5h123
				c2,0,3.8,1.2,4.6,3.1c0.8,1.9,0.3,4-1.1,5.4l-123,123C263.6,511.5,262.3,512,261,512z M266,389v105.9L371.9,389H266z" class="color060d1a svgShape"></path><path fill="#15061a" d="M445,477H296v-10h144V45H141v10h-10V40c0-2.8,2.2-5,5-5h309c2.8,0,5,2.2,5,5v432
				C450,474.8,447.8,477,445,477z" class="color060d1a svgShape"></path><path fill="#15061a" d="M507,442h-42v-10h37V10H203v30h-10V5c0-2.8,2.2-5,5-5h309c2.8,0,5,2.2,5,5v432
				C512,439.8,509.8,442,507,442z" class="color060d1a svgShape"></path><path fill="#15061a" d="M261,512H75c-2.8,0-5-2.2-5-5V148h10v354h178.9L379,381.9V80H80v48H70V75c0-2.8,2.2-5,5-5
				h309c2.8,0,5,2.2,5,5v309c0,1.3-0.5,2.6-1.5,3.5l-123,123C263.6,511.5,262.3,512,261,512z" class="color060d1a svgShape"></path></svg></g></svg>