<?xml version="1.0" encoding="UTF-8" standalone="no"?>
<svg
   class="zwd-banner-graphics"
   width="770"
   height="490"
   viewBox="0 0 770 490"
   version="1.1"
   id="svg175"
   sodipodi:docname="man-is-typing2.svg"
   inkscape:version="1.4 (86a8ad7, 2024-10-11)"
   xmlns:inkscape="http://www.inkscape.org/namespaces/inkscape"
   xmlns:sodipodi="http://sodipodi.sourceforge.net/DTD/sodipodi-0.dtd"
   xmlns="http://www.w3.org/2000/svg"
   xmlns:svg="http://www.w3.org/2000/svg">
  <sodipodi:namedview
     id="namedview175"
     pagecolor="#ffffff"
     bordercolor="#000000"
     borderopacity="0.25"
     inkscape:showpageshadow="2"
     inkscape:pageopacity="0.0"
     inkscape:pagecheckerboard="0"
     inkscape:deskcolor="#d1d1d1"
     showgrid="false"
     inkscape:zoom="1.6632653"
     inkscape:cx="384.78528"
     inkscape:cy="245"
     inkscape:window-width="1920"
     inkscape:window-height="1017"
     inkscape:window-x="-8"
     inkscape:window-y="-8"
     inkscape:window-maximized="1"
     inkscape:current-layer="g82"
     showguides="true" />
  <defs
     id="defs23">
    <linearGradient
       x1="71%"
       y1="47%"
       x2="19%"
       y2="75%"
       id="BgPolyGrdn">
      <stop
         stop-color="#FFFFFF"
         stop-opacity="0.1"
         offset="0%"
         id="stop1" />
      <stop
         stop-color="#FFFFFF"
         stop-opacity="0.4"
         offset="100%"
         id="stop2" />
    </linearGradient>
    <linearGradient
       x1="-8%"
       y1="50%"
       x2="108%"
       y2="50%"
       id="BgCirGrdn">
      <stop
         stop-color="#FFFFFF"
         stop-opacity="0.08"
         offset="0%"
         id="stop3" />
      <stop
         stop-color="#FFFFFF"
         stop-opacity="0.5"
         offset="100%"
         id="stop4" />
    </linearGradient>
    <linearGradient
       x1="-3%"
       y1="50%"
       x2="100%"
       y2="50%"
       id="BgWaveGrdn">
      <stop
         stop-color="#4749E3"
         stop-opacity="0"
         offset="0%"
         id="stop5" />
      <stop
         stop-color="#FFFFFF"
         stop-opacity="0.5"
         offset="25%"
         id="stop6" />
      <stop
         stop-color="#FFFFFF"
         stop-opacity="0.5"
         offset="75%"
         id="stop7" />
      <stop
         stop-color="#4749E3"
         stop-opacity="0"
         offset="100%"
         id="stop8" />
    </linearGradient>
    <circle
       id="User-1-Path"
       cx="20"
       cy="20"
       r="20" />
    <circle
       id="User-2-Path"
       cx="20"
       cy="20"
       r="20" />
    <circle
       id="User-3-Path"
       cx="20"
       cy="20"
       r="20" />
    <circle
       id="User-4-Path"
       cx="20"
       cy="20"
       r="20" />
    <linearGradient
       x1="-8%"
       y1="50%"
       x2="108%"
       y2="50%"
       id="linearGradient10">
      <stop
         stop-color="#FFFFFF"
         stop-opacity="0.08"
         offset="0%"
         id="stop9" />
      <stop
         stop-color="#FFFFFF"
         stop-opacity="0.5"
         offset="100%"
         id="stop10" />
    </linearGradient>
    <linearGradient
       x1="-3%"
       y1="50%"
       x2="100%"
       y2="50%"
       id="linearGradient14">
      <stop
         stop-color="#4749E3"
         stop-opacity="0"
         offset="0%"
         id="stop11" />
      <stop
         stop-color="#FFFFFF"
         stop-opacity="0.5"
         offset="25%"
         id="stop12" />
      <stop
         stop-color="#FFFFFF"
         stop-opacity="0.5"
         offset="75%"
         id="stop13" />
      <stop
         stop-color="#4749E3"
         stop-opacity="0"
         offset="100%"
         id="stop14" />
    </linearGradient>
    <linearGradient
       x1="71%"
       y1="47%"
       x2="19%"
       y2="75%"
       id="linearGradient16">
      <stop
         stop-color="#FFFFFF"
         stop-opacity="0.1"
         offset="0%"
         id="stop15" />
      <stop
         stop-color="#FFFFFF"
         stop-opacity="0.4"
         offset="100%"
         id="stop16" />
    </linearGradient>
    <circle
       id="circle16"
       cx="20"
       cy="20"
       r="20" />
    <circle
       id="circle17"
       cx="20"
       cy="20"
       r="20" />
    <circle
       id="circle18"
       cx="20"
       cy="20"
       r="20" />
    <circle
       id="circle19"
       cx="20"
       cy="20"
       r="20" />
    <circle
       id="circle20"
       cx="20"
       cy="20"
       r="20" />
    <circle
       id="circle21"
       cx="20"
       cy="20"
       r="20" />
    <circle
       id="circle22"
       cx="20"
       cy="20"
       r="20" />
    <circle
       id="circle23"
       cx="20"
       cy="20"
       r="20" />
  </defs>
  <g
     class="dms-ban-user"
     transform="matrix(2.3320845,0,0,2.2801456,166.87491,6.5337709)"
     fill="none"
     id="g82"
     style="display:inline;mix-blend-mode:difference">
    <path
       d="m 62.994462,44.172188 c 9.288425,-6.367975 28.022763,-7.880075 37.104058,-5.525229 0.4697,0 0.70456,0 1.18137,-0.286382 v 0.286382 c 0.23486,0 0.71168,0 0.94653,0 22.81698,-2.577896 41.68617,-2.334306 49.9702,6.896046 5.52269,6.153568 10.20956,14.617385 14.0606,25.391452 l 4.64487,14.852382 c 0,0.287245 -0.24197,0.287245 -0.24197,0.573627 -4.96746,10.047516 -9.70719,20.094164 -15.15148,29.854444 -4.73972,7.46318 -9.71431,14.35273 -13.74236,19.80692 -2.36275,3.15797 -4.96747,6.31507 -8.52582,8.03767 -4.02094,2.29623 -8.52582,2.87072 -13.02358,3.44521 -1.89304,0.28638 -4.02806,0.28638 -6.63277,0.28638 -3.55124,0.28724 -7.81415,0.28724 -12.07706,0.28724 -11.130534,-0.28724 -22.972739,-1.7226 -28.182171,-6.31506 C 69.06197,138.03168 61.717525,117.36302 58.166287,105.88101 54.380198,94.685378 39.907356,102.80744 39.195685,90.464552 38.249162,78.408051 53.047038,50.991961 62.994462,44.172188 Z"
       stroke="#000000"
       stroke-width="0.3px"
       fill="#ff7660"
       fill-rule="nonzero"
       id="path66" />
    <path
       d="m 100.68786,123.17208 c 8.79556,0.42132 13.31226,-12.87336 13.4136,-20.05094 0.073,-5.173327 0.18817,-27.258448 -4.9563,-35.954455 -1.99307,-3.368988 -7.66744,-1.415048 -10.130526,-0.626503 -8.820773,2.823928 -7.617628,24.33259 -8.303522,36.269298 -0.685893,11.93671 1.181192,19.94127 9.976748,20.3626 z"
       fill="#ffffff"
       fill-rule="nonzero"
       opacity="0.3"
       transform="matrix(-0.99939083,0.0348995,0.0348995,0.99939083,200.65731,-3.5024864)"
       id="path67" />
    <path
       d="M 99.068427,27.966968 109.8156,27.287036 c 0.59659,2.701089 2.12285,6.018037 4.57876,9.950844 1.61897,6.197603 -2.23454,11.332838 -6.79826,16.249046 -3.04247,3.277472 -6.126,6.313995 -9.250577,9.109568 C 96.19569,58.527551 94.68641,54.42731 93.817685,50.295772 92.948961,46.164234 92.44337,42.07681 92.300913,38.033498 Z"
       id="Path"
       stroke="#000000"
       stroke-width="0.3px"
       fill="#ffa666"
       fill-rule="nonzero" />
    <path
       d="M 179.43019,112.81916 166.25722,70.934457 v 0 l -29.12544,12.363657 c 9.10474,19.636656 14.04171,30.202216 14.81092,31.696686 1.15381,2.2417 3.2938,6.04301 4.2666,7.64673 2.27295,3.74707 4.8281,7.73537 11.41797,4.54849 l 8.72913,-5.74091 c 2.83803,-1.8665 4.09289,-5.38963 3.07379,-8.62995 z"
       stroke="#000000"
       stroke-width="0.3px"
       fill="#ffa666"
       fill-rule="nonzero"
       id="path68" />
    <path
       class="dms-ban-typing"
       d="m 176.82527,121.14128 c -12.28467,9.65406 -25.0416,11.70494 -34.62989,12.5564 -9.58828,0.85146 -13.89404,1.3999 -21.7915,-0.35596 -7.89746,-1.75586 -12.66086,-4.26687 -17.47534,-4.79348 -3.209653,-0.35108 -8.275089,-0.67658 -15.196309,-0.97651 l 10.84772,-14.13807 c 0.942356,-1.13094 2.118529,-1.69684 3.301789,-1.41389 l 11.63906,7.46163 c 10.06309,-4.23144 20.13261,-7.49249 29.60501,-10.60428 2.93364,-0.96373 9.68798,-3.55957 14.34497,-4.22119"
       stroke="#000000"
       stroke-width="0.3px"
       fill="#ffa666"
       fill-rule="nonzero"
       id="path69" />
    <g
       class="dms-ban-head"
       fill="none"
       id="g72">
      <path
         d="M 91.093116,15.563404 C 90.807309,14.061776 90.40704,12.912688 89.89231,12.116138 86.361548,10.917896 83.963762,9.5059086 82.698951,7.8801762 80.801734,5.4415776 81.986793,1.5063969 84.955054,0.30498088 87.923316,-0.89643513 95.664405,1.8394047 98.51023,1.8394047 c 2.84582,0 6.97229,0.2104492 9.75061,2.6870117 2.77832,2.4765625 3.73496,7.9307866 3.53423,11.0369876 -0.20073,3.106201 -1.68584,7.299029 -1.68584,10.0402 0,2.741172 -1.35242,2.097251 -1.84839,2.542319 -0.49597,0.445069 -1.68808,0.915405 -2.0739,3.35791 -0.38582,2.442505 -1.76765,8.331177 -5.37166,9.28064 -3.604,0.949463 -5.80119,0.575073 -8.054562,-2.409302 -2.253371,-2.984375 -2.253371,-7.400756 -2.253371,-9.002441 0,-1.601685 0.585769,-4.774292 0.585769,-7.263511 0,-1.65948 0,-3.841418 0,-6.545815 z"
         fill="#000000"
         fill-rule="nonzero"
         id="path70" />
      <path
         d="m 109.34023,24.434192 c 1.57885,-0.586471 2.75453,-1.644409 2.91072,-3.729187 0.15619,-2.084778 -0.71991,-3.337219 -2.62689,-3.482239 -1.90698,-0.145019 -3.08008,1.564026 -3.21661,3.748353 -0.091,1.456217 -0.018,2.812088 0.219,4.067614 0.75663,-0.01205 1.66122,-0.21356 2.71378,-0.604541 z"
         stroke="#000000"
         stroke-width="0.3px"
         fill="#ffa666"
         fill-rule="nonzero"
         id="path71" />
      <path
         d="m 91.84336,12.344171 c 0,0 4.033325,-0.826605 5.609619,-1.654424 1.576294,-0.8278203 2.724491,-1.9261479 3.522951,-2.6950688 1.85612,0.04069 3.10535,0.5000406 3.74768,1.3780517 0.9635,1.3170171 1.51825,3.3543701 0.6228,6.5019531 -0.89545,3.147583 -1.90105,3.671938 -2.31893,5.251771 -0.41788,1.579833 -0.88438,3.912279 -2.18259,4.956603 -1.298222,1.044324 -3.501164,2.069824 -5.793095,1.261475 -2.291931,-0.80835 -2.750974,-1.620057 -3.208435,-3.273865 -0.457461,-1.653809 -0.237427,-6.46698 -0.237427,-7.880066 0,-1.413086 0.237427,-3.84643 0.237427,-3.84643 z"
         fill="#ffa666"
         fill-rule="nonzero"
         id="path72" />
    </g>
    <path
       d="m 142.97811,187.92184 c -0.0774,5.73197 -13.89141,7.04602 -13.89141,7.04602 -5.40101,0.84964 -11.0202,1.17988 -16.4107,1.24736 -6.08718,0.0762 -15.324326,-0.32874 -21.165272,-1.29756 1.913961,-2.62917 3.342383,-4.73091 3.827895,-5.7797 1.917428,-3.41047 3.602628,-6.81803 4.826877,-10.4805 0.48898,-1.83009 0.77374,-5.74069 1.51599,-8.61588 l 13.59359,7.12412 1.85438,1.2794 c -0.003,0.26072 25.92883,3.48405 25.84865,9.47674 z"
       stroke="#000000"
       stroke-width="0.3px"
       fill="#ffa666"
       fill-rule="nonzero"
       transform="rotate(10,117,183)"
       id="path73" />
    <path
       d="m 119.00083,192.90413 c 0.0119,8.61792 12.87214,7.71587 21.6736,7.20436 8.80146,-0.51152 14.89379,-3.21764 20.14007,-3.21095 -2.7352,-1.80773 -5.25195,-4.13189 -5.02724,-10.06103 0.22141,-3.35101 1.35479,-5.92771 2.72103,-8.50412 -3.70234,-0.0576 -7.73625,0.85021 -12.10174,2.72331 -3.00849,1.29085 -27.41756,3.2305 -27.40572,11.84843 z"
       fill="#070606"
       fill-rule="nonzero"
       transform="matrix(-0.9998477,-0.01745241,-0.01745241,0.9998477,283.27718,2.4721225)"
       id="path74" />
    <path
       d="M 0,167.82098 C 17.529815,151.70208 29.743407,141.3715 36.640777,136.82926 46.986831,130.0159 55.662999,123.5988 75.8076,124.89672 c 20.1446,1.29793 29.43519,10.64644 29.1107,22.92178 -0.32448,12.27535 -14.395665,18.78972 -35.455847,27.27162 -14.040122,5.6546 -33.954362,11.56774 -59.7427205,17.73943 C 4.5380616,188.77765 1.2981508,180.44146 0,167.82098 Z"
       stroke="#000000"
       stroke-width="0.3px"
       fill="#ffcc28"
       fill-rule="nonzero"
       transform="matrix(-1,0,0,1,105,0)"
       id="path75" />
    <path
       d="m 42.472109,190.47306 c 0,5.71838 14.417181,4.63657 14.417181,4.63657 5.402398,0.78031 10.728193,0.79043 16.222255,0.59035 6.686819,-0.97045 12.168848,-0.97045 18.519536,-1.10978 -1.883081,-2.59948 -3.286576,-4.67875 -3.75911,-5.71916 -1.876028,-3.37901 -3.135697,-6.75802 -4.306451,-10.39713 -0.472534,-1.81917 -1.088894,-5.71839 -1.794168,-8.57797 l -10.797743,7.27823 -1.876028,1.29974 c 0,0.2601 -26.625472,6.02066 -26.625472,11.99915 z"
       stroke="#000000"
       stroke-width="0.3px"
       fill="#ffa666"
       fill-rule="nonzero"
       id="path76" />
    <path
       class="dms-ban-lshoe"
       d="m 31.302363,191.75995 c 0,8.61771 11.336265,8.50401 22.0625,7.47566 10.726236,-1.02835 17.800843,-3.61431 23.04724,-3.61431 -2.732783,-1.8042 -6.431412,-3.2306 -7.614396,-7.91396 -1.182984,-4.68336 0.663277,-7.99106 2.033094,-10.56915 -3.702346,-0.0529 -7.737603,0.86004 -12.10577,2.73866 -3.010337,1.29466 -27.422668,3.26538 -27.422668,11.8831 z"
       fill="#070606"
       fill-rule="nonzero"
       id="path77" />
    <path
       d="m 46.329929,125.34914 c 2.543785,1.2755 7.788123,2.94948 10.51928,4.41667 6.946918,3.73193 12.401369,7.36932 18.657218,12.39076 6.072114,4.87395 11.794851,9.70413 17.168212,14.49055 4.88219,-4.07193 11.170441,-8.90212 18.864761,-14.49055 11.54148,-8.38266 24.02237,-14.80911 38.23112,-14.96655 -25.70778,-1.79563 -44.53659,-2.69344 -56.486428,-2.69344 -11.949837,0 -27.601224,0.28419 -46.954163,0.85256 z"
       stroke="#000000"
       stroke-width="0.3px"
       fill="#ffba18"
       fill-rule="nonzero"
       id="path78" />
    <path
       d="m 81.396601,165.95129 c 21.125289,-17.52652 35.172399,-27.98036 42.141349,-31.36154 10.45342,-5.07175 15.53573,-8.14758 36.2474,-7.24229 20.71167,0.90528 26.39283,7.51399 26.39283,19.58907 0,12.07508 -17.43645,20.77011 -37.412,30.19949 -13.31703,6.28625 -32.36206,12.10431 -57.135099,17.45418 -5.5253,-6.47212 -8.936793,-16.01842 -10.23448,-28.63891 z"
       stroke="#000000"
       stroke-width="0.3px"
       fill="#ffcc28"
       fill-rule="nonzero"
       id="path79" />
    <path
       d="m 25.369497,82.356683 7.761,40.935407 c 0.32979,1.73948 1.817151,3.02072 3.586285,3.08931 l 55.892813,2.16684 v 0 L 84.637503,82.680448 c -0.16438,-0.945768 -0.97753,-1.641355 -1.937346,-1.657249 l -55.691499,-0.92219 v 0 c -1.167814,0 -1.871317,1.127837 -1.639161,2.255674 z"
       stroke="#000000"
       stroke-width="0.5px"
       fill="#303642"
       fill-rule="nonzero"
       id="path80" />
    <ellipse
       stroke="#000000"
       stroke-width="0.475px"
       fill-opacity="0.2"
       fill="#ffffff"
       fill-rule="nonzero"
       transform="rotate(-12,59.5,103)"
       cx="60"
       cy="103"
       rx="4.5"
       ry="5.5"
       id="ellipse80" />
    <path
       d="m 82.853585,83.306263 7.45709,45.241977 3.58725,0.23684 22.142865,-0.85651 c 1.06522,-0.0412 1.90753,-0.91672 1.90753,-1.98273 0,-1.05429 -0.85467,-1.90895 -1.90895,-1.90895 H 93.1905 v 0 L 86.208581,82.741921 c 0,-0.845666 -0.719956,-1.691332 -1.677498,-1.691332 -1.202327,0 -1.915084,1.127837 -1.677498,2.255674 z"
       fill="#1e1f20"
       fill-rule="nonzero"
       id="path81" />
    <line
       x1="137"
       y1="83"
       x2="130.5"
       y2="69.5"
       stroke="#000000"
       stroke-width="0.475px"
       fill="none"
       id="line81" />
    <line
       x1="97.5"
       y1="88"
       x2="98"
       y2="62.5"
       stroke="#000000"
       stroke-width="0.3px"
       fill="none"
       id="line82" />
    <path
       d="m 102.55252,72.920719 c 0.78688,-3.1e-5 1.4248,-0.637769 1.42484,-1.424427 3e-5,-0.786659 -0.63783,-1.424346 -1.42471,-1.424315 -0.78687,3.1e-5 -1.4248,0.637769 -1.42483,1.424427 -4e-5,0.786658 0.63782,1.424346 1.4247,1.424315 z"
       fill="#000000"
       fill-rule="nonzero"
       transform="rotate(3,102.5,71.5)"
       id="path82" />
    <circle
       fill="#000000"
       fill-rule="nonzero"
       transform="rotate(3,102,83)"
       cx="102"
       cy="83"
       id="ellipse82"
       r="1.5" />
  </g>
</svg>
