<?xml version="1.0" encoding="UTF-8" standalone="no"?>
<svg
   class="feat-dis-graphics"
   width="188.00002"
   height="42"
   viewBox="0 0 188.00002 42"
   version="1.1"
   id="svg109"
   sodipodi:docname="title-app.svg"
   inkscape:version="1.2.2 (732a01da63, 2022-12-09)"
   xmlns:inkscape="http://www.inkscape.org/namespaces/inkscape"
   xmlns:sodipodi="http://sodipodi.sourceforge.net/DTD/sodipodi-0.dtd"
   xmlns="http://www.w3.org/2000/svg"
   xmlns:svg="http://www.w3.org/2000/svg">
  <sodipodi:namedview
     id="namedview109"
     pagecolor="#ffffff"
     bordercolor="#000000"
     borderopacity="0.25"
     inkscape:showpageshadow="2"
     inkscape:pageopacity="0.0"
     inkscape:pagecheckerboard="0"
     inkscape:deskcolor="#d1d1d1"
     showgrid="false"
     inkscape:zoom="2.1285476"
     inkscape:cx="72.349803"
     inkscape:cy="28.658039"
     inkscape:window-width="1366"
     inkscape:window-height="705"
     inkscape:window-x="-8"
     inkscape:window-y="-8"
     inkscape:window-maximized="1"
     inkscape:current-layer="g108">
    <inkscape:page
       x="0"
       y="0"
       width="188.00002"
       height="42"
       id="page2"
       margin="0"
       bleed="0" />
  </sodipodi:namedview>
  <defs
     id="defs3" />
  <g
     id="g109"
     transform="translate(-199.67045,-177.8038)">
    <g
       transform="translate(4.9898772,1.8049072)"
       fill="none"
       id="g108"
       style="fill-rule:evenodd;stroke:none;stroke-width:1">
      <g
         class="dis-zwd-truesync"
         transform="translate(194.93058,176.2489)"
         fill="none"
         id="g50">
        <path
           d="M 12.569426,0 H 174.93057 c 4.3868,0 5.98107,0.44791967 7.58576,1.3061168 1.58542,0.8478909 2.82966,2.0921363 3.67755,3.6775544 0.8582,1.6046891 1.30612,3.1989604 1.30612,7.5857548 v 16.361148 c 0,4.386794 -0.44792,5.981066 -1.30612,7.585755 -0.84789,1.585418 -2.09213,2.829663 -3.67755,3.677554 C 180.91164,41.05208 179.31737,41.5 174.93057,41.5 H 12.569426 C 8.1826316,41.5 6.5883603,41.05208 4.9836712,40.193883 3.3982531,39.345992 2.1540077,38.101747 1.3061168,36.516329 0.44791967,34.91164 0,33.317368 0,28.930574 V 12.569426 C 0,8.1826316 0.44791967,6.5883603 1.3061168,4.9836712 2.1540077,3.3982531 3.3982531,2.1540077 4.9836712,1.3061168 6.5883603,0.44791967 8.1826316,0 12.569426,0 Z"
           stroke="#7edada"
           stroke-width="0.5px"
           fill="#e6ffff"
           fill-rule="nonzero"
           id="path49" />
        <line
           x1="164.5"
           y1="24.5"
           x2="172.5"
           y2="24.5"
           stroke="#000000"
           stroke-width="1.5px"
           fill="none"
           id="line49" />
        <polygon
           fill="#333333"
           fill-rule="nonzero"
           points="168.75,17.75 164.75,22.75 172.75,22.75 "
           id="polygon49" />
        <text
           fill="#333333"
           fill-rule="nonzero"
           font-family="sans-serif"
           font-size="13px"
           font-weight="bold"
           id="text49"
           style="font-style:normal;font-variant:normal;font-weight:bold;font-stretch:normal;font-size:18.6667px;font-family:'B Nazanin';-inkscape-font-specification:'B Nazanin, Bold';font-variant-ligatures:normal;font-variant-caps:normal;font-variant-numeric:normal;font-variant-east-asian:normal;fill:#333333;fill-rule:nonzero"
           x="18.792154"
           y="23.960001"><tspan
             sodipodi:role="line"
             id="tspan130"
             x="18.792154"
             y="23.960001">سامانه مدیریت اسناد</tspan></text>
      </g>
    </g>
  </g>
</svg>
