<?xml version="1.0" encoding="UTF-8" standalone="no"?>
<svg
   class="feat-dis-graphics"
   width="188.00002"
   height="42"
   viewBox="0 0 188.00002 42"
   version="1.1"
   id="svg109"
   sodipodi:docname="title-app2.svg"
   inkscape:version="1.2.2 (732a01da63, 2022-12-09)"
   xmlns:inkscape="http://www.inkscape.org/namespaces/inkscape"
   xmlns:sodipodi="http://sodipodi.sourceforge.net/DTD/sodipodi-0.dtd"
   xmlns="http://www.w3.org/2000/svg"
   xmlns:svg="http://www.w3.org/2000/svg">
  <sodipodi:namedview
     id="namedview109"
     pagecolor="#ffffff"
     bordercolor="#000000"
     borderopacity="0.25"
     inkscape:showpageshadow="2"
     inkscape:pageopacity="0.0"
     inkscape:pagecheckerboard="0"
     inkscape:deskcolor="#d1d1d1"
     showgrid="false"
     inkscape:zoom="2.1285476"
     inkscape:cx="72.349803"
     inkscape:cy="28.658039"
     inkscape:window-width="1366"
     inkscape:window-height="705"
     inkscape:window-x="-8"
     inkscape:window-y="-8"
     inkscape:window-maximized="1"
     inkscape:current-layer="g108">
    <inkscape:page
       x="0"
       y="0"
       width="188.00002"
       height="42"
       id="page2"
       margin="0"
       bleed="0" />
  </sodipodi:namedview>
  <defs
     id="defs3" />
  <g
     id="g109"
     transform="translate(-199.67045,-177.8038)">
    <g
       transform="translate(4.9898772,1.8049072)"
       fill="none"
       id="g108"
       style="fill-rule:evenodd;stroke:none;stroke-width:1">
      <g
         class="dis-zwd-truesync"
         transform="translate(194.93058,176.2489)"
         fill="none"
         id="g50">
        <path
           d="M 12.569426,0 H 174.93057 c 4.3868,0 5.98107,0.44791967 7.58576,1.3061168 1.58542,0.8478909 2.82966,2.0921363 3.67755,3.6775544 0.8582,1.6046891 1.30612,3.1989604 1.30612,7.5857548 v 16.361148 c 0,4.386794 -0.44792,5.981066 -1.30612,7.585755 -0.84789,1.585418 -2.09213,2.829663 -3.67755,3.677554 C 180.91164,41.05208 179.31737,41.5 174.93057,41.5 H 12.569426 C 8.1826316,41.5 6.5883603,41.05208 4.9836712,40.193883 3.3982531,39.345992 2.1540077,38.101747 1.3061168,36.516329 0.44791967,34.91164 0,33.317368 0,28.930574 V 12.569426 C 0,8.1826316 0.44791967,6.5883603 1.3061168,4.9836712 2.1540077,3.3982531 3.3982531,2.1540077 4.9836712,1.3061168 6.5883603,0.44791967 8.1826316,0 12.569426,0 Z"
           stroke="#7edada"
           stroke-width="0.5px"
           fill="#e6ffff"
           fill-rule="nonzero"
           id="path49" />
        <line
           x1="164.5"
           y1="24.5"
           x2="172.5"
           y2="24.5"
           stroke="#000000"
           stroke-width="1.5px"
           fill="none"
           id="line49" />
        <polygon
           fill="#333333"
           fill-rule="nonzero"
           points="168.75,17.75 164.75,22.75 172.75,22.75 "
           id="polygon49" />
        <g
           aria-label="سامانه مدیریت اسناد"
           id="text49"
           style="font-weight:bold;font-size:18.6667px;font-family:'B Nazanin';-inkscape-font-specification:'B Nazanin, Bold';fill:#333333;fill-rule:nonzero">
          <path
             d="m 152.50333,20.469109 q 0,1.26693 -0.51041,2.251306 -0.63803,1.230471 -1.84115,1.230471 -1.13021,0 -1.8685,-1.2487 -0.70182,1.2487 -1.78646,1.2487 -1.16667,0 -1.87761,-1.2487 -0.72916,1.2487 -2.21484,1.2487 h -1.26693 v -2.342452 h 1.49479 q 0.8112,0 1.15756,-0.546876 0.13671,-0.209636 0.32812,-1.01172 0.13672,-0.546876 0.44662,-0.546876 0.33724,0 0.46484,0.546876 0.20052,0.856772 0.29167,1.020835 0.30078,0.546876 1.09375,0.546876 0.78386,0 1.11198,-0.546876 0.10026,-0.164063 0.32813,-1.020835 0.14583,-0.546876 0.49219,-0.546876 0.30078,0 0.41927,0.55599 0.17317,0.856773 0.28255,1.039065 0.31901,0.55599 1.13932,0.55599 1.13933,0 1.13933,-0.765626 0,-0.382813 -0.77474,-1.358076 l 0.82943,-1.285158 q 0.15495,-0.246094 0.18229,-0.255209 0.0547,0.02734 0.18229,0.191407 0.22787,0.291667 0.45573,0.875001 0.30078,0.756512 0.30078,1.412763 z"
             id="path6987" />
          <path
             d="m 141.6205,23.950886 h -1.07552 q -0.90235,0 -1.54037,-0.601563 -0.84766,-0.802085 -0.84766,-2.451828 0,-1.121095 -0.13672,-3.381516 -0.15495,-2.533859 -0.30078,-3.335944 -0.0456,-0.264323 0.0365,-0.346354 l 1.50391,-1.221357 q 0.27343,-0.21875 0.31901,-0.21875 0,0 0.009,0.0091 0.0547,0.0091 0.0547,0.255209 l -0.0182,7.665379 q 0,1.294273 1.44922,1.294273 h 0.54688 z"
             id="path6989" />
          <path
             d="m 136.06971,22.03682 q 0,0.938804 -0.57422,1.531253 -0.56511,0.583335 -1.50391,0.583335 -1.2487,0 -2.08724,-1.321617 -0.58334,1.121095 -1.71355,1.121095 h -0.78385 v -2.342452 h 0.78385 q 0.78386,0 0.98438,-0.136719 0.16406,-0.109375 0.1276,-0.501303 -0.0729,-0.91146 0.55599,-1.722659 0.6836,-0.875002 1.71355,-0.875002 1.27604,0 1.95052,1.239586 0.54688,1.01172 0.54688,2.424483 z m -1.11198,-0.519532 q 0,-0.546876 -0.38282,-1.239585 -0.4375,-0.783856 -0.92969,-0.783856 -0.61979,0 -0.61979,0.829429 0,0.628907 0.32813,1.312502 0.40104,0.829429 0.94792,0.829429 0.65625,0 0.65625,-0.947919 z"
             id="path6991" />
          <path
             d="m 129.89001,23.950886 h -1.07553 q -0.90234,0 -1.54036,-0.601563 -0.84766,-0.802085 -0.84766,-2.451828 0,-1.121095 -0.13672,-3.381516 -0.15495,-2.533859 -0.30078,-3.335944 -0.0456,-0.264323 0.0365,-0.346354 l 1.5039,-1.221357 q 0.27344,-0.21875 0.31902,-0.21875 0,0 0.009,0.0091 0.0547,0.0091 0.0547,0.255209 l -0.0182,7.665379 q 0,1.294273 1.44922,1.294273 h 0.54688 z"
             id="path6993" />
          <path
             d="m 124.321,20.387078 q 0,1.348961 -0.51954,2.287764 -0.71093,1.276044 -2.1875,1.276044 h -0.875 v -2.342452 h 1.01172 q 1.3125,0 1.3125,-0.492188 0,-0.428386 -1.02083,-1.549482 -0.11849,-0.127605 0,-0.291667 l 1.06641,-1.48568 q 0.13671,-0.191407 0.27343,-0.04557 0.41016,0.437501 0.6836,1.239586 0.25521,0.747397 0.25521,1.403648 z m -0.0638,-5.395843 -1.23047,1.239585 -1.23958,-1.239585 1.23958,-1.239586 z"
             id="path6995" />
          <path
             d="m 121.22202,23.950886 h -1.13932 q -1.46745,0 -2.13282,-2.205733 l -0.76562,1.239586 q -3.54558,0 -3.54558,-1.221357 0,-0.647136 0.58333,-1.914066 1.02995,-1.002605 2.82553,-1.722659 -0.0911,-0.300782 -0.29167,-0.875001 l 1.27604,-1.467451 q 0.16407,0.364584 0.82943,3.955736 0.22787,1.239586 0.62891,1.622399 0.25521,0.246094 0.85677,0.246094 h 0.875 z m -3.41797,-2.880213 q -0.17318,-0.610678 -0.49219,-1.813805 -1.93229,0.79297 -2.22396,1.312502 0.31901,0.501303 2.71615,0.501303 z"
             id="path6997" />
          <path
             d="m 108.00586,22.03682 q 0,0.938804 -0.57422,1.531253 -0.56511,0.583335 -1.50391,0.583335 -1.2487,0 -2.08724,-1.321617 -0.58334,1.121095 -1.71355,1.121095 h -0.78385 v -2.342452 h 0.78385 q 0.78386,0 0.98438,-0.136719 0.16406,-0.109375 0.1276,-0.501303 -0.0729,-0.91146 0.55599,-1.722659 0.6836,-0.875002 1.71355,-0.875002 1.27604,0 1.95052,1.239586 0.54688,1.01172 0.54688,2.424483 z m -1.11198,-0.519532 q 0,-0.546876 -0.38282,-1.239585 -0.4375,-0.783856 -0.92969,-0.783856 -0.61979,0 -0.61979,0.829429 0,0.628907 0.32813,1.312502 0.40104,0.829429 0.94792,0.829429 0.65625,0 0.65625,-0.947919 z"
             id="path6999" />
          <path
             d="m 101.81705,23.950886 h -0.97527 q -1.303385,0 -2.20573,-1.677086 -0.756512,0.947918 -1.230471,1.221356 -0.783856,0.45573 -2.296879,0.45573 -2.287765,0 -2.287765,-2.114587 0,-0.319011 0.07292,-0.701824 0.218751,-1.157554 0.738283,-1.157554 0.291667,0 0.300782,0.45573 0.01823,0.610678 0.173177,0.838543 0.309896,0.446615 1.348961,0.446615 2.533858,0 2.533858,-0.966147 0,-0.610678 -1.276044,-3.317714 l 1.02995,-1.358076 q 0.11849,-0.164063 0.145834,-0.164063 0.0638,0 0.154948,0.246095 l 1.58594,4.229174 q 0.464849,1.2487 1.303389,1.2487 h 0.88412 z"
             id="path7001" />
          <path
             d="m 89.65817,20.387078 q 0,1.348961 -0.519532,2.287764 -0.710939,1.276044 -2.187504,1.276044 h -0.875001 v -2.342452 h 1.01172 q 1.312503,0 1.312503,-0.492188 0,-0.428386 -1.020836,-1.549482 -0.118489,-0.127605 0,-0.291667 l 1.066409,-1.48568 q 0.136719,-0.191407 0.273438,-0.04557 0.410157,0.437501 0.683595,1.239586 0.255208,0.747397 0.255208,1.403648 z m 1.631514,6.298188 -1.111981,1.121096 -1.121096,-1.121096 1.121096,-1.111981 z m -2.488286,0 -1.111981,1.121096 -1.121096,-1.121096 1.121096,-1.111981 z"
             id="path7003" />
          <path
             d="m 86.550093,23.950886 h -0.401042 q -0.884116,0 -1.36719,-0.236979 0,2.770838 -1.677087,4.393237 -0.510417,0.492188 -0.647136,0.492188 -2.433598,0 -3.636725,-0.464844 -0.23698,-0.09115 -0.01823,-0.173178 1.649743,-0.610678 3.199225,-1.777347 1.731774,-1.303387 1.731774,-2.242191 0,-0.446616 -0.628908,-1.212242 -0.464844,-0.565105 -1.029949,-1.048179 l 0.957033,-1.932295 q 0.08203,-0.164063 0.200521,0 1.36719,1.859378 2.524744,1.859378 h 0.79297 z"
             id="path7005" />
          <path
             d="m 76.332624,20.387078 q 0,1.348961 -0.519532,2.287764 -0.710939,1.276044 -2.187504,1.276044 h -0.875002 v -2.342452 h 1.011721 q 1.312502,0 1.312502,-0.492188 0,-0.428386 -1.020835,-1.549482 -0.11849,-0.127605 0,-0.291667 l 1.066408,-1.48568 q 0.136719,-0.191407 0.273438,-0.04557 0.410157,0.437501 0.683595,1.239586 0.255209,0.747397 0.255209,1.403648 z m 1.631513,6.298188 -1.111981,1.121096 -1.121095,-1.121096 1.121095,-1.111981 z m -2.488285,0 -1.111981,1.121096 -1.121096,-1.121096 1.121096,-1.111981 z"
             id="path7007" />
          <path
             d="m 73.233659,23.950886 h -0.683595 q -0.829429,0 -1.513024,-0.574219 -0.55599,-0.464845 -0.747397,-1.039065 -1.303388,1.121096 -3.108078,1.522138 -1.184898,0.264324 -3.053391,0.264324 -4.958343,0 -4.958343,-3.363288 0,-0.91146 0.437501,-1.768232 0.391928,-0.774741 0.674481,-0.774741 0.346354,0 0.346354,0.382813 0,0.200522 -0.11849,0.610679 -0.109375,0.410156 -0.109375,0.619792 0,1.2487 1.403649,1.695316 0.920574,0.291667 2.807296,0.291667 3.518236,0 5.313812,-1.330732 0.282553,-0.209635 0.783856,-0.756511 0.391927,-0.428386 0.565105,-0.428386 0.319011,0 0.319011,0.446615 0,0.200521 -0.446616,1.157554 0.282553,0.701824 1.540368,0.701824 h 0.546876 z m -5.669281,-7.200533 -1.121096,1.111981 -1.111981,-1.111981 1.111981,-1.111982 z m -2.497401,0 -1.111981,1.111981 -1.111981,-1.111981 1.111981,-1.111982 z"
             id="path7009" />
          <path
             d="m 53.527896,21.890987 q 0,0.647136 -0.69271,2.114587 -0.182292,0.382813 -0.255209,0.382813 -0.118489,0 -0.191406,-0.847658 l -0.865887,-9.625017 1.677086,-1.394534 q 0.164063,-0.136719 0.23698,-0.136719 0.09115,0 0.09115,0.191407 z"
             id="path7011" />
          <path
             d="m 49.891168,20.469109 q 0,1.26693 -0.510418,2.251306 -0.638022,1.230471 -1.841149,1.230471 -1.13021,0 -1.868493,-1.2487 -0.701824,1.2487 -1.786462,1.2487 -1.166668,0 -1.877607,-1.2487 -0.729168,1.2487 -2.214848,1.2487 h -1.266929 v -2.342452 h 1.494794 q 0.8112,0 1.157554,-0.546876 0.136719,-0.209636 0.328126,-1.01172 0.136719,-0.546876 0.446615,-0.546876 0.33724,0 0.464845,0.546876 0.200521,0.856772 0.291667,1.020835 0.300782,0.546876 1.093752,0.546876 0.783856,0 1.111981,-0.546876 0.100261,-0.164063 0.328126,-1.020835 0.145833,-0.546876 0.492188,-0.546876 0.300782,0 0.419272,0.55599 0.173177,0.856773 0.282552,1.039065 0.319011,0.55599 1.139325,0.55599 1.139325,0 1.139325,-0.765626 0,-0.382813 -0.774741,-1.358076 l 0.829429,-1.285158 q 0.154948,-0.246094 0.182292,-0.255209 0.05469,0.02734 0.182292,0.191407 0.227865,0.291667 0.45573,0.875001 0.300782,0.756512 0.300782,1.412763 z"
             id="path7013" />
          <path
             d="M 39.008337,23.950886 H 38.14245 q -0.701824,0 -1.358075,-0.364584 -0.647137,-0.373698 -1.002606,-0.975262 -0.79297,1.339846 -2.333338,1.339846 h -1.440106 v -2.342452 h 1.075522 q 1.330732,0 1.841149,-0.592449 0.264324,-0.300782 0.410157,-1.102866 0.109376,-0.592449 0.446616,-0.592449 0.328125,0 0.428386,0.592449 0.136719,0.802084 0.346355,1.102866 0.419271,0.592449 1.513023,0.592449 h 0.938804 z m -2.816411,-8.139337 -1.239586,1.239585 -1.239585,-1.239585 1.239585,-1.239586 z"
             id="path7015" />
          <path
             d="m 32.491398,23.950886 h -1.075523 q -0.902345,0 -1.540367,-0.601563 -0.847658,-0.802085 -0.847658,-2.451828 0,-1.121095 -0.136719,-3.381516 -0.154948,-2.533859 -0.300782,-3.335944 -0.04557,-0.264323 0.03646,-0.346354 l 1.503909,-1.221357 q 0.273438,-0.21875 0.319011,-0.21875 0,0 0.0091,0.0091 0.05469,0.0091 0.05469,0.255209 l -0.01823,7.665379 q 0,1.294273 1.449221,1.294273 h 0.546876 z"
             id="path7017" />
          <path
             d="m 26.913264,20.642287 q 0,3.308599 -4.138028,3.308599 -2.369796,0 -2.369796,-2.214847 0,-0.209636 0.02734,-0.437501 0.145834,-1.212242 0.656252,-1.212242 0.291667,0 0.328125,0.419272 0.04557,0.574219 0.23698,0.79297 0.364584,0.419271 1.476565,0.419271 0.701824,0 1.513024,-0.136719 1.194012,-0.200521 1.194012,-0.601563 0,-0.720054 -1.276044,-1.786462 -1.157554,-0.966147 -1.895837,-1.166668 l 0.546876,-2.041671 q 0.05469,-0.209636 0.11849,-0.209636 0.05469,0 0.200521,0.09115 1.330732,0.847658 2.260421,2.023442 1.121096,1.421877 1.121096,2.752609 z"
             id="path7019" />
        </g>
      </g>
    </g>
  </g>
</svg>
