<?xml version="1.0" encoding="UTF-8" standalone="no"?>
<svg
   class="zwd-banner-graphics"
   width="50"
   height="50"
   viewBox="0 0 50 50"
   version="1.1"
   id="svg175"
   sodipodi:docname="user3.svg"
   inkscape:version="1.4 (86a8ad7, 2024-10-11)"
   xmlns:inkscape="http://www.inkscape.org/namespaces/inkscape"
   xmlns:sodipodi="http://sodipodi.sourceforge.net/DTD/sodipodi-0.dtd"
   xmlns:xlink="http://www.w3.org/1999/xlink"
   xmlns="http://www.w3.org/2000/svg"
   xmlns:svg="http://www.w3.org/2000/svg">
  <sodipodi:namedview
     id="namedview175"
     pagecolor="#ffffff"
     bordercolor="#000000"
     borderopacity="0.25"
     inkscape:showpageshadow="2"
     inkscape:pageopacity="0.0"
     inkscape:pagecheckerboard="0"
     inkscape:deskcolor="#d1d1d1"
     showgrid="false"
     inkscape:zoom="1.6632653"
     inkscape:cx="384.48466"
     inkscape:cy="245"
     inkscape:window-width="1920"
     inkscape:window-height="1017"
     inkscape:window-x="-8"
     inkscape:window-y="-8"
     inkscape:window-maximized="1"
     inkscape:current-layer="svg175">
    <inkscape:page
       x="0"
       y="0"
       width="50"
       height="50"
       id="page2"
       margin="0"
       bleed="0" />
  </sodipodi:namedview>
  <defs
     id="defs23">
    <circle
       id="User-2-Path"
       cx="20"
       cy="20"
       r="20" />
  </defs>
  <g
     class="dms-team-members"
     transform="translate(-77.684047,1.2975427)"
     fill="none"
     id="g160">
    <g
       class="dms-ban-user-2"
       transform="translate(80.184049,1.202454)"
       fill="none"
       id="g120">
      <circle
         stroke="#4749e3"
         stroke-width="5px"
         cx="22.5"
         cy="22.5"
         r="22.5"
         fill="none"
         id="circle102" />
      <g
         transform="translate(2.5,2.5)"
         fill="none"
         id="g119">
        <mask
           id="User-2-Mask"
           fill="#ffffff">
          <use
             xlink:href="#User-2-Path"
             id="use102" />
        </mask>
        <use
           fill="#ffffff"
           xlink:href="#User-2-Path"
           id="use103" />
        <g
           mask="url(#User-2-Mask)"
           fill="none"
           id="g118">
          <g
             transform="translate(0,4)"
             fill="none"
             id="g117">
            <path
               d="m 15.240317,31.660082 0.987858,-4.852287 c 0,0 -7.1080942,1.209888 -10.3650374,3.296944 C 4.7125929,30.842346 3.2430747,32.42316 2.8376903,33.625088 2.5363191,34.518176 1.3436357,37.507342 0,41.052101 h 5.5324294 5.4076136 6.788588 z"
               fill="#f7a5c4"
               fill-rule="nonzero"
               id="path103" />
            <g
               transform="translate(12)"
               fill-rule="nonzero"
               fill="none"
               id="g112">
              <g
                 fill="none"
                 id="g111">
                <g
                   transform="translate(0,4.5)"
                   fill="none"
                   id="g109">
                  <path
                     d="M 16.024929,10.959036 C 17.705674,3.1435855 13.216576,0 8.3599649,0 3.5038873,0 -0.98574425,3.1435855 0.69500054,10.959036 Z"
                     fill="#674f3f"
                     id="path104" />
                  <path
                     d="M 11.662247,16.897632 H 5.2081017 l -0.3248409,5.320853 -0.7664964,1.735234 c 0,0 0.9233161,2.429858 4.3104089,2.429858 3.1577307,0 4.3322787,-2.429858 4.3322787,-2.429858 l -0.772364,-1.735234 z"
                     fill="#f9a574"
                     id="path105" />
                  <path
                     d="m 5.2081017,18.007163 -0.222428,3.649297 c 0,0 6.3367973,-0.47971 6.6765733,-3.649297 z"
                     fill="#eb8a52"
                     id="path106" />
                  <path
                     d="m 11.491025,3.8939282 c 4.054911,0 3.376425,6.5259648 3.407896,7.8154508 0.04107,1.682168 -0.732359,5.252929 -2.864894,6.909095 -1.094004,0.849575 -2.337894,1.442314 -3.586051,1.461948 C 7.1416783,20.100587 5.8316468,19.507848 4.686436,18.618474 2.5533677,16.962308 1.779937,13.391547 1.8215423,11.709379 1.8530129,10.419362 1.1739941,3.8939282 5.2294377,3.8939282 Z"
                     fill="#f9a574"
                     id="path107" />
                  <path
                     d="m 14.053481,15.762503 c 1.377774,-0.903702 3.069186,-2.490883 2.581125,-4.280244 -0.216561,-0.795448 -1.198551,-1.205112 -1.963447,-0.833655 z"
                     fill="#f9a574"
                     id="path108" />
                  <path
                     d="M 2.666982,15.762503 C 1.2892086,14.858801 -0.40220417,13.27162 0.08585724,11.482259 0.30241781,10.686811 1.284408,10.277147 2.0493043,10.648604 Z"
                     fill="#f9a574"
                     id="path109" />
                </g>
                <path
                   d="m 6.3197082,0.05435384 c 0.2112266,0.07004614 0.3904491,0.19687209 0.5184652,0.36190502 0.209093,-0.0971094 0.45019,-0.13213248 0.6944874,-0.0780059 0.2821688,0.0620864 0.5125978,0.22658863 0.6651504,0.44787073 0.2496314,-0.0971094 0.5371342,-0.1050692 0.805968,0.005307 0.1569749,0.0627199 0.2909513,0.15834151 0.3971639,0.27580311 L 9.4502351,0.9898947 C 9.7894778,0.49585719 10.464763,0.3716845 10.959225,0.7091795 c 0.455813,0.311451 0.597283,0.9080594 0.349792,1.3844624 0.09246,0.029398 0.181733,0.073851 0.265219,0.1316119 0.230962,0.1591958 0.379781,0.3916216 0.436855,0.6426202 0.301371,0 0.602209,0.1215195 0.816636,0.3645583 0.301371,0.3348417 0.352578,0.8071225 0.165888,1.1907842 0.312039,0.2998186 0.426187,0.7720995 0.246964,1.1934375 -0.144018,0.3454548 -0.448056,0.5778807 -0.792633,0.6426202 -0.01387,0.3183915 -0.168555,0.6267006 -0.445389,0.826226 -0.244298,0.1756459 -0.534468,0.235079 -0.808636,0.1915655 -0.100279,0.253652 -0.298704,0.4696275 -0.570205,0.5884937 -0.2715,0.1188661 -0.564337,0.1188661 -0.819303,0.021757 -0.1520192,0.229242 -0.3877821,0.3995815 -0.6758184,0.4616678 -0.078943,0.01645 -0.1546861,0.02441 -0.230429,0.02441 -0.5029966,0 -0.9505196,-0.3454548 -1.0620003,-0.850636 C 7.7672957,7.2077023 7.8449131,6.8949703 8.0232682,6.6540036 6.6840775,6.5534225 5.5836417,6.0182587 5.1658177,5.3036916 c 0.02312,0.083565 0.034283,0.17137 0.034283,0.2614887 0,0.1347857 -0.024536,0.2647956 -0.070409,0.3831311 0.08161,0.059433 0.1573531,0.1294792 0.222428,0.2106691 0.02987,0.037676 0.054407,0.075883 0.078943,0.1135596 0.019202,-0.00265 0.035204,-0.00796 0.054407,-0.010613 0.5888743,-0.116213 1.158546,0.2647956 1.2753607,0.850636 C 6.8776451,7.6984034 6.4946635,8.265671 5.9057895,8.3813532 5.8353806,8.3951502 5.7649717,8.40311 5.6940295,8.40311 5.3121148,8.40311 4.9595371,8.1977475 4.7664461,7.8793559 4.3647956,7.9791186 3.9252736,7.8443329 3.6511058,7.5015313 3.4041414,7.1910996 3.3556019,6.788865 3.4878853,6.4434102 3.2110504,6.2491914 3.0291609,5.9249627 3.0291609,5.5604044 3.0318279,5.2229094 3.189181,4.9204375 3.4334784,4.7209121 3.2979947,4.4348904 3.2867933,4.0915582 3.4388124,3.786433 3.5934985,3.4653883 3.8868688,3.2573725 4.212243,3.1952861 4.2314455,2.8630976 4.4021336,2.5447061 4.7061719,2.3504873 4.9910077,2.1668815 5.3275834,2.1318585 5.6262876,2.2263146 5.6482332,2.1900802 5.6722687,2.1551397 5.6982736,2.1216879 5.6792974,2.1182049 5.6602345,2.1125691 5.6412228,2.1063872 5.0710178,1.9201281 4.7616455,1.3072245 4.9488691,0.74314082 5.1360926,0.17587327 5.7495031,-0.13190519 6.3197082,0.05435384 Z"
                   fill="#674f3f"
                   id="path110" />
                <path
                   d="m 12.658639,9.1343492 c -0.04214,0.3353723 -0.08321,0.6808271 0.0043,1.0071788 0.08801,0.326351 0.337643,0.633599 0.673685,0.684541 0.05974,0.009 0.121615,0.01008 0.177622,0.03396 0.10188,0.04298 0.158954,0.149114 0.20696,0.248346 0.116281,0.238793 0.230429,0.487139 0.42512,0.668622 0.194691,0.181483 0.494462,0.280184 0.733959,0.163441 0.338176,-0.164503 0.37338,-0.637314 0.270434,-0.998158 C 15.007768,10.439752 14.699462,10.000903 14.371421,9.5933616 13.88976,8.9947855 13.032586,7.7217501 12.11247,7.8459228 10.97046,8.0008734 11.93058,9.0871191 12.658672,9.1343472 Z"
                   fill="#674f3f"
                   id="path111" />
              </g>
            </g>
            <path
               d="M 38.233077,33.625088 C 37.827692,32.42316 36.358174,30.841816 35.20763,30.104739 31.95122,28.017683 24.842592,26.807795 24.842592,26.807795 l 0.987858,4.852287 -2.488313,9.392019 h 7.786579 4.410155 5.513761 c -1.328701,-3.511859 -2.504316,-6.492534 -2.819555,-7.427013 z"
               fill="#f7a5c4"
               fill-rule="nonzero"
               id="path112" />
            <g
               transform="translate(13,25)"
               fill="#ffd3e4"
               fill-rule="nonzero"
               id="g114">
              <path
                 d="m 3.9725766,0 c 0,0 -0.5748224,0.69680603 -1.8172791,1.2160327 C 0.91284088,1.7352593 0.64318998,3.8874442 0.64318998,3.8874442 H 1.6893285 L 0,5.4412637 c 0,0 1.1519364,2.9173203 2.9810557,6.1376833 H 5.2631579 C 4.848751,8.5203357 3.8656329,5.8315523 3.8996257,1.2164187 Z"
                 fill="#ffd3e4"
                 id="path113" />
              <path
                 d="M 14.847536,5.8126255 13.157227,4.2587542 h 1.046746 c 0,0 -0.269426,-2.1522566 -1.512986,-2.6715005 -1.243178,-0.519244 -1.802666,-1.21607326 -1.802666,-1.21607326 l 0.07299,1.21607326 C 10.995321,6.2025411 10.003609,8.8914141 9.5843755,11.950128 H 11.864746 C 13.69531,8.7304292 14.847533,5.8126255 14.847533,5.8126255 Z"
                 fill="#ffd3e4"
                 id="path114" />
            </g>
            <g
               transform="translate(5.5,37.5)"
               fill="#f6c6cb"
               fill-rule="nonzero"
               id="g116">
              <path
                 d="M 0.22343187,0.02918589 C 0.33651277,1.062897 0.42879104,2.2849898 0.5045339,3.5442282 H 0.77656813 C 0.70029187,2.2749074 0.60694679,1.0427322 0.49333249,5.3065252e-4 Z"
                 fill="#f6c6cb"
                 id="path115" />
              <path
                 d="M 29.837291,0.02918589 29.56739,0 c -0.115748,1.0586518 -0.209093,2.2897656 -0.284302,3.5436976 h 0.272034 C 29.629798,2.299848 29.72261,1.0793472 29.837291,0.02918589 Z"
                 fill="#f6c6cb"
                 id="path116" />
            </g>
          </g>
        </g>
      </g>
    </g>
  </g>
</svg>
