<svg xmlns:xlink="http://www.w3.org/1999/xlink" xmlns="http://www.w3.org/2000/svg" class="feat-egs-graphics" width="636" height="450" viewBox="0 0 636 450"> <defs> <filter x="-41%" y="-41%" width="182%" height="182%" filterUnits="objectBoundingBox" id="tID-Shadow"> <feGaussianBlur stdDeviation="10" in="SourceGraphic"></feGaussianBlur> </filter> <filter x="-40.0%" y="-40.0%" width="180.0%" height="180.0%" filterUnits="objectBoundingBox" id="GDPR-Shadow"> <feGaussianBlur stdDeviation="10" in="SourceGraphic"></feGaussianBlur> </filter> <filter x="-40.0%" y="-40.0%" width="180.0%" height="180.0%" filterUnits="objectBoundingBox" id="OAuth-Shadow"> <feGaussianBlur stdDeviation="10" in="SourceGraphic"></feGaussianBlur> </filter> <filter x="-40.0%" y="-40.0%" width="180.0%" height="180.0%" filterUnits="objectBoundingBox" id="HIPAA-Shadow"> <feGaussianBlur stdDeviation="10" in="SourceGraphic"></feGaussianBlur> </filter> </defs> <g stroke="none" stroke-width="1" fill="none" fill-rule="evenodd"> <g transform="translate(30, 10)" fill="none"> <circle class="egs-bg-circle" fill="#F4F5FD" fill-rule="nonzero" cx="288" cy="220" r="220"> </circle> <g class="egs-laptop" transform="translate(38, 87)" fill="none"> <line x1="0" y1="260" x2="499" y2="260" stroke="#000000" stroke-width="7px" stroke-linecap="round" stroke-linejoin="round" fill="none"></line> <rect fill="#333333" fill-rule="nonzero" x="62" y="0" width="375" height="253" rx="14"> </rect> <rect fill="#FFFFFF" fill-rule="nonzero" x="69" y="7" width="361" height="239" rx="8"> </rect> <path d="M69,44 L153,44 L153,246 L77,246 C72.581722,246 69,242.418278 69,238 L69,44 L69,44 Z" fill="#272D42" fill-rule="nonzero"></path> <path d="M77,7 L422,7 C426.418278,7 430,10.581722 430,15 L430,44 L430,44 L69,44 L69,15 C69,10.581722 72.581722,7 77,7 Z" fill="#272D42" fill-rule="nonzero"></path> <g transform="translate(343, 20)" fill="#5C6275" fill-rule="nonzero"> <rect x="0" y="0" width="12" height="12" rx="5.75892644" fill="#5C6275"></rect> <rect x="20" y="0" width="12" height="12" rx="5.75892644" fill="#5C6275"></rect> <rect x="40" y="0" width="12" height="12" rx="5.75892644" fill="#5C6275"></rect> <rect x="61" y="0" width="12" height="12" rx="5.75892644" fill="#5C6275"></rect> </g> <g id="ZyLogo" transform="translate(79, 19)" fill-rule="nonzero" fill="none"> <rect fill="#55B3FF" x="0" y="0" width="13" height="13" rx="2.87946322"></rect> <polygon fill="#FFFFFF" points="3.66432928 10 9.14381563 10 9.14381563 8.77468154 5.48508361 8.77468154 5.48508361 8.68610431 9.04539648 3.86602629 9.04539648 2.89905811 3.74552508 2.89905811 3.74552508 4.12437656 7.23448406 4.12437656 7.23448406 4.2129538 3.66432928 9.03057134"> </polygon> <g transform="translate(20, 2)" fill="#FFFFFF" font-family="sans-serif" font-size="8.5" font-weight="bold"> <text fill="#FFFFFF"> <tspan x="0" y="8" fill="#FFFFFF">Zylker</tspan> </text> </g> </g> <g transform="translate(79, 49)" fill-rule="nonzero" fill="none"> <rect fill="#575C6E" x="0" y="0" width="23" height="2" rx="1"></rect> <rect fill="#575C6E" x="0" y="12" width="30" height="2" rx="1"></rect> <rect fill="#575C6E" x="0" y="23" width="20" height="2" rx="1"></rect> <rect fill="#575C6E" x="0" y="35" width="43" height="2" rx="1"></rect> <rect fill="#575C6E" x="0" y="47" width="35" height="2" rx="1"></rect> <rect fill="#666C81" x="0" y="65" width="42" height="5" rx="2.5"></rect> <rect fill="#575C6E" x="6" y="81" width="24" height="2" rx="1"></rect> <rect fill="#DE4949" x="58" y="81" width="6" height="6" rx="2.5"></rect> <rect fill="#DE4949" x="58" y="115" width="6" height="6" rx="2.5"></rect> <rect fill="#575C6E" x="6" y="93" width="37" height="2" rx="1"></rect> <rect fill="#575C6E" x="6" y="104" width="33" height="2" rx="1"></rect> <rect fill="#575C6E" x="6" y="115" width="21" height="2" rx="1"></rect> <rect fill="#575C6E" x="6" y="127" width="35" height="2" rx="1"></rect> <rect fill="#575C6E" x="6" y="139" width="29" height="2" rx="1"></rect> <rect fill="#666C81" x="0" y="159" width="42" height="5" rx="2.5"></rect> <rect fill="#575C6E" x="6" y="175" width="24" height="2" rx="1"></rect> <rect fill="#DE4949" x="58" y="175" width="6" height="6" rx="2.5"></rect> <rect fill="#575C6E" x="6" y="187" width="37" height="2" rx="1"></rect> </g> <g opacity="0.8" transform="translate(168, 59)" fill="#EEEFF4" fill-rule="nonzero"> <rect x="0" y="0" width="105" height="6" rx="2.5" fill="#EEEFF4"></rect> <rect x="0" y="19" width="48" height="6" rx="2.5" fill="#EEEFF4"></rect> <rect x="198" y="19" width="48" height="6" rx="2.5" fill="#EEEFF4"></rect> <rect x="0" y="39" width="245" height="8" rx="2.5" fill="#EEEFF4"></rect> <rect x="0" y="62" width="245" height="8" rx="2.5" fill="#EEEFF4"></rect> <rect x="0" y="93" width="50" height="50" rx="2.5" fill="#EEEFF4"></rect> <rect x="66" y="93" width="50" height="50" rx="2.5" fill="#EEEFF4"></rect> <rect x="131" y="93" width="50" height="50" rx="2.5" fill="#EEEFF4"></rect> <rect x="195" y="93" width="50" height="50" rx="2.5" fill="#EEEFF4"></rect> <path d="M2.8794632,154 L47.1205368,154 C48.7108204,154 50,155.28918 50,156.879463 L50,187 L50,187 L0,187 L0,156.879463 C0,155.28918 1.28917959,154 2.8794632,154 Z" fill="#EEEFF4"> </path> <path d="M68.8794632,154 L113.120537,154 C114.71082,154 116,155.28918 116,156.879463 L116,187 L116,187 L66,187 L66,156.879463 C66,155.28918 67.2891796,154 68.8794632,154 Z" fill="#EEEFF4"> </path> <path d="M133.879463,154 L178.120537,154 C179.71082,154 181,155.28918 181,156.879463 L181,187 L181,187 L131,187 L131,156.879463 C131,155.28918 132.28918,154 133.879463,154 Z" fill="#EEEFF4"> </path> <path d="M197.879463,154 L242.120537,154 C243.71082,154 245,155.28918 245,156.879463 L245,187 L245,187 L195,187 L195,156.879463 C195,155.28918 196.28918,154 197.879463,154 Z" fill="#EEEFF4"> </path> </g> </g> <path class="egs-security-shield" d="M177.36159,292.373523 C192.378108,288.76763 205.13634,281.976456 215.636283,272 C226.169499,282.008069 238.975336,288.810638 254.053796,292.407706 L254.053673,292.408221 C255.045913,292.645787 255.819065,293.423085 256.051321,294.416582 C259.776953,310.334186 258.160844,325.268863 251.202459,339.220736 C244.477475,352.704632 233.68553,363.420009 218.826627,371.366866 L218.827384,371.368283 C216.865662,372.416907 214.49543,372.348782 212.597176,371.189215 C196.691701,361.464413 185.849313,350.808304 180.070107,339.220736 C174.128813,327.308175 172.54893,312.426652 175.330457,294.576166 L175.330474,294.576168 C175.499939,293.498912 176.301629,292.629807 177.361729,292.3741 L177.36159,292.373523 Z" stroke="#000000" stroke-width="0.5px" fill="#4749E3" fill-rule="nonzero"></path> <g class="otp-authentication" transform="translate(239, 328)" fill-rule="nonzero" fill="none"> <path d="M14.9285714,1.77635684e-15 L93.0714286,1.77635684e-15 C101.316251,1.77635684e-15 108,6.68374909 108,14.9285714 C108,23.1733938 101.316251,29.8571429 93.0714286,29.8571429 L82.7419355,29.8571429 L82.7419355,29.8571429 L77.1290323,41 L68.7096774,29.8571429 L14.9285714,29.8571429 C6.68374909,29.8571429 0,23.1733938 0,14.9285714 C0,6.68374909 6.68374909,1.77635684e-15 14.9285714,1.77635684e-15 L14.9285714,1.77635684e-15 Z" stroke="#000000" stroke-width="0.5px" fill="#E4743D" transform="translate(54, 20.5) scale(-1, 1) translate(-54, -20.5)"></path> <g transform="translate(17, 10)" fill="#FFFFFF"> <polygon points="3.26034713 5.51630435 0 4.98641304 0.818441049 2.11956522 3.90436632 3.5326087 3.43476899 0 6.64144786 0 6.1450164 3.5326087 9.23094167 2.11956522 10.0493827 4.98641304 6.76220145 5.51630435 9.15043927 8.20652174 6.69511612 10 4.99114869 6.73913043 3.32743246 10 0.872109314 8.20652174" fill="#FFFFFF"> </polygon> <polygon points="16.0504706 5.51630435 12.7901235 4.98641304 13.6085645 2.11956522 16.6944898 3.5326087 16.2248924 0 19.4315713 0 18.9351399 3.5326087 22.0210651 2.11956522 22.8395062 4.98641304 19.5523249 5.51630435 21.9405627 8.20652174 19.4852396 10 17.7812721 6.73913043 16.1175559 10 13.6622328 8.20652174" fill="#FFFFFF"> </polygon> <polygon points="28.840594 5.51630435 25.5802469 4.98641304 26.398688 2.11956522 29.4846132 3.5326087 29.0150159 0 32.2216948 0 31.7252633 3.5326087 34.8111886 2.11956522 35.6296296 4.98641304 32.3424484 5.51630435 34.7306862 8.20652174 32.275363 10 30.5713956 6.73913043 28.9076794 10 26.4523562 8.20652174" fill="#FFFFFF"> </polygon> <polygon points="41.6307175 5.51630435 38.3703704 4.98641304 39.1888114 2.11956522 42.2747367 3.5326087 41.8051394 0 45.0118182 0 44.5153868 3.5326087 47.601312 2.11956522 48.4197531 4.98641304 45.1325718 5.51630435 47.5208096 8.20652174 45.0654865 10 43.3615191 6.73913043 41.6978028 10 39.2424797 8.20652174" fill="#FFFFFF"> </polygon> <polygon points="54.420841 5.51630435 51.1604938 4.98641304 51.9789349 2.11956522 55.0648601 3.5326087 54.5952628 0 57.8019417 0 57.3055102 3.5326087 60.3914355 2.11956522 61.2098765 4.98641304 57.9226953 5.51630435 60.3109331 8.20652174 57.8556099 10 56.1516425 6.73913043 54.4879263 10 52.0326031 8.20652174" fill="#FFFFFF"> </polygon> <polygon points="67.2109644 5.51630435 63.9506173 4.98641304 64.7690583 2.11956522 67.8549836 3.5326087 67.3853863 0 70.5920651 0 70.0956337 3.5326087 73.181559 2.11956522 74 4.98641304 70.7128187 5.51630435 73.1010566 8.20652174 70.6457334 10 68.941766 6.73913043 67.2780497 10 64.8227266 8.20652174" fill="#FFFFFF"> </polygon> </g> </g> <g class="egs-lock" transform="translate(203, 303)" fill="none"> <path d="M20.1632,33 L5.8368,33 C2.61322437,33 -2.22044605e-16,30.3867756 -2.22044605e-16,27.1632 L-2.22044605e-16,13.9456 C-2.22044605e-16,12.8710748 0.871074791,12 1.9456,12 L24.0544,12 C25.1289252,12 26,12.8710748 26,13.9456 L26,27.1632 C26,30.3867756 23.3867756,33 20.1632,33 Z" stroke="#FFFFFF" stroke-width="2px" fill="#FFFFFF" fill-rule="nonzero"></path> <path d="M13.5,19 C15.4329966,19 17,20.5670034 17,22.5 C17,24.4329966 15.4329966,26 13.5,26 C11.5670034,26 10,24.4329966 10,22.5 C10,20.5670034 11.5670034,19 13.5,19 Z" fill="#4749E3" fill-rule="nonzero"></path> <path d="M13,0 C16.8659932,0 20,3.13400675 20,7 L20,14 L20,14 L6,14 L6,7 C6,3.13400675 9.13400675,0 13,0 Z" stroke="#FFFFFF" stroke-width="3px" fill="none"></path> </g> <g class="touchID-icon" transform="translate(232, 62)" fill="none"> <path d="M8,10 L65,10 C69.418278,10 73,13.581722 73,18 L73,75 C73,79.418278 69.418278,83 65,83 L8,83 C3.581722,83 0,79.418278 0,75 L0,18 C0,13.581722 3.581722,10 8,10 Z" id="touchID-Shadow" fill="#333333" fill-rule="nonzero" opacity="0.05" filter="url(#tID-Shadow)"></path> <g transform="translate(10, 0)" fill-rule="nonzero" fill="none"> <g fill="#FFD151"> <path d="M20.5110816,-8.28672246e-16 L52.4889184,-8.28672246e-16 C59.6210683,-8.28672246e-16 62.2073582,0.742604889 64.8147656,2.13706163 C67.422173,3.53151837 69.4684816,5.57782696 70.8629384,8.18523437 C72.2573951,10.7926418 73,13.3789317 73,20.5110816 L73,52.4889184 C73,59.6210683 72.2573951,62.2073582 70.8629384,64.8147656 C69.4684816,67.422173 67.422173,69.4684816 64.8147656,70.8629384 C62.2073582,72.2573951 59.6210683,73 52.4889184,73 L20.5110816,73 C13.3789317,73 10.7926418,72.2573951 8.1852344,70.8629384 C5.577827,69.4684816 3.5315184,67.422173 2.1370616,64.8147656 C0.7426049,62.2073582 0,59.6210683 0,52.4889184 L0,20.5110816 C0,13.3789317 0.7426049,10.7926418 2.1370616,8.18523437 C3.5315184,5.57782696 5.577827,3.53151837 8.1852344,2.13706163 C10.7926418,0.742604889 13.3789317,-8.28672246e-16 20.5110816,-8.28672246e-16 Z" fill="#FFD151"> </path> </g> <g fill="#FFFFFF" stroke="#E5EAF2"> <path d="M20.5110816,-8.28672246e-16 L52.4889184,-8.28672246e-16 C59.6210683,-8.28672246e-16 62.2073582,0.742604889 64.8147656,2.13706163 C67.422173,3.53151837 69.4684816,5.57782696 70.8629384,8.18523437 C72.2573951,10.7926418 73,13.3789317 73,20.5110816 L73,52.4889184 C73,59.6210683 72.2573951,62.2073582 70.8629384,64.8147656 C69.4684816,67.422173 67.422173,69.4684816 64.8147656,70.8629384 C62.2073582,72.2573951 59.6210683,73 52.4889184,73 L20.5110816,73 C13.3789317,73 10.7926418,72.2573951 8.1852344,70.8629384 C5.577827,69.4684816 3.5315184,67.422173 2.1370616,64.8147656 C0.7426049,62.2073582 0,59.6210683 0,52.4889184 L0,20.5110816 C0,13.3789317 0.7426049,10.7926418 2.1370616,8.18523437 C3.5315184,5.57782696 5.577827,3.53151837 8.1852344,2.13706163 C10.7926418,0.742604889 13.3789317,-8.28672246e-16 20.5110816,-8.28672246e-16 Z" stroke="#E5EAF2" fill="#FFFFFF"> </path> </g> </g> <g transform="translate(30, 21)" fill="none"> <g stroke-linecap="round" transform="translate(7, 3)" stroke="#FF7660" stroke-width="1.6px" fill="none"> <path d="M4,24 C7.85709791,22.4720678 9.85709791,19.8054012 10,16" stroke="#FF7660" fill="none" stroke-width="1.6px"></path> <path d="M7.37286325,26 C9.86034054,24.6584417 11.7813877,22.9702004 13.1360048,20.9352762 C15.1679304,17.8828899 14.3294838,15.1170436 12.5283882,13.9884694 C10.7272926,12.8598952 8.349122,13.6356596 7.37286325,14.8232507 C6.39660449,16.0108418 6.65122478,17.4093637 6.26425767,18.4931287 C5.87729056,19.5768938 4.79633315,21.359423 2.17490159,20.6603607 C-0.446529975,19.9612985 -0.47332083,15.6090499 0.905122233,12.8598952 C2.2835653,10.1107406 6.08754519,6.69352249 11.3495906,7.02199034 C16.611636,7.35045818 19.7388789,11.7100591 20.3806806,13.7503153 C21.0224823,15.7905716 21.7808778,18.7199563 19.1584818,23.1480129" stroke="#FF7660" fill="none" stroke-width="1.6px"> </path> <path d="M3,17.162268 C3.1035058,14.1781385 4.3753463,12.0512259 6.81552149,10.7815302 C10.4757843,8.87698676 14.8187699,10.6236131 16.3865193,14.178105 C17.9542687,17.732597 16.3865193,21.7415651 13.1697045,25" stroke="#FF7660" fill="none" stroke-width="1.6px"> </path> <path d="M1.07061027e-11,9 C1.99604657,5.82684092 4.72066901,3.90482063 8.17386734,3.23393913 C13.3536648,2.22761688 18.0624828,4.53748196 21,8.82434047" stroke="#FF7660" fill="none" stroke-width="1.6px"> </path> <path d="M1,3 C3.74757512,1 6.76568888,0 10.0543413,0 C13.3429937,0 16.3248799,1 19,3" stroke="#FF7660" fill="none" stroke-width="1.6px"> </path> </g> <path d="M5,0 L2.09,0 C0.935724873,0 0,0.935724873 0,2.09 L0,5 L0,5" stroke="#000000" stroke-width="1" fill="none"></path> <path d="M33,0 L30.09,0 C28.9357249,0 28,0.935724873 28,2.09 L28,5 L28,5" stroke="#000000" stroke-width="1" transform="translate(30.5, 2.5) scale(-1, 1) translate(-30.5, -2.5)" fill="none"></path> <path d="M5,26 L2.09,26 C0.935724873,26 0,26.9357249 0,28.09 L0,31 L0,31" stroke="#000000" stroke-width="1" transform="translate(2.5, 28.5) scale(-1, 1) rotate(-180) translate(-2.5, -28.5)" fill="none"> </path> <path d="M33,26 L30.09,26 C28.9357249,26 28,26.9357249 28,28.09 L28,31 L28,31" stroke="#000000" stroke-width="1" transform="translate(30.5, 28.5) rotate(180) translate(-30.5, -28.5)" fill="none"></path> </g> </g> <g class="GDPR-icon" transform="translate(0, 10)" fill="none"> <path d="M8,10 L67,10 C71.418278,10 75,13.581722 75,18 L75,77 C75,81.418278 71.418278,85 67,85 L8,85 C3.581722,85 0,81.418278 0,77 L0,18 C0,13.581722 3.581722,10 8,10 Z" fill="#333333" fill-rule="nonzero" opacity="0.05" filter="url(#GDPR-Shadow)"></path> <g transform="translate(10, 0)" fill-rule="nonzero" fill="none"> <g fill="#FFD151"> <path d="M20.5110816,8.28672246e-16 L54.4889184,8.28672246e-16 C61.6210683,8.28672246e-16 64.2073582,0.742604889 66.8147656,2.13706163 C69.422173,3.53151837 71.4684816,5.57782696 72.8629384,8.18523437 C74.2573951,10.7926418 75,13.3789317 75,20.5110816 L75,54.4889184 C75,61.6210683 74.2573951,64.2073582 72.8629384,66.8147656 C71.4684816,69.422173 69.422173,71.4684816 66.8147656,72.8629384 C64.2073582,74.2573951 61.6210683,75 54.4889184,75 L20.5110816,75 C13.3789317,75 10.7926418,74.2573951 8.1852344,72.8629384 C5.577827,71.4684816 3.5315184,69.422173 2.1370616,66.8147656 C0.7426049,64.2073582 0,61.6210683 0,54.4889184 L0,20.5110816 C0,13.3789317 0.7426049,10.7926418 2.1370616,8.18523437 C3.5315184,5.57782696 5.577827,3.53151837 8.1852344,2.13706163 C10.7926418,0.742604889 13.3789317,8.28672246e-16 20.5110816,8.28672246e-16 Z" fill="#FFD151"> </path> </g> <g fill="#FFFFFF" stroke="#E5EAF2"> <path d="M20.5110816,8.28672246e-16 L54.4889184,8.28672246e-16 C61.6210683,8.28672246e-16 64.2073582,0.742604889 66.8147656,2.13706163 C69.422173,3.53151837 71.4684816,5.57782696 72.8629384,8.18523437 C74.2573951,10.7926418 75,13.3789317 75,20.5110816 L75,54.4889184 C75,61.6210683 74.2573951,64.2073582 72.8629384,66.8147656 C71.4684816,69.422173 69.422173,71.4684816 66.8147656,72.8629384 C64.2073582,74.2573951 61.6210683,75 54.4889184,75 L20.5110816,75 C13.3789317,75 10.7926418,74.2573951 8.1852344,72.8629384 C5.577827,71.4684816 3.5315184,69.422173 2.1370616,66.8147656 C0.7426049,64.2073582 0,61.6210683 0,54.4889184 L0,20.5110816 C0,13.3789317 0.7426049,10.7926418 2.1370616,8.18523437 C3.5315184,5.57782696 5.577827,3.53151837 8.1852344,2.13706163 C10.7926418,0.742604889 13.3789317,8.28672246e-16 20.5110816,8.28672246e-16 Z" stroke="#E5EAF2" fill="#FFFFFF"> </path> </g> </g> <g transform="translate(24, 14)" fill="none"> <circle fill="#184BA9" fill-rule="nonzero" cx="22.5" cy="22.5" r="13.5"></circle> <g fill="#333333" fill-rule="nonzero"> <path d="M23.3354382,4.23630279 L22.4583492,4.84678078 C22.2759778,4.97371626 22.0252351,4.92877659 21.8982996,4.74640521 C21.8280036,4.64540922 21.8077918,4.51779705 21.8434378,4.40002151 L22.1530015,3.37721221 C22.2017575,3.21612042 22.1450862,3.04170413 22.0109544,2.94003623 L21.1593199,2.29452309 C20.9822412,2.16030283 20.9474976,1.90794518 21.0817179,1.73086651 C21.1560481,1.63280159 21.2711687,1.57414471 21.3941951,1.5716514 L22.462605,1.54999849 C22.6308789,1.54658817 22.7792462,1.43879297 22.8344891,1.27980888 L23.1852391,0.270381824 C23.2581698,0.0604936563 23.4874398,-0.0505322717 23.697328,0.0223984693 C23.8135626,0.0627870013 23.9049228,0.154147228 23.9453113,0.270381824 L24.2960613,1.27980888 C24.3513042,1.43879297 24.4996715,1.54658817 24.6679454,1.54999849 L25.7363553,1.5716514 C25.9585076,1.57615365 26.1349479,1.7598935 26.1304456,1.98204584 C26.1279523,2.10507225 26.0692954,2.22019285 25.9712305,2.29452309 L25.119596,2.94003623 C24.9854642,3.04170413 24.9287929,3.21612042 24.9775489,3.37721221 L25.2871126,4.40002151 C25.3514796,4.61269221 25.2312556,4.83727561 25.0185849,4.90164257 C24.9008094,4.93728854 24.7731972,4.91707676 24.6722012,4.84678078 L23.7951122,4.23630279 C23.6569713,4.1401529 23.4735791,4.1401529 23.3354382,4.23630279 Z" fill="#333333"> </path> <path d="M23.3354382,45.2363028 L22.4583492,45.8467808 C22.2759778,45.9737162 22.0252351,45.9287766 21.8982996,45.7464052 C21.8280036,45.6454092 21.8077918,45.517797 21.8434378,45.4000215 L22.1530015,44.3772122 C22.2017575,44.2161204 22.1450862,44.0417041 22.0109544,43.9400362 L21.1593199,43.2945231 C20.9822412,43.1603028 20.9474976,42.9079452 21.0817179,42.7308665 C21.1560481,42.6328016 21.2711687,42.5741447 21.3941951,42.5716514 L22.462605,42.5499985 C22.6308789,42.5465882 22.7792462,42.438793 22.8344891,42.2798089 L23.1852391,41.2703818 C23.2581698,41.0604936 23.4874398,40.9494677 23.697328,41.0223984 C23.8135626,41.062787 23.9049228,41.1541472 23.9453113,41.2703818 L24.2960613,42.2798089 C24.3513042,42.438793 24.4996715,42.5465882 24.6679454,42.5499985 L25.7363553,42.5716514 C25.9585076,42.5761536 26.1349479,42.7598935 26.1304456,42.9820458 C26.1279523,43.1050722 26.0692954,43.2201928 25.9712305,43.2945231 L25.119596,43.9400362 C24.9854642,44.0417041 24.9287929,44.2161204 24.9775489,44.3772122 L25.2871126,45.4000215 C25.3514796,45.6126922 25.2312556,45.8372756 25.0185849,45.9016426 C24.9008094,45.9372885 24.7731972,45.9170767 24.6722012,45.8467808 L23.7951122,45.2363028 C23.6569713,45.1401529 23.4735791,45.1401529 23.3354382,45.2363028 Z" fill="#333333"> </path> <path d="M33.3354382,7.23630279 L32.4583492,7.84678078 C32.2759778,7.97371626 32.0252351,7.92877659 31.8982996,7.74640521 C31.8280036,7.64540922 31.8077918,7.51779705 31.8434378,7.40002151 L32.1530015,6.37721221 C32.2017575,6.21612042 32.1450862,6.04170413 32.0109544,5.94003623 L31.1593199,5.29452309 C30.9822412,5.16030283 30.9474976,4.90794518 31.0817179,4.73086651 C31.1560481,4.63280159 31.2711687,4.57414471 31.3941951,4.5716514 L32.462605,4.54999849 C32.6308789,4.54658817 32.7792462,4.43879297 32.8344891,4.27980888 L33.1852391,3.27038182 C33.2581698,3.06049365 33.4874398,2.94946772 33.697328,3.02239846 C33.8135626,3.062787 33.9049228,3.15414722 33.9453113,3.27038182 L34.2960613,4.27980888 C34.3513042,4.43879297 34.4996715,4.54658817 34.6679454,4.54999849 L35.7363553,4.5716514 C35.9585076,4.57615365 36.1349479,4.7598935 36.1304456,4.98204584 C36.1279523,5.10507225 36.0692954,5.22019285 35.9712305,5.29452309 L35.119596,5.94003623 C34.9854642,6.04170413 34.9287929,6.21612042 34.9775489,6.37721221 L35.2871126,7.40002151 C35.3514796,7.61269221 35.2312556,7.83727561 35.0185849,7.90164257 C34.9008094,7.93728854 34.7731972,7.91707676 34.6722012,7.84678078 L33.7951122,7.23630279 C33.6569713,7.1401529 33.4735791,7.1401529 33.3354382,7.23630279 Z" fill="#333333"> </path> <path d="M12.3354382,7.23630279 L11.4583492,7.84678078 C11.2759778,7.97371626 11.0252351,7.92877659 10.8982996,7.74640521 C10.8280036,7.64540922 10.8077918,7.51779705 10.8434378,7.40002151 L11.1530015,6.37721221 C11.2017575,6.21612042 11.1450862,6.04170413 11.0109544,5.94003623 L10.1593199,5.29452309 C9.98224115,5.16030283 9.94749755,4.90794518 10.0817179,4.73086651 C10.1560481,4.63280159 10.2711687,4.57414471 10.3941951,4.5716514 L11.462605,4.54999849 C11.6308789,4.54658817 11.7792462,4.43879297 11.8344891,4.27980888 L12.1852391,3.27038182 C12.2581698,3.06049365 12.4874398,2.94946772 12.697328,3.02239846 C12.8135626,3.062787 12.9049228,3.15414722 12.9453113,3.27038182 L13.2960613,4.27980888 C13.3513042,4.43879297 13.4996715,4.54658817 13.6679454,4.54999849 L14.7363553,4.5716514 C14.9585076,4.57615365 15.1349479,4.7598935 15.1304456,4.98204584 C15.1279523,5.10507225 15.0692954,5.22019285 14.9712305,5.29452309 L14.119596,5.94003623 C13.9854642,6.04170413 13.9287929,6.21612042 13.9775489,6.37721221 L14.2871126,7.40002151 C14.3514796,7.61269221 14.2312556,7.83727561 14.0185849,7.90164257 C13.9008094,7.93728854 13.7731972,7.91707676 13.6722012,7.84678078 L12.7951122,7.23630279 C12.6569713,7.1401529 12.4735791,7.1401529 12.3354382,7.23630279 Z" fill="#333333"> </path> <path d="M33.3276688,42.767492 L32.3519642,43.481558 C32.1726556,43.6127844 31.9209173,43.5738061 31.7896909,43.3944975 C31.716176,43.2940463 31.6932986,43.1652232 31.7277313,43.0456018 L32.0912499,41.7827134 C32.1362652,41.626327 32.0826364,41.4582233 31.9553733,41.3567975 L30.9350195,40.5435996 C30.761256,40.4051142 30.7326575,40.1519865 30.8711429,39.978223 C30.9456076,39.8847891 31.0577476,39.8292847 31.1771981,39.8267393 L32.4160093,39.8003409 C32.5863748,39.7967106 32.735975,39.6861461 32.7894441,39.524348 L33.1832691,38.3326278 C33.2529899,38.1216516 33.4805397,38.0071416 33.6915159,38.0768624 C33.8124493,38.116827 33.9073167,38.2116944 33.9472813,38.3326278 L34.3411063,39.524348 C34.3945754,39.6861461 34.5441756,39.7967106 34.7145411,39.8003409 L35.9533523,39.8267393 C36.1754999,39.8314732 36.3517485,40.0153969 36.3470146,40.2375444 C36.3444692,40.3569949 36.2889649,40.4691349 36.1955309,40.5435996 L35.1751771,41.3567975 C35.047914,41.4582233 34.9942852,41.626327 35.0393005,41.7827134 L35.4028191,43.0456018 C35.4642825,43.2591298 35.3410098,43.4820543 35.1274819,43.5435177 C35.0078605,43.5779503 34.8790374,43.5550729 34.7785862,43.481558 L33.8028816,42.767492 C33.6613982,42.6639479 33.4691522,42.6639479 33.3276688,42.767492 Z" fill="#333333"> </path> <path d="M12.3354382,42.2363028 L11.4583492,42.8467808 C11.2759778,42.9737162 11.0252351,42.9287766 10.8982996,42.7464052 C10.8280036,42.6454092 10.8077918,42.517797 10.8434378,42.4000215 L11.1530015,41.3772122 C11.2017575,41.2161204 11.1450862,41.0417041 11.0109544,40.9400362 L10.1593199,40.2945231 C9.98224115,40.1603028 9.94749755,39.9079452 10.0817179,39.7308665 C10.1560481,39.6328016 10.2711687,39.5741447 10.3941951,39.5716514 L11.462605,39.5499985 C11.6308789,39.5465882 11.7792462,39.438793 11.8344891,39.2798089 L12.1852391,38.2703818 C12.2581698,38.0604936 12.4874398,37.9494677 12.697328,38.0223984 C12.8135626,38.062787 12.9049228,38.1541472 12.9453113,38.2703818 L13.2960613,39.2798089 C13.3513042,39.438793 13.4996715,39.5465882 13.6679454,39.5499985 L14.7363553,39.5716514 C14.9585076,39.5761536 15.1349479,39.7598935 15.1304456,39.9820458 C15.1279523,40.1050722 15.0692954,40.2201928 14.9712305,40.2945231 L14.119596,40.9400362 C13.9854642,41.0417041 13.9287929,41.2161204 13.9775489,41.3772122 L14.2871126,42.4000215 C14.3514796,42.6126922 14.2312556,42.8372756 14.0185849,42.9016426 C13.9008094,42.9372885 13.7731972,42.9170767 13.6722012,42.8467808 L12.7951122,42.2363028 C12.6569713,42.1401529 12.4735791,42.1401529 12.3354382,42.2363028 Z" fill="#333333"> </path> <path d="M40.3354382,14.2363028 L39.4583492,14.8467808 C39.2759778,14.9737162 39.0252351,14.9287766 38.8982996,14.7464052 C38.8280036,14.6454092 38.8077918,14.517797 38.8434378,14.4000215 L39.1530015,13.3772122 C39.2017575,13.2161204 39.1450862,13.0417041 39.0109544,12.9400362 L38.1593199,12.2945231 C37.9822412,12.1603028 37.9474976,11.9079452 38.0817179,11.7308665 C38.1560481,11.6328016 38.2711687,11.5741447 38.3941951,11.5716514 L39.462605,11.5499985 C39.6308789,11.5465882 39.7792462,11.438793 39.8344891,11.2798089 L40.1852391,10.2703818 C40.2581698,10.0604936 40.4874398,9.94946772 40.697328,10.0223984 C40.8135626,10.062787 40.9049228,10.1541472 40.9453113,10.2703818 L41.2960613,11.2798089 C41.3513042,11.438793 41.4996715,11.5465882 41.6679454,11.5499985 L42.7363553,11.5716514 C42.9585076,11.5761536 43.1349479,11.7598935 43.1304456,11.9820458 C43.1279523,12.1050722 43.0692954,12.2201928 42.9712305,12.2945231 L42.119596,12.9400362 C41.9854642,13.0417041 41.9287929,13.2161204 41.9775489,13.3772122 L42.2871126,14.4000215 C42.3514796,14.6126922 42.2312556,14.8372756 42.0185849,14.9016426 C41.9008094,14.9372885 41.7731972,14.9170767 41.6722012,14.8467808 L40.7951122,14.2363028 C40.6569713,14.1401529 40.4735791,14.1401529 40.3354382,14.2363028 Z" fill="#333333"> </path> <path d="M4.33543814,14.2363028 L3.45834913,14.8467808 C3.27597775,14.9737162 3.025235,14.9287766 2.89829953,14.7464052 C2.82800355,14.6454092 2.80779177,14.517797 2.84343774,14.4000215 L3.1530014,13.3772122 C3.20175748,13.2161204 3.14508619,13.0417041 3.01095432,12.9400362 L2.15931983,12.2945231 C1.98224116,12.1603028 1.94749756,11.9079452 2.08171783,11.7308665 C2.15604807,11.6328016 2.27116867,11.5741447 2.39419508,11.5716514 L3.46260496,11.5499985 C3.63087881,11.5465882 3.77924617,11.438793 3.83448906,11.2798089 L4.18523901,10.2703818 C4.25816975,10.0604936 4.48743977,9.94946772 4.69732794,10.0223984 C4.81356253,10.062787 4.90492276,10.1541472 4.94531129,10.2703818 L5.29606124,11.2798089 C5.35130413,11.438793 5.49967149,11.5465882 5.66794534,11.5499985 L6.73635522,11.5716514 C6.95850756,11.5761536 7.13494783,11.7598935 7.13044558,11.9820458 C7.12795227,12.1050722 7.06929539,12.2201928 6.97123047,12.2945231 L6.11959598,12.9400362 C5.98546411,13.0417041 5.92879282,13.2161204 5.9775489,13.3772122 L6.28711256,14.4000215 C6.35147952,14.6126922 6.23125558,14.8372756 6.01858488,14.9016426 C5.90080933,14.9372885 5.77319716,14.9170767 5.67220117,14.8467808 L4.79511216,14.2363028 C4.65697122,14.1401529 4.47357908,14.1401529 4.33543814,14.2363028 Z" fill="#333333"> </path> <path d="M40.3354382,35.2363028 L39.4583492,35.8467808 C39.2759778,35.9737162 39.0252351,35.9287766 38.8982996,35.7464052 C38.8280036,35.6454092 38.8077918,35.517797 38.8434378,35.4000215 L39.1530015,34.3772122 C39.2017575,34.2161204 39.1450862,34.0417041 39.0109544,33.9400362 L38.1593199,33.2945231 C37.9822412,33.1603028 37.9474976,32.9079452 38.0817179,32.7308665 C38.1560481,32.6328016 38.2711687,32.5741447 38.3941951,32.5716514 L39.462605,32.5499985 C39.6308789,32.5465882 39.7792462,32.438793 39.8344891,32.2798089 L40.1852391,31.2703818 C40.2581698,31.0604936 40.4874398,30.9494677 40.697328,31.0223984 C40.8135626,31.062787 40.9049228,31.1541472 40.9453113,31.2703818 L41.2960613,32.2798089 C41.3513042,32.438793 41.4996715,32.5465882 41.6679454,32.5499985 L42.7363553,32.5716514 C42.9585076,32.5761536 43.1349479,32.7598935 43.1304456,32.9820458 C43.1279523,33.1050722 43.0692954,33.2201928 42.9712305,33.2945231 L42.119596,33.9400362 C41.9854642,34.0417041 41.9287929,34.2161204 41.9775489,34.3772122 L42.2871126,35.4000215 C42.3514796,35.6126922 42.2312556,35.8372756 42.0185849,35.9016426 C41.9008094,35.9372885 41.7731972,35.9170767 41.6722012,35.8467808 L40.7951122,35.2363028 C40.6569713,35.1401529 40.4735791,35.1401529 40.3354382,35.2363028 Z" fill="#333333"> </path> <path d="M4.33543814,35.2363028 L3.45834913,35.8467808 C3.27597775,35.9737162 3.025235,35.9287766 2.89829953,35.7464052 C2.82800355,35.6454092 2.80779177,35.517797 2.84343774,35.4000215 L3.1530014,34.3772122 C3.20175748,34.2161204 3.14508619,34.0417041 3.01095432,33.9400362 L2.15931983,33.2945231 C1.98224116,33.1603028 1.94749756,32.9079452 2.08171783,32.7308665 C2.15604807,32.6328016 2.27116867,32.5741447 2.39419508,32.5716514 L3.46260496,32.5499985 C3.63087881,32.5465882 3.77924617,32.438793 3.83448906,32.2798089 L4.18523901,31.2703818 C4.25816975,31.0604936 4.48743977,30.9494677 4.69732794,31.0223984 C4.81356253,31.062787 4.90492276,31.1541472 4.94531129,31.2703818 L5.29606124,32.2798089 C5.35130413,32.438793 5.49967149,32.5465882 5.66794534,32.5499985 L6.73635522,32.5716514 C6.95850756,32.5761536 7.13494783,32.7598935 7.13044558,32.9820458 C7.12795227,33.1050722 7.06929539,33.2201928 6.97123047,33.2945231 L6.11959598,33.9400362 C5.98546411,34.0417041 5.92879282,34.2161204 5.9775489,34.3772122 L6.28711256,35.4000215 C6.35147952,35.6126922 6.23125558,35.8372756 6.01858488,35.9016426 C5.90080933,35.9372885 5.77319716,35.9170767 5.67220117,35.8467808 L4.79511216,35.2363028 C4.65697122,35.1401529 4.47357908,35.1401529 4.33543814,35.2363028 Z" fill="#333333"> </path> <path d="M43.3276688,25.767492 L42.3519642,26.481558 C42.1726556,26.6127844 41.9209173,26.5738061 41.7896909,26.3944975 C41.716176,26.2940463 41.6932986,26.1652232 41.7277313,26.0456018 L42.0912499,24.7827134 C42.1362652,24.626327 42.0826364,24.4582233 41.9553733,24.3567975 L40.9350195,23.5435996 C40.761256,23.4051142 40.7326575,23.1519865 40.8711429,22.978223 C40.9456076,22.8847891 41.0577476,22.8292847 41.1771981,22.8267393 L42.4160093,22.8003409 C42.5863748,22.7967106 42.735975,22.6861461 42.7894441,22.524348 L43.1832691,21.3326278 C43.2529899,21.1216516 43.4805397,21.0071416 43.6915159,21.0768624 C43.8124493,21.116827 43.9073167,21.2116944 43.9472813,21.3326278 L44.3411063,22.524348 C44.3945754,22.6861461 44.5441756,22.7967106 44.7145411,22.8003409 L45.9533523,22.8267393 C46.1754999,22.8314732 46.3517485,23.0153969 46.3470146,23.2375444 C46.3444692,23.3569949 46.2889649,23.4691349 46.1955309,23.5435996 L45.1751771,24.3567975 C45.047914,24.4582233 44.9942852,24.626327 45.0393005,24.7827134 L45.4028191,26.0456018 C45.4642825,26.2591298 45.3410098,26.4820543 45.1274819,26.5435177 C45.0078605,26.5779503 44.8790374,26.5550729 44.7785862,26.481558 L43.8028816,25.767492 C43.6613982,25.6639479 43.4691522,25.6639479 43.3276688,25.767492 Z" fill="#333333"> </path> <path d="M2.33543814,24.2363028 L1.45834913,24.8467808 C1.27597775,24.9737162 1.025235,24.9287766 0.898299535,24.7464052 C0.828003555,24.6454092 0.807791775,24.517797 0.843437745,24.4000215 L1.1530014,23.3772122 C1.20175748,23.2161204 1.14508619,23.0417041 1.01095432,22.9400362 L0.159319835,22.2945231 C-0.0177588315,22.1603028 -0.0525024315,21.9079452 0.0817178345,21.7308665 C0.156048075,21.6328016 0.271168675,21.5741447 0.394195085,21.5716514 L1.46260496,21.5499985 C1.63087881,21.5465882 1.77924617,21.438793 1.83448906,21.2798089 L2.18523901,20.2703818 C2.25816975,20.0604936 2.48743977,19.9494677 2.69732794,20.0223984 C2.81356253,20.062787 2.90492276,20.1541472 2.94531129,20.2703818 L3.29606124,21.2798089 C3.35130413,21.438793 3.49967149,21.5465882 3.66794534,21.5499985 L4.73635522,21.5716514 C4.95850756,21.5761536 5.13494783,21.7598935 5.13044558,21.9820458 C5.12795227,22.1050722 5.06929539,22.2201928 4.97123047,22.2945231 L4.11959598,22.9400362 C3.98546411,23.0417041 3.92879282,23.2161204 3.9775489,23.3772122 L4.28711256,24.4000215 C4.35147952,24.6126922 4.23125558,24.8372756 4.01858488,24.9016426 C3.90080933,24.9372885 3.77319716,24.9170767 3.67220117,24.8467808 L2.79511216,24.2363028 C2.65697122,24.1401529 2.47357908,24.1401529 2.33543814,24.2363028 Z" fill="#333333"> </path> </g> <g transform="translate(16, 15)" fill="none"> <path d="M6.5,0 C7.88071187,0 9,1.11928813 9,2.5 L9,7 L9,7 L4,7 L4,2.5 C4,1.11928813 5.11928813,0 6.5,0 Z" stroke="#FFD151" stroke-width="1.2px" fill="none"></path> <path d="M10.392934,15 L2.607066,15 C1.16722321,15 -1.11022302e-16,13.8327768 -1.11022302e-16,12.392934 L-1.11022302e-16,5.869022 C-1.11022302e-16,5.3890744 0.389074402,5 0.869022,5 L12.130978,5 C12.6109256,5 13,5.3890744 13,5.869022 L13,12.392934 C13,13.8327768 11.8327768,15 10.392934,15 Z" fill="#FFD151" fill-rule="nonzero"></path> <path d="M6.5,9 C7.32842712,9 8,9.67157288 8,10.5 C8,11.3284271 7.32842712,12 6.5,12 C5.67157288,12 5,11.3284271 5,10.5 C5,9.67157288 5.67157288,9 6.5,9 Z" fill="#184BA9" fill-rule="nonzero"></path> </g> </g> </g> <g class="Oneauth-icon" transform="translate(427, 187)" fill-rule="nonzero" fill="none"> <path d="M8,9 L67,9 C71.418278,9 75,12.581722 75,17 L75,76 C75,80.418278 71.418278,84 67,84 L8,84 C3.581722,84 0,80.418278 0,76 L0,17 C0,12.581722 3.581722,9 8,9 Z" id="Oneauth-Shadow" fill="#333333" opacity="0.05" filter="url(#OAuth-Shadow)"></path> <g transform="translate(10, 0)" fill="none"> <g fill="#FFD151"> <path d="M20.5110816,-8.28672246e-16 L53.4889184,-8.28672246e-16 C60.6210683,-8.28672246e-16 63.2073582,0.742604889 65.8147656,2.13706163 C68.422173,3.53151837 70.4684816,5.57782696 71.8629384,8.18523437 C73.2573951,10.7926418 74,13.3789317 74,20.5110816 L74,53.4889184 C74,60.6210683 73.2573951,63.2073582 71.8629384,65.8147656 C70.4684816,68.422173 68.422173,70.4684816 65.8147656,71.8629384 C63.2073582,73.2573951 60.6210683,74 53.4889184,74 L20.5110816,74 C13.3789317,74 10.7926418,73.2573951 8.1852344,71.8629384 C5.577827,70.4684816 3.5315184,68.422173 2.1370616,65.8147656 C0.7426049,63.2073582 0,60.6210683 0,53.4889184 L0,20.5110816 C0,13.3789317 0.7426049,10.7926418 2.1370616,8.18523437 C3.5315184,5.57782696 5.577827,3.53151837 8.1852344,2.13706163 C10.7926418,0.742604889 13.3789317,-8.28672246e-16 20.5110816,-8.28672246e-16 Z" fill="#FFD151"> </path> </g> <g fill="#FFFFFF" stroke="#E5EAF2"> <path d="M20.5110816,-8.28672246e-16 L53.4889184,-8.28672246e-16 C60.6210683,-8.28672246e-16 63.2073582,0.742604889 65.8147656,2.13706163 C68.422173,3.53151837 70.4684816,5.57782696 71.8629384,8.18523437 C73.2573951,10.7926418 74,13.3789317 74,20.5110816 L74,53.4889184 C74,60.6210683 73.2573951,63.2073582 71.8629384,65.8147656 C70.4684816,68.422173 68.422173,70.4684816 65.8147656,71.8629384 C63.2073582,73.2573951 60.6210683,74 53.4889184,74 L20.5110816,74 C13.3789317,74 10.7926418,73.2573951 8.1852344,71.8629384 C5.577827,70.4684816 3.5315184,68.422173 2.1370616,65.8147656 C0.7426049,63.2073582 0,60.6210683 0,53.4889184 L0,20.5110816 C0,13.3789317 0.7426049,10.7926418 2.1370616,8.18523437 C3.5315184,5.57782696 5.577827,3.53151837 8.1852344,2.13706163 C10.7926418,0.742604889 13.3789317,-8.28672246e-16 20.5110816,-8.28672246e-16 Z" stroke="#E5EAF2" fill="#FFFFFF"> </path> </g> </g> <g transform="translate(29, 20)" fill="none"> <path d="M4.93225235,29 C4.60854626,28.9995162 4.30230129,28.8474044 4.09863633,28.5859429 C2.66355052,26.7435231 1.61444378,24.6100404 1.01846541,22.3220509 C0.915474071,21.7498505 1.25280558,21.1914359 1.79347245,21.0391135 C2.33413932,20.886791 2.89670225,21.1916777 3.0859406,21.7395796 C3.60323194,23.7299648 4.5148038,25.5861615 5.76228678,27.1893146 C6.02141101,27.5225987 6.07319717,27.9809495 5.89540705,28.3675401 C5.71761694,28.7541307 5.34188757,29.0001688 4.92956616,29 L4.93225235,29 Z" fill="#4E5BBE"></path> <path d="M17.6574017,35 C13.9688898,35.0023342 10.3747667,33.9060183 7.39267641,31.8689456 C6.94657547,31.5073934 6.87018463,30.8853471 7.21695435,30.4380508 C7.56372407,29.9907545 8.21792719,29.8674841 8.72181946,30.1544915 C13.9417917,33.715486 20.9894548,33.7933346 26.2973039,30.3486308 C26.808275,30.0703245 27.4613481,30.2069512 27.7979594,30.6625769 C28.1345708,31.1182025 28.0418411,31.7400375 27.5848817,32.0914523 C24.6684515,33.9875013 21.2044085,35.0022968 17.656457,35" fill="#4E5BBE"></path> <path d="M30.1077277,28.9981648 C29.6762289,28.9949642 29.2852584,28.746655 29.1036612,28.3604723 C28.9220639,27.9742896 28.9823787,27.5194299 29.2585579,27.1923296 C31.5340983,24.5363445 32.7808694,21.1700982 32.7770784,17.6924252 C32.7770784,17.5364333 32.7770784,17.3841119 32.7687076,17.2336256 C32.7180453,16.821294 32.9068719,16.4159216 33.2570224,16.1853127 C33.6071728,15.9547038 34.0590604,15.9381021 34.4256258,16.14238 C34.7921912,16.3466579 35.0110542,16.7370523 34.9916163,17.1519593 L34.9916163,17.1657233 C34.9971969,17.3409847 35.0000128,17.5153286 35.0000128,17.6915076 C35.0049548,21.6887338 33.5722774,25.5580571 30.9568974,28.6109379 C30.7451135,28.8573929 30.4342985,28.9996425 30.1067976,29" fill="#4E5BBE"></path> <path d="M32.90809,14 C32.4289431,13.9985109 32.0063698,13.6743437 31.865023,13.1998356 C30.6949837,9.26838092 28.0486219,5.98978413 24.5215756,4.10198554 C24.0355298,3.79218289 23.8604666,3.1474818 24.1192675,2.62041454 C24.3780684,2.09334729 24.983987,1.86057896 25.5117136,2.08549564 L25.5199268,2.08549564 C29.5707422,4.25411092 32.6098053,8.0201652 33.9529822,12.5358694 C34.1275596,13.1352225 33.8009064,13.767898 33.2229265,13.9498715 C33.1207973,13.9819325 33.0147951,13.9988102 32.90809,14 L32.90809,14 Z" fill="#4E5BBE"></path> <path d="M1.18779341,18.9951147 C0.531793223,18.9951147 0,18.4701765 0,17.8226324 C0.0141048816,11.3832081 3.49414302,5.43638917 9.13809062,2.20712227 C9.50575161,1.95696021 9.98448527,1.93148204 10.377263,2.14117362 C10.7700407,2.3508652 11.0104889,2.76029178 10.9996482,3.20094891 C10.9888076,3.64160604 10.72851,4.03902925 10.325884,4.22965423 C5.41014913,7.04089619 2.37889392,12.2196284 2.36667837,17.8275177 C2.36667837,18.4750618 1.83488514,19 1.17888496,19" fill="#4E5BBE"></path> <path d="M17.0026158,29 C12.1197795,29.0017949 7.82045471,25.7043955 6.44575452,20.9033353 C5.07105432,16.1022751 6.95018971,10.9473043 11.0599143,8.24546121 C11.5807123,7.95884279 12.22905,8.13115193 12.5482486,8.64101678 C12.8674471,9.15088163 12.750002,9.82658225 12.2786398,10.1921657 C9.0128823,12.3408616 7.52117009,16.4390299 8.61605327,20.2543587 C9.71093645,24.0696875 13.1301034,26.688102 17.0111007,26.6833264 C20.892098,26.6785509 24.3051181,24.0517293 25.3910558,20.233717 C26.4769935,16.4157047 24.9756804,12.3212193 21.7048962,10.1805667 C21.3313814,9.97393222 21.1020787,9.57053261 21.1109498,9.13566954 C21.119821,8.70080647 21.3653747,8.30757831 21.7469902,8.11711876 C22.1286056,7.9266592 22.5821351,7.97098357 22.9217351,8.231929 C27.0392587,10.9273956 28.9278131,16.0831689 27.5580596,20.8891435 C26.188306,25.695118 21.8886654,28.9989835 17.0026158,29" fill="#4E5BBE"></path> <path d="M17,19 L17,19 C17,18.4477153 17.4421347,18 17.9875355,18 L20.0124645,18 C20.5578653,18 21,18.4477153 21,19 C21,19.5522847 20.5578653,20 20.0124645,20 L17.9875355,20 C17.4421347,20 17,19.5522847 17,19" fill="#F6CC1B"></path> <path d="M14.5296323,22.996115 C14.029352,22.9962896 13.5853526,22.6756246 13.4282294,22.2006605 C13.1415054,21.3391695 12.9971611,20.4366933 13.0008773,19.528749 C12.9768982,17.9370051 13.4449968,16.3766822 14.3412088,15.0609946 C15.1522676,13.8190558 16.5174489,13.0500345 17.9999254,13 C20.8039378,13 23.0000534,15.8719891 23.0000534,19.536519 C23.0032307,20.4400694 22.8598888,21.3381671 22.5755064,22.1958042 C22.3377689,22.7524772 21.7134574,23.0345024 21.1386005,22.8449092 C20.5637436,22.655316 20.229707,22.0572186 20.369787,21.4683372 L20.369787,21.4683372 C20.5760076,20.8482713 20.679675,20.1987123 20.6767034,19.5452603 C20.6767034,17.256993 19.45098,15.3280886 17.9989542,15.3280886 C17.2719721,15.3918248 16.6170875,15.7931693 16.2302993,16.4120047 C15.6182619,17.3379222 15.301603,18.4277665 15.3221761,19.5374903 C15.3188568,20.194857 15.4228532,20.8483584 15.6300639,21.4722222 C15.7458108,21.8261324 15.685488,22.2140447 15.4677352,22.5160939 C15.2499824,22.8181432 14.9010138,22.9979671 14.528661,23 L14.5296323,22.996115 Z" fill="#F6CC1B"></path> <path d="M17.0037641,14.9961145 C16.4494005,14.9961145 16,14.4742402 16,13.8304756 L16,1.06478634 C16.0450518,0.462379395 16.479298,0 17,0 C17.520702,0 17.9549482,0.462379395 18,1.06478634 L18,13.834361 C18,14.4781257 17.5505995,15 16.9962359,15" fill="#F6CC1B"></path> <path d="M15.1878077,3.99768481 C14.5569302,3.97743189 14.0470025,3.60697053 14.0030478,3.13695922 C13.9590931,2.66694792 14.395125,2.24723697 15.0161193,2.16180773 C15.8733996,2.07389154 16.7366782,2.02236188 17.6017878,2.00746749 C18.067293,1.96314931 18.5264925,2.11852195 18.788516,2.40900339 C19.0505395,2.69948484 19.0705738,3.07539494 18.8402916,3.38048331 C18.6100093,3.68557167 18.168795,3.86765998 17.7000432,3.85106159 C16.9179795,3.86510463 16.137596,3.9119954 15.3625989,3.99151121 C15.304299,3.99718198 15.2455666,4 15.1867734,4" fill="#F6CC1B"></path> </g> </g> <g class="HIPAA-icon" transform="translate(491, 12)" fill-rule="nonzero" fill="none"> <path d="M18,10 L77,10 C81.418278,10 85,13.581722 85,18 L85,77 C85,81.418278 81.418278,85 77,85 L18,85 C13.581722,85 10,81.418278 10,77 L10,18 C10,13.581722 13.581722,10 18,10 Z" fill="#333333" opacity="0.05" filter="url(#HIPAA-Shadow)"></path> <g fill="none"> <g fill="#FFD151"> <path d="M20.5110816,8.28672246e-16 L54.4889184,8.28672246e-16 C61.6210683,8.28672246e-16 64.2073582,0.742604889 66.8147656,2.13706163 C69.422173,3.53151837 71.4684816,5.57782696 72.8629384,8.18523437 C74.2573951,10.7926418 75,13.3789317 75,20.5110816 L75,54.4889184 C75,61.6210683 74.2573951,64.2073582 72.8629384,66.8147656 C71.4684816,69.422173 69.422173,71.4684816 66.8147656,72.8629384 C64.2073582,74.2573951 61.6210683,75 54.4889184,75 L20.5110816,75 C13.3789317,75 10.7926418,74.2573951 8.18523437,72.8629384 C5.57782696,71.4684816 3.53151837,69.422173 2.13706163,66.8147656 C0.742604889,64.2073582 5.52448164e-16,61.6210683 5.52448164e-16,54.4889184 L5.52448164e-16,20.5110816 C5.52448164e-16,13.3789317 0.742604889,10.7926418 2.13706163,8.18523437 C3.53151837,5.57782696 5.57782696,3.53151837 8.18523437,2.13706163 C10.7926418,0.742604889 13.3789317,8.28672246e-16 20.5110816,8.28672246e-16 Z" fill="#FFD151"> </path> </g> <g fill="#FFFFFF" stroke="#E5EAF2" stroke-width="0.949367px"> <path d="M20.5110816,8.28672246e-16 L54.4889184,8.28672246e-16 C61.6210683,8.28672246e-16 64.2073582,0.742604889 66.8147656,2.13706163 C69.422173,3.53151837 71.4684816,5.57782696 72.8629384,8.18523437 C74.2573951,10.7926418 75,13.3789317 75,20.5110816 L75,54.4889184 C75,61.6210683 74.2573951,64.2073582 72.8629384,66.8147656 C71.4684816,69.422173 69.422173,71.4684816 66.8147656,72.8629384 C64.2073582,74.2573951 61.6210683,75 54.4889184,75 L20.5110816,75 C13.3789317,75 10.7926418,74.2573951 8.18523437,72.8629384 C5.57782696,71.4684816 3.53151837,69.422173 2.13706163,66.8147656 C0.742604889,64.2073582 5.52448164e-16,61.6210683 5.52448164e-16,54.4889184 L5.52448164e-16,20.5110816 C5.52448164e-16,13.3789317 0.742604889,10.7926418 2.13706163,8.18523437 C3.53151837,5.57782696 5.57782696,3.53151837 8.18523437,2.13706163 C10.7926418,0.742604889 13.3789317,8.28672246e-16 20.5110816,8.28672246e-16 Z" stroke="#E5EAF2" fill="#FFFFFF" stroke-width="0.949367px"> </path> </g> </g> <g class="Icon" transform="translate(14, 19)" fill="none"> <path d="M19.0995757,0.000498759567 C29.496253,-0.077192961 37.9676198,8.93504663 37.9676198,19.4234289 C37.9676198,29.9118111 29.6502779,38.9240507 19.2536005,38.9240507 C8.85692314,38.9240507 -0.0765181634,29.9895029 0.000494261602,19.5011206 C0.0775066866,8.62427974 9.62704739,0.0781904802 19.0995757,0.000498759567 Z" fill="#FFFFFF"></path> <g fill="#484FC1"> <path d="M19.4252939,12.4944947 C20.8765387,12.3394811 22.0986396,11.3318926 22.4041648,9.93677011 C22.6333087,9.16170202 22.8624526,8.38663394 23.0915966,7.61156586 C23.5498844,6.0614297 25.0775105,5.05384119 26.681518,5.36386842 C28.0563815,5.51888204 29.3548637,6.13893651 30.424202,7.0690182 C32.9447851,9.08419522 35.8472747,10.5568245 38.9789083,11.2543858 C39.7427214,11.4093994 40.5829157,11.4093994 41.4994914,11.564413 C40.8120597,12.3394811 39.7427214,12.7270152 38.6733831,12.6495084 C36.1528,12.3394811 33.7849795,11.4093994 31.7226842,9.93677011 C30.7297272,9.16170202 29.5840076,8.46414075 28.5146693,7.84408628 C26.3759927,6.75899097 24.9247479,7.30153863 23.8554096,9.47172926 C23.702647,9.70424968 23.6262657,9.8592633 23.5498844,10.0917837 C22.9388339,11.8744403 21.3348265,13.1145492 19.5016752,13.2695628 L19.5016752,13.2695628 L19.4252939,12.4944947 L19.4252939,12.4944947 Z" fill="#484FC1"> </path> <path d="M19.5004401,3.5385502 L20.4773407,5.52625424 C20.4773407,5.52625424 22.2057034,5.6027044 22.9571655,5.67915455 C22.2808496,6.2907558 21.4542414,6.82590689 21.0033641,7.28460782 C21.1536566,7.97265922 21.4542414,9.0429614 21.5293876,9.7310128 C20.8530717,9.27231186 19.4252939,8.35491 19.4252939,8.35491 L19.4252939,8.35491 L19.5004401,3.5385502 L19.5004401,3.5385502 Z" fill="#484FC1"> </path> <path d="M19.3523095,27.423763 C18.7684344,26.9484354 18.1845594,26.4731078 17.6006843,25.9977802 C16.4329342,25.0471249 16.5059186,23.9380272 17.8196375,23.1458145 C18.3305281,22.8289294 18.8414188,22.432823 19.4252939,22.115938 L19.4252939,22.115938 L19.3523095,27.423763 L19.3523095,27.423763 Z" fill="#484FC1"> </path> <path d="M18.5423259,33.6162256 C18.1075145,33.1336961 17.734819,32.6511665 17.3000075,32.168637 C16.7409642,31.6861074 16.6167324,30.7210483 16.9894279,29.997254 C17.0515438,29.8364108 17.1757757,29.6755676 17.3000075,29.595146 C17.672703,29.1126165 18.1075145,28.7105085 18.5423259,28.3084006 L18.5423259,28.3084006 L18.5423259,33.6162256 L18.5423259,33.6162256 Z" fill="#484FC1"> </path> <path d="M37.0846519,13.2120605 C36.011184,12.7501685 35.2444213,12.5192225 34.4009822,12.0573305 C32.1773702,11.0565644 30.1071107,9.90183431 28.0368513,8.6701222 C26.3499732,7.51539211 24.9698002,7.97728415 24.0496849,9.8248523 C23.8196561,10.3637263 23.512951,10.9026004 23.2829221,11.3644924 C22.5161594,13.0580965 21.0593101,13.5969706 19.372432,13.6739526 C19.2957558,13.5969706 19.2190795,13.5199886 19.2190795,13.5199886 C19.1424032,13.3660246 19.1424032,13.2120605 19.1424032,13.0580965 C17.14882,12.7501685 15.461942,11.2875104 14.925208,9.36296026 C14.8485317,9.13201424 14.7718555,8.90106822 14.6185029,8.74710421 C13.9284164,7.28444609 12.2415383,6.66859003 10.7846891,7.36142809 C10.0179263,7.66935612 9.25116356,8.05426615 8.56107707,8.5931402 C7.10422782,9.67088829 5.57070229,10.5946723 3.96050049,11.2875104 C3.19373773,11.5954384 2.39236947,11.832571 1.54893043,12.217481 C-1.27052227,18.523819 -0.165490106,26.3439804 4.24957552,31.6145896 C7.92207073,35.9987345 13.2775954,38.8470687 19.2190795,38.9240507 C18.2222879,38.3851767 17.4555251,37.5383746 16.9187912,36.5376085 C16.6120861,35.3828784 17.4555251,34.7670224 18.2222879,33.8432383 C17.685554,33.4583283 17.14882,32.9964362 16.6887624,32.5345442 C15.6152945,31.3028321 15.6152945,30.45603 16.6120861,29.1473359 C16.9954675,28.6854439 17.5322014,28.3775158 17.7622302,27.8386418 C17.3788489,27.0688217 16.5354098,26.7608937 15.9986759,26.2220197 C15.0785606,25.4521996 14.925208,24.1435055 15.6919708,23.2197214 L15.7686471,23.1427394 C16.1520284,22.6808474 16.6120861,22.2959373 17.0721438,21.9880093 C17.3021726,21.8340453 17.6088777,21.8340453 17.6088777,21.3721532 C17.3021726,21.0642252 16.9187912,20.8332792 16.4587335,20.6793152 C15.461942,20.2174231 14.5418266,19.6015671 13.6983876,18.908729 C12.3948909,17.6770169 12.3948909,15.5215207 13.6217113,14.6747187 C14.925208,13.9048986 16.5354098,14.1358446 17.5322014,15.2135927 C17.8389065,15.5985028 18.2222879,15.9834128 18.6056693,16.2913408 C18.9123744,16.5222868 19.1424032,16.8302149 19.1424032,17.2151249 C18.4523167,18.369855 17.7622302,18.369855 16.9954675,17.3690889 C16.6887624,16.9071969 16.4587335,16.3683228 15.9219996,16.1373768 C15.3852657,15.9064308 14.8485317,15.8294488 14.4651504,16.3683228 C14.081769,16.8302149 14.081769,17.4460709 14.4651504,17.9079629 C14.6951792,18.138909 14.925208,18.369855 15.1552368,18.523819 C15.9986759,19.1396751 16.9187912,19.6015671 17.9155828,19.9864771 C18.4523167,20.2174231 18.9123744,20.5253512 19.2190795,21.0642252 L19.2957558,22.1419733 C19.8324897,22.5268833 20.3692236,22.9117934 20.9059576,23.2197214 C21.5193678,23.4506674 21.9794254,23.9895415 22.0561017,24.6823795 C21.5960441,25.9910736 20.2158711,26.3759837 19.2957558,27.2997677 L19.2957558,28.4544978 C19.8324897,28.8394079 20.3692236,29.3782819 20.9059576,29.763192 C21.5193678,30.225084 21.6727203,31.0718861 21.289339,31.6877421 C21.2126627,31.8417061 21.0593101,31.9956701 20.9059576,32.0726522 C20.3692236,32.6115262 19.8324897,33.0734182 19.2957558,33.6122923 L19.2957558,34.7670224 C18.6823456,35.1519324 17.9922591,35.6908065 17.9922591,36.4606265 C17.9922591,37.4613926 18.9890507,38.2312127 19.372432,38.9240507 C20.2158711,38.4621587 20.9826339,37.8463026 21.4426915,36.9995006 C22.0561017,35.7677885 21.289339,34.9209864 20.5225762,34.1511663 C20.9059576,33.6122923 21.3660152,33.1504002 21.8260729,32.7654902 C23.0528933,31.3798141 22.976217,30.379048 21.7493966,28.9933719 C21.3660152,28.6854439 21.0593101,28.3005338 20.752605,27.9156238 C21.289339,27.2997677 21.9027492,26.7608937 22.5161594,26.2990017 C23.4362747,25.6061636 23.6663035,24.2974695 22.976217,23.3736854 L22.8228645,23.2197214 C22.5161594,22.7578294 22.0561017,22.3729193 21.5193678,22.0649913 C21.289339,21.9110273 20.9826339,21.9110273 20.9826339,21.4491352 C21.8260729,20.9872432 22.6695119,20.5253512 23.5896273,20.0634591 C25.8132393,18.754765 26.3499732,17.2151249 25.3531816,14.8286827 C25.6598867,14.6747187 26.0432681,14.8286827 26.4266495,14.5977367 C26.4266495,14.2128266 25.8899155,13.9818806 26.2732969,13.3660246 C27.5767936,13.5969706 28.6502615,14.6747187 30.1071107,14.5977367 C30.0304345,13.9818806 29.340348,13.9048986 29.1869954,13.3660246 C30.5671684,13.5969706 31.7939888,14.4437727 33.2508381,14.1358446 C32.8674567,13.5969706 32.1006939,13.4430066 31.8706651,12.7501685 C33.4808669,12.8271505 35.0910687,13.5969706 37.0846519,13.2120605 Z M21.1513258,35.8933481 C21.4559197,37.2858331 19.9329503,38.2687637 19.4252939,38.9240507 C19.4252939,37.6953875 19.4252939,36.0571699 19.4252939,34.5008632 C20.0344816,34.7465958 20.9482632,35.1561502 21.1513258,35.8933481 Z M19.5020239,14.2582753 C20.0650925,14.1195087 20.6281611,14.1195087 21.1912297,14.2582753 C20.9096954,15.021492 20.2762432,15.5765587 19.5724075,15.9234754 C19.4316403,15.3684087 19.3612568,14.813342 19.5020239,14.2582753 Z M21.5018285,19.3748225 C20.754276,19.6738503 20.0897849,19.9728781 19.4252939,20.3466629 L19.4252939,17.6554124 C20.0067235,17.7301694 20.4220305,18.0291972 21.0034602,17.8796833 C21.5848899,17.6554124 21.7510126,17.2068707 22.0832582,16.8330859 C22.1663195,16.7583289 22.2493809,16.608815 22.3324423,16.5340581 C22.8308106,15.9360024 23.7444859,15.7117315 24.4089769,16.1602733 C24.9073452,16.5340581 24.8242839,17.3563846 24.0767314,17.9544403 C23.3291789,18.5524959 22.4155037,19.0010377 21.5018285,19.3748225 Z" fill="#484FC1"> </path> <path d="M19.4252939,8.20403207 C18.8013564,8.51957118 17.8654503,9.15064941 17.319505,9.46618853 L17.9434425,7.09964516 L15.8376536,5.44306481 L18.4113955,5.44306481 C18.5673799,5.20641047 19.035333,3.86536923 19.4252939,3.234291 C19.4252939,2.28767366 19.4252939,0.709978083 19.4252939,-1.91255248e-15 C12.1918129,-0.000911778796 5.72278132,4.45687691 2.64887335,9.8803923 C2.64462359,9.95617806 3.09289954,9.82680426 3.99373157,9.49227091 C5.34497961,8.99047088 6.55658439,8.04626251 7.72646707,7.09964516 C8.66237321,6.31079738 9.75426371,5.67971915 10.9241464,5.28529525 C13.3419039,4.65421702 15.0577319,5.52194959 15.7596615,7.96737773 C15.993638,8.75622552 16.2276145,9.54507331 16.5395832,10.3339211 C16.9295441,11.5171927 18.0214346,12.3060405 19.2693095,12.3849253 C19.4252939,10.9649993 19.4252939,8.8351103 19.4252939,8.20403207 Z" fill="#484FC1"> </path> </g> <g class="Hipaa" transform="translate(26, 21)" fill="#484FC1" font-family="Times New Roman" font-size="6.5" font-weight="bold"> <text fill="#484FC1"> <tspan x="3.5" y="6" fill="#484FC1">HIPAA</tspan> </text> </g> </g> </g> </g> </g> </svg>