<svg xmlns:xlink="http://www.w3.org/1999/xlink" xmlns="http://www.w3.org/2000/svg" class="feat-ids-graphics" viewBox="0 0 580 580" width="600"  height="600" > <defs> <circle id="OutCir-3" cx="252" cy="249" r="249"></circle> <filter x="-12%" y="-12%" width="124%" height="124%" filterUnits="objectBoundingBox" id="OutCirShdw-3"> <feMorphology radius="0.5" operator="dilate" in="SourceAlpha" result="shadowSpreadOuter1"> </feMorphology> <feOffset dx="0" dy="0" in="shadowSpreadOuter1" result="shadowOffsetOuter1"></feOffset> <feGaussianBlur stdDeviation="20" in="shadowOffsetOuter1" result="shadowBlurOuter1"> </feGaussianBlur> <feComposite in="shadowBlurOuter1" in2="SourceAlpha" operator="out" result="shadowBlurOuter1"> </feComposite> <feColorMatrix values="0 0 0 0 0 0 0 0 0 0 0 0 0 0 0 0 0 0 0.04 0" type="matrix" in="shadowBlurOuter1"></feColorMatrix> </filter> <circle id="OutCir-2" cx="252" cy="249" r="189"></circle> <filter x="-16.0%" y="-16.0%" width="132.0%" height="132.0%" filterUnits="objectBoundingBox" id="OutCirShdw-2"> <feMorphology radius="0.5" operator="dilate" in="SourceAlpha" result="shadowSpreadOuter1"> </feMorphology> <feOffset dx="0" dy="0" in="shadowSpreadOuter1" result="shadowOffsetOuter1"></feOffset> <feGaussianBlur stdDeviation="20" in="shadowOffsetOuter1" result="shadowBlurOuter1"> </feGaussianBlur> <feComposite in="shadowBlurOuter1" in2="SourceAlpha" operator="out" result="shadowBlurOuter1"> </feComposite> <feColorMatrix values="0 0 0 0 0 0 0 0 0 0 0 0 0 0 0 0 0 0 0.04 0" type="matrix" in="shadowBlurOuter1"></feColorMatrix> </filter> <circle id="OutCir-1" cx="252" cy="249" r="129"></circle> <filter x="-23.5%" y="-23.5%" width="147%" height="147%" filterUnits="objectBoundingBox" id="OutCirShdw-1"> <feMorphology radius="0.5" operator="dilate" in="SourceAlpha" result="shadowSpreadOuter1"> </feMorphology> <feOffset dx="0" dy="0" in="shadowSpreadOuter1" result="shadowOffsetOuter1"></feOffset> <feGaussianBlur stdDeviation="20" in="shadowOffsetOuter1" result="shadowBlurOuter1"> </feGaussianBlur> <feComposite in="shadowBlurOuter1" in2="SourceAlpha" operator="out" result="shadowBlurOuter1"> </feComposite> <feColorMatrix values="0 0 0 0 0 0 0 0 0 0 0 0 0 0 0 0 0 0 0.04 0" type="matrix" in="shadowBlurOuter1"></feColorMatrix> </filter> <path d="M39.5,0 C61.3152476,-4.00739598e-15 79,17.6847524 79,39.5 C79,61.3152476 61.3152476,79 39.5,79 C17.6847524,79 2.67159732e-15,61.3152476 0,39.5 C-2.67159732e-15,17.6847524 17.6847524,4.00739598e-15 39.5,0 Z" id="ZMail-Cir"></path> <filter x="-57.0%" y="-57.0%" width="214%" height="214%" filterUnits="objectBoundingBox" id="ZMailShdw"> <feOffset dx="0" dy="0" in="SourceAlpha" result="shadowOffsetOuter1"></feOffset> <feGaussianBlur stdDeviation="15" in="shadowOffsetOuter1" result="shadowBlurOuter1"> </feGaussianBlur> <feColorMatrix values="0 0 0 0 0 0 0 0 0 0 0 0 0 0 0 0 0 0 0.05 0" type="matrix" in="shadowBlurOuter1"></feColorMatrix> </filter> <path d="M39.5,0 C61.3152476,-4.00739598e-15 79,17.6847524 79,39.5 C79,61.3152476 61.3152476,79 39.5,79 C17.6847524,79 2.67159732e-15,61.3152476 0,39.5 C-2.67159732e-15,17.6847524 17.6847524,4.00739598e-15 39.5,0 Z" id="ZPro-Cir"></path> <filter x="-57.0%" y="-57.0%" width="214%" height="214%" filterUnits="objectBoundingBox" id="ZProjShdw"> <feOffset dx="0" dy="0" in="SourceAlpha" result="shadowOffsetOuter1"></feOffset> <feGaussianBlur stdDeviation="15" in="shadowOffsetOuter1" result="shadowBlurOuter1"> </feGaussianBlur> <feColorMatrix values="0 0 0 0 0 0 0 0 0 0 0 0 0 0 0 0 0 0 0.05 0" type="matrix" in="shadowBlurOuter1"></feColorMatrix> </filter> <path d="M39.5,0 C61.3152476,-4.00739598e-15 79,17.6847524 79,39.5 C79,61.3152476 61.3152476,79 39.5,79 C17.6847524,79 2.67159732e-15,61.3152476 0,39.5 C-2.67159732e-15,17.6847524 17.6847524,4.00739598e-15 39.5,0 Z" id="ZFlow-Cir"></path> <filter x="-57.0%" y="-57.0%" width="214%" height="214%" filterUnits="objectBoundingBox" id="ZFlowShdw"> <feOffset dx="0" dy="0" in="SourceAlpha" result="shadowOffsetOuter1"></feOffset> <feGaussianBlur stdDeviation="15" in="shadowOffsetOuter1" result="shadowBlurOuter1"> </feGaussianBlur> <feColorMatrix values="0 0 0 0 0 0 0 0 0 0 0 0 0 0 0 0 0 0 0.05 0" type="matrix" in="shadowBlurOuter1"></feColorMatrix> </filter> <path d="M39.5,0 C61.3152476,-4.00739598e-15 79,17.6847524 79,39.5 C79,61.3152476 61.3152476,79 39.5,79 C17.6847524,79 2.67159732e-15,61.3152476 0,39.5 C-2.67159732e-15,17.6847524 17.6847524,4.00739598e-15 39.5,0 Z" id="MSO-Cir"></path> <filter x="-57.0%" y="-57.0%" width="214%" height="214%" filterUnits="objectBoundingBox" id="MSOShdw"> <feOffset dx="0" dy="0" in="SourceAlpha" result="shadowOffsetOuter1"></feOffset> <feGaussianBlur stdDeviation="15" in="shadowOffsetOuter1" result="shadowBlurOuter1"> </feGaussianBlur> <feColorMatrix values="0 0 0 0 0 0 0 0 0 0 0 0 0 0 0 0 0 0 0.05 0" type="matrix" in="shadowBlurOuter1"></feColorMatrix> </filter> <linearGradient x1="7.5%" y1="46%" x2="196%" y2="56%" id="MSOIcoGrd-1"> <stop stop-color="#F32B44" offset="0%"></stop> <stop stop-color="#A4070A" offset="60%"></stop> </linearGradient> <linearGradient x1="135%" y1="52%" x2="51.5%" y2="48%" id="MSOIcoGrd-2"> <stop stop-color="#000000" stop-opacity="0.4" offset="0%"></stop> <stop stop-color="#000000" stop-opacity="0" offset="100%"></stop> </linearGradient> <linearGradient x1="67%" y1="-4.5%" x2="22.5%" y2="94.5%" id="MSOIcoGrd-3"> <stop stop-color="#800600" offset="0%"></stop> <stop stop-color="#C72127" offset="60%"></stop> <stop stop-color="#C13959" offset="72.8%"></stop> <stop stop-color="#BC4B81" offset="84.7%"></stop> <stop stop-color="#B95799" offset="94.2%"></stop> <stop stop-color="#B85BA2" offset="100%"></stop> </linearGradient> <linearGradient x1="68%" y1="-6.5%" x2="58.5%" y2="14.5%" id="MSOIcoGrd-4"> <stop stop-color="#000000" stop-opacity="0.4" offset="0%"></stop> <stop stop-color="#000000" stop-opacity="0" offset="100%"></stop> </linearGradient> <linearGradient x1="50%" y1="-5.5%" x2="50%" y2="93%" id="MSOIcoGrd-5"> <stop stop-color="#FFB900" offset="0%"></stop> <stop stop-color="#EF8400" offset="16.6%"></stop> <stop stop-color="#E25C01" offset="31.3%"></stop> <stop stop-color="#DB4401" offset="42.9%"></stop> <stop stop-color="#D83B01" offset="50%"></stop> </linearGradient> <path d="M39.5,0 C61.3152476,-4.00739598e-15 79,17.6847524 79,39.5 C79,61.3152476 61.3152476,79 39.5,79 C17.6847524,79 2.67159732e-15,61.3152476 0,39.5 C-2.67159732e-15,17.6847524 17.6847524,4.00739598e-15 39.5,0 Z" id="Zap-Cir"></path> <filter x="-57.0%" y="-57.0%" width="214%" height="214%" filterUnits="objectBoundingBox" id="ZapShdw"> <feOffset dx="0" dy="0" in="SourceAlpha" result="shadowOffsetOuter1"></feOffset> <feGaussianBlur stdDeviation="15" in="shadowOffsetOuter1" result="shadowBlurOuter1"> </feGaussianBlur> <feColorMatrix values="0 0 0 0 0 0 0 0 0 0 0 0 0 0 0 0 0 0 0.05 0" type="matrix" in="shadowBlurOuter1"></feColorMatrix> </filter> <path d="M39.5,0 C61.3152476,-4.00739598e-15 79,17.6847524 79,39.5 C79,61.3152476 61.3152476,79 39.5,79 C17.6847524,79 2.67159732e-15,61.3152476 0,39.5 C-2.67159732e-15,17.6847524 17.6847524,4.00739598e-15 39.5,0 Z" id="GMail-Cir"></path> <filter x="-57.0%" y="-57.0%" width="214%" height="214%" filterUnits="objectBoundingBox" id="GMailShdw"> <feOffset dx="0" dy="0" in="SourceAlpha" result="shadowOffsetOuter1"></feOffset> <feGaussianBlur stdDeviation="15" in="shadowOffsetOuter1" result="shadowBlurOuter1"> </feGaussianBlur> <feColorMatrix values="0 0 0 0 0 0 0 0 0 0 0 0 0 0 0 0 0 0 0.05 0" type="matrix" in="shadowBlurOuter1"></feColorMatrix> </filter> <linearGradient x1="7.5%" y1="46%" x2="196%" y2="56%" id="MSOIcoGrd-1"> <stop stop-color="#F32B44" offset="0%"></stop> <stop stop-color="#A4070A" offset="60%"></stop> </linearGradient><linearGradient x1="135%" y1="52%" x2="51.5%" y2="48%" id="MSOIcoGrd-2"> <stop stop-color="#000000" stop-opacity="0.4" offset="0%"></stop> <stop stop-color="#000000" stop-opacity="0" offset="100%"></stop> </linearGradient><linearGradient x1="67%" y1="-4.5%" x2="22.5%" y2="94.5%" id="MSOIcoGrd-3"> <stop stop-color="#800600" offset="0%"></stop> <stop stop-color="#C72127" offset="60%"></stop> <stop stop-color="#C13959" offset="72.8%"></stop> <stop stop-color="#BC4B81" offset="84.7%"></stop> <stop stop-color="#B95799" offset="94.2%"></stop> <stop stop-color="#B85BA2" offset="100%"></stop> </linearGradient><linearGradient x1="68%" y1="-6.5%" x2="58.5%" y2="14.5%" id="MSOIcoGrd-4"> <stop stop-color="#000000" stop-opacity="0.4" offset="0%"></stop> <stop stop-color="#000000" stop-opacity="0" offset="100%"></stop> </linearGradient><linearGradient x1="50%" y1="-5.5%" x2="50%" y2="93%" id="MSOIcoGrd-5"> <stop stop-color="#FFB900" offset="0%"></stop> <stop stop-color="#EF8400" offset="16.6%"></stop> <stop stop-color="#E25C01" offset="31.3%"></stop> <stop stop-color="#DB4401" offset="42.9%"></stop> <stop stop-color="#D83B01" offset="50%"></stop> </linearGradient><circle id="OutCir-1" cx="252" cy="249" r="129"></circle><circle id="OutCir-1" cx="252" cy="249" r="129"></circle><circle id="OutCir-2" cx="252" cy="249" r="189"></circle><circle id="OutCir-2" cx="252" cy="249" r="189"></circle><circle id="OutCir-3" cx="252" cy="249" r="249"></circle><circle id="OutCir-3" cx="252" cy="249" r="249"></circle><path d="M39.5,0 C61.3152476,-4.00739598e-15 79,17.6847524 79,39.5 C79,61.3152476 61.3152476,79 39.5,79 C17.6847524,79 2.67159732e-15,61.3152476 0,39.5 C-2.67159732e-15,17.6847524 17.6847524,4.00739598e-15 39.5,0 Z" id="ZMail-Cir"></path><path d="M39.5,0 C61.3152476,-4.00739598e-15 79,17.6847524 79,39.5 C79,61.3152476 61.3152476,79 39.5,79 C17.6847524,79 2.67159732e-15,61.3152476 0,39.5 C-2.67159732e-15,17.6847524 17.6847524,4.00739598e-15 39.5,0 Z" id="ZMail-Cir"></path><path d="M39.5,0 C61.3152476,-4.00739598e-15 79,17.6847524 79,39.5 C79,61.3152476 61.3152476,79 39.5,79 C17.6847524,79 2.67159732e-15,61.3152476 0,39.5 C-2.67159732e-15,17.6847524 17.6847524,4.00739598e-15 39.5,0 Z" id="Zap-Cir"></path><path d="M39.5,0 C61.3152476,-4.00739598e-15 79,17.6847524 79,39.5 C79,61.3152476 61.3152476,79 39.5,79 C17.6847524,79 2.67159732e-15,61.3152476 0,39.5 C-2.67159732e-15,17.6847524 17.6847524,4.00739598e-15 39.5,0 Z" id="Zap-Cir"></path><path d="M39.5,0 C61.3152476,-4.00739598e-15 79,17.6847524 79,39.5 C79,61.3152476 61.3152476,79 39.5,79 C17.6847524,79 2.67159732e-15,61.3152476 0,39.5 C-2.67159732e-15,17.6847524 17.6847524,4.00739598e-15 39.5,0 Z" id="ZFlow-Cir"></path><path d="M39.5,0 C61.3152476,-4.00739598e-15 79,17.6847524 79,39.5 C79,61.3152476 61.3152476,79 39.5,79 C17.6847524,79 2.67159732e-15,61.3152476 0,39.5 C-2.67159732e-15,17.6847524 17.6847524,4.00739598e-15 39.5,0 Z" id="ZFlow-Cir"></path><path d="M39.5,0 C61.3152476,-4.00739598e-15 79,17.6847524 79,39.5 C79,61.3152476 61.3152476,79 39.5,79 C17.6847524,79 2.67159732e-15,61.3152476 0,39.5 C-2.67159732e-15,17.6847524 17.6847524,4.00739598e-15 39.5,0 Z" id="GMail-Cir"></path><path d="M39.5,0 C61.3152476,-4.00739598e-15 79,17.6847524 79,39.5 C79,61.3152476 61.3152476,79 39.5,79 C17.6847524,79 2.67159732e-15,61.3152476 0,39.5 C-2.67159732e-15,17.6847524 17.6847524,4.00739598e-15 39.5,0 Z" id="GMail-Cir"></path><path d="M39.5,0 C61.3152476,-4.00739598e-15 79,17.6847524 79,39.5 C79,61.3152476 61.3152476,79 39.5,79 C17.6847524,79 2.67159732e-15,61.3152476 0,39.5 C-2.67159732e-15,17.6847524 17.6847524,4.00739598e-15 39.5,0 Z" id="ZPro-Cir"></path><path d="M39.5,0 C61.3152476,-4.00739598e-15 79,17.6847524 79,39.5 C79,61.3152476 61.3152476,79 39.5,79 C17.6847524,79 2.67159732e-15,61.3152476 0,39.5 C-2.67159732e-15,17.6847524 17.6847524,4.00739598e-15 39.5,0 Z" id="ZPro-Cir"></path><path d="M39.5,0 C61.3152476,-4.00739598e-15 79,17.6847524 79,39.5 C79,61.3152476 61.3152476,79 39.5,79 C17.6847524,79 2.67159732e-15,61.3152476 0,39.5 C-2.67159732e-15,17.6847524 17.6847524,4.00739598e-15 39.5,0 Z" id="MSO-Cir"></path><path d="M39.5,0 C61.3152476,-4.00739598e-15 79,17.6847524 79,39.5 C79,61.3152476 61.3152476,79 39.5,79 C17.6847524,79 2.67159732e-15,61.3152476 0,39.5 C-2.67159732e-15,17.6847524 17.6847524,4.00739598e-15 39.5,0 Z" id="MSO-Cir"></path></defs> <g stroke="none" stroke-width="1" fill="none" fill-rule="evenodd"> <g transform="translate(-160, -4123)" fill="none"> <g transform="translate(198, 4164)" fill="none"> <g id="OutterCircle1" fill="none"> <use fill="black" fill-opacity="1" filter="url(#OutCirShdw-1)" xlink:href="#OutCir-1"> </use> <use stroke="#E7ECF9" stroke-width="1" fill-opacity="0.1" fill="#FFFFFF" fill-rule="evenodd" xlink:href="#OutCir-1"></use> </g> <g id="OutterCircle2" fill="none"> <use fill="black" fill-opacity="1" filter="url(#OutCirShdw-2)" xlink:href="#OutCir-2"> </use> <use stroke="#E7ECF9" stroke-width="1" fill-opacity="0.1" fill="#FFFFFF" fill-rule="evenodd" xlink:href="#OutCir-2"></use> </g> <g id="OutterCircle3" fill="none"> <use fill="black" fill-opacity="1" filter="url(#OutCirShdw-3)" xlink:href="#OutCir-3"> </use> <use stroke="#E7ECF9" stroke-width="1" fill-opacity="0.1" fill="#FFFFFF" fill-rule="evenodd" xlink:href="#OutCir-3"></use> <circle id="PinkDot" fill="#FA5AA1" cx="382" cy="37" r="3"></circle> </g> <circle id="animBlueCircle" fill-opacity="0.1" fill="#5E7CDA" cx="252" cy="249" r="90"> </circle> <circle id="LogoBlueDot" fill="#3658C0" cx="252" cy="249" r="70"></circle> <circle id="OrangeDot" fill="#FFB95D" cx="188" cy="137" r="3"></circle> <circle id="VioletDot" fill="#B350F0" cx="400" cy="448" r="3"></circle> <circle id="BlueDot" fill="#3658C0" cx="3" cy="242" r="3"></circle> <circle id="AquaBlueDot" fill="#34DAE5" cx="151" cy="408" r="3"></circle> <circle id="GreenDot" fill="#52BF62" cx="377" cy="278" r="3"></circle> <g class="WDLogo" fill="none"> <path d="M270.3909,232.881463 L252.5212,232.881463 C251.925543,232.881463 251.346432,232.674482 250.866598,232.312266 L246.812823,229.155811 C245.853154,228.41413 244.661841,228.000084 243.470527,228.000084 L233.592554,228.000084 C230.514995,227.98292 228,230.604675 228,233.812876 L228,264.170044 C228,267.378245 230.514995,270 233.592554,270 L236.388831,270 C237.166494,270 237.795243,269.344561 237.795243,268.533887 C237.795243,267.723212 237.166494,267.067774 236.388831,267.067774 L233.592554,267.067774 C232.070321,267.067774 230.812823,265.774144 230.812823,264.170044 L230.812823,233.812876 C230.812823,232.226024 232.053775,230.915146 233.592554,230.915146 L243.487073,230.915146 C244.08273,230.915146 244.661841,231.122127 245.141675,231.484343 L249.19545,234.640799 C250.155119,235.38248 251.346432,235.796441 252.537746,235.796441 L270.407446,235.796441 C271.929679,235.796441 273.187177,237.09007 273.187177,238.694171 L273.187177,247.145882 C273.087901,244.59312 271.069286,242.540562 268.587384,242.540562 C266.055843,242.540562 263.98759,244.696611 263.98759,247.335614 C263.98759,248.611995 264.467425,249.767638 265.245088,250.630057 L264.252327,251.009522 C263.971044,251.113012 263.689762,251.250999 263.425026,251.406235 C263.425026,251.337241 263.425026,251.268248 263.425026,251.199254 C263.425026,248.646492 261.422958,246.559437 258.974147,246.559437 C256.525336,246.559437 254.523268,248.646492 254.523268,251.199254 C254.523268,252.389393 254.953464,253.476042 255.664943,254.303964 L254.97001,254.56269 C254.622544,254.700677 254.291624,254.855913 253.977249,255.045645 C253.977249,255.011148 253.977249,254.9939 253.977249,254.959403 C253.977249,252.544629 252.091003,250.561064 249.758014,250.561064 C247.441572,250.561064 245.53878,252.52738 245.53878,254.959403 C245.53878,256.028803 245.902792,257.011962 246.514995,257.770891 L245.307135,258.236597 C243.933816,258.771298 242.759049,259.702711 241.931748,260.961843 C241.087901,262.220976 240.657704,263.687089 240.657704,265.222196 L240.657704,268.533887 C240.657704,269.344561 241.286453,270 242.064116,270 L270.407446,270 C273.485005,270 276,267.378245 276,264.187292 L276,238.694171 C275.983454,235.48597 273.468459,232.881463 270.3909,232.881463 Z M250.304033,261.53104 L250.304033,267.067774 L243.470527,267.067774 L243.470527,265.222196 C243.470527,263.342121 244.595657,261.63453 246.283351,260.979092 L250.634953,259.305998 C250.419855,260.03043 250.304033,260.772111 250.304033,261.53104 Z M249.758014,256.425516 C248.980352,256.425516 248.351603,255.770078 248.351603,254.959403 C248.351603,254.148729 248.980352,253.49329 249.758014,253.49329 C250.535677,253.49329 251.164426,254.148729 251.164426,254.959403 C251.164426,255.770078 250.535677,256.425516 249.758014,256.425516 Z M259.884178,257.529413 L259.884178,267.067774 L253.116856,267.067774 L253.116856,261.53104 C253.133402,259.668214 254.258532,257.960623 255.946225,257.305184 L260.115822,255.701084 C259.966908,256.287529 259.884178,256.908471 259.884178,257.529413 Z M258.974147,252.906845 C258.064116,252.906845 257.336091,252.147916 257.336091,251.199254 C257.336091,250.250593 258.064116,249.491663 258.974147,249.491663 C259.884178,249.491663 260.612203,250.250593 260.612203,251.199254 C260.612203,252.147916 259.884178,252.906845 258.974147,252.906845 Z M268.587384,245.472788 C269.563599,245.472788 270.374354,246.300711 270.374354,247.335614 C270.374354,248.35327 269.580145,249.198441 268.587384,249.198441 C267.611169,249.198441 266.800414,248.370518 266.800414,247.335614 C266.800414,246.300711 267.594623,245.472788 268.587384,245.472788 Z M273.170631,264.152796 C273.170631,265.774144 271.929679,267.067774 270.3909,267.067774 L262.697001,267.067774 L262.697001,257.529413 C262.697001,255.85632 263.706308,254.338461 265.228542,253.752016 L270.126163,251.854693 C270.192347,251.820196 270.258532,251.785699 270.324716,251.751203 C271.946225,251.061267 273.087901,249.42267 273.170631,247.508098 L273.170631,264.152796 Z" fill="#FFFFFF" fill-rule="nonzero"></path> </g> <g class="ZMailIcon" transform="translate(213, 21)" fill="none"> <g fill="none"> <use fill="black" fill-opacity="1" filter="url(#ZMailShdw)" xlink:href="#ZMail-Cir"> </use> <use fill="#FFFFFF" fill-rule="evenodd" xlink:href="#ZMail-Cir"></use> </g> <g transform="translate(24, 23)" fill-rule="nonzero" fill="none"> <path d="M24.4292964,18.8157115 C24.6572252,19.2419479 24.493584,19.7703643 24.0698701,19.9980797 L24.014349,20.027274 C24.3211763,19.8900609 24.5315721,19.5835209 24.5374164,19.2273508 L24.5374164,14.4774419 C24.5374164,13.0206475 23.3510176,11.8382793 21.8957796,11.8382793 L7.94536564,11.8382793 C6.48720549,11.8382793 5.30372881,13.0235669 5.30372881,14.4774419 L5.30372881,15.4729668 C5.30372881,15.9546723 5.69529887,16.3458756 6.17745604,16.3458756 C6.6596132,16.3458756 7.05118326,15.9546723 7.05118326,15.4729668 L7.05118326,14.4774419 C7.05118326,13.9869781 7.45151982,13.5870165 7.94244348,13.5870165 L21.8928574,13.5870165 C22.3837811,13.5870165 22.7841177,13.9869781 22.7841177,14.4774419 L22.7841177,18.7018538 L23.2458197,18.4566219 C23.6724557,18.2289065 24.2013675,18.3923945 24.4292964,18.8157115 Z" fill="#F9B21D"></path> <path d="M28.8359206,10.3026603 L16.559907,0.572207827 C16.0952828,0.204359938 15.5108499,0 14.9176505,0 C14.324451,0 13.7400181,0.204359938 13.2753939,0.572207827 L1.00230247,10.2997409 C0.368192744,10.8048019 0.00292216464,11.5580142 0.00292216464,12.3666957 L0.00292216464,15.3561897 C0.00292216464,16.3341979 0.537678293,17.2275428 1.40263902,17.685893 L13.6786527,24.2078944 C14.4559485,24.6224531 15.3822746,24.6224531 16.1595704,24.2078944 L24.014349,20.027274 L24.0698701,19.9980797 C24.493584,19.7703643 24.6572252,19.2419479 24.4292964,18.8157115 C24.2013675,18.3923945 23.6724557,18.2289065 23.2458197,18.4566219 L22.7841177,18.7018538 L15.33552,22.6664366 C15.0725252,22.8065691 14.7598536,22.8065691 14.4968588,22.6664366 L2.22084512,16.1444351 C1.92862866,15.986786 1.74745445,15.686085 1.74745445,15.3561897 L1.74745445,12.3666957 C1.74745445,12.0922695 1.87310753,11.8382793 2.08642555,11.6689525 L14.3624392,1.94141941 C14.6897216,1.68159035 15.1455793,1.68159035 15.4728617,1.94141941 L27.743031,11.6718719 C27.9592712,11.8411987 28.0820021,12.0951889 28.0820021,12.3696151 L28.0820021,27.1565164 C28.0820021,27.6469802 27.6816656,28.0469418 27.1907419,28.0469418 L2.63871467,28.0469418 C2.14779101,28.0469418 1.74745445,27.6469802 1.74745445,27.1565164 L1.74745445,20.1878425 C1.74745445,19.7061369 1.35588439,19.3149336 0.873727226,19.3149336 C0.391570061,19.3149336 0,19.7061369 0,20.1878425 L0,27.1565164 C0,28.6133108 1.18639884,29.795679 2.64163683,29.795679 L27.1936641,29.795679 C28.6489021,29.795679 29.8323788,28.6103914 29.8353009,27.1565164 L29.8353009,12.3696151 C29.8353009,11.5580142 29.4700303,10.8048019 28.8359206,10.3026603 Z" fill="#226DB4"></path> </g> </g> <g class="ZapierIcon" transform="translate(380, 120)" fill="none"> <g fill="none"> <use fill="black" fill-opacity="1" filter="url(#ZapShdw)" xlink:href="#Zap-Cir"> </use> <use fill="#FFFFFF" fill-rule="evenodd" xlink:href="#Zap-Cir"></use> </g> <path d="M43.8748633,39.5076562 C43.8754634,40.7696602 43.6478085,42.0213685 43.2028906,43.2023437 C42.0214838,43.6471984 40.7694951,43.8752074 39.5071094,43.8754102 L39.4923437,43.8754102 C38.1924219,43.8737695 36.9469141,43.6361523 35.7976562,43.2028906 C35.3524606,42.021781 35.1245735,40.769884 35.1249988,39.5076562 L35.1249988,39.4923437 C35.1243915,38.2305784 35.3518089,36.9790882 35.7962891,35.7982031 C36.9776125,35.3525179 38.22988,35.1244371 39.4924805,35.1249988 L39.5072461,35.1249988 C40.769705,35.1243917 42.0218379,35.352427 43.2030273,35.7980664 C43.6479967,36.9788374 43.8756545,38.230376 43.8750014,39.492207 L43.8750014,39.5075195 L43.8748633,39.5076562 Z M56.7569141,36.5833789 L46.5418359,36.5833789 L53.7645508,29.3601172 C53.1976428,28.5637533 52.5652662,27.8160873 51.8740039,27.1249023 L51.8740039,27.1243555 C51.1827208,26.4339094 50.4352597,25.8021002 49.6393359,25.2354492 L42.4160742,32.4587109 L42.4160742,22.2436328 C41.4553888,22.0820214 40.482934,22.00053 39.50875,22 L39.4907031,22 C38.4997656,22.0005469 37.5291992,22.0847656 36.5833789,22.2436328 L36.5833789,32.4587109 L29.3601172,25.2354492 C28.5640629,25.8019475 27.8169199,26.4342087 27.126543,27.1255859 L27.1227148,27.1283203 C26.4326328,27.8186433 25.8011412,28.5651469 25.2347656,29.3601172 L32.4585742,36.5833789 L22.2436328,36.5833789 C22.2436328,36.5833789 22,38.5019531 22,39.4939844 L22,39.5060156 C22,40.4980469 22.084082,41.4702539 22.2436328,42.4166211 L32.4587109,42.4166211 L25.2349023,49.6398828 C26.3712615,51.234571 27.765429,52.6287385 29.3601172,53.7650977 L36.5833789,46.5412891 L36.5833789,56.7569141 C37.5430082,56.9177224 38.514276,56.9990272 39.4872852,57 L39.5120313,57 C40.4850443,56.9991206 41.4563199,56.9178152 42.4159375,56.7569141 L42.4159375,46.5412891 L49.6398828,53.7650977 C50.435641,53.1982511 51.1829193,52.5662589 51.8740039,51.8756445 L51.8756445,51.8740039 C52.5659533,51.1827905 53.1977536,50.4355229 53.7645508,49.6398828 L46.5407422,42.4166211 L56.7569141,42.4166211 C56.915918,41.4718945 56.9989063,40.5025586 57,39.5127148 L57,39.4872852 C56.9989062,38.4974414 56.915918,37.5281055 56.7569141,36.5833789 Z" fill="#FF4A00" fill-rule="nonzero"></path> </g> <g class="ZFlowIcon" transform="translate(380, 299)" fill="none"> <g fill="none"> <use fill="black" fill-opacity="1" filter="url(#ZFlowShdw)" xlink:href="#ZFlow-Cir"> </use> <use fill="#FFFFFF" fill-rule="evenodd" xlink:href="#ZFlow-Cir"></use> </g> <g transform="translate(18, 22)" fill-rule="nonzero" fill="none"> <path d="M8.04042457,30.3876275 C7.64421317,30.3876275 7.26324067,30.180151 7.04989608,29.8113038 L0.154293862,17.7661385 C-0.0514312872,17.4088178 -0.0514312872,16.9708118 0.154293862,16.6134911 L9.33573106,0.576323697 C9.54145621,0.219003005 9.91861899,0 10.3262596,0 L28.689134,0 C29.2301149,0 29.6987111,0.38037364 29.8130028,0.910591442 C29.9234849,1.44080924 29.6568041,1.97871136 29.1653496,2.20155652 C29.0967745,2.23229379 27.5309776,3.00072538 25.7670749,4.92564653 C24.7155908,6.07445177 23.8012568,7.40383843 23.0431215,8.8792271 C22.288796,10.3546158 21.6906692,11.9836907 21.26398,13.7318726 L24.4184323,13.7280305 C24.4184323,13.7280305 24.4184323,13.7280305 24.4184323,13.7280305 C25.0508466,13.7280305 25.5613498,14.2428796 25.5613498,14.8806779 C25.5613498,15.5184761 25.0508466,16.0333253 24.4184323,16.0333253 L19.8467623,16.0371674 C19.8467623,16.0371674 19.8467623,16.0371674 19.8467623,16.0371674 C19.5076968,16.0371674 19.1838701,15.8834811 18.9667158,15.6183722 C18.7495615,15.3532633 18.6619378,15.0036269 18.7228934,14.6693592 C19.199109,12.1412192 19.9839124,9.80902933 21.0544451,7.73426402 C21.9192527,6.0629253 22.9707368,4.55679937 24.1784196,3.25430781 C24.5060559,2.90467143 24.8260728,2.58577232 25.1346606,2.30145263 L10.985342,2.30145263 L2.4629872,17.1898148 L9.03095306,28.6586564 C9.34716024,29.208085 9.16048371,29.9150421 8.61188332,30.2339412 C8.43282624,30.3376794 8.23472054,30.3876275 8.04042457,30.3876275 Z" fill="#226DB4"></path> <path d="M28.689134,34.3796296 L10.3262596,34.3796296 C9.78527861,34.3796296 9.31668244,33.999256 9.20239069,33.4690382 C9.09190866,32.9388204 9.35858941,32.4009183 9.85004394,32.1780731 C9.91480926,32.1473358 11.484416,31.3789042 13.2483186,29.4539831 C14.2998027,28.3051779 15.2141367,26.9757912 15.972272,25.5004025 C16.7265975,24.0250139 17.3247243,22.3959389 17.7514135,20.647757 L14.5969613,20.647757 C13.9645469,20.647757 13.4540438,20.1329078 13.4540438,19.4951096 C13.4540438,18.8573114 13.9645469,18.3424622 14.5969613,18.3424622 L19.1686312,18.3424622 C19.5076968,18.3424622 19.8315234,18.4961485 20.0486777,18.7612574 C20.265832,19.0263663 20.3534557,19.3760027 20.2925001,19.7102705 C19.8162845,22.2384104 19.0314811,24.5706003 17.9609484,26.6415235 C17.0961408,28.3128622 16.0446568,29.8189881 14.8369739,31.1214797 C14.5131473,31.471116 14.1893207,31.7900151 13.880733,32.0743348 L28.0300515,32.0743348 L36.5524063,17.1898148 L29.9920599,5.73249971 C29.6758527,5.17922896 29.8625293,4.47611405 30.4111297,4.15721494 C30.9559203,3.83831582 31.6569097,4.02658157 31.9731169,4.57985232 L38.8610997,16.6134911 C39.0668248,16.9708118 39.0668248,17.4088178 38.8610997,17.7661385 L29.6796625,33.8033059 C29.4739373,34.1606266 29.0967745,34.3796296 28.689134,34.3796296 Z" fill="#089949"></path> </g> </g> <g class="GMailIcon" transform="translate(213, 398)" fill="none"> <g fill="none"> <use fill="black" fill-opacity="1" filter="url(#GMailShdw)" xlink:href="#GMail-Cir"> </use> <use fill="#FFFFFF" fill-rule="evenodd" xlink:href="#GMail-Cir"></use> </g> <g transform="translate(22, 26)" fill="none"> <path d="M2.46541475,26.3333333 L8.22783257,26.3333333 L8.22783257,12.7697379 L0,6.78468282 L0,23.9336203 C0,25.2615247 1.10552328,26.3333333 2.46541475,26.3333333 Z" fill="#517BBD" fill-rule="nonzero"></path> <path d="M27.9805008,26.3333333 L33.7429186,26.3333333 C35.1028101,26.3333333 36.2083333,25.2615247 36.2083333,23.9431053 L36.2083333,6.79416785 L27.9805008,12.7792229 L27.9805008,26.3333333 Z" fill="#31A853" fill-rule="nonzero"></path> <path d="M27.9805008,2.40259813 L27.9805008,12.7697379 L36.2083333,6.78468282 L36.2083333,3.59771214 C36.2083333,0.638382218 32.7254458,-1.04995344 30.2795979,0.723747504 L27.9805008,2.40259813 Z" fill="#FBBC08" fill-rule="nonzero"></path> <polygon fill="#E84336" points="8.22783257 12.7697379 8.22783257 2.40259813 18.099275 9.58276719 27.9707174 2.40259813 27.9707174 12.7697379 18.099275 19.9499069"> </polygon> <path d="M0,3.59771214 L0,6.78468282 L8.22783257,12.7697379 L8.22783257,2.40259813 L5.91895209,0.723747504 C3.48288751,-1.04995344 0,0.647867249 0,3.59771214 Z" fill="#C6221F" fill-rule="nonzero"></path> </g> </g> <g class="ZProjectsIcon" transform="translate(45, 299)" fill="none"> <g fill="none"> <use fill="black" fill-opacity="1" filter="url(#ZProjShdw)" xlink:href="#ZPro-Cir"> </use> <use fill="#FFFFFF" fill-rule="evenodd" xlink:href="#ZPro-Cir"></use> </g> <g transform="translate(19, 25)" fill-rule="nonzero" fill="none"> <path d="M14.2757602,30.1130294 L15.0836783,29.2954113 L8.58222424,22.7158995 C9.02810356,23.1671322 9.02810356,23.8999031 8.58222424,24.3511357 C8.36119004,24.5786804 8.0677481,24.6905244 7.77430615,24.6905244 C7.4808642,24.6905244 7.18742225,24.5786804 6.96638806,24.3511357 L14.2757602,31.7482657 C13.8298809,31.297033 13.8298809,30.5642621 14.2757602,30.1130294 Z" fill="#F9B21D"></path> <path d="M8.58222424,9.29462102 C9.02810356,9.74585366 9.02810356,10.4786246 8.58222424,10.9298573 L7.77430615,11.7474754 L14.2833821,18.3154171 C13.8375028,17.8641845 13.8375028,17.1314135 14.2833821,16.6801809 L15.0913002,15.8625628 L8.5784133,9.29076433 C8.13253398,8.8395317 7.40845645,8.84338838 6.96257712,9.29462102 C6.94352245,9.31390447 6.92827872,9.32933123 6.91303498,9.34861467 L6.96638806,9.29462102 C7.41226738,8.84338838 8.13634492,8.84338838 8.58222424,9.29462102 Z" fill="#F9B21D"></path> <path d="M14.2757602,23.4023902 L15.0836783,22.5847721 L8.59746798,16.020687 C8.15158865,15.5694544 7.42751112,15.5694544 6.9816318,16.020687 C6.53575247,16.4719197 6.53575247,17.2046906 6.9816318,17.6559233 L14.2757602,25.0376264 C13.8298809,24.5863938 13.8298809,23.8536228 14.2757602,23.4023902 Z" fill="#F9B21D"></path> <path d="M38.680984,7.0500279 C38.2351047,6.59879526 37.5110272,6.59879526 37.0651478,7.0500279 L22.7970095,21.4894723 C23.2428888,21.0382397 23.9669664,21.0382397 24.4128457,21.4894723 C24.858725,21.940705 24.858725,22.6734759 24.4128457,23.1247086 L38.680984,8.68526413 C39.1268633,8.23403149 39.1268633,7.50126054 38.680984,7.0500279 Z" fill="#226DB4"></path> <path d="M24.4128457,8.06433716 C24.858725,8.5155698 24.858725,9.24834075 24.4128457,9.69957339 L24.3633035,9.74971035 C24.3823582,9.73428359 24.4014129,9.71500015 24.4166566,9.69957339 L31.2420401,2.792243 L32.9417168,4.51232639 L22.7970095,14.7788331 C23.2428888,14.3276005 23.9669664,14.3276005 24.4128457,14.7788331 C24.858725,15.2300657 24.858725,15.9628367 24.4128457,16.4140693 L35.3654711,5.3299445 C35.8113504,4.87871186 35.8113504,4.14594091 35.3654711,3.69470827 L32.0499582,0.339388651 C31.8365459,0.123414055 31.5469149,0 31.2420401,0 C30.9409763,0 30.6475343,0.123414055 30.434122,0.339388651 L22.8503626,8.0142002 C23.3000528,7.61310452 23.986021,7.63238797 24.4128457,8.06433716 Z" fill="#226DB4"></path> <path d="M14.2833821,18.3154171 C14.5044163,18.5429618 14.7978582,18.6548058 15.0913002,18.6548058 C15.3847421,18.6548058 15.6781841,18.5429618 15.9030292,18.3154171 L24.3633035,9.74971035 L24.4128457,9.69957339 C24.858725,9.24834075 24.858725,8.5155698 24.4128457,8.06433716 C23.986021,7.63238797 23.3000528,7.61310452 22.8503626,8.0142002 C22.8313079,8.02962696 22.8122532,8.0489104 22.7970095,8.06433716 L15.0913002,15.8625628 L14.2833821,16.6801809 C13.8375028,17.1314135 13.8375028,17.8641845 14.2833821,18.3154171 Z" fill="#089949"></path> <path d="M24.4128457,14.7788331 C23.9669664,14.3276005 23.2428888,14.3276005 22.7970095,14.7788331 L22.7970095,14.7788331 L15.0836783,22.5847721 L14.2757602,23.4023902 C13.8298809,23.8536228 13.8298809,24.5863938 14.2757602,25.0376264 C14.4967944,25.2651711 14.7902364,25.3770151 15.0836783,25.3770151 C15.3771203,25.3770151 15.6705622,25.2613144 15.8915964,25.0376264 L24.4128457,16.4140693 C24.858725,15.9628367 24.858725,15.2300657 24.4128457,14.7788331 Z" fill="#089949"></path> <path d="M24.4128457,21.4894723 C23.9669664,21.0382397 23.2428888,21.0382397 22.7970095,21.4894723 L22.7970095,21.4894723 L15.0836783,29.2954113 L14.2757602,30.1130294 C13.8298809,30.5642621 13.8298809,31.297033 14.2757602,31.7482657 C14.4967944,31.9758103 14.7902364,32.0876543 15.0836783,32.0876543 C15.2666032,32.0876543 15.449528,32.0452307 15.6172091,31.9565269 C15.7162934,31.9025332 15.8115668,31.8331128 15.8915964,31.7482657 L24.4128457,23.1247086 C24.858725,22.6734759 24.858725,21.940705 24.4128457,21.4894723 Z" fill="#089949"></path> <path d="M8.58222424,24.3511357 C9.02810356,23.8999031 9.02810356,23.1671322 8.58222424,22.7158995 L2.7591165,16.8228784 L7.77430615,11.7474754 L8.58222424,10.9298573 C9.02810356,10.4786246 9.02810356,9.74585366 8.58222424,9.29462102 C8.13634492,8.84338838 7.41226738,8.84338838 6.96638806,9.29462102 L6.91303498,9.34861467 L0.335362226,16.0052603 C0.1219499,16.2212349 0,16.5181999 0,16.8228784 C0,17.1275568 0.1219499,17.4245219 0.335362226,17.6404965 L6.96638806,24.3511357 C7.18742225,24.5786804 7.4808642,24.6905244 7.77430615,24.6905244 C8.0677481,24.6905244 8.36119004,24.5786804 8.58222424,24.3511357 Z" fill="#E42527"></path> </g> </g> <g class="MSOfficeIcon" transform="translate(45, 120)" fill="none"> <g fill="none"> <use fill="black" fill-opacity="1" filter="url(#MSOShdw)" xlink:href="#MSO-Cir"> </use> <use fill="#FFFFFF" fill-rule="evenodd" xlink:href="#MSO-Cir"></use> </g> <g transform="translate(23, 21)" fill-rule="nonzero" fill="none"> <path d="M7.53345197,29.9083815 C6.46146318,29.9083815 5.5874224,30.7479433 5.5874224,31.7897758 C5.5874224,32.497921 5.99315677,33.104733 6.59683915,33.4285244 L14.1204374,37.4842293 C14.7172418,37.8226301 15.3908099,38.0002885 16.0759118,38 C16.5339863,38 16.9712035,37.9192497 17.3769379,37.7775415 L19.9471204,37.0595004 L19.9471204,29.8984857 C19.9577391,29.9083815 7.54329034,29.9083815 7.53305844,29.9083815 L7.53345197,29.9083815 Z" fill="url(&quot;#MSOIcoGrd-1&quot;)"></path> <path d="M7.53345197,29.9083815 C6.46146318,29.9083815 5.5874224,30.7479433 5.5874224,31.7897758 C5.5874224,32.497921 5.99315677,33.104733 6.59683915,33.4285244 L14.1204374,37.4842293 C14.7172418,37.8226301 15.3908099,38.0002885 16.0759118,38 C16.5339863,38 16.9712035,37.9192497 17.3769379,37.7775415 L19.9471204,37.0595004 L19.9471204,29.8984857 C19.9577391,29.9083815 7.54329034,29.9083815 7.53305844,29.9083815 L7.53345197,29.9083815 Z" fill="url(&quot;#MSOIcoGrd-2&quot;)"></path> <path d="M17.2116533,0.151636045 C16.8562898,0.0495740261 16.4883704,-0.00146524968 16.1188071,0 C15.5048928,0 14.8909785,0.121552737 14.3392428,0.40457333 C14.2251177,0.455239953 2.1018847,7.07990098 2.1018847,7.07990098 C1.93541948,7.16104674 1.77918616,7.26198416 1.63357829,7.3633174 C1.61311448,7.37321323 1.60248904,7.38350489 1.58163169,7.39379654 C1.48797041,7.46425482 1.40454103,7.53510892 1.31127329,7.60596303 C1.2695586,7.63644217 1.22784391,7.67721297 1.19675466,7.70729628 C1.14480807,7.75756707 1.09246794,7.80823369 1.05114679,7.85890032 C0.905538911,8.01050435 0.655644315,8.33389991 0.655644315,8.33389991 C0.226913248,8.94696263 -0.00215935129,9.67871605 0,10.4282523 L0,28.0269873 C0,29.0692156 0.874056127,29.9087774 1.94604492,29.9087774 C2.21640332,29.9087774 2.46629792,29.8581107 2.69533517,29.7567775 L6.16040906,27.8654874 C6.78455525,27.5622794 7.28434445,27.0461131 7.54447095,26.408822 C7.60664945,26.2774055 7.65859604,26.1159056 7.69007882,25.9536141 C7.70031073,25.9132391 7.71093617,25.8625725 7.71093617,25.8221975 C7.71093617,25.8024059 7.72116807,25.7719267 7.72116807,25.7517392 C7.73179351,25.6804893 7.74202542,25.5997394 7.74202542,25.5292811 C7.74202542,25.4683228 7.75265086,25.4176562 7.75265086,25.3570937 L7.75265086,15.9908934 L7.75265086,13.0676667 C7.75265086,12.2482924 8.11667054,11.5100639 8.68926367,10.9942935 C8.68926367,10.9942935 8.41851173,11.2369391 8.68926367,10.9942935 C8.95962208,10.7516479 9.31340986,10.5390855 9.72976968,10.3977732 C10.145736,10.2457733 19.9900089,6.78698456 19.9900089,6.78698456 L19.9900089,0.950822865 L17.2116533,0.151636045 Z" fill="url(&quot;#MSOIcoGrd-3&quot;)"></path> <path d="M17.2116533,0.151636045 C16.8562898,0.0495740261 16.4883704,-0.00146524968 16.1188071,0 C15.5048928,0 14.8909785,0.121552737 14.3392428,0.40457333 C14.2251177,0.455239953 2.1018847,7.07990098 2.1018847,7.07990098 C1.93541948,7.16104674 1.77918616,7.26198416 1.63357829,7.3633174 C1.61311448,7.37321323 1.60248904,7.38350489 1.58163169,7.39379654 C1.48797041,7.46425482 1.40454103,7.53510892 1.31127329,7.60596303 C1.2695586,7.63644217 1.22784391,7.67721297 1.19675466,7.70729628 C1.14480807,7.75756707 1.09246794,7.80823369 1.05114679,7.85890032 C0.905538911,8.01050435 0.655644315,8.33389991 0.655644315,8.33389991 C0.226913248,8.94696263 -0.00215935129,9.67871605 0,10.4282523 L0,28.0269873 C0,29.0692156 0.874056127,29.9087774 1.94604492,29.9087774 C2.21640332,29.9087774 2.46629792,29.8581107 2.69533517,29.7567775 L6.16040906,27.8654874 C6.78455525,27.5622794 7.28434445,27.0461131 7.54447095,26.408822 C7.60664945,26.2774055 7.65859604,26.1159056 7.69007882,25.9536141 C7.70031073,25.9132391 7.71093617,25.8625725 7.71093617,25.8221975 C7.71093617,25.8024059 7.72116807,25.7719267 7.72116807,25.7517392 C7.73179351,25.6804893 7.74202542,25.5997394 7.74202542,25.5292811 C7.74202542,25.4683228 7.75265086,25.4176562 7.75265086,25.3570937 L7.75265086,15.9908934 L7.75265086,13.0676667 C7.75265086,12.2482924 8.11667054,11.5100639 8.68926367,10.9942935 C8.68926367,10.9942935 8.41851173,11.2369391 8.68926367,10.9942935 C8.95962208,10.7516479 9.31340986,10.5390855 9.72976968,10.3977732 C10.145736,10.2457733 19.9900089,6.78698456 19.9900089,6.78698456 L19.9900089,0.950822865 L17.2116533,0.151636045 Z" fill="url(&quot;#MSOIcoGrd-4&quot;)"></path> <path d="M28.2943802,3.30523753 L17.378512,0.200719337 C18.9601284,0.797635495 19.9482942,2.14267602 19.9482942,3.78142462 C19.9482942,3.78142462 19.9384559,33.5480659 19.9482942,34.266107 C19.9589197,35.8842723 18.8975563,37.2700836 17.378512,37.785854 C17.7114424,37.6948124 28.2943802,34.7312108 28.2943802,34.7312108 C29.8653711,34.2459195 31,32.8296291 31,31.1410055 L31,6.8954428 C31.0101639,5.2171109 29.8653711,3.79052878 28.2943802,3.30523753 Z" fill="url(&quot;#MSOIcoGrd-5&quot;)"></path> </g> </g> </g> </g> </g> </svg>