<svg xmlns:xlink="http://www.w3.org/1999/xlink" xmlns="http://www.w3.org/2000/svg" class="feat-dis-graphics" width="599" height="434" viewBox="0 0 599 434"> <defs> <filter x="-45.5%" y="-45.5%" width="191%" height="191%" filterUnits="objectBoundingBox" id="SyIco-Shadow"> <feGaussianBlur stdDeviation="10" in="SourceGraphic"></feGaussianBlur> </filter> <filter x="-17.0%" y="-79%" width="134%" height="258%" filterUnits="objectBoundingBox" id="TrSy-Shadow"> <feGaussianBlur stdDeviation="10" in="SourceGraphic"></feGaussianBlur> </filter> <filter x="-12.0%" y="-10%" width="124%" height="120%" filterUnits="objectBoundingBox" id="TrSyPop-Shadow"> <feGaussianBlur stdDeviation="10" in="SourceGraphic"></feGaussianBlur> </filter> <rect x="0" y="0" width="27" height="28" rx="4"></rect> </defs> <g stroke="none" stroke-width="1" fill="none" fill-rule="evenodd"> <g transform="translate(9.25, 5)" fill="none"> <circle class="dis-bg-circle" fill="#F4F5FD" fill-rule="nonzero" cx="321" cy="231" r="198"> </circle> <g class="dis-laptop" transform="translate(9, 87)" fill="none"> <line x1="0" y1="265" x2="512" y2="265" stroke="#000000" stroke-width="7px" stroke-linecap="round" stroke-linejoin="round" fill="none"></line> <path d="M76.9471964,0 L435.052804,0 C441.293435,0 443.556438,0.649779278 445.83792,1.86992893 C448.119401,3.09007857 449.909921,4.88059859 451.130071,7.16208008 C452.350221,9.44356156 453,11.7065652 453,17.9471964 L453,240.052804 C453,246.293435 452.350221,248.556438 451.130071,250.83792 C449.909921,253.119401 448.119401,254.909921 445.83792,256.130071 C443.556438,257.350221 441.293435,258 435.052804,258 L76.9471964,258 C70.7065652,258 68.4435616,257.350221 66.1620801,256.130071 C63.8805986,254.909921 62.0900786,253.119401 60.8699289,250.83792 C59.6497793,248.556438 59,246.293435 59,240.052804 L59,17.9471964 C59,11.7065652 59.6497793,9.44356156 60.8699289,7.16208008 C62.0900786,4.88059859 63.8805986,3.09007857 66.1620801,1.86992893 C68.4435616,0.649779278 70.7065652,0 76.9471964,0 Z" fill="#333333" fill-rule="nonzero"></path> <path d="M76.2555408,7 L435.744459,7 C439.310534,7 440.603679,7.37130244 441.907383,8.06853082 C443.211087,8.76575919 444.234241,9.78891348 444.931469,11.0926172 C445.628698,12.3963209 446,13.6894658 446,17.2555408 L446,240.744459 C446,244.310534 445.628698,245.603679 444.931469,246.907383 C444.234241,248.211087 443.211087,249.234241 441.907383,249.931469 C440.603679,250.628698 439.310534,251 435.744459,251 L76.2555408,251 C72.6894658,251 71.3963209,250.628698 70.0926172,249.931469 C68.7889135,249.234241 67.7657592,248.211087 67.0685308,246.907383 C66.3713024,245.603679 66,244.310534 66,240.744459 L66,17.2555408 C66,13.6894658 66.3713024,12.3963209 67.0685308,11.0926172 C67.7657592,9.78891348 68.7889135,8.76575919 70.0926172,8.06853082 C71.3963209,7.37130244 72.6894658,7 76.2555408,7 Z" fill="#FFFFFF" fill-rule="nonzero"></path> <g transform="translate(172, 7)" fill="#333333" fill-rule="nonzero"> <path d="M0,0 L266,0 C270.418278,0 274,3.581722 274,8 L274,31 L274,31 L0,31 L0,0 Z" fill="#333333"> </path> </g> <path d="M172,7 L438,7 C442.418278,7 446,10.581722 446,15 L446,38 L446,38 L172,38 L172,7 Z" fill="#DFE3E8"></path> <polygon fill="#F1F4F9" points="172 7 339 7 339 38 268.947566 38 256.907303 38 172 38 172 27.6666667"></polygon> <g transform="translate(189, 18)" fill="#333333" fill-rule="nonzero" font-family="sans-serif" font-size="8" font-weight="400"> <text fill="#333333"> <tspan x="0" y="8" fill="#333333">WorkDrive TrueSync</tspan> </text> </g> <g transform="translate(66, 7)" fill="#DFE3E8"> <g fill="#DFE3E8"> <path d="M8,0 L106,0 L106,0 L106,244 L8,244 C3.581722,244 0,240.418278 0,236 L0,8 C0,3.581722 3.581722,0 8,0 Z" fill="#DFE3E8"> </path> </g> <g fill-rule="nonzero" fill="#DFE3E8"> <path d="M8,0 L106,0 L106,0 L106,244 L8,244 C3.581722,244 0,240.418278 0,236 L0,8 C0,3.581722 3.581722,0 8,0 Z" fill="#DFE3E8"> </path> </g> </g> <g transform="translate(77, 34)" fill="#333333" fill-rule="nonzero" font-family="sans-serif" font-size="7" font-weight="normal"> <text fill="#333333"> <tspan x="0" y="7" fill="#333333">Favourites</tspan> </text> </g> <text fill="#333333" fill-rule="nonzero" font-family="sans-serif" font-size="7" font-weight="normal"> <tspan x="77" y="165" fill="#333333">Locations</tspan> </text> <line x1="85" y1="52" x2="110" y2="52" stroke="#A7AEB7" stroke-width="3px" stroke-linecap="round" stroke-linejoin="round" fill="none"></line> <line x1="85" y1="65" x2="112" y2="65" stroke="#A7AEB7" stroke-width="3px" stroke-linecap="round" stroke-linejoin="round" fill="none"></line> <line x1="85" y1="78" x2="129" y2="78" stroke="#A7AEB7" stroke-width="3px" stroke-linecap="round" stroke-linejoin="round" fill="none"></line> <line x1="85" y1="91" x2="112" y2="91" stroke="#A7AEB7" stroke-width="3px" stroke-linecap="round" stroke-linejoin="round" fill="none"></line> <text fill="#333333" fill-rule="nonzero" font-family="sans-serif" font-size="7" font-weight="normal"> <tspan x="77" y="115" fill="#333333">iCloud</tspan> </text> <line x1="85" y1="128" x2="124" y2="128" stroke="#A7AEB7" stroke-width="3px" stroke-linecap="round" stroke-linejoin="round" fill="none"></line> <line x1="85" y1="141" x2="105" y2="141" stroke="#A7AEB7" stroke-width="3px" stroke-linecap="round" stroke-linejoin="round" fill="none"></line> <text fill="#333333" fill-rule="nonzero" font-family="sans-serif" font-size="7" font-weight="normal"> <tspan x="77" y="227" fill="#333333">Tags</tspan> </text> <line x1="85" y1="240" x2="124" y2="240" stroke="#A7AEB7" stroke-width="3px" stroke-linecap="round" stroke-linejoin="round" fill="none"></line> <circle fill="#F66F61" fill-rule="nonzero" cx="80" cy="21" r="3"></circle> <circle fill="#FFBE36" fill-rule="nonzero" cx="89" cy="21" r="3"></circle> <circle fill="#6BC65E" fill-rule="nonzero" cx="98" cy="21" r="3"></circle> <g class="dis-folders" transform="translate(185, 50)" fill="none"> <g fill="none"> <path d="M3,0 L8.81042652,0 C9.48730942,0 10.1442998,0.228907696 10.6746321,0.649524 L12.2089235,1.8663986 C12.7392558,2.28701491 13.3962462,2.5159226 14.0731291,2.5159226 L29,2.5159226 C30.6568542,2.5159226 32,3.85906835 32,5.5159226 L32,24 C32,25.6568542 30.6568542,27 29,27 L3,27 C1.34314575,27 0,25.6568542 0,24 L0,3 C0,1.34314575 1.34314575,0 3,0 Z" fill="#579CCF" fill-rule="nonzero"></path> <path d="M3,6 L29,6 C30.6568542,6 32,7.34314575 32,9 L32,24 C32,25.6568542 30.6568542,27 29,27 L3,27 C1.34314575,27 0,25.6568542 0,24 L0,9 C0,7.34314575 1.34314575,6 3,6 Z" fill="#8ACEF7" fill-rule="nonzero"></path> <circle stroke="#FFFFFF" fill="#616161" fill-rule="nonzero" cx="27" cy="25" r="6"> </circle> <text fill="#272727" fill-rule="nonzero" font-family="sans-serif" font-size="6" font-weight="400"> <tspan x="6" y="40" fill="#272727">Emails</tspan> </text> <path d="M28,23 C28.5522847,23 29,23.4477153 29,24 L28.9997075,24.0852495 C29.5824565,24.2910851 30,24.8467813 30,25.5 C30,26.3284271 29.3284271,27 28.5,27 L26.5,27 C25.6715729,27 25,26.3284271 25,25.5 C25,24.6715729 25.6715729,24 26.5,24 L27,24 C27,23.4477153 27.4477153,23 28,23 Z" stroke="#FFFFFF" fill="none"></path> </g> <g transform="translate(53, 0)" fill="none"> <path d="M3,0 L8.81042652,0 C9.48730942,0 10.1442998,0.228907696 10.6746321,0.649524 L12.2089235,1.8663986 C12.7392558,2.28701491 13.3962462,2.5159226 14.0731291,2.5159226 L29,2.5159226 C30.6568542,2.5159226 32,3.85906835 32,5.5159226 L32,24 C32,25.6568542 30.6568542,27 29,27 L3,27 C1.34314575,27 0,25.6568542 0,24 L0,3 C0,1.34314575 1.34314575,0 3,0 Z" fill="#579CCF" fill-rule="nonzero"></path> <path d="M3,6 L29,6 C30.6568542,6 32,7.34314575 32,9 L32,24 C32,25.6568542 30.6568542,27 29,27 L3,27 C1.34314575,27 0,25.6568542 0,24 L0,9 C0,7.34314575 1.34314575,6 3,6 Z" fill="#8ACEF7" fill-rule="nonzero"></path> <circle stroke="#FFFFFF" fill="#616161" fill-rule="nonzero" cx="27" cy="25" r="6"> </circle> <text fill="#272727" fill-rule="nonzero" font-family="sans-serif" font-size="6" font-weight="400"> <tspan x="6.5" y="40" fill="#272727">Wallet</tspan> </text> <path d="M28,23 C28.5522847,23 29,23.4477153 29,24 L28.9997075,24.0852495 C29.5824565,24.2910851 30,24.8467813 30,25.5 C30,26.3284271 29.3284271,27 28.5,27 L26.5,27 C25.6715729,27 25,26.3284271 25,25.5 C25,24.6715729 25.6715729,24 26.5,24 L27,24 C27,23.4477153 27.4477153,23 28,23 Z" stroke="#FFFFFF" fill="none"></path> </g> <g transform="translate(106, 0)" fill="none"> <path d="M3,0 L8.81042652,0 C9.48730942,0 10.1442998,0.228907696 10.6746321,0.649524 L12.2089235,1.8663986 C12.7392558,2.28701491 13.3962462,2.5159226 14.0731291,2.5159226 L29,2.5159226 C30.6568542,2.5159226 32,3.85906835 32,5.5159226 L32,24 C32,25.6568542 30.6568542,27 29,27 L3,27 C1.34314575,27 0,25.6568542 0,24 L0,3 C0,1.34314575 1.34314575,0 3,0 Z" fill="#579CCF" fill-rule="nonzero"></path> <path d="M3,6 L29,6 C30.6568542,6 32,7.34314575 32,9 L32,24 C32,25.6568542 30.6568542,27 29,27 L3,27 C1.34314575,27 0,25.6568542 0,24 L0,9 C0,7.34314575 1.34314575,6 3,6 Z" fill="#8ACEF7" fill-rule="nonzero"></path> <circle stroke="#FFFFFF" fill="#616161" fill-rule="nonzero" cx="27" cy="25" r="6"> </circle> <text fill="#272727" fill-rule="nonzero" font-family="sans-serif" font-size="6" font-weight="400"> <tspan x="4" y="40" fill="#272727">Finance</tspan> </text> <path d="M28,23 C28.5522847,23 29,23.4477153 29,24 L28.9997075,24.0852495 C29.5824565,24.2910851 30,24.8467813 30,25.5 C30,26.3284271 29.3284271,27 28.5,27 L26.5,27 C25.6715729,27 25,26.3284271 25,25.5 C25,24.6715729 25.6715729,24 26.5,24 L27,24 C27,23.4477153 27.4477153,23 28,23 Z" stroke="#FFFFFF" fill="none"></path> </g> <g transform="translate(159, 0)" fill="none"> <path d="M3,0 L8.81042652,0 C9.48730942,0 10.1442998,0.228907696 10.6746321,0.649524 L12.2089235,1.8663986 C12.7392558,2.28701491 13.3962462,2.5159226 14.0731291,2.5159226 L29,2.5159226 C30.6568542,2.5159226 32,3.85906835 32,5.5159226 L32,24 C32,25.6568542 30.6568542,27 29,27 L3,27 C1.34314575,27 0,25.6568542 0,24 L0,3 C0,1.34314575 1.34314575,0 3,0 Z" fill="#579CCF" fill-rule="nonzero"></path> <path d="M3,6 L29,6 C30.6568542,6 32,7.34314575 32,9 L32,24 C32,25.6568542 30.6568542,27 29,27 L3,27 C1.34314575,27 0,25.6568542 0,24 L0,9 C0,7.34314575 1.34314575,6 3,6 Z" fill="#8ACEF7" fill-rule="nonzero"></path> <circle stroke="#FFFFFF" fill="#616161" fill-rule="nonzero" cx="27" cy="25" r="6"> </circle> <text fill="#272727" fill-rule="nonzero" font-family="sans-serif" font-size="6" font-weight="400"> <tspan x="5.5" y="40" fill="#272727">Stocks</tspan> </text> <path d="M28,23 C28.5522847,23 29,23.4477153 29,24 L28.9997075,24.0852495 C29.5824565,24.2910851 30,24.8467813 30,25.5 C30,26.3284271 29.3284271,27 28.5,27 L26.5,27 C25.6715729,27 25,26.3284271 25,25.5 C25,24.6715729 25.6715729,24 26.5,24 L27,24 C27,23.4477153 27.4477153,23 28,23 Z" stroke="#FFFFFF" fill="none"></path> </g> <g transform="translate(212, 0)" fill="none"> <path d="M3,0 L8.81042652,0 C9.48730942,0 10.1442998,0.228907696 10.6746321,0.649524 L12.2089235,1.8663986 C12.7392558,2.28701491 13.3962462,2.5159226 14.0731291,2.5159226 L29,2.5159226 C30.6568542,2.5159226 32,3.85906835 32,5.5159226 L32,24 C32,25.6568542 30.6568542,27 29,27 L3,27 C1.34314575,27 0,25.6568542 0,24 L0,3 C0,1.34314575 1.34314575,0 3,0 Z" fill="#579CCF" fill-rule="nonzero"></path> <path d="M3,6 L29,6 C30.6568542,6 32,7.34314575 32,9 L32,24 C32,25.6568542 30.6568542,27 29,27 L3,27 C1.34314575,27 0,25.6568542 0,24 L0,9 C0,7.34314575 1.34314575,6 3,6 Z" fill="#8ACEF7" fill-rule="nonzero"></path> <circle stroke="#FFFFFF" fill="#616161" fill-rule="nonzero" cx="27" cy="25" r="6"> </circle> <text fill="#272727" fill-rule="nonzero" font-family="sans-serif" font-size="6" font-weight="400"> <tspan x="6" y="40" fill="#272727">Emails</tspan> </text> <path d="M28,23 C28.5522847,23 29,23.4477153 29,24 L28.9997075,24.0852495 C29.5824565,24.2910851 30,24.8467813 30,25.5 C30,26.3284271 29.3284271,27 28.5,27 L26.5,27 C25.6715729,27 25,26.3284271 25,25.5 C25,24.6715729 25.6715729,24 26.5,24 L27,24 C27,23.4477153 27.4477153,23 28,23 Z" stroke="#FFFFFF" fill="none"></path> </g> <g transform="translate(0, 58)" fill="none"> <path d="M3,0 L8.81042652,0 C9.48730942,0 10.1442998,0.228907696 10.6746321,0.649524 L12.2089235,1.8663986 C12.7392558,2.28701491 13.3962462,2.5159226 14.0731291,2.5159226 L29,2.5159226 C30.6568542,2.5159226 32,3.85906835 32,5.5159226 L32,24 C32,25.6568542 30.6568542,27 29,27 L3,27 C1.34314575,27 0,25.6568542 0,24 L0,3 C0,1.34314575 1.34314575,0 3,0 Z" fill="#579CCF" fill-rule="nonzero"></path> <path d="M3,6 L29,6 C30.6568542,6 32,7.34314575 32,9 L32,24 C32,25.6568542 30.6568542,27 29,27 L3,27 C1.34314575,27 0,25.6568542 0,24 L0,9 C0,7.34314575 1.34314575,6 3,6 Z" fill="#8ACEF7" fill-rule="nonzero"></path> <circle stroke="#FFFFFF" fill="#616161" fill-rule="nonzero" cx="27" cy="25" r="6"> </circle> <text fill="#272727" fill-rule="nonzero" font-family="sans-serif" font-size="6" font-weight="400"> <tspan x="3" y="40" fill="#272727">Webinars</tspan> </text> <path d="M28,23 C28.5522847,23 29,23.4477153 29,24 L28.9997075,24.0852495 C29.5824565,24.2910851 30,24.8467813 30,25.5 C30,26.3284271 29.3284271,27 28.5,27 L26.5,27 C25.6715729,27 25,26.3284271 25,25.5 C25,24.6715729 25.6715729,24 26.5,24 L27,24 C27,23.4477153 27.4477153,23 28,23 Z" stroke="#FFFFFF" fill="none"></path> </g> <g transform="translate(53, 58)" fill="none"> <path d="M3,0 L8.81042652,0 C9.48730942,0 10.1442998,0.228907696 10.6746321,0.649524 L12.2089235,1.8663986 C12.7392558,2.28701491 13.3962462,2.5159226 14.0731291,2.5159226 L29,2.5159226 C30.6568542,2.5159226 32,3.85906835 32,5.5159226 L32,24 C32,25.6568542 30.6568542,27 29,27 L3,27 C1.34314575,27 0,25.6568542 0,24 L0,3 C0,1.34314575 1.34314575,0 3,0 Z" fill="#579CCF" fill-rule="nonzero"></path> <path d="M3,6 L29,6 C30.6568542,6 32,7.34314575 32,9 L32,24 C32,25.6568542 30.6568542,27 29,27 L3,27 C1.34314575,27 0,25.6568542 0,24 L0,9 C0,7.34314575 1.34314575,6 3,6 Z" fill="#8ACEF7" fill-rule="nonzero"></path> <circle stroke="#FFFFFF" fill="#616161" fill-rule="nonzero" cx="27" cy="25" r="6"> </circle> <text fill="#272727" fill-rule="nonzero" font-family="sans-serif" font-size="6" font-weight="400"> <tspan x="7.5" y="40" fill="#272727">Blogs</tspan> </text> <path d="M28,23 C28.5522847,23 29,23.4477153 29,24 L28.9997075,24.0852495 C29.5824565,24.2910851 30,24.8467813 30,25.5 C30,26.3284271 29.3284271,27 28.5,27 L26.5,27 C25.6715729,27 25,26.3284271 25,25.5 C25,24.6715729 25.6715729,24 26.5,24 L27,24 C27,23.4477153 27.4477153,23 28,23 Z" stroke="#FFFFFF" fill="none"></path> </g> <g transform="translate(106, 58)" fill="none"> <path d="M3,0 L8.81042652,0 C9.48730942,0 10.1442998,0.228907696 10.6746321,0.649524 L12.2089235,1.8663986 C12.7392558,2.28701491 13.3962462,2.5159226 14.0731291,2.5159226 L29,2.5159226 C30.6568542,2.5159226 32,3.85906835 32,5.5159226 L32,24 C32,25.6568542 30.6568542,27 29,27 L3,27 C1.34314575,27 0,25.6568542 0,24 L0,3 C0,1.34314575 1.34314575,0 3,0 Z" fill="#579CCF" fill-rule="nonzero"></path> <path d="M3,6 L29,6 C30.6568542,6 32,7.34314575 32,9 L32,24 C32,25.6568542 30.6568542,27 29,27 L3,27 C1.34314575,27 0,25.6568542 0,24 L0,9 C0,7.34314575 1.34314575,6 3,6 Z" fill="#8ACEF7" fill-rule="nonzero"></path> <circle stroke="#FFFFFF" fill="#616161" fill-rule="nonzero" cx="27" cy="25" r="6"> </circle> <text fill="#272727" fill-rule="nonzero" font-family="sans-serif" font-size="6" font-weight="400"> <tspan x="4" y="40" fill="#272727">Reports</tspan> </text> <path d="M28,23 C28.5522847,23 29,23.4477153 29,24 L28.9997075,24.0852495 C29.5824565,24.2910851 30,24.8467813 30,25.5 C30,26.3284271 29.3284271,27 28.5,27 L26.5,27 C25.6715729,27 25,26.3284271 25,25.5 C25,24.6715729 25.6715729,24 26.5,24 L27,24 C27,23.4477153 27.4477153,23 28,23 Z" stroke="#FFFFFF" fill="none"></path> </g> <g transform="translate(159, 58)" fill="none"> <path d="M3,0 L8.81042652,0 C9.48730942,0 10.1442998,0.228907696 10.6746321,0.649524 L12.2089235,1.8663986 C12.7392558,2.28701491 13.3962462,2.5159226 14.0731291,2.5159226 L29,2.5159226 C30.6568542,2.5159226 32,3.85906835 32,5.5159226 L32,24 C32,25.6568542 30.6568542,27 29,27 L3,27 C1.34314575,27 0,25.6568542 0,24 L0,3 C0,1.34314575 1.34314575,0 3,0 Z" fill="#579CCF" fill-rule="nonzero"></path> <path d="M3,6 L29,6 C30.6568542,6 32,7.34314575 32,9 L32,24 C32,25.6568542 30.6568542,27 29,27 L3,27 C1.34314575,27 0,25.6568542 0,24 L0,9 C0,7.34314575 1.34314575,6 3,6 Z" fill="#8ACEF7" fill-rule="nonzero"></path> <circle stroke="#FFFFFF" fill="#616161" fill-rule="nonzero" cx="27" cy="25" r="6"> </circle> <text fill="#272727" fill-rule="nonzero" font-family="sans-serif" font-size="6" font-weight="400"> <tspan x="0" y="40" fill="#272727">Media Kits</tspan> </text> <path d="M28,23 C28.5522847,23 29,23.4477153 29,24 L28.9997075,24.0852495 C29.5824565,24.2910851 30,24.8467813 30,25.5 C30,26.3284271 29.3284271,27 28.5,27 L26.5,27 C25.6715729,27 25,26.3284271 25,25.5 C25,24.6715729 25.6715729,24 26.5,24 L27,24 C27,23.4477153 27.4477153,23 28,23 Z" stroke="#FFFFFF" fill="none"></path> </g> <g transform="translate(212, 58)" fill="none"> <path d="M3,0 L8.81042652,0 C9.48730942,0 10.1442998,0.228907696 10.6746321,0.649524 L12.2089235,1.8663986 C12.7392558,2.28701491 13.3962462,2.5159226 14.0731291,2.5159226 L29,2.5159226 C30.6568542,2.5159226 32,3.85906835 32,5.5159226 L32,24 C32,25.6568542 30.6568542,27 29,27 L3,27 C1.34314575,27 0,25.6568542 0,24 L0,3 C0,1.34314575 1.34314575,0 3,0 Z" fill="#579CCF" fill-rule="nonzero"></path> <path d="M3,6 L29,6 C30.6568542,6 32,7.34314575 32,9 L32,24 C32,25.6568542 30.6568542,27 29,27 L3,27 C1.34314575,27 0,25.6568542 0,24 L0,9 C0,7.34314575 1.34314575,6 3,6 Z" fill="#8ACEF7" fill-rule="nonzero"></path> <circle stroke="#FFFFFF" fill="#616161" fill-rule="nonzero" cx="27" cy="25" r="6"> </circle> <text fill="#272727" fill-rule="nonzero" font-family="sans-serif" font-size="6" font-weight="400"> <tspan x="3" y="40" fill="#272727">Webinars</tspan> </text> <path d="M28,23 C28.5522847,23 29,23.4477153 29,24 L28.9997075,24.0852495 C29.5824565,24.2910851 30,24.8467813 30,25.5 C30,26.3284271 29.3284271,27 28.5,27 L26.5,27 C25.6715729,27 25,26.3284271 25,25.5 C25,24.6715729 25.6715729,24 26.5,24 L27,24 C27,23.4477153 27.4477153,23 28,23 Z" stroke="#FFFFFF" fill="none"></path> </g> </g> </g> <g class="dis-zwd-truesync" transform="translate(0, 270)" fill="none"> <rect fill="#333333" fill-rule="nonzero" opacity="0.1" filter="url(#TrSy-Shadow)" x="20.5" y="10.5" width="176" height="38" rx="6"></rect> <path d="M12.569426,0 L174.930574,0 C179.317368,0 180.91164,0.447919672 182.516329,1.30611682 C184.101747,2.1540077 185.345992,3.3982531 186.193883,4.9836712 C187.05208,6.58836034 187.5,8.18263161 187.5,12.569426 L187.5,28.930574 C187.5,33.3173684 187.05208,34.9116397 186.193883,36.5163288 C185.345992,38.1017469 184.101747,39.3459923 182.516329,40.1938832 C180.91164,41.0520803 179.317368,41.5 174.930574,41.5 L12.569426,41.5 C8.18263161,41.5 6.58836034,41.0520803 4.9836712,40.1938832 C3.3982531,39.3459923 2.1540077,38.1017469 1.30611682,36.5163288 C0.447919672,34.9116397 0,33.3173684 0,28.930574 L0,12.569426 C0,8.18263161 0.447919672,6.58836034 1.30611682,4.9836712 C2.1540077,3.3982531 3.3982531,2.1540077 4.9836712,1.30611682 C6.58836034,0.447919672 8.18263161,0 12.569426,0 Z" stroke="#7EDADA" stroke-width="0.5px" fill="#E6FFFF" fill-rule="nonzero"></path> <line x1="164.5" y1="24.5" x2="172.5" y2="24.5" stroke="#000000" stroke-width="1.5px" fill="none"></line> <polygon fill="#333333" fill-rule="nonzero" points="168.75 17.75 164.75 22.75 172.75 22.75"> </polygon> <text fill="#333333" fill-rule="nonzero" font-family="sans-serif" font-size="13" font-weight="bold"> <tspan x="18.5" y="25.5" fill="#333333">WorkDrive TrueSync</tspan> </text> </g> <path d="M328.83,25 L529.67,25 C543.521302,25 554.75,36.0434063 554.75,49.6661385 L554.75,298.333861 C554.75,311.956594 543.521302,323 529.67,323 L328.83,323 C314.978698,323 303.75,311.956594 303.75,298.333861 L303.75,49.6661385 C303.75,36.0434063 314.978698,25 328.83,25 Z" fill="#3B4B64" opacity="0.04" class="dis-pop-shadow" fill-rule="nonzero" filter="url(#TrSyPop-Shadow)"></path> <g class="dis-sync-icon-box" transform="translate(241.75, 314)" fill="none"> <path d="M20.5110816,10 L45.4889184,10 C52.6210683,10 55.2073582,10.7426049 57.8147656,12.1370616 C60.422173,13.5315184 62.4684816,15.577827 63.8629384,18.1852344 C65.2573951,20.7926418 66,23.3789317 66,30.5110816 L66,55.4889184 C66,62.6210683 65.2573951,65.2073582 63.8629384,67.8147656 C62.4684816,70.422173 60.422173,72.4684816 57.8147656,73.8629384 C55.2073582,75.2573951 52.6210683,76 45.4889184,76 L20.5110816,76 C13.3789317,76 10.7926418,75.2573951 8.18523437,73.8629384 C5.57782696,72.4684816 3.53151837,70.422173 2.13706163,67.8147656 C0.742604889,65.2073582 -5.52448164e-16,62.6210683 -5.52448164e-16,55.4889184 L-5.52448164e-16,30.5110816 C-5.52448164e-16,23.3789317 0.742604889,20.7926418 2.13706163,18.1852344 C3.53151837,15.577827 5.57782696,13.5315184 8.18523437,12.1370616 C10.7926418,10.7426049 13.3789317,10 20.5110816,10 Z" fill="#333333" fill-rule="nonzero" opacity="0.07" filter="url(#SyIco-Shadow)"></path> <path d="M20.5110816,0 L45.4889184,0 C52.6210683,0 55.2073582,0.742604889 57.8147656,2.13706163 C60.422173,3.53151837 62.4684816,5.57782696 63.8629384,8.18523437 C65.2573951,10.7926418 66,13.3789317 66,20.5110816 L66,45.4889184 C66,52.6210683 65.2573951,55.2073582 63.8629384,57.8147656 C62.4684816,60.422173 60.422173,62.4684816 57.8147656,63.8629384 C55.2073582,65.2573951 52.6210683,66 45.4889184,66 L20.5110816,66 C13.3789317,66 10.7926418,65.2573951 8.18523437,63.8629384 C5.57782696,62.4684816 3.53151837,60.422173 2.13706163,57.8147656 C0.742604889,55.2073582 0,52.6210683 0,45.4889184 L0,20.5110816 C0,13.3789317 0.742604889,10.7926418 2.13706163,8.18523437 C3.53151837,5.57782696 5.57782696,3.53151837 8.18523437,2.13706163 C10.7926418,0.742604889 13.3789317,0 20.5110816,0 Z" stroke="#E5EAF2" fill="#FFFFFF"></path> </g> <g class="dis-sync-icon" transform="translate(262, 335.5)" fill="none"> <path d="M22.0320174,3.68195415 C20.7513806,3.08607451 19.3363718,2.70637451 17.8385662,2.68985042 C12.4793781,2.63072681 8.18317734,6.92999556 8.24273313,12.292536 C8.26475144,14.2751158 8.87905286,16.1254649 9.91550206,17.6733563" stroke="#000000" stroke-width="1.2px" stroke-linecap="round" transform="translate(15, 10) rotate(40) translate(-15, -10)" fill="none"></path> <path d="M9.04003786,24.9939314 C10.1635571,25.3931162 11.3611385,25.6984459 12.6242363,25.7121427 C17.9871762,25.7702977 22.2872681,21.473303 22.2287604,16.1145364 C22.2110266,14.4902866 21.7949017,12.9549201 21.0741839,11.6021567" stroke="#000000" stroke-width="1.2px" stroke-linecap="round" transform="translate(15.5, 18.5) rotate(40) translate(-15, -18)" fill="none"></path> <polygon fill="#333333" fill-rule="nonzero" transform="translate(25.5, 18.5) rotate(-126) translate(-25.5829, -18.6034)" points="21.5321115 19.2596365 28.6379197 22.5611821 29.6337204 14.6456765"></polygon> <polygon fill="#333333" fill-rule="nonzero" transform="translate(5.5, 10.5) rotate(51) translate(-5.6232, -10.6338)" points="1.58547216 11.2799293 8.68063084 14.5998183 9.6609581 6.6677662"></polygon> </g> <g class="dis-truesync-popup" transform="translate(329, 0)" fill="none"> <g fill="none"> <path d="M14,0 L247,0 C254.731986,0 261,6.2680135 261,14 L261,52 L261,52 L0,52 L0,14 C0,6.2680135 6.2680135,0 14,0 Z" fill="#019C7B" fill-rule="nonzero"></path> <g transform="translate(164, 20)" fill="none"> <g transform="translate(69, 1)" fill="#FFFFFF" fill-rule="nonzero"> <path d="M10.3548,4.476 L10.1508,3.9816 C10.8504,2.3676 10.8048,2.3196 10.668,2.1816 L9.774,1.29 L9.6852,1.2132 L9.582,1.2132 C9.5268,1.2132 9.3648,1.2132 8.0052,1.842 L7.5048,1.6356 C6.858,0 6.792,0 6.6,0 L5.3412,0 C5.1516,0 5.0784,0 4.4796,1.6416 L3.9816,1.848 C3.0636,1.452 2.5248,1.248 2.3796,1.248 L2.2596,1.248 L1.2996,2.208 C1.152,2.358 1.1004,2.4072 1.8408,3.996 L1.6368,4.4892 C0,5.1348 0,5.1972 0,5.4 L0,6.6576 C0,6.8556 0,6.9252 1.6428,7.5264 L1.8468,8.0184 C1.1472,9.6324 1.194,9.6804 1.3296,9.8184 L2.2236,10.7112 L2.3124,10.7892 L2.4168,10.7892 C2.4708,10.7892 2.6316,10.7892 3.9924,10.1592 L4.4916,10.3668 C5.1384,12 5.2044,12 5.4,12 L6.6564,12 C6.8496,12 6.918,12 7.5192,10.3596 L8.0196,10.1532 C8.9376,10.5492 9.474,10.7532 9.6192,10.7532 L9.7392,10.7532 L10.7088,9.7848 C10.8468,9.6432 10.8948,9.594 10.1592,8.0112 L10.362,7.518 C12,6.8652 12,6.7968 12,6.6 L12,5.3424 C12,5.1444 12,5.0748 10.3548,4.476 Z M5.5057501,8 C4.49396241,8.00230592 3.5805421,7.39452316 3.19187775,6.46036077 C2.8032134,5.52619839 3.01594887,4.44987136 3.7307783,3.73381385 C4.44560772,3.01775633 5.52156817,2.80317345 6.45639659,3.19023344 C7.39122502,3.57729342 8.00057512,4.4896688 8,5.50145877 C7.99764934,6.8787151 6.88300064,7.99527879 5.5057501,8 Z" fill="#FFFFFF"> </path> </g> <g transform="translate(0, 2)" stroke="#FFFFFF" stroke-width="1.8px" fill="none"> <path d="M4,9 C6.2091392,9 8,6.9852816 8,4.5 C8,2.0147184 6.2091392,-8.99209041e-23 4,-8.99209041e-23 C1.7908608,-8.99209041e-23 -4.44089205e-16,2.0147184 -4.44089205e-16,4.5 C-4.44089205e-16,6.9852816 1.7908608,9 4,9 Z" stroke="#FFFFFF" fill="none" stroke-width="1.8px"> </path> <path d="M7,8 L9,10 L7,8 Z" stroke-linejoin="round" stroke="#FFFFFF" fill="none" stroke-width="1.8px"></path> </g> <path d="M28.5,0 C32.0898512,0 35,2.9101488 35,6.5 C35,10.0898512 32.0898512,13 28.5,13 C24.9101488,13 22,10.0898512 22,6.5 C22,2.9101488 24.9101488,0 28.5,0 Z M27.9285265,1.3079637 C26.6666797,0.97907208 25.848925,0.913611745 25.4752623,1.1115827 C24.9147684,1.40853912 23,3.65022625 23,3.65022625 C23,3.65022625 23.2521235,5.42419678 23.8294783,6 C24.4068332,6.57580322 25.9953164,6.79368514 26.343995,6.79368514 C26.6926736,6.79368514 27.41058,7.07769486 27.41058,7.28756769 C27.41058,7.49744052 27.2204995,8.04597178 27.41058,8.65255877 C27.6006606,9.25914576 28.2419025,8.65255877 28.8145152,9.0624922 C29.196257,9.33578114 29.6496138,9.98161708 30.1745857,11 C30.2855867,9.83743172 30.481068,9.05495131 30.7610296,8.65255877 C31.1809719,8.04896997 31.010782,7.5565865 30.535383,6.79368514 C30.0599841,6.03078377 28.8685228,6.79368514 28.2419025,6.79368514 C27.6152821,6.79368514 27.2204995,5.66623194 27.2204995,5.42419678 C27.2204995,5.18216162 26.0543296,6.02233435 25.6484356,5.66623194 C25.2425416,5.31012954 25.4752623,4.36025056 26.343995,4.36025056 C27.2127276,4.36025056 27.9285265,4.72780058 28.2419025,4.05838802 C28.5552785,3.38897546 27.4360031,3.65022625 27.2204995,2.81945692 C27.0768304,2.2656107 27.3128394,1.76177962 27.9285265,1.3079637 Z" fill="#FFFFFF" fill-rule="nonzero"></path> <path d="M46,2.25400005 L46,10.746 C46,11.4385651 46.5614349,12 47.254,12 L56.746,12 C57.4385651,12 58,11.4385651 58,10.746 L58,4.56668687 C58,3.87412177 57.4385651,3.31268682 56.746,3.31268682 L52.9984057,3.31268682 C52.6793861,3.31268682 52.3778406,3.16696287 52.1796166,2.9170013 L50.9731859,1.39568552 C50.7749619,1.14572395 50.4734164,1 50.1543967,1 L47.254,1 C46.5614349,1 46,1.56143495 46,2.25400005 Z" fill="#FFFFFF" fill-rule="nonzero"></path> </g> <g transform="translate(16, 12)" fill="none"> <g fill="#FFFFFF" fill-rule="nonzero"> <rect x="0" y="0" width="27" height="28" rx="4" fill="#FFFFFF"></rect> </g> <g fill="none"> <mask fill="#FFFFFF"> <use xlink:href="#path-4"></use> </mask> <g fill="none"></g> <g mask="url(#mask-5)" fill="none"> <g transform="translate(-2, 3)" fill="none"> <g transform="translate(0, 0)" fill="none"> <path d="M9.85548506,9.92708789 C9.59120354,9.67317643 9.29489596,7.3138488 9.13710947,6.31661289 C8.97932297,5.31937697 8.86078906,4.09613098 9.35394851,3.16649084 C9.84710797,2.23685071 10.1801105,1.92392358 10.7634971,1.6573799 C11.3468837,1.39083622 11.6299469,1.46894521 11.9020525,1.36779688 C12.3488969,1.20213005 13.2372122,0.0879071483 14.9241317,0.00700042402 C16.6110511,-0.0739063002 18.0082503,0.56469209 18.8896436,0.982396767 C19.771037,1.40010144 20.9560151,2.54589727 21.2749334,2.88132152 C21.5938518,3.21674578 21.8995593,3.75004543 21.9773659,4.74986016 C22.0551725,5.74967488 21.9143839,7.03833191 21.8268169,8.03037022 C21.7733883,8.6356578 21.7095987,9.78979461 21.3079604,10 L9.85548506,9.92708789 Z" fill="#262423" fill-rule="nonzero"></path> <rect fill="#3F3F3F" fill-rule="nonzero" x="11" y="20" width="12" height="9"></rect> <path d="M18.2605895,13 L13.0991341,13 L12.839355,17.5266352 L11,19.7030498 C11,19.7030498 12.2076099,22 15.6734633,22 C18.772896,22 21,19.7030498 21,19.7030498 L18.5203686,17.5266352 L18.2605895,13 Z" fill="#EA9572" fill-rule="nonzero"></path> <path d="M13.1998882,14 L13,17 C13,17 18.6946553,16.605642 19,14 L13.1998882,14 Z" fill="#DB7D50" fill-rule="nonzero"></path> <path d="M18.1235248,3 C21.5213981,3 20.952851,7.97304903 20.9792223,9.04481163 C21.0136391,10.4423795 20.3655312,13.4090149 18.5785412,14.7849799 C17.6618037,15.4908178 16.6194674,15.9832731 15.5735553,15.9995854 C14.4789234,16.0163386 13.3811627,15.5238833 12.421516,14.7849799 C10.6340791,13.4090149 9.98597118,10.4423795 10.0208349,9.04481163 C10.0472062,7.97304903 9.47821216,3 12.8765325,3 L18.1235248,3 L18.1235248,3 Z" fill="#EA9572" fill-rule="nonzero"></path> <path d="M20,13 C21.0332078,12.3117597 22.3016175,11.1029947 21.9356147,9.74025468 C21.7732135,9.13445773 21.0368079,8.82246623 20.4632035,9.10536008 L20,13 Z" fill="#EA9572" fill-rule="nonzero"></path> <path d="M11,13 C9.96693288,12.3117597 8.698696,11.1029947 9.06424898,9.74025468 C9.22702804,9.13445773 9.96293339,8.82246623 10.5364596,9.10536008 L11,13 Z" fill="#EA9572" fill-rule="nonzero"></path> <path d="M9.6265869,8 L10.5671334,9.92813898 C10.5671334,9.92813898 10.1321261,7.16688602 10.6265869,4.92813898 L9.9404717,6.18329385 L9.6265869,8 Z" fill="#262423" fill-rule="nonzero"></path> <path d="M22,7.07186102 L21.0801733,9 C21.0801733,9 21.4839292,6.23874704 21,4 L21.69303,5.25515487 L22,7.07186102 Z" fill="#262423" fill-rule="nonzero"></path> <g transform="translate(-0, 16)" fill-rule="nonzero" fill="none"> <path d="M12.7606052,10.0458284 L13,1.59079607 L11.8041849,2.22956276 L12.0462315,1 C12.0462315,1 6.14335262,2.31498412 3.15709168,3.93588616 C1.57505058,4.79472859 0.597689097,8.16192954 -3.21116497e-23,11.9995792 L3.45244097,11.9995792 L8.86310016,11.9995792 L12.8200245,12 C12.8125971,11.2282621 12.7938101,10.5650893 12.7606052,10.0458284 Z" fill="#FFBC1F"></path> <path d="M12.8068072,1.0854583 L12.862709,3.64015021e-23 C12.862709,3.64015021e-23 12.0075005,0.0975189524 10.907905,1.70296347 C9.80830942,3.30840799 10.0155263,4.87870434 10.0155263,4.87870434 L11.5907254,5.2294969 L10.8435155,6.08373535 C10.8435155,6.08373535 12.8068072,7.87021852 14,9 C14,8.99965541 12.9148058,4.14334941 12.8068072,1.0854583 Z" fill="#FFE29E"></path> </g> <g transform="translate(17, 16)" fill-rule="nonzero" fill="none"> <path d="M11.877773,5.18808899 C11.2694514,4.34222926 10.2035428,3.63189402 9.01961404,3.05113549 C9.01547298,3.03244245 9.01257424,3.01927236 9.01257424,3.01927236 L8.90200796,2.99335702 C7.31556824,2.23161594 5.53822569,1.6997142 4.36920472,1.38533138 L2.72064911,1 L2.98898974,1.59987641 L2.52726165,1.49111695 L1.0563184,9.9483954 C1.02484635,10.47265 1.0070398,11.1422004 1,11.92136 L6.66583607,12 L10.7265586,12 L13,12 C12.7556775,8.53371698 12.4049298,5.92094083 11.877773,5.18808899 Z" fill="#FFBC1F"></path> <path d="M1.19231473,1.17148267 L1.13114478,0 C1.13114478,0 1.99220682,0.193940542 3.09209504,1.78227608 C4.19169058,3.37027078 3.98447375,4.92349934 3.98447375,4.92349934 L2.4092746,5.27047908 L3.15648445,6.11543268 C3.15648445,6.11543268 1.13114478,7.77683083 0,9 C0,8.99965916 1.08402344,4.1961371 1.19231473,1.17148267 Z" fill="#FFE29E"></path> </g> <g transform="translate(27, 26)" fill="#687FAC" fill-rule="nonzero"> <polygon points="1 0.0259044216 0.673561732 0 0 4 0.32967033 4" fill="#687FAC"> </polygon> </g> <rect fill="#687FAC" fill-rule="nonzero" x="6" y="28" width="8" height="1"></rect> <rect fill="#687FAC" fill-rule="nonzero" x="18" y="28" width="9" height="1"></rect> <path d="M10.177381,7.92813898 L10.6534215,6.67714129 C10.6534215,6.67714129 10.6534215,5.38161514 10.6534215,4.71074768 C10.6534215,4.04030029 11.5767512,3.00858427 12.6265869,3.00858427 L11.4021893,1.92813898 L9.62658691,4.28352651 L10.177381,7.92813898 Z" fill="#262423" fill-rule="nonzero"></path> <path d="M21.1010405,8.03273597 L20.625,6.78173828 C20.625,6.78173828 20.625,5.48621213 20.625,4.81534467 C20.625,4.14489728 19.7016703,3.11318126 18.6518346,3.11318126 L19.8762322,2.03273597 L21.6518346,4.38812349 L21.1010405,8.03273597 Z" fill="#262423" fill-rule="nonzero"></path> <path d="M20.6244498,9 C20.6244498,9 19.8000902,12.4007362 19.0131654,13.0318775 C18.2258423,13.6630188 17.0096134,14.1933449 15.8125,14.1933449 C14.6153866,14.1933449 13.3991577,13.6630188 12.6118346,13.0318775 C11.8245115,12.4007362 11.0005502,9 11.0005502,9 C11.0005502,9 10.9288668,12.7442391 12.4218735,14.611413 C13.2936237,15.7017391 14.8901731,16 15.8125,16 C16.7348269,16 18.3313763,15.7017391 19.2031265,14.611413 C20.6961332,12.7438587 20.6244498,9 20.6244498,9 Z" fill="#262423" fill-rule="nonzero"></path> </g> </g> </g> </g> </g> <text fill="#FFFFFF" fill-rule="nonzero" font-family="sans-serif" font-size="11" font-weight="bold"> <tspan x="52" y="23" fill="#FFFFFF">Jeffery D’Cruz</tspan> </text> <text fill="#FFFFFF" fill-rule="nonzero" font-family="sans-serif" font-size="8" font-weight="bold"> <tspan x="52" y="36" fill="#FFFFFF">Used 500 GB of 3 TB</tspan> </text> </g> <path d="M0,251 L261,251 L261,288.595 C261,293.789238 256.789238,298 251.595,298 L9.405,298 C4.21076193,298 0,293.789238 0,288.595 L0,251 L0,251 Z" fill="#EDF1F9" fill-rule="nonzero"></path> <polygon fill="#FFFFFF" fill-rule="nonzero" points="0 52 260 52 260 89 0 89"></polygon> <g transform="translate(0, 60)" fill="none"> <line x1="5.6141388e-15" y1="27.5" x2="261" y2="27.5" stroke="#D5DBE6" fill="none"></line> <line x1="6" y1="26.5" x2="73" y2="26.73875" stroke="#00B692" stroke-width="2px" fill="none"></line> <g transform="translate(10, 4.5)" fill="#333333" fill-rule="nonzero" font-family="sans-serif" font-size="10" font-weight="bold"> <text fill="#333333"> <tspan x="0" y="8" fill="#333333">Recent Files</tspan> </text> </g> <g transform="translate(85, 4)" fill="#070606" fill-rule="nonzero" font-family="sans-serif" font-size="10" font-weight="normal"> <text fill="#070606"> <tspan x="0" y="8" fill="#070606">Notifications</tspan> </text> </g> <g transform="translate(140, 0)" fill-rule="nonzero" fill="none"> <rect fill="#FF0049" x="0" y="0" width="13" height="11" rx="2"></rect> <g transform="translate(3.5, 1.5)" fill="#FFFFFF" font-family="sans-serif" font-size="7.5" font-weight="bold"> <text fill="#FFFFFF"> <tspan x="0" y="6.5" fill="#FFFFFF">9</tspan> </text> </g> </g> <g transform="translate(205, 0)" fill="none"> <rect stroke="#2A8469" stroke-width="0.5225px" fill="#46B08E" fill-rule="nonzero" x="-4.4408921e-16" y="-4.4408921e-16" width="44.5" height="19.5" rx="4"></rect> <g transform="translate(15.5, 3.5)" fill="#FFFFFF" fill-rule="nonzero" font-family="sans-serif" font-size="10.5" font-weight="400"> <text fill="#FFFFFF"> <tspan x="0" y="10" fill="#FFFFFF">New</tspan> </text> </g> <g transform="translate(6.5, 6.5)" stroke="#FFFFFF" stroke-width="1.5675px" fill="none"> <line x1="3" y1="2.19778204e-17" x2="3" y2="6" stroke="#FFFFFF" fill="none" stroke-width="1.5675px"></line> <line x1="6" y1="3" x2="0" y2="3" stroke="#FFFFFF" fill="none" stroke-width="1.5675px"></line> </g> </g> </g> <g transform="translate(0, 89)" fill-rule="nonzero" fill="none"> <rect fill="#FFFFFF" x="0" y="0" width="261" height="162"></rect> <rect class="dis-scrollbar-line" fill="#A0A2A5" x="249" y="7" width="4" height="51" rx="2"></rect> <g transform="translate(18, 14)" fill="none"> <text fill="#0A0909" font-family="sans-serif" font-size="11" font-weight="400"> <tspan x="26" y="10" fill="#0A0909">Vendor details</tspan> </text> <path d="M2,4 L5.86892762,4 C6.57127418,4 7.2221492,4.36841119 7.58365485,4.97057757 L8.21932367,6.02942243 C8.58082932,6.63158881 9.23170434,7 9.9340509,7 L16,7 C17.1045695,7 18,7.8954305 18,9 L18,18 C18,19.1045695 17.1045695,20 16,20 L2,20 C0.8954305,20 0,19.1045695 0,18 L0,6 C0,4.8954305 0.8954305,4 2,4 Z" fill="#51B296"></path> <path d="M2,8 L16,8 C16.5522847,8 17,8.44771525 17,9 L17,18 C17,18.5522847 16.5522847,19 16,19 L2,19 C1.44771525,19 1,18.5522847 1,18 L1,9 C1,8.44771525 1.44771525,8 2,8 Z" fill="#E5F6F2"></path> <text fill="#4B4B4B" font-family="sans-serif" font-size="9" font-weight="normal"> <tspan x="27" y="22" fill="#4B4B4B">Downloaded - 1 Hour ago . 10.8 KB</tspan> </text> </g> <g transform="translate(18, 52)" fill="none"> <text fill="#0A0909" font-family="sans-serif" font-size="11" font-weight="400"> <tspan x="27" y="10" fill="#0A0909">Service contract.pdf</tspan> </text> <path d="M1.94805871,4 C0.872177763,4 0,4.87218267 0,5.9480855 L0,19.0519145 C0,20.1278244 0.872177763,21 1.94805871,21 L15.0519413,21 C16.1277656,21 17,20.1278244 17,19.0519145 L17,5.9480855 C17,4.87218267 16.1278364,4 15.0519413,4 L1.94805871,4 Z M1,5.89294559 C1,5.39978245 1.39978332,5 1.89293155,5 L15.1070684,5 C15.600181,5 16,5.39978245 16,5.89294559 L16,19.1070544 C16,19.6002461 15.600181,20 15.1070684,20 L1.89293155,20 C1.39978332,20 1,19.6002461 1,19.1070544 L1,5.89294559 Z M9.04496058,7.54507777 C9.04496058,7.24404222 8.80098418,7 8.49988372,7 C8.19885593,7 7.95480685,7.24404222 7.95480685,7.54507777 L7.95480685,7.98842222 L4.53601207,7.98842222 L3.54507687,7.98842222 C3.24403455,7.98842222 3,8.23244263 3,8.53347091 C3,8.83457187 3.24403455,9.07854868 3.54507687,9.07854868 L3.99094974,9.07854868 L3.99094974,12.4866656 C3.99075351,12.4950961 3.99075351,12.5035266 3.99094974,12.5119572 L3.99094974,15.4704213 C3.99094974,15.7714496 4.23498429,16.015499 4.53601207,16.015499 L7.18595776,16.015499 L6.13257855,17.06888 C5.91970787,17.281751 5.91970787,17.6268943 6.13257855,17.8397653 C6.34544924,18.0526363 6.69059191,18.0526363 6.90346259,17.8397653 L8.49966569,16.2435596 L10.0964502,17.8403467 C10.3093209,18.0532178 10.6544636,18.0532178 10.8673342,17.8403467 C11.0802049,17.6274757 11.0802049,17.2824051 10.8673342,17.0695341 L9.81330093,16.015499 L12.4639007,16.015499 C12.7649285,16.015499 13.0089776,15.7714496 13.0089776,15.4704213 L13.0089776,10.5260572 C13.0090503,10.520025 13.0090503,10.5139201 13.0089776,10.5078153 L13.0089776,9.07854868 L13.4549231,9.07854868 C13.7559509,9.07854868 14,8.83457187 14,8.53347091 C14,8.23244263 13.7559509,7.98842222 13.4549231,7.98842222 L9.04496058,7.98842222 L9.04496058,7.54507777 Z M5,11.8632565 L5,9 L12,9 L12,10.2327216 L9.47443774,12 L7.73507717,11.0871535 C7.60271672,11.0176494 7.44944943,11.0062476 7.30905361,11.055369 L5,11.8632565 Z M5,13.2004889 L5,15 L12,15 L12,12 L9.82405085,13.2542028 C9.65746567,13.3502444 9.44408188,13.3616948 9.26499724,13.2843083 L7.44267888,12.4965477 L5,13.2004889 Z" fill="#E46E59"></path> <text fill="#4B4B4B" font-family="sans-serif" font-size="9" font-weight="normal"> <tspan x="27" y="22" fill="#4B4B4B">Downloaded - 1 Hours ago . 32.5 MB</tspan> </text> </g> <g transform="translate(19, 91)" fill="none"> <text fill="#0A0909" font-family="sans-serif" font-size="11" font-weight="400"> <tspan x="26" y="10" fill="#0A0909">Commercial-construction-budget</tspan> </text> <path d="M10.0637931,18.9659339 L6.18793103,18.9659339 L6.18793103,11.1940384 L13.9689655,11.1940384 L13.9689655,15.0558177 C13.9689655,15.3406606 14.2,15.5719876 14.4844828,15.5719876 C14.7689655,15.5719876 15,15.3406606 15,15.0558177 L15,6.55023593 C15,5.69570722 14.3051724,5 13.4517241,5 L1.54827586,5 C0.694827586,5 0,5.69570722 0,6.55023593 L0,18.4497641 C0,19.3042928 0.694827586,20 1.54827586,20 L10.062069,20 C10.3482759,20 10.5793103,19.7669467 10.5793103,19.4821038 C10.5793103,19.1972609 10.3482759,18.9659339 10.0637931,18.9659339 Z M1,18.4811107 L1,6.51888933 C1,6.23254572 1.2321738,6 1.51805944,6 L13.4819406,6 C13.7678262,6 14,6.23254572 14,6.51888933 L14,10.1493793 L6.18059443,10.1493793 L6.18059443,7.55493259 C6.18059443,7.26858897 5.94842063,7.03604325 5.66253499,7.03604325 C5.37664934,7.03604325 5.14447554,7.26858897 5.14447554,7.55493259 L5.14447554,10.1493793 L2.57150473,10.1493793 C2.28561909,10.1493793 2.05344529,10.381925 2.05344529,10.6682686 C2.05344529,10.9546122 2.28561909,11.1871579 2.57150473,11.1871579 L5.14447554,11.1871579 L5.14447554,19 L1.51805944,19 C1.2321738,19 1,18.7674543 1,18.4811107 Z" fill="#089949"></path> <path d="M17.9816713,17.9853796 C17.9319839,17.8007705 17.7882452,17.6587636 17.6054663,17.6090612 L11.6678147,16.0185833 C11.4850359,15.9688809 11.2898351,16.0203584 11.1549692,16.155265 C11.0218778,16.2883965 10.9686412,16.4854312 11.0183287,16.6682651 L12.6083274,22.6059307 C12.6580149,22.7905397 12.8017536,22.9325467 12.9845325,22.9822491 C13.0288963,22.9946747 13.0750346,23 13.121173,23 C13.259588,23 13.3962286,22.9449723 13.4991526,22.8455674 L17.8450308,18.4983797 C17.9781222,18.3652482 18.0313588,18.1682135 17.9816713,17.9853796 Z M13.3619385,21.2945557 L12.2902661,17.2945557 L16.2902661,18.3662281 L13.3619385,21.2945557 Z" fill="#089949"></path> <text fill="#4B4B4B" font-family="sans-serif" font-size="9" font-weight="normal"> <tspan x="26" y="22" fill="#4B4B4B">Downloaded - 7 Hours ago . 10.3 KB</tspan> </text> </g> <g transform="translate(19, 130)" fill="none"> <text fill="#0A0909" font-family="sans-serif" font-size="11" font-weight="400"> <tspan x="26" y="10" fill="#0A0909">Marketing-plan.docx</tspan> </text> <g transform="translate(0, 5)" fill="#226DB4"> <path d="M5.47429907,5 L3.52570093,5 C3.23481308,5 3,4.77666667 3,4.5 C3,4.22333333 3.23481308,4 3.52570093,4 L5.47429907,4 C5.76518692,4 6,4.22333333 6,4.5 C6,4.77666667 5.76518692,5 5.47429907,5 Z" fill="#226DB4"> </path> <path d="M13.4745187,15 L1.52548131,15 C0.684597961,15 0,14.328184 0,13.5030007 L0,1.49699933 C0,0.671815959 0.684597961,0 1.52548131,0 L14.4852775,0 C14.7672707,0 14.9949037,0.223382974 14.9949037,0.500111136 C14.9949037,0.776839298 14.7672707,1.00022227 14.4852775,1.00022227 L1.52548131,1.00022227 C1.24688562,1.00022227 1.01925255,1.22360525 1.01925255,1.49699933 L1.01925255,13.5030007 C1.01925255,13.7763948 1.24688562,13.9997777 1.52548131,13.9997777 L13.4745187,13.9997777 C13.7531144,13.9997777 13.9807475,13.7763948 13.9807475,13.5030007 L13.9807475,8.44187597 C13.9807475,8.16514781 14.2083805,7.94176484 14.4903737,7.94176484 C14.7723669,7.94176484 15,8.16514781 15,8.44187597 L15,13.5030007 C15,14.328184 14.315402,15 13.4745187,15 Z" fill="#226DB4"> </path> <path d="M3.52234475,8 C3.23331399,8 3,7.77777778 3,7.50248756 C3,7.22719735 3.23331399,7.00497512 3.52234475,7.00497512 L8.47765525,7 L8.47765525,7 C8.76668601,7 9,7.22222222 9,7.49751244 C9,7.77280265 8.76668601,7.99502488 8.47765525,7.99502488 L3.52234475,8 L3.52234475,8 Z" fill="#226DB4"> </path> <path d="M3.52234475,11 C3.23331399,11 3,10.7777778 3,10.5024876 C3,10.2271973 3.23331399,10.0049751 3.52234475,10.0049751 L8.47765525,10 L8.47765525,10 C8.76668601,10 9,10.2222222 9,10.4975124 C9,10.7728027 8.76668601,10.9950249 8.47765525,10.9950249 L3.52234475,11 L3.52234475,11 Z" fill="#226DB4"> </path> <path d="M16.5386989,8 C16.4615582,8 16.3844176,7.98066077 16.314991,7.94037072 L13.7462073,6.46414305 C13.7446644,6.46414305 13.7431216,6.46253145 13.7415788,6.46253145 L11.2360504,4.98791538 C11.091026,4.90250046 11.0015428,4.74295184 11,4.56889879 C11,4.39484575 11.0879403,4.23368553 11.231422,4.14827061 L13.7986629,2.60757885 L16.3026485,1.06688709 C16.4461301,0.978248966 16.6235536,0.978248966 16.7670352,1.06366389 C16.9105168,1.1490788 17,1.31023903 17,1.48268047 L17,7.51813093 C17,7.68896076 16.9136025,7.84689779 16.7732065,7.93392431 C16.7022371,7.97743757 16.620468,8 16.5386989,8 Z M14.0707831,5.55335284 L16.1169434,6.54266357 L16.1169434,2.54266357 L14.1496753,3.55998757 L12.1169434,4.58615786 L14.0707831,5.55335284 Z" fill="#226DB4"> </path> </g> <text fill="#4B4B4B" font-family="sans-serif" font-size="9" font-weight="normal"> <tspan x="26" y="22" fill="#4B4B4B">Downloaded - 8 Hours ago . 85.8 MB</tspan> </text> </g> </g> </g> <g class="WDTrSy" transform="translate(352.5, 259)" fill="#333333" fill-rule="nonzero" font-family="sans-serif" font-size="13" font-weight="400"> <rect fill="#EDF1F9" x="0" y="0" width="136" height="27"></rect> <text fill="#333333"> <tspan x="0" y="18" fill="#333333">Zylker Corporation</tspan> </text> </g> <g class="syncing" transform="translate(352.5, 259)" fill="#333333" fill-rule="nonzero" font-family="sans-serif" font-size="13" font-weight="400"> <rect fill="#EDF1F9" x="0" y="0" width="136" height="27"></rect> <text fill="#333333"> <tspan x="0" y="18" fill="#333333">Syncing…</tspan> </text> </g> <g class="sync-completed" transform="translate(340.5, 259)" fill="none"> <rect fill="#EDF1F9" x="0" y="0" width="136" height="27"></rect> <polyline stroke="#000000" stroke-width="2px" stroke-linecap="round" stroke-linejoin="round" points="12 15.0080998 15.2679064 18 21 10" fill="none"></polyline> <text fill="#333333" fill-rule="nonzero" font-family="sans-serif" font-size="13" font-weight="normal"> <tspan x="33" y="18" fill="#333333">Sync Completed</tspan> </text> </g> </g> </g> </svg>