<?xml version="1.0" encoding="UTF-8" standalone="no"?>
<svg
   class="zwd-banner-graphics"
   width="770"
   height="490"
   viewBox="0 0 770 490"
   version="1.1"
   id="svg175"
   sodipodi:docname="users.svg"
   inkscape:version="1.4 (86a8ad7, 2024-10-11)"
   xmlns:inkscape="http://www.inkscape.org/namespaces/inkscape"
   xmlns:sodipodi="http://sodipodi.sourceforge.net/DTD/sodipodi-0.dtd"
   xmlns:xlink="http://www.w3.org/1999/xlink"
   xmlns="http://www.w3.org/2000/svg"
   xmlns:svg="http://www.w3.org/2000/svg">
  <sodipodi:namedview
     id="namedview175"
     pagecolor="#ffffff"
     bordercolor="#000000"
     borderopacity="0.25"
     inkscape:showpageshadow="2"
     inkscape:pageopacity="0.0"
     inkscape:pagecheckerboard="0"
     inkscape:deskcolor="#d1d1d1"
     showgrid="false"
     inkscape:zoom="1.6632653"
     inkscape:cx="385.08589"
     inkscape:cy="245"
     inkscape:window-width="1920"
     inkscape:window-height="1017"
     inkscape:window-x="-8"
     inkscape:window-y="-8"
     inkscape:window-maximized="1"
     inkscape:current-layer="g102" />
  <defs
     id="defs23">
    <linearGradient
       x1="71%"
       y1="47%"
       x2="19%"
       y2="75%"
       id="BgPolyGrdn">
      <stop
         stop-color="#FFFFFF"
         stop-opacity="0.1"
         offset="0%"
         id="stop1" />
      <stop
         stop-color="#FFFFFF"
         stop-opacity="0.4"
         offset="100%"
         id="stop2" />
    </linearGradient>
    <linearGradient
       x1="-8%"
       y1="50%"
       x2="108%"
       y2="50%"
       id="BgCirGrdn">
      <stop
         stop-color="#FFFFFF"
         stop-opacity="0.08"
         offset="0%"
         id="stop3" />
      <stop
         stop-color="#FFFFFF"
         stop-opacity="0.5"
         offset="100%"
         id="stop4" />
    </linearGradient>
    <linearGradient
       x1="-3%"
       y1="50%"
       x2="100%"
       y2="50%"
       id="BgWaveGrdn">
      <stop
         stop-color="#4749E3"
         stop-opacity="0"
         offset="0%"
         id="stop5" />
      <stop
         stop-color="#FFFFFF"
         stop-opacity="0.5"
         offset="25%"
         id="stop6" />
      <stop
         stop-color="#FFFFFF"
         stop-opacity="0.5"
         offset="75%"
         id="stop7" />
      <stop
         stop-color="#4749E3"
         stop-opacity="0"
         offset="100%"
         id="stop8" />
    </linearGradient>
    <circle
       id="User-1-Path"
       cx="20"
       cy="20"
       r="20" />
    <circle
       id="User-2-Path"
       cx="20"
       cy="20"
       r="20" />
    <circle
       id="User-3-Path"
       cx="20"
       cy="20"
       r="20" />
    <circle
       id="User-4-Path"
       cx="20"
       cy="20"
       r="20" />
    <linearGradient
       x1="-8%"
       y1="50%"
       x2="108%"
       y2="50%"
       id="linearGradient10">
      <stop
         stop-color="#FFFFFF"
         stop-opacity="0.08"
         offset="0%"
         id="stop9" />
      <stop
         stop-color="#FFFFFF"
         stop-opacity="0.5"
         offset="100%"
         id="stop10" />
    </linearGradient>
    <linearGradient
       x1="-3%"
       y1="50%"
       x2="100%"
       y2="50%"
       id="linearGradient14">
      <stop
         stop-color="#4749E3"
         stop-opacity="0"
         offset="0%"
         id="stop11" />
      <stop
         stop-color="#FFFFFF"
         stop-opacity="0.5"
         offset="25%"
         id="stop12" />
      <stop
         stop-color="#FFFFFF"
         stop-opacity="0.5"
         offset="75%"
         id="stop13" />
      <stop
         stop-color="#4749E3"
         stop-opacity="0"
         offset="100%"
         id="stop14" />
    </linearGradient>
    <linearGradient
       x1="71%"
       y1="47%"
       x2="19%"
       y2="75%"
       id="linearGradient16">
      <stop
         stop-color="#FFFFFF"
         stop-opacity="0.1"
         offset="0%"
         id="stop15" />
      <stop
         stop-color="#FFFFFF"
         stop-opacity="0.4"
         offset="100%"
         id="stop16" />
    </linearGradient>
    <circle
       id="circle16"
       cx="20"
       cy="20"
       r="20" />
    <circle
       id="circle17"
       cx="20"
       cy="20"
       r="20" />
    <circle
       id="circle18"
       cx="20"
       cy="20"
       r="20" />
    <circle
       id="circle19"
       cx="20"
       cy="20"
       r="20" />
    <circle
       id="circle20"
       cx="20"
       cy="20"
       r="20" />
    <circle
       id="circle21"
       cx="20"
       cy="20"
       r="20" />
    <circle
       id="circle22"
       cx="20"
       cy="20"
       r="20" />
    <circle
       id="circle23"
       cx="20"
       cy="20"
       r="20" />
  </defs>
  <g
     stroke="none"
     stroke-width="1"
     fill="none"
     fill-rule="evenodd"
     id="g175">
    <g
       id="zwd-dms-banner"
       transform="translate(6, 0)"
       fill="none">
      <g
         class="dms-team-members"
         transform="translate(305.99387,173.07362)"
         fill="none"
         id="g160">
        <g
           class="dms-ban-user-1"
           transform="translate(150.26994)"
           fill="none"
           id="g102">
          <circle
             stroke="#4749e3"
             stroke-width="5px"
             cx="22.5"
             cy="22.5"
             r="22.5"
             fill="none"
             id="circle82"
             style="fill:#4749e3;fill-opacity:1;opacity:1" />
          <g
             transform="translate(2.5,2.5)"
             fill="none"
             id="g101">
            <mask
               id="User-1-Mask"
               fill="#ffffff">
              <use
                 xlink:href="#User-1-Path"
                 id="use82" />
            </mask>
            <use
               fill="#ffffff"
               xlink:href="#User-1-Path"
               id="use83" />
            <g
               mask="url(#User-1-Mask)"
               fill="none"
               id="g100">
              <g
                 transform="translate(1,7.5)"
                 fill="none"
                 id="g99">
                <g
                   fill="none"
                   id="g98">
                  <rect
                     fill="#eeefe0"
                     fill-rule="nonzero"
                     x="10.5"
                     y="26"
                     width="13"
                     height="13.5"
                     id="rect83" />
                  <g
                     transform="translate(0,24.5)"
                     fill="#ffd96d"
                     fill-rule="nonzero"
                     id="g84">
                    <path
                       d="M 35.134193,5.6174099 C 33.285649,1.9729799 23.466849,0 23.466849,0 l 0.572128,1.9786478 C 23.604656,1.753634 23.336383,1.626674 23.336383,1.626674 L 20.33963,3.3241963 c -0.631431,1.5042484 -0.861863,1.6170387 -0.861863,2.9716557 0,0.4681648 0,4.255992 0,9.010187 h 8.415308 3.899845 5.049185 C 36.389147,10.690139 35.81363,6.9567238 35.134193,5.6174099 Z"
                       fill="#ffd96d"
                       id="path83" />
                    <path
                       d="m 13.964328,1.626674 c 0,0 -0.497011,0.235216 -1.244223,0.639334 L 13.375257,5.6678538e-4 c 0,0 -9.818801,1.97297991462 -11.6673448,5.61740991462 C 1.0284749,6.9572906 0.45295819,10.690706 0,15.306039 h 5.5077908 3.4406749 8.8744783 c 0,-4.754195 0,-8.5420222 0,-9.010187 0,-1.3540502 -0.260366,-1.4668405 -0.891796,-2.9716557 z"
                       fill="#ffd96d"
                       id="path84" />
                  </g>
                  <rect
                     fill="#ee95b2"
                     fill-rule="nonzero"
                     x="19.5"
                     y="36.5"
                     width="12.5"
                     height="1"
                     id="rect84" />
                  <g
                     transform="translate(10)"
                     fill-rule="nonzero"
                     fill="none"
                     id="g94">
                    <g
                       fill="none"
                       id="g92">
                      <path
                         d="M 16.968222,12.591504 C 17.419486,10.725079 17.346064,9.191358 17.575367,7.9886394 18.469987,3.2984903 14.222234,2.7770478 14.197383,2.7759142 14.123396,2.7730803 13.730305,2.1071075 13.670438,2.0351257 13.1915,1.458705 12.607511,0.95483278 11.93937,0.6130612 9.1035802,-0.83904296 4.5152607,0.46626378 2.3436594,2.6676582 1.2852508,3.7405829 0.68262443,5.1394093 0.35900218,6.6051163 -2.0156439e-4,8.23009 0.73627908,12.590937 0.73627908,12.590937 c 0.0118605,5.67e-4 16.23194292,5.67e-4 16.23194292,5.67e-4 z"
                         fill="#745b55"
                         id="path85" />
                      <path
                         d="M 12.348839,18.431549 H 5.5149315 l -0.3439546,5.683157 c 0,0 -0.572128,3.27772 3.7524367,3.27772 4.2183854,0 3.7693804,-3.27772 3.7693804,-3.27772 z"
                         fill="#fac5ae"
                         id="path86" />
                      <path
                         d="m 5.5149315,19.484181 -0.2355157,3.897783 c 0,0 6.7096552,-0.512374 7.0694232,-3.897783 z"
                         fill="#f7a593"
                         id="path87" />
                      <path
                         d="m 12.134976,4.9251471 c 4.43961,-1.2925558 3.607661,6.4551359 3.640983,7.8324249 0.04349,1.796709 -0.77545,5.610608 -3.033464,7.379545 -1.158376,0.907424 -2.475456,1.540523 -3.7970548,1.561494 C 7.5622799,21.720149 6.175166,21.08705 4.962571,20.137117 2.7039927,18.36818 1.8850533,14.554281 1.9291066,12.757572 1.962429,11.379716 1.5014324,3.8869888 5.7954986,3.8869888 7.0620774,5.4407981 9.1752367,5.7868509 12.134976,4.9251471 Z"
                         fill="#fac5ae"
                         id="path88" />
                      <path
                         d="m 14.880774,17.086678 c 1.458841,-0.965235 3.249777,-2.66049 2.732998,-4.57169 -0.229303,-0.849612 -1.269073,-1.28717 -2.078976,-0.89042 z"
                         fill="#fac5ae"
                         id="path89" />
                      <path
                         d="M 2.8242921,17.086678 C 1.3654504,16.121443 -0.42548525,14.426188 0.09072894,12.514988 0.32059675,11.665376 1.3598026,11.227818 2.1697054,11.624568 Z"
                         fill="#fac5ae"
                         id="path90" />
                      <path
                         d="m 0.93225974,10.810664 1.43850936,2.491022 c 0,0 -0.6653176,-3.5673476 0.090931,-6.4596534 l -1.0499367,1.621573 z"
                         fill="#745b55"
                         id="path91" />
                      <path
                         d="m 16.757557,10.675202 -1.438509,2.491022 c 0,0 0.63143,-3.5673473 -0.125383,-6.4596531 l 1.083824,1.621573 z"
                         fill="#745b55"
                         id="path92" />
                    </g>
                    <path
                       d="m 10.95043,4.4099565 c 0,0 -1.4464167,-0.565085 -2.0981794,1.3268446 -0.6517628,1.8919296 -2.1727309,1.9350053 -3.1362554,2.2518383 0,0 0.9699747,-0.7191504 0.9168848,-1.6928877 0,0 -1.0563869,1.1068316 -2.5553283,2.0097207 -1.4995062,0.9028891 -1.8829958,3.5276726 -1.7067826,4.9962136 0,0 -1.89993933,-3.7232136 -0.9584415,-6.2023329 C 2.3538255,4.6202339 5.6922742,2.2125296 8.5579972,2.5134926 11.42372,2.8144556 10.95043,4.4099565 10.95043,4.4099565 Z"
                       fill="#745b55"
                       id="path93" />
                    <path
                       d="m 15.319048,13.166224 c 0,0 0,-2.356127 0,-3.4579577 0,-1.1018308 -0.93092,-1.8134531 -1.483693,-2.60948 -0.368514,-0.5306845 -0.655802,-1.5465528 -0.861863,-3.047605 l 2.829012,1.685053 0.621829,3.3077595 z"
                       fill="#745b55"
                       id="path94" />
                  </g>
                  <path
                     d="m 14.880411,24.114706 0.107874,-1.785374 c 0,0 -1.724291,0.913658 -2.817152,2.02229 -1.09286,1.108633 1.272463,5.959749 1.272463,5.959749 l 3.487552,-2.293214 c 5.65e-4,-5.67e-4 -2.050737,-3.289056 -2.050737,-3.903451 z"
                     fill="#e9b650"
                     fill-rule="nonzero"
                     id="path95" />
                  <path
                     d="m 22.402227,24.114706 -0.107874,-1.785374 c 0,0 1.712996,0.913658 2.805856,2.02229 1.092861,1.108633 -1.272462,5.959749 -1.272462,5.959749 l -3.487552,-2.293214 c 0,-5.67e-4 2.062032,-3.289056 2.062032,-3.903451 z"
                     fill="#e9b650"
                     fill-rule="nonzero"
                     id="path96" />
                  <path
                     d="m 4.2421059,33.789732 c 0.4038218,1.704891 0.6839556,3.848473 0.8782419,6.209701 H 5.4083885 C 5.2124079,37.6144 4.9305798,35.44758 4.5216749,33.722852 Z"
                     fill="#ee95b2"
                     fill-rule="nonzero"
                     id="path97" />
                  <path
                     d="m 32.669468,33.789732 -0.279569,-0.06631 C 31.980994,35.44758 31.699166,37.614967 31.503185,40 h 0.288041 c 0.194851,-2.362361 0.47442,-4.505944 0.878242,-6.210268 z"
                     fill="#ee95b2"
                     fill-rule="nonzero"
                     id="path98" />
                  <circle
                     fill="#ffffff"
                     fill-rule="nonzero"
                     transform="rotate(-55.6759,16,38.5)"
                     cx="16"
                     cy="38.5"
                     r="1"
                     id="circle98" />
                  <rect
                     fill="#ee95b2"
                     fill-rule="nonzero"
                     x="5"
                     y="36.5"
                     width="12.5"
                     height="1"
                     id="rect98" />
                </g>
              </g>
            </g>
          </g>
        </g>
        <g
           class="dms-ban-user-2"
           transform="translate(80.184049,1.202454)"
           fill="none"
           id="g120">
          <circle
             stroke="#4749e3"
             stroke-width="5px"
             cx="22.5"
             cy="22.5"
             r="22.5"
             fill="none"
             id="circle102" />
          <g
             transform="translate(2.5,2.5)"
             fill="none"
             id="g119">
            <mask
               id="User-2-Mask"
               fill="#ffffff">
              <use
                 xlink:href="#User-2-Path"
                 id="use102" />
            </mask>
            <use
               fill="#ffffff"
               xlink:href="#User-2-Path"
               id="use103" />
            <g
               mask="url(#User-2-Mask)"
               fill="none"
               id="g118">
              <g
                 transform="translate(0,4)"
                 fill="none"
                 id="g117">
                <path
                   d="m 15.240317,31.660082 0.987858,-4.852287 c 0,0 -7.1080942,1.209888 -10.3650374,3.296944 C 4.7125929,30.842346 3.2430747,32.42316 2.8376903,33.625088 2.5363191,34.518176 1.3436357,37.507342 0,41.052101 h 5.5324294 5.4076136 6.788588 z"
                   fill="#f7a5c4"
                   fill-rule="nonzero"
                   id="path103" />
                <g
                   transform="translate(12)"
                   fill-rule="nonzero"
                   fill="none"
                   id="g112">
                  <g
                     fill="none"
                     id="g111">
                    <g
                       transform="translate(0,4.5)"
                       fill="none"
                       id="g109">
                      <path
                         d="M 16.024929,10.959036 C 17.705674,3.1435855 13.216576,0 8.3599649,0 3.5038873,0 -0.98574425,3.1435855 0.69500054,10.959036 Z"
                         fill="#674f3f"
                         id="path104" />
                      <path
                         d="M 11.662247,16.897632 H 5.2081017 l -0.3248409,5.320853 -0.7664964,1.735234 c 0,0 0.9233161,2.429858 4.3104089,2.429858 3.1577307,0 4.3322787,-2.429858 4.3322787,-2.429858 l -0.772364,-1.735234 z"
                         fill="#f9a574"
                         id="path105" />
                      <path
                         d="m 5.2081017,18.007163 -0.222428,3.649297 c 0,0 6.3367973,-0.47971 6.6765733,-3.649297 z"
                         fill="#eb8a52"
                         id="path106" />
                      <path
                         d="m 11.491025,3.8939282 c 4.054911,0 3.376425,6.5259648 3.407896,7.8154508 0.04107,1.682168 -0.732359,5.252929 -2.864894,6.909095 -1.094004,0.849575 -2.337894,1.442314 -3.586051,1.461948 C 7.1416783,20.100587 5.8316468,19.507848 4.686436,18.618474 2.5533677,16.962308 1.779937,13.391547 1.8215423,11.709379 1.8530129,10.419362 1.1739941,3.8939282 5.2294377,3.8939282 Z"
                         fill="#f9a574"
                         id="path107" />
                      <path
                         d="m 14.053481,15.762503 c 1.377774,-0.903702 3.069186,-2.490883 2.581125,-4.280244 -0.216561,-0.795448 -1.198551,-1.205112 -1.963447,-0.833655 z"
                         fill="#f9a574"
                         id="path108" />
                      <path
                         d="M 2.666982,15.762503 C 1.2892086,14.858801 -0.40220417,13.27162 0.08585724,11.482259 0.30241781,10.686811 1.284408,10.277147 2.0493043,10.648604 Z"
                         fill="#f9a574"
                         id="path109" />
                    </g>
                    <path
                       d="m 6.3197082,0.05435384 c 0.2112266,0.07004614 0.3904491,0.19687209 0.5184652,0.36190502 0.209093,-0.0971094 0.45019,-0.13213248 0.6944874,-0.0780059 0.2821688,0.0620864 0.5125978,0.22658863 0.6651504,0.44787073 0.2496314,-0.0971094 0.5371342,-0.1050692 0.805968,0.005307 0.1569749,0.0627199 0.2909513,0.15834151 0.3971639,0.27580311 L 9.4502351,0.9898947 C 9.7894778,0.49585719 10.464763,0.3716845 10.959225,0.7091795 c 0.455813,0.311451 0.597283,0.9080594 0.349792,1.3844624 0.09246,0.029398 0.181733,0.073851 0.265219,0.1316119 0.230962,0.1591958 0.379781,0.3916216 0.436855,0.6426202 0.301371,0 0.602209,0.1215195 0.816636,0.3645583 0.301371,0.3348417 0.352578,0.8071225 0.165888,1.1907842 0.312039,0.2998186 0.426187,0.7720995 0.246964,1.1934375 -0.144018,0.3454548 -0.448056,0.5778807 -0.792633,0.6426202 -0.01387,0.3183915 -0.168555,0.6267006 -0.445389,0.826226 -0.244298,0.1756459 -0.534468,0.235079 -0.808636,0.1915655 -0.100279,0.253652 -0.298704,0.4696275 -0.570205,0.5884937 -0.2715,0.1188661 -0.564337,0.1188661 -0.819303,0.021757 -0.1520192,0.229242 -0.3877821,0.3995815 -0.6758184,0.4616678 -0.078943,0.01645 -0.1546861,0.02441 -0.230429,0.02441 -0.5029966,0 -0.9505196,-0.3454548 -1.0620003,-0.850636 C 7.7672957,7.2077023 7.8449131,6.8949703 8.0232682,6.6540036 6.6840775,6.5534225 5.5836417,6.0182587 5.1658177,5.3036916 c 0.02312,0.083565 0.034283,0.17137 0.034283,0.2614887 0,0.1347857 -0.024536,0.2647956 -0.070409,0.3831311 0.08161,0.059433 0.1573531,0.1294792 0.222428,0.2106691 0.02987,0.037676 0.054407,0.075883 0.078943,0.1135596 0.019202,-0.00265 0.035204,-0.00796 0.054407,-0.010613 0.5888743,-0.116213 1.158546,0.2647956 1.2753607,0.850636 C 6.8776451,7.6984034 6.4946635,8.265671 5.9057895,8.3813532 5.8353806,8.3951502 5.7649717,8.40311 5.6940295,8.40311 5.3121148,8.40311 4.9595371,8.1977475 4.7664461,7.8793559 4.3647956,7.9791186 3.9252736,7.8443329 3.6511058,7.5015313 3.4041414,7.1910996 3.3556019,6.788865 3.4878853,6.4434102 3.2110504,6.2491914 3.0291609,5.9249627 3.0291609,5.5604044 3.0318279,5.2229094 3.189181,4.9204375 3.4334784,4.7209121 3.2979947,4.4348904 3.2867933,4.0915582 3.4388124,3.786433 3.5934985,3.4653883 3.8868688,3.2573725 4.212243,3.1952861 4.2314455,2.8630976 4.4021336,2.5447061 4.7061719,2.3504873 4.9910077,2.1668815 5.3275834,2.1318585 5.6262876,2.2263146 5.6482332,2.1900802 5.6722687,2.1551397 5.6982736,2.1216879 5.6792974,2.1182049 5.6602345,2.1125691 5.6412228,2.1063872 5.0710178,1.9201281 4.7616455,1.3072245 4.9488691,0.74314082 5.1360926,0.17587327 5.7495031,-0.13190519 6.3197082,0.05435384 Z"
                       fill="#674f3f"
                       id="path110" />
                    <path
                       d="m 12.658639,9.1343492 c -0.04214,0.3353723 -0.08321,0.6808271 0.0043,1.0071788 0.08801,0.326351 0.337643,0.633599 0.673685,0.684541 0.05974,0.009 0.121615,0.01008 0.177622,0.03396 0.10188,0.04298 0.158954,0.149114 0.20696,0.248346 0.116281,0.238793 0.230429,0.487139 0.42512,0.668622 0.194691,0.181483 0.494462,0.280184 0.733959,0.163441 0.338176,-0.164503 0.37338,-0.637314 0.270434,-0.998158 C 15.007768,10.439752 14.699462,10.000903 14.371421,9.5933616 13.88976,8.9947855 13.032586,7.7217501 12.11247,7.8459228 10.97046,8.0008734 11.93058,9.0871191 12.658672,9.1343472 Z"
                       fill="#674f3f"
                       id="path111" />
                  </g>
                </g>
                <path
                   d="M 38.233077,33.625088 C 37.827692,32.42316 36.358174,30.841816 35.20763,30.104739 31.95122,28.017683 24.842592,26.807795 24.842592,26.807795 l 0.987858,4.852287 -2.488313,9.392019 h 7.786579 4.410155 5.513761 c -1.328701,-3.511859 -2.504316,-6.492534 -2.819555,-7.427013 z"
                   fill="#f7a5c4"
                   fill-rule="nonzero"
                   id="path112" />
                <g
                   transform="translate(13,25)"
                   fill="#ffd3e4"
                   fill-rule="nonzero"
                   id="g114">
                  <path
                     d="m 3.9725766,0 c 0,0 -0.5748224,0.69680603 -1.8172791,1.2160327 C 0.91284088,1.7352593 0.64318998,3.8874442 0.64318998,3.8874442 H 1.6893285 L 0,5.4412637 c 0,0 1.1519364,2.9173203 2.9810557,6.1376833 H 5.2631579 C 4.848751,8.5203357 3.8656329,5.8315523 3.8996257,1.2164187 Z"
                     fill="#ffd3e4"
                     id="path113" />
                  <path
                     d="M 14.847536,5.8126255 13.157227,4.2587542 h 1.046746 c 0,0 -0.269426,-2.1522566 -1.512986,-2.6715005 -1.243178,-0.519244 -1.802666,-1.21607326 -1.802666,-1.21607326 l 0.07299,1.21607326 C 10.995321,6.2025411 10.003609,8.8914141 9.5843755,11.950128 H 11.864746 C 13.69531,8.7304292 14.847533,5.8126255 14.847533,5.8126255 Z"
                     fill="#ffd3e4"
                     id="path114" />
                </g>
                <g
                   transform="translate(5.5,37.5)"
                   fill="#f6c6cb"
                   fill-rule="nonzero"
                   id="g116">
                  <path
                     d="M 0.22343187,0.02918589 C 0.33651277,1.062897 0.42879104,2.2849898 0.5045339,3.5442282 H 0.77656813 C 0.70029187,2.2749074 0.60694679,1.0427322 0.49333249,5.3065252e-4 Z"
                     fill="#f6c6cb"
                     id="path115" />
                  <path
                     d="M 29.837291,0.02918589 29.56739,0 c -0.115748,1.0586518 -0.209093,2.2897656 -0.284302,3.5436976 h 0.272034 C 29.629798,2.299848 29.72261,1.0793472 29.837291,0.02918589 Z"
                     fill="#f6c6cb"
                     id="path116" />
                </g>
              </g>
            </g>
          </g>
        </g>
        <g
           class="dms-ban-user-3"
           transform="translate(6.8957055,1.803681)"
           fill="none"
           id="g140">
          <circle
             stroke="#4749e3"
             stroke-width="5px"
             cx="22.5"
             cy="22.5"
             r="22.5"
             fill="none"
             id="circle120" />
          <g
             transform="translate(2.5,2.5)"
             fill="none"
             id="g139">
            <mask
               id="User-3-Mask"
               fill="#ffffff">
              <use
                 xlink:href="#User-3-Path"
                 id="use120" />
            </mask>
            <use
               fill="#ffffff"
               xlink:href="#User-3-Path"
               id="use121" />
            <g
               mask="url(#User-3-Mask)"
               fill="none"
               id="g138">
              <g
                 transform="translate(-1,5)"
                 fill="none"
                 id="g137">
                <g
                   fill="none"
                   id="g136">
                  <path
                     d="M 12.939751,14.007862 C 12.583068,13.651014 12.536135,8.0713134 12.482164,7.2733777 12.465151,7.018904 12.364247,6.7726203 12.370113,6.5169767 12.38478,5.8705551 13.042415,5.4347324 13.280595,4.8327706 13.457763,4.384078 13.413178,3.8213109 13.765755,3.4913727 13.915938,3.3509734 14.118919,3.2766788 14.273208,3.1409595 14.67389,2.7893764 14.673303,2.10493 15.116811,1.8077516 c 0.326765,-0.2193738 0.770272,-0.1392293 1.137515,-0.2813835 0.603077,-0.2328288 0.881736,-1.00736467 1.503586,-1.18461873 0.482813,-0.13747427 0.994959,0.13981426 1.492439,0.0760496 0.543238,-0.0701996 1.041305,-0.53936714 1.56753,-0.38785295 0.266926,0.0766346 0.466974,0.30068841 0.7251,0.40306287 0.698114,0.27553354 1.620329,-0.39194793 2.183513,0.10354445 0.105598,0.0930145 0.180102,0.21703385 0.282766,0.31355834 0.317965,0.29776342 0.811338,0.26441862 1.247806,0.25213362 0.436468,-0.012285 0.956827,0.067275 1.145728,0.4598076 0.08565,0.1772541 0.08389,0.3907779 0.187142,0.5580871 0.281592,0.4557125 1.023705,0.2287337 1.475426,0.5165522 0.49044,0.3123884 0.421215,1.0424645 0.686381,1.5584318 0.258126,0.5013423 0.84419,0.8061257 1.001412,1.3478328 0.119677,0.4124228 -0.04458,0.8494155 -0.05338,1.2782182 -0.02757,1.3969727 -0.10501,2.7904353 -0.09504,4.187993 0.0035,0.537612 0.215887,2.763525 -0.326178,3.058949 z"
                     fill="#674f3f"
                     fill-rule="nonzero"
                     id="path121" />
                  <rect
                     fill="#ffeadf"
                     fill-rule="nonzero"
                     x="14.5"
                     y="29"
                     width="15.463522"
                     height="12.055031"
                     id="rect121" />
                  <path
                     d="m 24.699748,18.615438 h -7.098472 l -0.35727,5.865764 -2.529637,2.82027 c 0,0 1.660808,2.976464 6.427343,2.976464 4.262603,0 7.325505,-2.976464 7.325505,-2.976464 l -3.410199,-2.82027 z"
                     fill="#ea9572"
                     fill-rule="nonzero"
                     id="path122" />
                  <path
                     d="m 17.601276,20.720701 -0.244633,4.023024 c 0,0 6.969408,-0.528837 7.343105,-4.023024 z"
                     fill="#db7d50"
                     fill-rule="nonzero"
                     id="path123" />
                  <path
                     d="m 24.511433,5.7570657 c 4.459717,0 3.713498,6.5987653 3.74811,8.0208923 0.04517,1.85444 -0.805471,5.790884 -3.1509,7.61666 -1.20322,0.93658 -2.571289,1.590021 -3.944051,1.611666 -1.436708,0.02223 -2.877521,-0.631211 -4.13706,-1.611666 -2.346016,-1.825776 -3.196659,-5.76222 -3.1509,-7.61666 0.03461,-1.422127 -0.712194,-8.0208923 3.74811,-8.0208923 z"
                     fill="#ea9572"
                     fill-rule="nonzero"
                     id="path124" />
                  <path
                     d="m 27.329702,18.24558 c 1.515318,-0.99625 3.375587,-2.745976 2.838802,-4.718585 -0.23818,-0.876911 -1.318204,-1.328528 -2.159461,-0.919031 z"
                     fill="#ea9572"
                     fill-rule="nonzero"
                     id="path125" />
                  <path
                     d="m 14.806473,18.24558 c -1.515318,-0.99625 -3.375587,-2.745976 -2.839389,-4.718585 0.238767,-0.876911 1.318204,-1.328528 2.159461,-0.919031 z"
                     fill="#ea9572"
                     fill-rule="nonzero"
                     id="path126" />
                  <path
                     d="m 12.841194,11.767909 1.494199,2.571061 c 0,0 -0.691075,-3.68197 0.09445,-6.6672095 l -1.089996,1.6736762 z"
                     fill="#674f3f"
                     fill-rule="nonzero"
                     id="path127" />
                  <path
                     d="m 29.279142,11.62868 -1.494199,2.571061 c 0,0 0.655875,-3.681971 -0.130237,-6.6672097 l 1.125783,1.6736761 z"
                     fill="#674f3f"
                     fill-rule="nonzero"
                     id="path128" />
                  <g
                     transform="translate(0,23.5)"
                     fill-rule="nonzero"
                     fill="none"
                     id="g130">
                    <path
                       d="M 18.50253,14.68677 16.087131,2.9324272 14.481469,3.8204525 14.806473,2.1110916 c 0,0 -6.5575797,1.8281153 -10.5673362,4.0815234 C 2.1148752,7.3865936 0.80253794,12.067739 0,17.402911 h 4.6357126 7.2650804 l 6.681521,5.85e-4 c -0.01,-1.072885 -0.0352,-1.99484 -0.07978,-2.716726 z"
                       fill="#5584de"
                       id="path129" />
                    <path
                       d="M 17.290938,1.3813173 17.374931,0 c 0,0 -1.284958,0.1240993 -2.93711,2.1671334 -1.652152,2.0430341 -1.340807,4.0413399 -1.340807,4.0413399 l 2.36675,0.4464067 -1.122689,1.0870748 c 0,0 2.798148,1.6413558 3.374225,3.7111392 0,-4.38e-4 -0.262093,-6.1804084 -0.424362,-10.0717767 z"
                       fill="#7fa6f1"
                       id="path130" />
                  </g>
                  <g
                     transform="translate(24,23.5)"
                     fill-rule="nonzero"
                     fill="none"
                     id="g132">
                    <path
                       d="M 15.410192,8.1101891 C 14.548402,6.9454603 13.038364,5.9673455 11.36113,5.1676547 c -0.0059,-0.02574 -0.01,-0.043875 -0.01,-0.043875 L 11.194521,5.0880951 C 8.9470628,4.0391957 6.4291586,3.3067796 4.7730442,2.8738819 L 2.4375884,2.3432897 2.8177379,3.1693053 2.1636226,3.0195461 0.07978447,14.665018 C 0.03519903,15.386905 0.00997306,16.30886 0,17.381744 l 8.0266081,0.108285 h 5.7526949 3.220712 C 16.653891,12.71704 16.156998,9.1193088 15.410192,8.1101891 Z"
                       fill="#5584de"
                       id="path131" />
                    <path
                       d="M 1.0452964,1.5071707 0.95338802,0 c 0,0 1.29375338,0.24951415 2.94634518,2.2929868 1.652152,2.0430341 1.3408069,4.0413398 1.3408069,4.0413398 L 2.8737894,6.7807333 3.9964788,7.8678081 c 0,0 -2.7981484,1.6413558 -3.3742248,3.7111389 0,-4.38e-4 0.26033379,-6.1804081 0.4230424,-10.0717763 z"
                       fill="#7fa6f1"
                       id="path132" />
                  </g>
                  <g
                     transform="translate(6.5,34)"
                     fill="#687fac"
                     fill-rule="nonzero"
                     id="g133">
                    <polygon
                       points="29.249852,8.0696694 29.549044,8.0696694 30.157401,2.864367 29.861142,2.8304372 "
                       fill="#687fac"
                       id="polygon132" />
                    <path
                       d="M 0.34382037,0 0.07044122,0.12050936 C 0.8072743,1.7836555 0.6529852,4.2944622 0.51688228,6.5098455 0.50632257,6.6812496 0.49634951,6.8485587 0.48637645,7.0164528 H 0.78556823 C 0.79495464,6.8544087 0.8049277,6.6935345 0.81490075,6.5279804 0.95335028,4.2792523 1.109986,1.7292508 0.34382037,0 Z"
                       fill="#687fac"
                       id="path133" />
                  </g>
                  <rect
                     fill="#687fac"
                     fill-rule="nonzero"
                     x="7.5"
                     y="39.5"
                     width="10"
                     height="1"
                     id="rect133" />
                  <rect
                     fill="#687fac"
                     fill-rule="nonzero"
                     x="24.5"
                     y="39.5"
                     width="12"
                     height="1"
                     id="rect134" />
                  <path
                     d="m 14.126545,12.608549 0.679928,-1.74212 c 0,0 0,-1.8041308 0,-2.7383709 0,-0.933655 1.31879,-2.3704074 2.818269,-2.3704074 l -1.748805,-1.5046121 -2.53609,3.2800777 z"
                     fill="#674f3f"
                     fill-rule="nonzero"
                     id="path134" />
                  <path
                     d="m 27.990271,12.608549 -0.679928,-1.74212 c 0,0 0,-1.8041308 0,-2.7383709 0,-0.933655 -1.318791,-2.3704074 -2.81827,-2.3704074 l 1.748806,-1.5046121 2.53609,3.2800777 z"
                     fill="#674f3f"
                     fill-rule="nonzero"
                     id="path135" />
                  <path
                     d="m 28.1164,12.608549 c 0,0 -1.214366,5.229333 -2.373588,6.199843 -1.159808,0.97051 -2.951439,1.785996 -4.71491,1.785996 -1.763472,0 -3.555102,-0.815486 -4.71491,-1.785996 -1.159808,-0.97051 -2.373589,-6.199843 -2.373589,-6.199843 0,0 -0.105597,5.75754 2.093756,8.628705 1.284178,1.676601 3.63606,2.135238 4.994743,2.135238 1.358683,0 3.710565,-0.458637 4.994743,-2.135238 2.199353,-2.87175 2.093755,-8.628705 2.093755,-8.628705 z"
                     fill="#674f3f"
                     fill-rule="nonzero"
                     id="path136" />
                </g>
              </g>
            </g>
          </g>
        </g>
        <g
           class="dms-ban-user-4"
           transform="translate(-63.98773,2.404908)"
           fill="none"
           id="g158">
          <circle
             stroke="#4749e3"
             stroke-width="5px"
             cx="22.5"
             cy="22.5"
             r="22.5"
             fill="none"
             id="circle140" />
          <g
             transform="translate(2.5,2.5)"
             fill="none"
             id="g157">
            <mask
               id="User-4-Mask"
               fill="#ffffff">
              <use
                 xlink:href="#User-4-Path"
                 id="use140" />
            </mask>
            <use
               fill="#ffffff"
               xlink:href="#User-4-Path"
               id="use141" />
            <g
               mask="url(#User-4-Mask)"
               fill="none"
               id="g156">
              <g
                 transform="translate(1,4)"
                 fill="none"
                 id="g155">
                <g
                   fill="none"
                   id="g154">
                  <path
                     d="M 33.441848,30.308877 C 31.148896,27.741048 22.402151,26.23773 22.402151,26.23773 h -7.223796 c 0,0 -8.7197998,1.654373 -10.4505522,3.341299 C 3.1952538,31.07277 1.4728618,37.077204 0,41.127483 h 7.293201 7.493394 8.690339 7.034234 7.383569 C 36.268193,35.729063 34.123969,31.07277 33.441848,30.308877 Z"
                     fill="#66eedd"
                     fill-rule="nonzero"
                     id="path141" />
                  <circle
                     fill="#93786f"
                     fill-rule="nonzero"
                     cx="18.5"
                     cy="4"
                     id="ellipse141"
                     r="4" />
                  <g
                     transform="translate(9.5,4)"
                     fill-rule="nonzero"
                     fill="none"
                     id="g146">
                    <path
                       d="M 17.700978,11.880038 C 19.597195,3.6013526 14.532594,0 9.0533659,0 3.5747393,0 -1.4904629,3.6013526 0.40575334,11.880038 Z"
                       fill="#93786f"
                       id="path142" />
                    <polygon
                       fill="#ffc6b0"
                       points="12.747708,22.281726 12.390249,17.543168 5.8813711,17.543168 5.5239123,22.281726 9.0533659,27.895617 "
                       id="polygon142" />
                    <path
                       d="M 5.8813711,18.624658 5.629826,21.960501 c 0,0 5.108531,-1.09841 6.760423,-3.335843 z"
                       fill="#ffa795"
                       id="path143" />
                    <path
                       d="m 15.803559,7.6745092 c 0,1.3845294 0.04574,2.6811618 0.05897,3.2206678 0.05115,2.118015 -0.152852,5.204715 -2.812129,7.294845 -1.146997,0.902005 -2.532902,1.714295 -3.9230189,1.72945 -1.4394634,0.01637 -2.8831393,-0.795923 -4.0704559,-1.72945 -2.6586745,-2.090736 -2.8632805,-5.17683 -2.812129,-7.294845 0.013841,-0.580727 0.054762,-2.0319365 0.095082,-3.5328537 0.060178,-2.2380397 2.3908814,-4.5112382 6.7869015,-4.5112382 4.3966213,6.062e-4 6.6767753,2.7223825 6.6767753,4.8234241 z"
                       fill="#ffc6b0"
                       id="path144" />
                    <path
                       d="M 17.672695,10.655127 C 17.446424,9.8155591 16.399925,9.3827421 15.601962,9.7749446 L 15.26376,15.174246 c 1.436454,-0.954138 2.917441,-2.630243 2.408935,-4.519119 z"
                       fill="#ffc6b0"
                       id="path145" />
                    <path
                       d="M 2.5047702,9.7749446 C 1.7074086,9.3827421 0.66030728,9.8155591 0.43463889,10.655127 -0.0738672,12.544003 1.407721,14.220108 2.8441755,15.174246 Z"
                       fill="#ffc6b0"
                       id="path146" />
                  </g>
                  <path
                     d="m 19.943268,39.273159 h -2.405324 v -6.107932 l 0.0349,-0.04304 c 1.952784,-2.383524 3.669067,-4.653692 3.686519,-4.676727 l 0.24312,0.186706 c -0.01685,0.02243 -1.716283,2.270773 -3.658837,4.643387 v 5.689058 h 2.099017 v 0.308548 z"
                     fill="#a8c4c6"
                     fill-rule="nonzero"
                     id="path147" />
                  <path
                     d="m 22.296237,24.835015 c 0,0 3.134684,1.052339 3.226757,1.956163 0.09147,0.903824 -1.613378,5.887887 -1.613378,5.887887 0,0 -2.963177,-1.055976 -5.201807,-0.826838 l 3.694342,-5.613891 z"
                     fill="#70b1a8"
                     fill-rule="nonzero"
                     id="path148" />
                  <path
                     d="m 15.283667,24.835015 c 0,0 -3.171393,1.052339 -3.263465,1.956163 -0.09147,0.903824 1.613378,5.887887 1.613378,5.887887 0,0 2.834997,-1.055976 5.073627,-0.826838 l -3.529453,-5.613891 z"
                     fill="#70b1a8"
                     fill-rule="nonzero"
                     id="path149" />
                  <path
                     d="m 19.106791,34.17089 c 0,0.1764 -0.142021,0.31946 -0.31714,0.31946 -0.175118,0 -0.317139,-0.14306 -0.317139,-0.31946 0,-0.176401 0.142021,-0.319461 0.317139,-0.319461 0.175119,0 0.31714,0.14306 0.31714,0.319461 z"
                     fill="#e7d0aa"
                     fill-rule="nonzero"
                     id="path150" />
                  <path
                     d="m 19.106791,37.430959 c 0,0.1764 -0.142021,0.31946 -0.31714,0.31946 -0.175118,0 -0.317139,-0.14306 -0.317139,-0.31946 0,-0.1764 0.142021,-0.31946 0.317139,-0.31946 0.175119,0 0.31714,0.14306 0.31714,0.31946 z"
                     fill="#e7d0aa"
                     fill-rule="nonzero"
                     id="path151" />
                  <path
                     d="m 18.781226,6.8076956 c 0,0 -5.147646,0.1642765 -6.105082,5.5750954 -0.642703,3.630449 0.557853,5.452645 0.557853,5.452645 0,0 -2.306632,-2.213792 -1.9919,-5.452645 0.314732,-3.2382474 4.365329,-6.4564902 4.365329,-6.4564902 h 3.499365 z"
                     fill="#93786f"
                     fill-rule="nonzero"
                     id="path152" />
                  <path
                     d="m 18.854042,6.8076956 c 0,0 5.147646,0.1642765 6.105082,5.5750954 0.642704,3.630449 -0.557852,5.452645 -0.557852,5.452645 0,0 2.306632,-2.213792 1.991899,-5.452645 C 26.078439,9.1445436 22.027842,5.9263008 22.027842,5.9263008 h -3.499364 z"
                     fill="#93786f"
                     fill-rule="nonzero"
                     id="path153" />
                  <polygon
                     fill="#e7d0aa"
                     fill-rule="nonzero"
                     transform="rotate(-4.8417,3.9527874,38.702266)"
                     points="6.8970238,35.391219 7.2033372,35.391031 7.1998317,41.128104 6.8935183,41.128293 "
                     id="polygon153" />
                  <polygon
                     fill="#e7d0aa"
                     fill-rule="nonzero"
                     transform="rotate(-85.1816,30.470817,38.252423)"
                     points="27.856185,38.108891 33.59364,38.105402 33.593452,38.411735 27.855998,38.415224 "
                     id="polygon154" />
                </g>
              </g>
            </g>
          </g>
        </g>
      </g>
    </g>
  </g>
</svg>
