<?xml version="1.0" encoding="UTF-8" standalone="no"?>
<svg
   class="feat-wwf-graphics"
   width="139.35184"
   height="116.2037"
   viewBox="0 0 150.45065 125.5"
   version="1.1"
   id="svg123"
   sodipodi:docname="create-details2.svg"
   inkscape:export-filename="..\Desktop\images-dms\create-details.svg"
   inkscape:export-xdpi="96"
   inkscape:export-ydpi="96"
   inkscape:version="1.2.2 (732a01da63, 2022-12-09)"
   xmlns:inkscape="http://www.inkscape.org/namespaces/inkscape"
   xmlns:sodipodi="http://sodipodi.sourceforge.net/DTD/sodipodi-0.dtd"
   xmlns="http://www.w3.org/2000/svg"
   xmlns:svg="http://www.w3.org/2000/svg">
  <sodipodi:namedview
     id="namedview123"
     pagecolor="#ffffff"
     bordercolor="#000000"
     borderopacity="0.25"
     inkscape:showpageshadow="2"
     inkscape:pageopacity="0.0"
     inkscape:pagecheckerboard="0"
     inkscape:deskcolor="#d1d1d1"
     showgrid="false"
     inkscape:zoom="1.0500001"
     inkscape:cx="105.71428"
     inkscape:cy="170.47617"
     inkscape:window-width="1366"
     inkscape:window-height="705"
     inkscape:window-x="-8"
     inkscape:window-y="-8"
     inkscape:window-maximized="1"
     inkscape:current-layer="svg123">
    <inkscape:page
       x="0"
       y="0"
       width="150.45065"
       height="125.5"
       id="page2"
       margin="0"
       bleed="0" />
  </sodipodi:namedview>
  <defs
     id="defs29" />
  <g
     stroke="none"
     stroke-width="1"
     fill="none"
     fill-rule="evenodd"
     id="g123"
     transform="translate(-307.85002,-63.75)">
    <g
       class="wwf-create-options"
       transform="translate(308,64)"
       fill="none"
       id="g104">
      <rect
         stroke="#8fc780"
         fill="#ffffff"
         stroke-width="0.5px"
         x="0"
         y="0"
         width="150"
         height="125"
         rx="14"
         id="rect92" />
      <g
         transform="translate(114.09816,25.650307)"
         fill="#226db4"
         fill-rule="nonzero"
         id="g96">
        <path
           d="M 5.6510633,4.9877751 H 3.6940461 c -0.2921447,0 -0.5279723,-0.223383 -0.5279723,-0.5001112 0,-0.2767281 0.2358276,-0.5001111 0.5279723,-0.5001111 h 1.9570172 c 0.2921447,0 0.5279723,0.223383 0.5279723,0.5001111 0,0.2767282 -0.2358276,0.5001112 -0.5279723,0.5001112 z"
           fill="#226db4"
           id="path92" />
        <path
           d="M 13.959587,15 H 1.580397 C 0.70924277,15 0,14.328184 0,13.503001 V 1.4969993 C 0,0.67181596 0.70924277,0 1.580397,0 h 13.426335 c 0.292145,0 0.527973,0.22338297 0.527973,0.50011114 0,0.27672816 -0.235828,0.50011116 -0.527973,0.50011116 H 1.580397 c -0.2886248,0 -0.5244524,0.223383 -0.5244524,0.496777 V 13.503001 c 0,0.273394 0.2358276,0.496777 0.5244524,0.496777 h 12.37919 c 0.288625,0 0.524453,-0.223383 0.524453,-0.496777 l 0.0507,-4.6835906 c 0,-0.2767281 0.235828,-0.5001111 0.527972,-0.5001111 0.292145,0 0.527973,0.223383 0.527973,0.5001111 l -0.0507,4.6835906 C 15.539984,14.328184 14.830742,15 13.959587,15 Z"
           fill="#226db4"
           id="path93" />
        <path
           d="m 3.676447,8.0217826 c -0.2921447,0 -0.5279723,-0.223383 -0.5279723,-0.5001111 0,-0.2767282 0.2358276,-0.5001112 0.5279723,-0.5001112 l 5.0086971,-0.005 v 0 c 0.2921447,0 0.5279723,0.223383 0.5279723,0.5001112 0,0.2767281 -0.2358276,0.5001111 -0.5279723,0.5001111 z"
           fill="#226db4"
           id="path94" />
        <path
           d="m 3.676447,11.002445 c -0.2921447,0 -0.5279723,-0.223383 -0.5279723,-0.500111 0,-0.276728 0.2358276,-0.500111 0.5279723,-0.500111 l 5.0086971,-0.005 v 0 c 0.2921447,0 0.5279723,0.223383 0.5279723,0.500111 0,0.276728 -0.2358276,0.500111 -0.5279723,0.500111 z"
           fill="#226db4"
           id="path95" />
        <path
           d="m 17.473788,8.4209886 c -0.088,0 -0.175991,-0.020004 -0.255187,-0.06168 l -2.930246,-1.527006 c -0.0018,0 -0.0035,-0.00167 -0.0053,-0.00167 L 11.424965,5.3052937 C 11.259534,5.2169407 11.157459,5.051904 11.155699,4.871864 c 0,-0.18004 0.100315,-0.3467437 0.263986,-0.4350967 l 2.928487,-1.5936874 2.85633,-1.5936875 c 0.163671,-0.091687 0.36606,-0.091687 0.529732,-0.00333 C 17.897925,1.3344138 18,1.5011175 18,1.6794904 v 6.243054 c 0,0.176706 -0.09856,0.3400756 -0.258706,0.4300956 -0.08096,0.04501 -0.174231,0.068349 -0.267506,0.068349 z m -2.6733,-2.4638809 2.145327,1.1185819 V 2.5530179 l -2.062611,1.1502556 c -0.0018,0.00167 -0.0035,0.00167 -0.0053,0.00333 l -2.125969,1.1569237 z"
           fill="#226db4"
           id="path96" />
      </g>
      <g
         aria-label="ایجاد سند"
         id="text96"
         style="font-weight:bold;font-size:17.28px;font-family:'B Nazanin';-inkscape-font-specification:'B Nazanin, Bold';fill:#333333">
        <path
           d="m 102.15483,35.188985 q 0,0.599063 -0.64125,1.9575 -0.16875,0.354375 -0.23625,0.354375 -0.10968,0 -0.17718,-0.784687 l -0.80157,-8.910001 1.5525,-1.290937 q 0.15188,-0.126563 0.21938,-0.126563 0.0844,0 0.0844,0.177188 z"
           id="path1411" />
        <path
           d="m 97.404516,33.796798 q 0,1.24875 -0.480938,2.117812 -0.658125,1.18125 -2.025,1.18125 h -0.81 v -2.168437 h 0.936562 q 1.215,0 1.215,-0.455625 0,-0.396563 -0.945,-1.434376 -0.109687,-0.118125 0,-0.27 l 0.987188,-1.375312 q 0.126562,-0.177188 0.253125,-0.04219 0.379687,0.405 0.632812,1.1475 0.236251,0.691875 0.236251,1.299376 z m 1.510312,5.830312 -1.029375,1.037813 -1.037813,-1.037813 1.037813,-1.029375 z m -2.303438,0 -1.029375,1.037813 -1.037812,-1.037813 1.037812,-1.029375 z"
           id="path1413" />
        <path
           d="m 94.518893,37.09586 h -1.670625 q -2.7675,0 -2.7675,-2.59875 -2.809688,2.59875 -5.720625,2.59875 h -0.683438 v -2.168437 h 0.91125 q 1.535625,0 2.640938,-0.396563 0.750937,-0.27 2.379375,-1.215 -1.965938,-0.683438 -2.910938,-0.683438 -0.455625,0 -0.987187,0.50625 -0.531563,0.497813 -0.57375,0.497813 -0.320625,0 -0.320625,-0.295313 0,-0.320625 0.143437,-0.6075 0.97875,-1.974375 2.26125,-1.974375 0.666563,0 2.514375,0.599063 1.85625,0.590625 2.885625,0.590625 0.666563,0 0.666563,0.05906 -0.0084,0.02531 -0.05906,0.135 l -0.717187,1.544063 q -0.936563,0 -1.5525,0.253125 0,0.649688 0.750937,0.869063 0.405,0.118125 1.299375,0.118125 h 1.510313 z m -4.505625,2.252813 -1.1475,1.1475 -1.139063,-1.1475 1.139063,-1.1475 z"
           id="path1415" />
        <path
           d="m 84.123893,37.09586 h -0.995625 q -0.835313,0 -1.425938,-0.556875 -0.784687,-0.7425 -0.784687,-2.269687 0,-1.037813 -0.126563,-3.130313 -0.143437,-2.345625 -0.278437,-3.088125 -0.04219,-0.244688 0.03375,-0.320625 L 81.93858,26.59961 q 0.253125,-0.2025 0.295313,-0.2025 0,0 0.0084,0.0084 0.05063,0.0084 0.05063,0.23625 l -0.01688,7.095938 q 0,1.198125 1.341563,1.198125 h 0.50625 z"
           id="path1417" />
        <path
           d="m 78.960142,34.033048 q 0,3.062812 -3.830625,3.062812 -2.19375,0 -2.19375,-2.050312 0,-0.194063 0.02531,-0.405 0.135,-1.122188 0.6075,-1.122188 0.270001,0 0.303751,0.388125 0.04219,0.531563 0.219375,0.734063 0.3375,0.388125 1.366875,0.388125 0.649687,0 1.400625,-0.126563 1.105312,-0.185625 1.105312,-0.556875 0,-0.666562 -1.18125,-1.65375 -1.071562,-0.894375 -1.755,-1.08 l 0.50625,-1.89 q 0.05063,-0.194063 0.109688,-0.194063 0.05062,0 0.185625,0.08437 1.231875,0.784688 2.0925,1.873125 1.037812,1.31625 1.037812,2.548126 z"
           id="path1419" />
        <path
           d="m 67.704517,33.872735 q 0,1.172813 -0.4725,2.084063 -0.590625,1.139062 -1.704375,1.139062 -1.04625,0 -1.729687,-1.155937 -0.649688,1.155937 -1.65375,1.155937 -1.08,0 -1.738125,-1.155937 -0.675,1.155937 -2.050313,1.155937 h -1.172813 v -2.168437 h 1.38375 q 0.750938,0 1.071563,-0.50625 0.126563,-0.194063 0.30375,-0.936563 0.126563,-0.50625 0.413438,-0.50625 0.312187,0 0.430312,0.50625 0.185625,0.793125 0.27,0.945 0.278438,0.50625 1.0125,0.50625 0.725625,0 1.029375,-0.50625 0.09281,-0.151875 0.30375,-0.945 0.135,-0.50625 0.455625,-0.50625 0.278438,0 0.388125,0.514687 0.160313,0.793126 0.261563,0.961876 0.295312,0.514687 1.054687,0.514687 1.054688,0 1.054688,-0.70875 0,-0.354375 -0.717188,-1.257188 l 0.767813,-1.189687 q 0.143437,-0.227813 0.16875,-0.23625 0.05063,0.02531 0.16875,0.177187 0.210937,0.27 0.421875,0.81 0.278437,0.700313 0.278437,1.307813 z"
           id="path1421" />
        <path
           d="m 57.630141,37.09586 h -0.801563 q -0.649687,0 -1.257187,-0.3375 -0.599063,-0.345937 -0.928125,-0.902812 -0.734063,1.240312 -2.160001,1.240312 H 51.15014 v -2.168437 h 0.995625 q 1.231875,0 1.704376,-0.548438 0.244687,-0.278437 0.379687,-1.020938 0.10125,-0.548437 0.413438,-0.548437 0.30375,0 0.396562,0.548437 0.126563,0.742501 0.320625,1.020938 0.388125,0.548438 1.400625,0.548438 h 0.869063 z m -2.607188,-7.534688 -1.1475,1.1475 -1.1475,-1.1475 1.1475,-1.1475 z"
           id="path1423" />
        <path
           d="m 51.588891,37.09586 h -0.902812 q -1.206563,0 -2.041875,-1.5525 -0.700313,0.8775 -1.139063,1.130625 -0.725625,0.421875 -2.12625,0.421875 -2.117812,0 -2.117812,-1.9575 0,-0.295312 0.0675,-0.649687 0.2025,-1.071563 0.683437,-1.071563 0.27,0 0.278438,0.421875 0.01688,0.565313 0.160312,0.77625 0.286875,0.413438 1.24875,0.413438 2.345625,0 2.345625,-0.894375 0,-0.565313 -1.18125,-3.071251 l 0.953438,-1.257187 q 0.109687,-0.151875 0.135,-0.151875 0.05906,0 0.143437,0.227812 l 1.468125,3.915001 q 0.430313,1.155937 1.206563,1.155937 h 0.818437 z"
           id="path1425" />
      </g>
      <g
         transform="translate(116.08589,56.662577)"
         fill="#089949"
         fill-rule="nonzero"
         id="g98">
        <path
           d="M 10.852279,15.0519 H 6.6727476 V 6.6756757 H 15.063416 V 10.83774 c 0,0.306992 0.249136,0.556306 0.555908,0.556306 0.306771,0 0.555907,-0.249314 0.555907,-0.556306 V 1.6707795 C 16.175231,0.74980415 15.425964,0 14.50565,0 H 1.6695813 C 0.74926644,0 0,0.74980415 0,1.6707795 V 14.495593 c 0,0.920976 0.74926644,1.67078 1.6695813,1.67078 h 9.1808377 c 0.308631,0 0.557767,-0.251175 0.557767,-0.558167 0,-0.306992 -0.249136,-0.556306 -0.555907,-0.556306 z M 1.1136739,14.495593 V 1.6707795 c 0,-0.3069918 0.2491358,-0.5563063 0.5559074,-0.5563063 H 14.507509 c 0.306772,0 0.555907,0.2493145 0.555907,0.5563063 V 5.5630631 H 6.6727476 V 2.7815315 c 0,-0.3069917 -0.2491358,-0.5563063 -0.5559074,-0.5563063 -0.3067716,0 -0.5559074,0.2493146 -0.5559074,0.5563063 V 5.5630631 H 2.7999883 c -0.3067717,0 -0.5559074,0.2493145 -0.5559074,0.5563063 0,0.3069917 0.2491357,0.5563063 0.5559074,0.5563063 H 5.5609328 V 15.0519 H 1.6695813 c -0.3067716,0 -0.5559074,-0.249315 -0.5559074,-0.556307 z"
           fill="#089949"
           id="path97" />
        <path
           d="m 18.980797,13.743929 c -0.05206,-0.193498 -0.202655,-0.342343 -0.394155,-0.394438 l -6.220957,-1.667059 c -0.1915,-0.05209 -0.396014,0.0019 -0.537315,0.143263 -0.139442,0.139542 -0.195218,0.346064 -0.14316,0.537701 l 1.665863,6.22356 c 0.05206,0.193498 0.202655,0.342343 0.394155,0.394438 0.04648,0.01302 0.09482,0.01861 0.14316,0.01861 0.145019,0 0.288179,-0.05768 0.396014,-0.161868 l 4.553235,-4.556503 c 0.139441,-0.139541 0.195218,-0.346063 0.14316,-0.5377 z m -4.80423,3.624363 -1.167591,-4.361143 4.358016,1.168429 z"
           fill="#089949"
           id="path98" />
      </g>
      <g
         aria-label="بروز رسانی سند"
         id="text98"
         style="font-weight:bold;font-size:17.28px;font-family:'B Nazanin';-inkscape-font-specification:'B Nazanin, Bold';fill:#333333">
        <path
           d="m 104.57493,64.937892 q 0,1.24875 -0.48094,2.117812 -0.65812,1.18125 -2.025,1.18125 h -0.81 v -2.168437 h 0.93656 q 1.215,0 1.215,-0.455625 0,-0.396563 -0.945,-1.434375 -0.10969,-0.118125 0,-0.27 l 0.98719,-1.375313 q 0.12656,-0.177187 0.25313,-0.04219 0.37968,0.405 0.63281,1.1475 0.23625,0.691875 0.23625,1.299375 z m -0.32063,5.923125 -1.1475,1.1475 -1.1475,-1.1475 1.1475,-1.1475 z"
           id="path1386" />
        <path
           d="m 101.69773,68.236954 h -0.37125 q -0.81844,0 -1.26562,-0.219375 0,2.565 -1.552504,4.066875 -0.4725,0.455626 -0.599063,0.455626 -2.252812,0 -3.366562,-0.430313 -0.219375,-0.08438 -0.01687,-0.160313 1.527187,-0.565312 2.961562,-1.645312 1.603125,-1.206563 1.603125,-2.075625 0,-0.413438 -0.582187,-1.122188 -0.430313,-0.523125 -0.953438,-0.970312 l 0.885938,-1.78875 q 0.07594,-0.151875 0.185625,0 1.265625,1.72125 2.337184,1.72125 h 0.73406 z"
           id="path1388" />
        <path
           d="m 93.631492,67.924767 q 0,2.202187 -1.501875,3.81375 -0.4725,0.50625 -0.599063,0.50625 -2.117812,0 -3.366562,-0.430313 -0.244688,-0.08437 -0.01687,-0.16875 1.501875,-0.54 2.927812,-1.679062 1.560938,-1.240313 1.560938,-2.067188 -0.185625,0 -0.565313,0.0084 -0.37125,0.0084 -0.556875,0.0084 -1.1475,0 -1.65375,-0.261562 -0.700312,-0.362813 -0.700312,-1.324688 0,-0.894375 0.565312,-2.041875 0.683438,-1.38375 1.62,-1.38375 1.164375,0 1.797188,1.35 0.489375,1.04625 0.489375,2.354063 z m -1.307813,-2.134688 q -0.227812,-0.565312 -0.717187,-0.8775 -0.37125,-0.23625 -0.658125,-0.23625 -0.261563,0 -0.480938,0.185625 -0.219375,0.185625 -0.219375,0.43875 0,0.590625 0.945,0.590625 0.43875,0 1.130625,-0.10125 z"
           id="path1390" />
        <path
           d="m 87.033355,67.654767 q 0,2.413125 -1.603125,4.075312 -0.497812,0.514688 -0.6075,0.514688 -2.269688,0 -3.366563,-0.430313 -0.23625,-0.09281 -0.01687,-0.16875 1.560938,-0.556875 2.936251,-1.62 1.577812,-1.215 1.577812,-2.185312 0,-0.405 -0.57375,-1.130625 -0.480937,-0.6075 -0.936562,-0.953438 l 0.818437,-1.729687 q 0.07594,-0.160313 0.2025,-0.03375 1.569375,1.569375 1.569375,3.661875 z m -0.953437,-6.31125 -1.139063,1.139062 -1.1475,-1.139062 1.1475,-1.1475 z"
           id="path1392" />
        <path
           d="m 76.832424,67.654767 q 0,2.413125 -1.603125,4.075312 -0.497813,0.514688 -0.607501,0.514688 -2.269687,0 -3.366562,-0.430313 -0.23625,-0.09281 -0.01687,-0.16875 1.560937,-0.556875 2.93625,-1.62 1.577813,-1.215 1.577813,-2.185312 0,-0.405 -0.57375,-1.130625 -0.480938,-0.6075 -0.936563,-0.953438 l 0.818438,-1.729687 q 0.07594,-0.160313 0.2025,-0.03375 1.569375,1.569375 1.569375,3.661875 z"
           id="path1394" />
        <path
           d="m 70.335546,65.013829 q 0,1.172813 -0.4725,2.084063 -0.590626,1.139062 -1.704376,1.139062 -1.04625,0 -1.729687,-1.155937 -0.649688,1.155937 -1.65375,1.155937 -1.08,0 -1.738125,-1.155937 -0.675,1.155937 -2.050313,1.155937 h -1.172812 v -2.168437 h 1.38375 q 0.750937,0 1.071562,-0.50625 0.126563,-0.194063 0.30375,-0.936563 0.126563,-0.50625 0.413438,-0.50625 0.312187,0 0.430312,0.50625 0.185625,0.793125 0.27,0.945 0.278438,0.50625 1.0125,0.50625 0.725625,0 1.029375,-0.50625 0.09281,-0.151875 0.30375,-0.945 0.135,-0.50625 0.455625,-0.50625 0.278438,0 0.388125,0.514688 0.160313,0.793125 0.261563,0.961875 0.295312,0.514687 1.054687,0.514687 1.054688,0 1.054688,-0.70875 0,-0.354375 -0.717188,-1.257187 l 0.767813,-1.189688 q 0.143437,-0.227812 0.16875,-0.23625 0.05062,0.02531 0.16875,0.177188 0.210938,0.27 0.421875,0.81 0.278438,0.700312 0.278438,1.307812 z"
           id="path1396" />
        <path
           d="m 60.26117,68.236954 h -0.995625 q -0.835312,0 -1.425937,-0.556875 -0.784688,-0.7425 -0.784688,-2.269687 0,-1.037813 -0.126562,-3.130313 -0.143438,-2.345625 -0.278438,-3.088125 -0.04219,-0.244688 0.03375,-0.320625 l 1.392188,-1.130625 q 0.253125,-0.2025 0.295312,-0.2025 0,0 0.0084,0.0084 0.05063,0.0084 0.05063,0.23625 l -0.01687,7.095938 q 0,1.198125 1.341562,1.198125 h 0.50625 z"
           id="path1398" />
        <path
           d="m 55.105857,64.937892 q 0,1.24875 -0.480937,2.117812 -0.658125,1.18125 -2.025,1.18125 h -0.81 v -2.168437 h 0.936562 q 1.215,0 1.215,-0.455625 0,-0.396563 -0.945,-1.434375 -0.109687,-0.118125 0,-0.27 l 0.987188,-1.375313 q 0.126562,-0.177187 0.253125,-0.04219 0.379687,0.405 0.632812,1.1475 0.23625,0.691875 0.23625,1.299375 z m -0.05906,-4.995 -1.139063,1.1475 -1.1475,-1.1475 1.1475,-1.147501 z"
           id="path1400" />
        <path
           d="m 52.22867,68.236954 h -0.725625 q -0.455625,0 -1.366875,-0.126562 -0.902812,-0.126563 -1.358437,-0.126563 -0.388126,0 -0.725626,0.10125 -0.497812,0.151875 -0.497812,0.447188 0,0.177187 0.725625,0.286875 0.43875,0.04219 0.8775,0.08437 0.953438,0.118125 1.341563,0.30375 0.489375,0.23625 0.489375,0.759375 0,1.763437 -1.89,2.548125 -1.324688,0.548438 -3.391876,0.548438 -4.277812,0 -4.277812,-3.130313 0,-0.852188 0.556875,-2.067188 0.531562,-1.164375 0.835312,-1.164375 0.396563,0 0.396563,0.354375 0,0.0675 -0.23625,0.759375 -0.23625,0.683438 -0.23625,1.11375 0,1.38375 1.38375,1.847813 0.852187,0.286875 2.759062,0.286875 0.64125,0 1.712813,-0.185625 1.2825,-0.219375 1.2825,-0.514688 0,-0.143437 -0.8775,-0.210937 -1.18125,-0.08437 -1.636875,-0.219375 -0.885938,-0.253125 -0.885938,-0.860625 0,-0.928125 0.885938,-1.8225 1.164375,-1.18125 3.20625,-1.18125 h 1.65375 z"
           id="path1402" />
        <path
           d="m 36.19742,65.013829 q 0,1.172813 -0.4725,2.084063 -0.590625,1.139062 -1.704375,1.139062 -1.04625,0 -1.729688,-1.155937 -0.649687,1.155937 -1.65375,1.155937 -1.08,0 -1.738125,-1.155937 -0.675,1.155937 -2.050312,1.155937 h -1.172813 v -2.168437 h 1.38375 q 0.750938,0 1.071563,-0.50625 0.126562,-0.194063 0.30375,-0.936563 0.126562,-0.50625 0.413437,-0.50625 0.312188,0 0.430313,0.50625 0.185625,0.793125 0.27,0.945 0.278437,0.50625 1.0125,0.50625 0.725625,0 1.029375,-0.50625 0.09281,-0.151875 0.30375,-0.945 0.135,-0.50625 0.455625,-0.50625 0.278437,0 0.388125,0.514688 0.160312,0.793125 0.261562,0.961875 0.295313,0.514687 1.054688,0.514687 1.054688,0 1.054688,-0.70875 0,-0.354375 -0.717188,-1.257187 l 0.767813,-1.189688 q 0.143437,-0.227812 0.16875,-0.23625 0.05062,0.02531 0.16875,0.177188 0.210937,0.27 0.421875,0.81 0.278437,0.700312 0.278437,1.307812 z"
           id="path1404" />
        <path
           d="m 26.123044,68.236954 h -0.801562 q -0.649688,0 -1.257188,-0.3375 -0.599062,-0.345937 -0.928125,-0.902812 -0.734062,1.240312 -2.16,1.240312 h -1.333125 v -2.168437 h 0.995625 q 1.231875,0 1.704375,-0.548438 0.244688,-0.278437 0.379688,-1.020937 0.10125,-0.548438 0.413437,-0.548438 0.30375,0 0.396563,0.548438 0.126562,0.7425 0.320625,1.020937 0.388125,0.548438 1.400625,0.548438 h 0.869062 z m -2.607187,-7.534687 -1.1475,1.1475 -1.1475,-1.1475 1.1475,-1.1475 z"
           id="path1406" />
        <path
           d="m 20.081794,68.236954 h -0.902812 q -1.206563,0 -2.041875,-1.5525 -0.700313,0.8775 -1.139063,1.130625 -0.725625,0.421875 -2.12625,0.421875 -2.117813,0 -2.117813,-1.9575 0,-0.295312 0.0675,-0.649687 0.2025,-1.071563 0.683438,-1.071563 0.27,0 0.278437,0.421875 0.01688,0.565313 0.160313,0.77625 0.286875,0.413438 1.24875,0.413438 2.345625,0 2.345625,-0.894375 0,-0.565313 -1.18125,-3.07125 l 0.953437,-1.257188 q 0.109688,-0.151875 0.135,-0.151875 0.05906,0 0.143438,0.227813 l 1.468125,3.915 q 0.430313,1.155937 1.206563,1.155937 h 0.818437 z"
           id="path1408" />
      </g>
      <g
         transform="translate(116.41104,91.650307)"
         fill="#e42527"
         fill-rule="nonzero"
         id="g103">
        <path
           d="m 14.327789,13.99658 c -0.292368,0 -0.528376,-0.229115 -0.528376,-0.512945 0,-0.28383 0.236008,-0.512946 0.528376,-0.512946 0.290606,0 0.526614,-0.229116 0.526614,-0.511236 V 2.55447 c 0,-0.28383 0.236008,-0.5129458 0.528376,-0.5129458 0.292368,0 0.528376,0.2291158 0.528376,0.5129458 v 9.904983 c 0,0.84807 -0.709785,1.537127 -1.583366,1.537127 z"
           fill="#e42527"
           id="path99" />
        <path
           d="m 2.6454012,11.936248 c -0.2923679,0 -0.5283758,-0.229116 -0.5283758,-0.512946 V 1.5371275 C 2.1170254,0.68905716 2.8268102,0 3.7003914,0 c 0.2923679,0 0.5283757,0.22911578 0.5283757,0.51294577 0,0.28383 -0.2360078,0.51294583 -0.5283757,0.51294583 -0.2906067,0 -0.5266145,0.2291157 -0.5266145,0.5112359 v 9.8861745 c 0,0.28383 -0.2360078,0.512946 -0.5283757,0.512946 z"
           fill="#e42527"
           id="path100" />
        <path
           d="M 17.471624,1.0276014 H 0.52837573 C 0.23600783,1.0276014 0,0.79848559 0,0.51465559 0,0.2308256 0.23600783,0.00170982 0.52837573,0.00170982 H 17.471624 C 17.763992,0.00170982 18,0.2308256 18,0.51465559 c 0,0.28383 -0.236008,0.51294581 -0.528376,0.51294581 z"
           fill="#e42527"
           id="path101" />
        <path
           d="M 17.471624,14 H 0.52837573 C 0.23600783,14 0,13.770884 0,13.487054 0,13.203224 0.23600783,12.974109 0.52837573,12.974109 H 17.471624 C 17.763992,12.974109 18,13.203224 18,13.487054 18,13.770884 17.763992,14 17.471624,14 Z"
           fill="#e42527"
           id="path102" />
        <path
           d="m 7.2299413,10.484612 c -0.091585,0 -0.1831703,-0.02223 -0.2641879,-0.06839 C 6.8019569,10.323889 6.7015656,10.154617 6.7015656,9.9716659 V 4.0574011 c 0,-0.1829507 0.1003913,-0.3522228 0.2641878,-0.444553 0.1637965,-0.09233 0.3645793,-0.09233 0.5283758,0 l 5.2784738,2.9579873 c 0.163796,0.09233 0.264188,0.2616023 0.264188,0.444553 0,0.1829506 -0.100392,0.3522227 -0.264188,0.444553 L 7.4941292,10.416219 c -0.081018,0.04617 -0.1726028,0.06839 -0.2641879,0.06839 z M 7.758317,4.9465071 v 4.1377626 l 3.693346,-2.0688813 z"
           fill="#e42527"
           id="path103" />
      </g>
      <g
         aria-label="نمایش سند"
         id="text103"
         style="font-weight:bold;font-size:17.28px;font-family:'B Nazanin';-inkscape-font-specification:'B Nazanin, Bold';fill:#333333">
        <path
           d="m 103.73143,99.757869 q 0,1.248751 -0.48094,2.117811 -0.65813,1.18125 -2.025,1.18125 h -0.81 v -2.16844 h 0.93656 q 1.215,0 1.215,-0.45562 0,-0.39656 -0.945,-1.434377 -0.10969,-0.118125 0,-0.27 l 0.98719,-1.375312 q 0.12656,-0.177188 0.25312,-0.04219 0.37969,0.405 0.63282,1.1475 0.23625,0.691875 0.23625,1.299376 z m -0.0591,-4.995001 -1.13906,1.1475 -1.1475,-1.1475 1.1475,-1.1475 z"
           id="path1369" />
        <path
           d="m 100.85424,103.05693 h -0.79313 q -0.464059,0 -0.877497,-0.3375 -0.388125,-0.31219 -0.565312,-0.77625 -0.489375,1.29938 -1.704375,1.29938 -1.08,0 -1.85625,-1.22344 -0.54,1.03781 -1.58625,1.03781 h -0.725625 v -2.16844 h 0.725625 q 0.725625,0 0.91125,-0.12656 0.151875,-0.10125 0.118125,-0.46406 -0.0675,-0.843751 0.50625,-1.603127 0.624375,-0.826875 1.569375,-0.826875 1.265625,0 1.898437,1.409063 l 0.531563,1.189689 q 0.278437,0.43031 0.852187,0.43031 h 0.995627 z m -2.970002,-2.25281 q 0,-0.50625 -0.354375,-1.147501 -0.405,-0.725626 -0.860625,-0.725626 -0.57375,0 -0.57375,0.767813 0,0.582184 0.30375,1.215004 0.37125,0.76781 0.8775,0.76781 0.6075,0 0.6075,-0.8775 z"
           id="path1371" />
        <path
           d="M 93.192985,103.05693 H 92.19736 q -0.835313,0 -1.425938,-0.55687 -0.784687,-0.7425 -0.784687,-2.26969 0,-1.037814 -0.126563,-3.130314 -0.143437,-2.345625 -0.278437,-3.088125 -0.04219,-0.244688 0.03375,-0.320625 l 1.392187,-1.130625 q 0.253125,-0.2025 0.295313,-0.2025 0,0 0.0084,0.0084 0.05063,0.0084 0.05063,0.23625 l -0.01687,7.095938 q 0,1.198121 1.341563,1.198121 h 0.50625 z"
           id="path1373" />
        <path
           d="m 86.65392,99.757869 q 0,1.248751 -0.480937,2.117811 -0.658125,1.18125 -2.025,1.18125 h -0.81 v -2.16844 h 0.936562 q 1.215,0 1.215,-0.45562 0,-0.39656 -0.945,-1.434377 -0.109687,-0.118125 0,-0.27 l 0.987188,-1.375312 q 0.126562,-0.177188 0.253125,-0.04219 0.379687,0.405 0.632812,1.1475 0.23625,0.691875 0.23625,1.299376 z m 1.510313,5.830311 -1.029375,1.03781 -1.037813,-1.03781 1.037813,-1.02937 z m -2.303438,0 -1.029375,1.03781 -1.037812,-1.03781 1.037812,-1.02937 z"
           id="path1375" />
        <path
           d="m 83.793612,103.05693 h -1.029375 q -1.0125,0 -1.679063,-1.15594 -0.658125,1.15594 -1.510312,1.15594 -1.088438,0 -1.468125,-1.08 -0.464063,1.07156 -1.4175,1.07156 -0.30375,0 -0.649688,-0.11812 0.05906,0.43031 0.05906,0.82687 0,2.05032 -1.5525,3.0375 -1.2825,0.81 -3.450938,0.81 -1.949062,0 -2.9025,-1.07156 -0.767813,-0.86062 -0.767813,-2.17687 0,-0.66657 0.405,-1.94063 0.4725,-1.49344 0.953438,-1.49344 0.3375,0 0.3375,0.4725 0,0.14344 -0.261563,0.90282 -0.253125,0.75093 -0.253125,1.1475 0,1.19812 0.953438,1.67906 0.691875,0.34594 2.050313,0.34594 1.333125,0 2.421562,-0.41344 1.24875,-0.4725 1.24875,-1.23188 0,-0.4725 -0.734062,-1.485 -0.624375,-0.86062 -1.122188,-1.29937 l 0.835313,-1.704376 q 0.09281,-0.185626 0.219375,0 1.08,1.560936 2.084062,1.560936 0.57375,0 0.81,-0.50625 0.04219,-0.135 0.253125,-0.944999 0.135,-0.50625 0.464063,-0.50625 0.286875,0 0.388125,0.50625 0.160312,0.809999 0.227812,0.944999 0.244688,0.50625 0.869063,0.50625 0.590625,0 0.84375,-0.50625 0.02531,-0.0591 0.261562,-0.944999 0.135,-0.50625 0.455625,-0.50625 0.278438,0 0.379688,0.50625 0.151875,0.725629 0.278438,0.936559 0.312187,0.50625 1.122187,0.50625 h 0.8775 z m -7.7625,-7.264687 1.029375,-1.037812 1.037812,1.037812 -1.037812,1.029375 z m 2.303437,0 1.029375,-1.037812 1.037813,1.037812 -1.037813,1.029375 z m -1.172812,-1.712812 1.029375,-1.029375 1.037812,1.029375 -1.037812,1.029375 z"
           id="path1377" />
        <path
           d="m 62.176735,99.833806 q 0,1.172814 -0.4725,2.084064 -0.590625,1.13906 -1.704375,1.13906 -1.04625,0 -1.729688,-1.15594 -0.649687,1.15594 -1.65375,1.15594 -1.08,0 -1.738125,-1.15594 -0.675,1.15594 -2.050312,1.15594 h -1.172813 v -2.16844 h 1.38375 q 0.750938,0 1.071563,-0.50625 0.126562,-0.19406 0.30375,-0.936559 0.126562,-0.50625 0.413437,-0.50625 0.312188,0 0.430313,0.50625 0.185625,0.793129 0.27,0.944999 0.278437,0.50625 1.0125,0.50625 0.725625,0 1.029375,-0.50625 0.09281,-0.15187 0.30375,-0.944999 0.135,-0.50625 0.455625,-0.50625 0.278437,0 0.388125,0.514688 0.160312,0.793121 0.261562,0.961871 0.295313,0.51469 1.054688,0.51469 1.054687,0 1.054687,-0.70875 0,-0.354374 -0.717187,-1.257187 l 0.767812,-1.189687 q 0.143438,-0.227813 0.16875,-0.23625 0.05063,0.02531 0.16875,0.177187 0.210938,0.27 0.421875,0.81 0.278438,0.700313 0.278438,1.307813 z"
           id="path1379" />
        <path
           d="m 52.102359,103.05693 h -0.801562 q -0.649688,0 -1.257188,-0.3375 -0.599062,-0.34594 -0.928125,-0.90281 -0.734062,1.24031 -2.16,1.24031 h -1.333125 v -2.16844 h 0.995625 q 1.231875,0 1.704375,-0.54843 0.244688,-0.27844 0.379688,-1.020941 0.10125,-0.548438 0.413437,-0.548438 0.30375,0 0.396563,0.548438 0.126562,0.742501 0.320625,1.020941 0.388125,0.54843 1.400625,0.54843 h 0.869062 z m -2.607187,-7.534687 -1.1475,1.1475 -1.147501,-1.1475 1.147501,-1.1475 z"
           id="path1381" />
        <path
           d="m 46.06111,103.05693 h -0.902813 q -1.206562,0 -2.041875,-1.5525 -0.700312,0.8775 -1.139062,1.13063 -0.725625,0.42187 -2.12625,0.42187 -2.117813,0 -2.117813,-1.9575 0,-0.29531 0.0675,-0.64969 0.2025,-1.071559 0.683438,-1.071559 0.27,0 0.278437,0.421875 0.01687,0.565314 0.160313,0.776254 0.286875,0.41343 1.24875,0.41343 2.345625,0 2.345625,-0.89437 0,-0.565314 -1.18125,-3.071252 l 0.953437,-1.257187 q 0.109688,-0.151875 0.135,-0.151875 0.05906,0 0.143438,0.227812 l 1.468125,3.915001 q 0.430312,1.155941 1.206562,1.155941 h 0.818438 z"
           id="path1383" />
      </g>
    </g>
  </g>
</svg>
