<?xml version="1.0" encoding="UTF-8" standalone="no"?>
<svg
   class="feat-wwf-graphics"
   width="162.40741"
   height="85.555557"
   viewBox="0 0 175.34251 92.400002"
   version="1.1"
   id="svg123"
   sodipodi:docname="create2.svg"
   inkscape:export-filename="..\projects\dms-proj\public\images\create2.svg"
   inkscape:export-xdpi="96"
   inkscape:export-ydpi="96"
   inkscape:version="1.2.2 (732a01da63, 2022-12-09)"
   xmlns:inkscape="http://www.inkscape.org/namespaces/inkscape"
   xmlns:sodipodi="http://sodipodi.sourceforge.net/DTD/sodipodi-0.dtd"
   xmlns="http://www.w3.org/2000/svg"
   xmlns:svg="http://www.w3.org/2000/svg">
  <sodipodi:namedview
     id="namedview123"
     pagecolor="#ffffff"
     bordercolor="#000000"
     borderopacity="0.25"
     inkscape:showpageshadow="2"
     inkscape:pageopacity="0.0"
     inkscape:pagecheckerboard="0"
     inkscape:deskcolor="#d1d1d1"
     showgrid="false"
     inkscape:zoom="5.6770807"
     inkscape:cx="80.675266"
     inkscape:cy="54.605529"
     inkscape:window-width="1366"
     inkscape:window-height="705"
     inkscape:window-x="-8"
     inkscape:window-y="-8"
     inkscape:window-maximized="1"
     inkscape:current-layer="svg123">
    <inkscape:page
       x="0"
       y="0"
       width="175.34251"
       height="92.400002"
       id="page2"
       margin="0"
       bleed="0" />
  </sodipodi:namedview>
  <defs
     id="defs29">
    <filter
       x="-0.2016"
       y="-0.6"
       width="1.4032"
       height="2.2"
       filterUnits="objectBoundingBox"
       id="create-shw">
      <feGaussianBlur
         stdDeviation="10.5"
         in="SourceGraphic"
         id="feGaussianBlur9" />
    </filter>
  </defs>
  <g
     stroke="none"
     stroke-width="1"
     fill="none"
     fill-rule="evenodd"
     id="g123"
     transform="translate(-293.82875,0.200001)"
     inkscape:export-filename="..\Desktop\images-dms\create.svg"
     inkscape:export-xdpi="96"
     inkscape:export-ydpi="96">
    <g
       class="wwf-create-btn"
       transform="translate(308,7)"
       fill="none"
       id="g92">
      <path
         d="m 19,18 h 109 c 4.41828,0 8,3.581722 8,8 v 26 c 0,4.418278 -3.58172,8 -8,8 H 19 c -4.418278,0 -8,-3.581722 -8,-8 V 26 c 0,-4.418278 3.581722,-8 8,-8 z"
         fill="#333333"
         opacity="0.05"
         filter="url(#create-shw)"
         id="path89" />
      <path
         d="m 10,0 h 98 c 5.52285,0 10,4.4771525 10,10 v 26 c 0,5.522847 -4.47715,10 -10,10 H 81.824817 70.627737 55.124088 10 C 4.4771525,46 0,41.522847 0,36 V 10 C 0,4.4771525 4.4771525,0 10,0 Z"
         stroke="#89ca78"
         stroke-width="0.5px"
         fill="#e3f6de"
         id="path90" />
      <g
         aria-label="ایجاد سند"
         id="text90"
         style="font-weight:bold;font-size:17.28px;font-family:'B Nazanin';-inkscape-font-specification:'B Nazanin, Bold';fill:#313131">
        <path
           d="m 79.295939,24.587754 q 0,0.599063 -0.64125,1.957501 -0.16875,0.354375 -0.23625,0.354375 -0.109687,0 -0.177187,-0.784688 l -0.801563,-8.91 1.5525,-1.290938 q 0.151875,-0.126562 0.219375,-0.126562 0.08438,0 0.08438,0.177187 z"
           id="path161" />
        <path
           d="m 74.545621,23.195567 q 0,1.24875 -0.480937,2.117812 -0.658125,1.181251 -2.025,1.181251 h -0.81 v -2.168438 h 0.936562 q 1.215,0 1.215,-0.455625 0,-0.396563 -0.945,-1.434375 -0.109687,-0.118125 0,-0.27 l 0.987188,-1.375313 q 0.126562,-0.177187 0.253125,-0.04219 0.379687,0.405 0.632812,1.1475 0.23625,0.691875 0.23625,1.299375 z m 1.510313,5.830313 -1.029375,1.037812 -1.037813,-1.037812 1.037813,-1.029375 z m -2.303438,0 -1.029375,1.037812 -1.037812,-1.037812 1.037812,-1.029375 z"
           id="path163" />
        <path
           d="m 71.659999,26.49463 h -1.670625 q -2.767501,0 -2.767501,-2.598751 -2.809687,2.598751 -5.720625,2.598751 h -0.683437 v -2.168438 h 0.91125 q 1.535625,0 2.640937,-0.396563 0.750938,-0.27 2.379375,-1.215 -1.965937,-0.683437 -2.910937,-0.683437 -0.455625,0 -0.987188,0.50625 -0.531562,0.497812 -0.57375,0.497812 -0.320625,0 -0.320625,-0.295312 0,-0.320625 0.143438,-0.6075 0.97875,-1.974375 2.26125,-1.974375 0.666562,0 2.514375,0.599062 1.85625,0.590625 2.885625,0.590625 0.666563,0 0.666563,0.05906 -0.0084,0.02531 -0.05906,0.135 l -0.717187,1.544062 q -0.936563,0 -1.552501,0.253125 0,0.649688 0.750938,0.869063 0.405,0.118125 1.299375,0.118125 h 1.510313 z m -4.505626,2.252812 -1.1475,1.1475 -1.139062,-1.1475 1.139062,-1.1475 z"
           id="path165" />
        <path
           d="m 61.264999,26.49463 h -0.995626 q -0.835312,0 -1.425937,-0.556876 -0.784688,-0.7425 -0.784688,-2.269687 0,-1.037813 -0.126562,-3.130313 -0.143438,-2.345625 -0.278438,-3.088125 -0.04219,-0.244687 0.03375,-0.320625 l 1.392188,-1.130625 q 0.253125,-0.2025 0.295312,-0.2025 0,0 0.0084,0.0084 0.05062,0.0084 0.05062,0.23625 l -0.01687,7.095937 q 0,1.198125 1.341563,1.198125 h 0.50625 z"
           id="path167" />
        <path
           d="m 56.101248,23.431817 q 0,3.062813 -3.830625,3.062813 -2.19375,0 -2.19375,-2.050313 0,-0.194063 0.02531,-0.405 0.135,-1.122188 0.6075,-1.122188 0.27,0 0.30375,0.388125 0.04219,0.531563 0.219375,0.734063 0.3375,0.388125 1.366875,0.388125 0.649688,0 1.400625,-0.126563 1.105313,-0.185625 1.105313,-0.556875 0,-0.666562 -1.18125,-1.65375 -1.071563,-0.894375 -1.755,-1.08 l 0.50625,-1.89 q 0.05062,-0.194062 0.109687,-0.194062 0.05062,0 0.185625,0.08438 1.231875,0.784687 2.0925,1.873125 1.037813,1.31625 1.037813,2.548125 z"
           id="path169" />
        <path
           d="m 44.845623,23.271504 q 0,1.172813 -0.4725,2.084063 -0.590625,1.139063 -1.704375,1.139063 -1.04625,0 -1.729688,-1.155938 -0.649687,1.155938 -1.65375,1.155938 -1.08,0 -1.738125,-1.155938 -0.675,1.155938 -2.050312,1.155938 H 34.32406 v -2.168438 h 1.38375 q 0.750938,0 1.071563,-0.50625 0.126562,-0.194063 0.30375,-0.936563 0.126562,-0.50625 0.413437,-0.50625 0.312188,0 0.430313,0.50625 0.185625,0.793125 0.27,0.945 0.278437,0.50625 1.0125,0.50625 0.725625,0 1.029375,-0.50625 0.09281,-0.151875 0.30375,-0.945 0.135,-0.50625 0.455625,-0.50625 0.278437,0 0.388125,0.514688 0.160312,0.793125 0.261562,0.961875 0.295313,0.514687 1.054688,0.514687 1.054687,0 1.054687,-0.70875 0,-0.354375 -0.717187,-1.257187 l 0.767812,-1.189688 q 0.143438,-0.227812 0.16875,-0.23625 0.05063,0.02531 0.16875,0.177188 0.210938,0.27 0.421875,0.81 0.278438,0.700312 0.278438,1.307812 z"
           id="path171" />
        <path
           d="m 34.771246,26.49463 h -0.801562 q -0.649688,0 -1.257188,-0.3375 -0.599062,-0.345938 -0.928125,-0.902813 -0.734062,1.240313 -2.16,1.240313 h -1.333125 v -2.168438 h 0.995625 q 1.231875,0 1.704375,-0.548438 0.244688,-0.278437 0.379688,-1.020937 0.10125,-0.548438 0.413437,-0.548438 0.30375,0 0.396563,0.548438 0.126562,0.7425 0.320625,1.020937 0.388125,0.548438 1.400625,0.548438 h 0.869062 z m -2.607187,-7.534688 -1.1475,1.1475 -1.1475,-1.1475 1.1475,-1.1475 z"
           id="path173" />
        <path
           d="m 28.729997,26.49463 h -0.902813 q -1.206562,0 -2.041875,-1.552501 -0.700312,0.8775 -1.139062,1.130625 -0.725625,0.421876 -2.12625,0.421876 -2.117813,0 -2.117813,-1.957501 0,-0.295312 0.0675,-0.649687 0.2025,-1.071563 0.683438,-1.071563 0.27,0 0.278437,0.421875 0.01687,0.565313 0.160313,0.77625 0.286875,0.413438 1.24875,0.413438 2.345625,0 2.345625,-0.894375 0,-0.565313 -1.18125,-3.07125 l 0.953437,-1.257188 q 0.109688,-0.151875 0.135,-0.151875 0.05906,0 0.143438,0.227813 l 1.468125,3.915 q 0.430312,1.155937 1.206563,1.155937 h 0.818437 z"
           id="path175" />
      </g>
      <g
         transform="translate(87.932516,15.006135)"
         stroke="#313131"
         stroke-width="1.7px"
         fill="none"
         id="g91">
        <circle
           stroke-linejoin="round"
           cx="7.5"
           cy="7.5"
           r="7.5"
           stroke="#313131"
           fill="none"
           stroke-width="1.7px"
           id="circle90" />
        <line
           x1="7.5"
           y1="4"
           x2="7.5"
           y2="11"
           stroke-linecap="round"
           stroke="#313131"
           fill="none"
           stroke-width="1.7px"
           id="line90" />
        <line
           x1="11"
           y1="7.5"
           x2="4"
           y2="7.5"
           stroke-linecap="round"
           stroke="#313131"
           fill="none"
           stroke-width="1.7px"
           id="line91" />
      </g>
    </g>
  </g>
</svg>
