<?xml version="1.0" encoding="UTF-8" standalone="no"?>
<svg
   class="feat-wwf-graphics"
   width="565"
   height="499.99997"
   viewBox="0 0 609.99999 540"
   version="1.1"
   id="svg123"
   sodipodi:docname="svgexport-4(1).svg"
   inkscape:export-filename="..\Desktop\images-dms\create-details.svg"
   inkscape:export-xdpi="96"
   inkscape:export-ydpi="96"
   xmlns:inkscape="http://www.inkscape.org/namespaces/inkscape"
   xmlns:sodipodi="http://sodipodi.sourceforge.net/DTD/sodipodi-0.dtd"
   xmlns="http://www.w3.org/2000/svg"
   xmlns:svg="http://www.w3.org/2000/svg">
  <sodipodi:namedview
     id="namedview123"
     pagecolor="#ffffff"
     bordercolor="#000000"
     borderopacity="0.25"
     inkscape:showpageshadow="2"
     inkscape:pageopacity="0.0"
     inkscape:pagecheckerboard="0"
     inkscape:deskcolor="#d1d1d1">
    <inkscape:page
       x="0"
       y="0"
       width="610"
       height="540"
       id="page2"
       margin="0"
       bleed="0" />
  </sodipodi:namedview>
  <defs
     id="defs29" />
  <g
     stroke="none"
     stroke-width="1"
     fill="none"
     fill-rule="evenodd"
     id="g123"
     transform="translate(-307.85,-63.75)">
    <g
       class="wwf-create-options"
       transform="translate(308,64)"
       fill="none"
       id="g104">
      <rect
         stroke="#8fc780"
         fill="#ffffff"
         stroke-width="0.5px"
         x="0"
         y="0"
         width="150"
         height="125"
         rx="14"
         id="rect92" />
      <g
         transform="translate(114.09816,25.650307)"
         fill="#226db4"
         fill-rule="nonzero"
         id="g96">
        <path
           d="M 5.6510633,4.9877751 H 3.6940461 c -0.2921447,0 -0.5279723,-0.223383 -0.5279723,-0.5001112 0,-0.2767281 0.2358276,-0.5001111 0.5279723,-0.5001111 h 1.9570172 c 0.2921447,0 0.5279723,0.223383 0.5279723,0.5001111 0,0.2767282 -0.2358276,0.5001112 -0.5279723,0.5001112 z"
           fill="#226db4"
           id="path92" />
        <path
           d="M 13.959587,15 H 1.580397 C 0.70924277,15 0,14.328184 0,13.503001 V 1.4969993 C 0,0.67181596 0.70924277,0 1.580397,0 h 13.426335 c 0.292145,0 0.527973,0.22338297 0.527973,0.50011114 0,0.27672816 -0.235828,0.50011116 -0.527973,0.50011116 H 1.580397 c -0.2886248,0 -0.5244524,0.223383 -0.5244524,0.496777 V 13.503001 c 0,0.273394 0.2358276,0.496777 0.5244524,0.496777 h 12.37919 c 0.288625,0 0.524453,-0.223383 0.524453,-0.496777 l 0.0507,-4.6835906 c 0,-0.2767281 0.235828,-0.5001111 0.527972,-0.5001111 0.292145,0 0.527973,0.223383 0.527973,0.5001111 l -0.0507,4.6835906 C 15.539984,14.328184 14.830742,15 13.959587,15 Z"
           fill="#226db4"
           id="path93" />
        <path
           d="m 3.676447,8.0217826 c -0.2921447,0 -0.5279723,-0.223383 -0.5279723,-0.5001111 0,-0.2767282 0.2358276,-0.5001112 0.5279723,-0.5001112 l 5.0086971,-0.005 v 0 c 0.2921447,0 0.5279723,0.223383 0.5279723,0.5001112 0,0.2767281 -0.2358276,0.5001111 -0.5279723,0.5001111 z"
           fill="#226db4"
           id="path94" />
        <path
           d="m 3.676447,11.002445 c -0.2921447,0 -0.5279723,-0.223383 -0.5279723,-0.500111 0,-0.276728 0.2358276,-0.500111 0.5279723,-0.500111 l 5.0086971,-0.005 v 0 c 0.2921447,0 0.5279723,0.223383 0.5279723,0.500111 0,0.276728 -0.2358276,0.500111 -0.5279723,0.500111 z"
           fill="#226db4"
           id="path95" />
        <path
           d="m 17.473788,8.4209886 c -0.088,0 -0.175991,-0.020004 -0.255187,-0.06168 l -2.930246,-1.527006 c -0.0018,0 -0.0035,-0.00167 -0.0053,-0.00167 L 11.424965,5.3052937 C 11.259534,5.2169407 11.157459,5.051904 11.155699,4.871864 c 0,-0.18004 0.100315,-0.3467437 0.263986,-0.4350967 l 2.928487,-1.5936874 2.85633,-1.5936875 c 0.163671,-0.091687 0.36606,-0.091687 0.529732,-0.00333 C 17.897925,1.3344138 18,1.5011175 18,1.6794904 v 6.243054 c 0,0.176706 -0.09856,0.3400756 -0.258706,0.4300956 -0.08096,0.04501 -0.174231,0.068349 -0.267506,0.068349 z m -2.6733,-2.4638809 2.145327,1.1185819 V 2.5530179 l -2.062611,1.1502556 c -0.0018,0.00167 -0.0035,0.00167 -0.0053,0.00333 l -2.125969,1.1569237 z"
           fill="#226db4"
           id="path96" />
      </g>
      <text
         font-family="sans-serif"
         font-size="12"
         font-weight="600"
         fill="#333333"
         id="text96"
         style="font-style:normal;font-variant:normal;font-weight:bold;font-stretch:normal;font-size:17.28px;font-family:'2  Nazanin';-inkscape-font-specification:'2  Nazanin, Bold';font-variant-ligatures:normal;font-variant-caps:normal;font-variant-numeric:normal;font-variant-east-asian:normal;fill:#333333"
         x="41.742329"
         y="37.104298"><tspan
           sodipodi:role="line"
           id="tspan124"
           x="41.742329"
           y="37.104298">ایجاد سند</tspan></text>
      <g
         transform="translate(116.08589,56.662577)"
         fill="#089949"
         fill-rule="nonzero"
         id="g98">
        <path
           d="M 10.852279,15.0519 H 6.6727476 V 6.6756757 H 15.063416 V 10.83774 c 0,0.306992 0.249136,0.556306 0.555908,0.556306 0.306771,0 0.555907,-0.249314 0.555907,-0.556306 V 1.6707795 C 16.175231,0.74980415 15.425964,0 14.50565,0 H 1.6695813 C 0.74926644,0 0,0.74980415 0,1.6707795 V 14.495593 c 0,0.920976 0.74926644,1.67078 1.6695813,1.67078 h 9.1808377 c 0.308631,0 0.557767,-0.251175 0.557767,-0.558167 0,-0.306992 -0.249136,-0.556306 -0.555907,-0.556306 z M 1.1136739,14.495593 V 1.6707795 c 0,-0.3069918 0.2491358,-0.5563063 0.5559074,-0.5563063 H 14.507509 c 0.306772,0 0.555907,0.2493145 0.555907,0.5563063 V 5.5630631 H 6.6727476 V 2.7815315 c 0,-0.3069917 -0.2491358,-0.5563063 -0.5559074,-0.5563063 -0.3067716,0 -0.5559074,0.2493146 -0.5559074,0.5563063 V 5.5630631 H 2.7999883 c -0.3067717,0 -0.5559074,0.2493145 -0.5559074,0.5563063 0,0.3069917 0.2491357,0.5563063 0.5559074,0.5563063 H 5.5609328 V 15.0519 H 1.6695813 c -0.3067716,0 -0.5559074,-0.249315 -0.5559074,-0.556307 z"
           fill="#089949"
           id="path97" />
        <path
           d="m 18.980797,13.743929 c -0.05206,-0.193498 -0.202655,-0.342343 -0.394155,-0.394438 l -6.220957,-1.667059 c -0.1915,-0.05209 -0.396014,0.0019 -0.537315,0.143263 -0.139442,0.139542 -0.195218,0.346064 -0.14316,0.537701 l 1.665863,6.22356 c 0.05206,0.193498 0.202655,0.342343 0.394155,0.394438 0.04648,0.01302 0.09482,0.01861 0.14316,0.01861 0.145019,0 0.288179,-0.05768 0.396014,-0.161868 l 4.553235,-4.556503 c 0.139441,-0.139541 0.195218,-0.346063 0.14316,-0.5377 z m -4.80423,3.624363 -1.167591,-4.361143 4.358016,1.168429 z"
           fill="#089949"
           id="path98" />
      </g>
      <text
         font-family="sans-serif"
         font-size="12"
         font-weight="600"
         fill="#333333"
         id="text98"
         style="font-style:normal;font-variant:normal;font-weight:bold;font-stretch:normal;font-size:17.28px;font-family:'2  Nazanin';-inkscape-font-specification:'2  Nazanin, Bold';font-variant-ligatures:normal;font-variant-caps:normal;font-variant-numeric:normal;font-variant-east-asian:normal;fill:#333333"
         x="11.263803"
         y="68.245392"><tspan
           sodipodi:role="line"
           id="tspan125"
           x="11.263803"
           y="68.245392">بروز رسانی سند</tspan></text>
      <g
         transform="translate(116.41104,91.650307)"
         fill="#e42527"
         fill-rule="nonzero"
         id="g103">
        <path
           d="m 14.327789,13.99658 c -0.292368,0 -0.528376,-0.229115 -0.528376,-0.512945 0,-0.28383 0.236008,-0.512946 0.528376,-0.512946 0.290606,0 0.526614,-0.229116 0.526614,-0.511236 V 2.55447 c 0,-0.28383 0.236008,-0.5129458 0.528376,-0.5129458 0.292368,0 0.528376,0.2291158 0.528376,0.5129458 v 9.904983 c 0,0.84807 -0.709785,1.537127 -1.583366,1.537127 z"
           fill="#e42527"
           id="path99" />
        <path
           d="m 2.6454012,11.936248 c -0.2923679,0 -0.5283758,-0.229116 -0.5283758,-0.512946 V 1.5371275 C 2.1170254,0.68905716 2.8268102,0 3.7003914,0 c 0.2923679,0 0.5283757,0.22911578 0.5283757,0.51294577 0,0.28383 -0.2360078,0.51294583 -0.5283757,0.51294583 -0.2906067,0 -0.5266145,0.2291157 -0.5266145,0.5112359 v 9.8861745 c 0,0.28383 -0.2360078,0.512946 -0.5283757,0.512946 z"
           fill="#e42527"
           id="path100" />
        <path
           d="M 17.471624,1.0276014 H 0.52837573 C 0.23600783,1.0276014 0,0.79848559 0,0.51465559 0,0.2308256 0.23600783,0.00170982 0.52837573,0.00170982 H 17.471624 C 17.763992,0.00170982 18,0.2308256 18,0.51465559 c 0,0.28383 -0.236008,0.51294581 -0.528376,0.51294581 z"
           fill="#e42527"
           id="path101" />
        <path
           d="M 17.471624,14 H 0.52837573 C 0.23600783,14 0,13.770884 0,13.487054 0,13.203224 0.23600783,12.974109 0.52837573,12.974109 H 17.471624 C 17.763992,12.974109 18,13.203224 18,13.487054 18,13.770884 17.763992,14 17.471624,14 Z"
           fill="#e42527"
           id="path102" />
        <path
           d="m 7.2299413,10.484612 c -0.091585,0 -0.1831703,-0.02223 -0.2641879,-0.06839 C 6.8019569,10.323889 6.7015656,10.154617 6.7015656,9.9716659 V 4.0574011 c 0,-0.1829507 0.1003913,-0.3522228 0.2641878,-0.444553 0.1637965,-0.09233 0.3645793,-0.09233 0.5283758,0 l 5.2784738,2.9579873 c 0.163796,0.09233 0.264188,0.2616023 0.264188,0.444553 0,0.1829506 -0.100392,0.3522227 -0.264188,0.444553 L 7.4941292,10.416219 c -0.081018,0.04617 -0.1726028,0.06839 -0.2641879,0.06839 z M 7.758317,4.9465071 v 4.1377626 l 3.693346,-2.0688813 z"
           fill="#e42527"
           id="path103" />
      </g>
      <text
         font-family="sans-serif"
         font-size="12"
         font-weight="600"
         fill="#333333"
         id="text103"
         style="font-style:normal;font-variant:normal;font-weight:bold;font-stretch:normal;font-size:17.28px;font-family:'2  Nazanin';-inkscape-font-specification:'2  Nazanin, Bold';font-variant-ligatures:normal;font-variant-caps:normal;font-variant-numeric:normal;font-variant-east-asian:normal;fill:#333333"
         x="33.128834"
         y="102.0368"><tspan
           sodipodi:role="line"
           id="tspan126"
           x="33.128834"
           y="102.0368">نمایش سند</tspan></text>
    </g>
  </g>
</svg>
