<?xml version="1.0" encoding="UTF-8" standalone="no"?>
<svg
   class="feat-wwf-graphics"
   width="152.79765"
   height="180.96559"
   viewBox="0 0 164.96738 195.44285"
   version="1.1"
   id="svg123"
   sodipodi:docname="docs-details2.svg"
   inkscape:export-filename="..\Desktop\Desktop\images-dms\docs-details.svg"
   inkscape:export-xdpi="96"
   inkscape:export-ydpi="96"
   inkscape:version="1.2.2 (732a01da63, 2022-12-09)"
   xmlns:inkscape="http://www.inkscape.org/namespaces/inkscape"
   xmlns:sodipodi="http://sodipodi.sourceforge.net/DTD/sodipodi-0.dtd"
   xmlns="http://www.w3.org/2000/svg"
   xmlns:svg="http://www.w3.org/2000/svg">
  <sodipodi:namedview
     id="namedview123"
     pagecolor="#ffffff"
     bordercolor="#000000"
     borderopacity="0.25"
     inkscape:showpageshadow="2"
     inkscape:pageopacity="0.0"
     inkscape:pagecheckerboard="0"
     inkscape:deskcolor="#d1d1d1"
     showgrid="false"
     inkscape:zoom="1.0500001"
     inkscape:cx="107.61904"
     inkscape:cy="21.90476"
     inkscape:window-width="1366"
     inkscape:window-height="705"
     inkscape:window-x="-8"
     inkscape:window-y="-8"
     inkscape:window-maximized="1"
     inkscape:current-layer="svg123">
    <inkscape:page
       x="0"
       y="0"
       width="164.96738"
       height="195.44286"
       id="page2"
       margin="0"
       bleed="0" />
    <inkscape:grid
       type="xygrid"
       id="grid1599"
       originx="-189.26306"
       originy="-165.59999" />
  </sodipodi:namedview>
  <defs
     id="defs29" />
  <g
     stroke="none"
     stroke-width="1"
     fill="none"
     fill-rule="evenodd"
     id="g123"
     transform="translate(-318.11382,-145.55367)">
    <g
       class="wwf-share-options"
       transform="translate(287.78528,145.80367)"
       fill="none"
       id="g122">
      <rect
         stroke="#ff9c6b"
         fill="#ffffff"
         stroke-width="0.573303px"
         x="30.515181"
         y="0.0366515"
         width="164.44817"
         height="194.86955"
         rx="11.806535"
         id="rect119" />
      <g
         aria-label="فرایندها"
         id="text119"
         style="font-weight:bold;font-size:17.28px;font-family:'B Nazanin';-inkscape-font-specification:'B Nazanin, Bold';fill:#333333">
        <path
           d="m 148.74318,24.875577 q 0,2.143125 -1.10531,2.885625 -0.945,0.632813 -2.94469,0.632813 h -1.52719 v -2.168438 h 1.74657 q 2.00812,0 2.69156,-0.345937 0.30375,-0.151875 0.30375,-0.523125 0,-0.227813 -0.3375,-0.194063 -1.07156,0.10125 -1.51031,0.10125 -1.67907,0 -1.67907,-1.240312 0,-1.020938 0.51469,-2.025 0.62438,-1.215 1.58625,-1.215 1.31625,0 1.89844,1.72125 0.36281,1.071562 0.36281,2.370937 z m -1.27406,-1.265625 q -0.23625,-0.57375 -0.72563,-0.885937 -0.36281,-0.227813 -0.65812,-0.227813 -0.27,0 -0.48938,0.185625 -0.21093,0.177188 -0.21093,0.43875 0,0.590625 1.1475,0.590625 0.42187,0 0.93656,-0.10125 z m 0.0675,-4.919062 -1.13906,1.139062 -1.1475,-1.139062 1.1475,-1.1475 z"
           id="path1765" />
        <path
           d="m 143.60474,28.394015 h -0.37125 q -0.81844,0 -1.26562,-0.219375 0,2.565 -1.5525,4.066875 -0.4725,0.455625 -0.59907,0.455625 -2.25281,0 -3.36656,-0.430312 -0.21937,-0.08437 -0.0169,-0.160313 1.52718,-0.565312 2.96156,-1.645312 1.60312,-1.206563 1.60312,-2.075626 0,-0.413437 -0.58218,-1.122187 -0.43032,-0.523125 -0.95344,-0.970313 l 0.88594,-1.78875 q 0.0759,-0.151875 0.18562,0 1.26563,1.72125 2.33719,1.72125 h 0.73406 z"
           id="path1767" />
        <path
           d="m 135.53849,26.48714 q 0,0.599062 -0.64125,1.9575 -0.16875,0.354375 -0.23625,0.354375 -0.10968,0 -0.17718,-0.784688 l -0.80157,-8.91 1.5525,-1.290937 q 0.15188,-0.126563 0.21938,-0.126563 0.0844,0 0.0844,0.177188 z"
           id="path1769" />
        <path
           d="m 130.78818,25.094952 q 0,1.24875 -0.48094,2.117813 -0.65812,1.18125 -2.025,1.18125 h -0.81 v -2.168438 h 0.93657 q 1.215,0 1.215,-0.455625 0,-0.396562 -0.945,-1.434375 -0.10969,-0.118125 0,-0.27 l 0.98718,-1.375312 q 0.12657,-0.177188 0.25313,-0.04219 0.37969,0.405 0.63281,1.1475 0.23625,0.691875 0.23625,1.299375 z m 1.51031,5.830313 -1.02937,1.037813 -1.03781,-1.037813 1.03781,-1.029375 z m -2.30343,0 -1.02938,1.037813 -1.03781,-1.037813 1.03781,-1.029375 z"
           id="path1771" />
        <path
           d="m 127.91943,28.394015 h -0.80156 q -0.64969,0 -1.25719,-0.3375 -0.59906,-0.345938 -0.92812,-0.902813 -0.73407,1.240313 -2.16,1.240313 h -1.33313 v -2.168438 h 0.99563 q 1.23187,0 1.70437,-0.548437 0.24469,-0.278438 0.37969,-1.020938 0.10125,-0.548437 0.41344,-0.548437 0.30375,0 0.39656,0.548437 0.12656,0.7425 0.32062,1.020938 0.38813,0.548437 1.40063,0.548437 h 0.86906 z m -2.60719,-7.534688 -1.1475,1.1475 -1.1475,-1.1475 1.1475,-1.1475 z"
           id="path1773" />
        <path
           d="m 121.87818,28.394015 h -0.90281 q -1.20656,0 -2.04188,-1.5525 -0.70031,0.8775 -1.13906,1.130625 -0.72562,0.421875 -2.12625,0.421875 -2.11781,0 -2.11781,-1.9575 0,-0.295313 0.0675,-0.649688 0.2025,-1.071562 0.68344,-1.071562 0.27,0 0.27843,0.421875 0.0169,0.565312 0.16032,0.77625 0.28687,0.413437 1.24875,0.413437 2.34562,0 2.34562,-0.894375 0,-0.565312 -1.18125,-3.07125 l 0.95344,-1.257187 q 0.10969,-0.151875 0.135,-0.151875 0.0591,0 0.14344,0.227812 l 1.46812,3.915 q 0.43031,1.155938 1.20656,1.155938 h 0.81844 z"
           id="path1775" />
        <path
           d="m 112.01474,25.415577 q 0,0.97875 -0.64125,1.839375 -0.59062,0.793125 -1.15594,0.793125 -0.34593,0 -1.2825,-0.430312 -0.93656,-0.43875 -1.00406,-0.43875 0.23625,0 0.23625,0.05906 0,0.135 -1.08,0.548438 -1.58625,0.6075 -2.08406,0.6075 h -0.72563 v -2.168438 h 0.68344 q 0.72563,0 0.92813,-0.177187 -0.42188,-0.354375 -0.42188,-0.987188 0,-0.666562 0.48938,-1.274062 0.43875,-0.548438 1.09687,-0.84375 -0.34594,-0.286875 -0.75937,-0.430313 l 0.81843,-1.72125 q 2.17688,1.139063 3.21469,1.965938 1.6875,1.341562 1.6875,2.657812 z m -0.96187,0.464063 q 0,-0.379688 -0.64969,-0.885938 -0.10969,-0.08437 -0.81844,-0.590625 0.0337,0.185625 0.0337,0.3375 0,0.666563 -0.57375,1.189688 0.78469,0.523125 1.51875,0.523125 0.48938,0 0.48938,-0.57375 z m -2.30344,-1.375313 q 0,-0.286875 -0.23625,-0.599062 -0.22781,-0.320625 -0.50625,-0.320625 -0.32906,0 -0.78469,0.320625 -0.48094,0.345937 -0.48094,0.658125 0,0.30375 0.4725,0.6075 0.41344,0.27 0.65813,0.27 0.21937,0 0.51469,-0.23625 0.36281,-0.295313 0.36281,-0.700313 z"
           id="path1777" />
        <path
           d="m 104.72474,28.394015 h -0.99562 q -0.83532,0 -1.42594,-0.556875 -0.78469,-0.7425 -0.78469,-2.269688 0,-1.037812 -0.12656,-3.130312 -0.14344,-2.345625 -0.27844,-3.088125 -0.0422,-0.244688 0.0337,-0.320625 l 1.39219,-1.130625 q 0.25312,-0.2025 0.29531,-0.2025 0,0 0.008,0.0084 0.0506,0.0084 0.0506,0.23625 l -0.0169,7.095938 q 0,1.198125 1.34156,1.198125 h 0.50625 z"
           id="path1779" />
      </g>
      <g
         aria-label="زیرفرایندها"
         id="text121"
         style="font-weight:bold;font-size:17.28px;font-family:'B Nazanin';-inkscape-font-specification:'B Nazanin, Bold';fill:#333333">
        <path
           d="m 148.93723,62.019707 q 0,2.413126 -1.60312,4.075313 -0.49781,0.514688 -0.6075,0.514688 -2.26969,0 -3.36656,-0.430313 -0.23625,-0.09281 -0.0169,-0.16875 1.56094,-0.556875 2.93625,-1.62 1.57781,-1.215 1.57781,-2.185313 0,-0.405 -0.57375,-1.130625 -0.48093,-0.6075 -0.93656,-0.953437 l 0.81844,-1.729688 q 0.0759,-0.160312 0.2025,-0.03375 1.56937,1.569375 1.56937,3.661875 z m -0.95343,-6.31125 -1.13907,1.139063 -1.1475,-1.139063 1.1475,-1.1475 z"
           id="path1742" />
        <path
           d="m 141.05661,59.302832 q 0,1.24875 -0.48094,2.117813 -0.65813,1.18125 -2.025,1.18125 h -0.81 v -2.168438 h 0.93656 q 1.215,0 1.215,-0.455625 0,-0.396562 -0.945,-1.434375 -0.10969,-0.118125 0,-0.27 l 0.98719,-1.375312 q 0.12656,-0.177188 0.25312,-0.04219 0.37969,0.405 0.63282,1.1475 0.23625,0.691875 0.23625,1.299375 z m 1.51031,5.830313 -1.02937,1.037813 -1.03782,-1.037813 1.03782,-1.029375 z m -2.30344,0 -1.02937,1.037813 -1.03782,-1.037813 1.03782,-1.029375 z"
           id="path1744" />
        <path
           d="m 138.17942,62.601895 h -0.37125 q -0.81844,0 -1.26563,-0.219375 0,2.565 -1.5525,4.066875 -0.4725,0.455625 -0.59906,0.455625 -2.25281,0 -3.36656,-0.430312 -0.21938,-0.08438 -0.0169,-0.160313 1.52719,-0.565312 2.96157,-1.645312 1.60312,-1.206563 1.60312,-2.075626 0,-0.413437 -0.58219,-1.122187 -0.43031,-0.523125 -0.95343,-0.970313 l 0.88593,-1.78875 q 0.0759,-0.151875 0.18563,0 1.26562,1.72125 2.33719,1.72125 h 0.73406 z"
           id="path1746" />
        <path
           d="m 130.12161,59.083457 q 0,2.143125 -1.10532,2.885625 -0.945,0.632813 -2.94468,0.632813 h -1.52719 v -2.168438 h 1.74656 q 2.00813,0 2.69156,-0.345937 0.30375,-0.151875 0.30375,-0.523125 0,-0.227813 -0.3375,-0.194063 -1.07156,0.10125 -1.51031,0.10125 -1.67906,0 -1.67906,-1.240312 0,-1.020938 0.51469,-2.025 0.62437,-1.215 1.58625,-1.215 1.31625,0 1.89843,1.72125 0.36282,1.071562 0.36282,2.370937 z m -1.27407,-1.265625 q -0.23625,-0.57375 -0.72562,-0.885937 -0.36281,-0.227813 -0.65813,-0.227813 -0.27,0 -0.48937,0.185625 -0.21094,0.177188 -0.21094,0.43875 0,0.590625 1.1475,0.590625 0.42188,0 0.93656,-0.10125 z m 0.0675,-4.919062 -1.13906,1.139062 -1.1475,-1.139062 1.1475,-1.1475 z"
           id="path1748" />
        <path
           d="m 124.98317,62.601895 h -0.37125 q -0.81844,0 -1.26563,-0.219375 0,2.565 -1.5525,4.066875 -0.4725,0.455625 -0.59906,0.455625 -2.25281,0 -3.36656,-0.430312 -0.21938,-0.08438 -0.0169,-0.160313 1.52719,-0.565312 2.96156,-1.645312 1.60313,-1.206563 1.60313,-2.075626 0,-0.413437 -0.58219,-1.122187 -0.43031,-0.523125 -0.95344,-0.970313 l 0.88594,-1.78875 q 0.0759,-0.151875 0.18563,0 1.26562,1.72125 2.33718,1.72125 h 0.73407 z"
           id="path1750" />
        <path
           d="m 116.91692,60.69502 q 0,0.599062 -0.64125,1.9575 -0.16875,0.354375 -0.23625,0.354375 -0.10969,0 -0.17719,-0.784688 l -0.80156,-8.91 1.5525,-1.290937 q 0.15187,-0.126563 0.21937,-0.126563 0.0844,0 0.0844,0.177188 z"
           id="path1752" />
        <path
           d="m 112.16661,59.302832 q 0,1.24875 -0.48094,2.117813 -0.65813,1.18125 -2.025,1.18125 h -0.81 v -2.168438 h 0.93656 q 1.215,0 1.215,-0.455625 0,-0.396562 -0.945,-1.434375 -0.10969,-0.118125 0,-0.27 l 0.98719,-1.375312 q 0.12656,-0.177188 0.25312,-0.04219 0.37969,0.405 0.63282,1.1475 0.23625,0.691875 0.23625,1.299375 z m 1.51031,5.830313 -1.02938,1.037813 -1.03781,-1.037813 1.03781,-1.029375 z m -2.30344,0 -1.02937,1.037813 -1.03782,-1.037813 1.03782,-1.029375 z"
           id="path1754" />
        <path
           d="m 109.29786,62.601895 h -0.80157 q -0.64968,0 -1.25718,-0.3375 -0.59907,-0.345938 -0.92813,-0.902813 -0.73406,1.240313 -2.16,1.240313 h -1.33312 v -2.168438 h 0.99562 q 1.23188,0 1.70438,-0.548437 0.24468,-0.278438 0.37968,-1.020938 0.10125,-0.548437 0.41344,-0.548437 0.30375,0 0.39656,0.548437 0.12657,0.7425 0.32063,1.020938 0.38812,0.548437 1.40062,0.548437 h 0.86907 z m -2.60719,-7.534688 -1.1475,1.1475 -1.1475,-1.1475 1.1475,-1.1475 z"
           id="path1756" />
        <path
           d="m 103.25661,62.601895 h -0.90282 q -1.20656,0 -2.04187,-1.5525 -0.700314,0.8775 -1.139064,1.130625 -0.725625,0.421875 -2.12625,0.421875 -2.117812,0 -2.117812,-1.9575 0,-0.295313 0.0675,-0.649688 0.2025,-1.071562 0.683437,-1.071562 0.27,0 0.278438,0.421875 0.01687,0.565312 0.160312,0.77625 0.286875,0.413437 1.24875,0.413437 2.345625,0 2.345625,-0.894375 0,-0.565312 -1.18125,-3.07125 l 0.953438,-1.257187 q 0.109687,-0.151875 0.135,-0.151875 0.05906,0 0.143437,0.227812 l 1.468129,3.915 q 0.43031,1.155938 1.20656,1.155938 h 0.81844 z"
           id="path1758" />
        <path
           d="m 93.393168,59.623457 q 0,0.97875 -0.64125,1.839375 -0.590625,0.793125 -1.155938,0.793125 -0.345938,0 -1.2825,-0.430312 -0.936563,-0.43875 -1.004063,-0.43875 0.23625,0 0.23625,0.05906 0,0.135 -1.08,0.548438 -1.58625,0.6075 -2.084062,0.6075 H 85.65598 v -2.168438 h 0.683437 q 0.725625,0 0.928125,-0.177187 -0.421875,-0.354375 -0.421875,-0.987188 0,-0.666562 0.489375,-1.274062 0.43875,-0.548438 1.096875,-0.84375 -0.345937,-0.286875 -0.759375,-0.430313 l 0.818438,-1.72125 q 2.176875,1.139063 3.214687,1.965938 1.687501,1.341562 1.687501,2.657812 z m -0.961875,0.464063 q 0,-0.379688 -0.649688,-0.885938 -0.109688,-0.08438 -0.818438,-0.590625 0.03375,0.185625 0.03375,0.3375 0,0.666563 -0.57375,1.189688 0.784688,0.523125 1.518751,0.523125 0.489375,0 0.489375,-0.57375 z m -2.303438,-1.375313 q 0,-0.286875 -0.23625,-0.599062 -0.227813,-0.320625 -0.50625,-0.320625 -0.329063,0 -0.784688,0.320625 -0.480937,0.345937 -0.480937,0.658125 0,0.30375 0.4725,0.6075 0.413437,0.27 0.658125,0.27 0.219375,0 0.514687,-0.23625 0.362813,-0.295313 0.362813,-0.700313 z"
           id="path1760" />
        <path
           d="m 86.103168,62.601895 h -0.995625 q -0.835313,0 -1.425938,-0.556875 -0.784687,-0.7425 -0.784687,-2.269688 0,-1.037812 -0.126563,-3.130312 -0.143437,-2.345625 -0.278437,-3.088125 -0.04219,-0.244688 0.03375,-0.320625 l 1.392187,-1.130625 q 0.253125,-0.2025 0.295313,-0.2025 0,0 0.0084,0.0084 0.05062,0.0084 0.05062,0.23625 l -0.01687,7.095938 q 0,1.198125 1.341563,1.198125 h 0.50625 z"
           id="path1762" />
      </g>
      <g
         aria-label="روشهای اجرایی"
         id="text122"
         style="font-weight:bold;font-size:17.28px;font-family:'B Nazanin';-inkscape-font-specification:'B Nazanin, Bold';fill:#333333">
        <path
           d="m 148.28189,96.820767 q 0,2.413125 -1.60312,4.075313 -0.49782,0.51469 -0.6075,0.51469 -2.26969,0 -3.36657,-0.43032 -0.23625,-0.0928 -0.0169,-0.16875 1.56094,-0.55687 2.93625,-1.619995 1.57781,-1.215 1.57781,-2.185313 0,-0.405 -0.57375,-1.130625 -0.48094,-0.6075 -0.93656,-0.953437 l 0.81844,-1.729688 q 0.0759,-0.160312 0.2025,-0.03375 1.56937,1.569375 1.56937,3.661875 z"
           id="path1717" />
        <path
           d="m 141.79346,97.090767 q 0,2.202188 -1.50188,3.813753 -0.4725,0.50625 -0.59906,0.50625 -2.11781,0 -3.36656,-0.43032 -0.24469,-0.0844 -0.0169,-0.16875 1.50188,-0.54 2.92782,-1.679058 1.56093,-1.240312 1.56093,-2.067187 -0.18562,0 -0.56531,0.0084 -0.37125,0.0084 -0.55687,0.0084 -1.1475,0 -1.65375,-0.261563 -0.70032,-0.362812 -0.70032,-1.324687 0,-0.894375 0.56532,-2.041875 0.68343,-1.383751 1.62,-1.383751 1.16437,0 1.79718,1.350001 0.48938,1.04625 0.48938,2.354062 z m -1.30781,-2.134687 q -0.22782,-0.565313 -0.71719,-0.8775 -0.37125,-0.23625 -0.65813,-0.23625 -0.26156,0 -0.48093,0.185625 -0.21938,0.185625 -0.21938,0.43875 0,0.590625 0.945,0.590625 0.43875,0 1.13063,-0.10125 z"
           id="path1719" />
        <path
           d="m 135.1869,94.17983 q 0,1.172812 -0.4725,2.084062 -0.59063,1.139063 -1.70438,1.139063 -1.04625,0 -1.72969,-1.155938 -0.64968,1.155938 -1.65375,1.155938 -1.08,0 -1.73812,-1.155938 -0.675,1.155938 -2.05031,1.155938 h -1.17282 v -2.168438 h 1.38375 q 0.75094,0 1.07157,-0.50625 0.12656,-0.194062 0.30375,-0.936562 0.12656,-0.50625 0.41343,-0.50625 0.31219,0 0.43032,0.50625 0.18562,0.793125 0.27,0.945 0.27843,0.50625 1.0125,0.50625 0.72562,0 1.02937,-0.50625 0.0928,-0.151875 0.30375,-0.945 0.135,-0.50625 0.45563,-0.50625 0.27843,0 0.38812,0.514687 0.16031,0.793125 0.26156,0.961875 0.29532,0.514688 1.05469,0.514688 1.05469,0 1.05469,-0.70875 0,-0.354375 -0.71719,-1.257188 l 0.76781,-1.189687 q 0.14344,-0.227813 0.16875,-0.236251 0.0506,0.02531 0.16875,0.177188 0.21094,0.27 0.42188,0.81 0.27844,0.700313 0.27844,1.307813 z m -6.21,-4.041563 1.03781,-1.037813 1.02937,1.037813 -1.02937,1.029375 z m 2.30343,0 1.03782,-1.037813 1.02937,1.037813 -1.02937,1.029375 z m -1.17281,-1.712813 1.03781,-1.029375 1.02938,1.029375 -1.02938,1.029375 z"
           id="path1721" />
        <path
           d="m 125.10408,97.402955 h -0.75937 q -0.90282,0 -1.215,0.07594 -0.59907,0.143438 -0.59907,0.624375 0,0.7425 1.42594,1.333125 l -0.72562,1.991245 q -2.06719,-0.59906 -3.28219,-1.80562 -0.71719,-0.70875 -1.00406,-1.409062 -0.0591,-0.16875 -0.3375,-0.936563 -0.78469,0.126563 -1.35,0.126563 h -0.4725 V 95.23452 h 1.62 q 0,-2.2275 1.81406,-4.733438 0.63281,0.750938 1.13906,1.797188 0.59906,1.240313 0.59906,2.151563 0,2.3625 -2.12625,2.691562 0.50625,0.945 1.76344,1.611563 -0.0675,-1.324688 0.66656,-2.370938 0.80157,-1.1475 2.07563,-1.1475 h 0.76781 z m -4.14281,-2.43 q 0,-0.405 -0.37969,-1.105313 -0.30375,-0.556875 -0.55687,-0.852187 -0.65813,0.936562 -0.65813,2.16 0.55688,0 1.59469,-0.2025 z"
           id="path1723" />
        <path
           d="m 117.23189,97.402955 h -0.99562 q -0.83531,0 -1.42594,-0.556875 -0.78469,-0.7425 -0.78469,-2.269688 0,-1.037812 -0.12656,-3.130313 -0.14344,-2.345625 -0.27844,-3.088125 -0.0422,-0.244687 0.0338,-0.320625 l 1.39219,-1.130625 q 0.25313,-0.2025 0.29531,-0.2025 0,0 0.008,0.0084 0.0506,0.0084 0.0506,0.23625 l -0.0169,7.095938 q 0,1.198125 1.34156,1.198125 h 0.50625 z"
           id="path1725" />
        <path
           d="m 112.04283,93.293892 q 0.0422,0.219375 0.0422,0.3375 0,0.143438 -0.0591,0.143438 -0.0591,0 -0.23625,-0.09281 -0.43875,-0.23625 -1.40063,-0.23625 -1.05469,0 -1.83094,0.725625 -0.59906,0.565313 -0.59906,0.919688 0,0.396562 0.64125,0.590625 0.3375,0.10125 1.31625,0.23625 0.8775,0.118125 1.215,0.388125 0.48094,0.379687 0.48094,1.324687 0,2.354063 -2.05875,3.34968 -1.37531,0.66657 -3.56906,0.66657 -4.02469,0 -4.02469,-3.315937 0,-0.666563 0.405,-1.940625 0.4725,-1.493438 0.95344,-1.493438 0.3375,0 0.3375,0.4725 0,0.143438 -0.26157,0.902813 -0.25312,0.750937 -0.25312,1.1475 0,2.134687 3.20625,2.134687 1.38375,0 2.61562,-0.278437 1.67063,-0.379688 1.67063,-1.063125 0,-0.37125 -0.97875,-0.489375 -1.43438,-0.16875 -1.8225,-0.320625 -0.98719,-0.379688 -0.98719,-1.392188 0,-1.130625 0.99563,-2.657812 1.11375,-1.712813 2.37093,-1.712813 0.81844,0 1.37532,0.70875 0.36281,0.464063 0.45562,0.945 z"
           id="path1727" />
        <path
           d="m 96.720332,95.49608 q 0,0.599062 -0.64125,1.9575 -0.16875,0.354375 -0.23625,0.354375 -0.109688,0 -0.177188,-0.784688 l -0.801562,-8.91 1.5525,-1.290938 q 0.151875,-0.126562 0.219375,-0.126562 0.08437,0 0.08437,0.177187 z"
           id="path1729" />
        <path
           d="m 93.320019,93.462642 -1.088438,1.560938 q -1.11375,0 -2.354062,0.615937 -0.64125,0.329063 -2.320313,1.1475 -1.31625,0.615938 -3.13875,0.615938 h -0.683438 v -2.168438 h 0.91125 q 1.805626,0 2.910938,-0.261562 0.91125,-0.219375 2.050313,-0.793125 -0.37125,-0.143438 -1.341563,-0.514688 -1.063125,-0.405 -1.51875,-0.405 -0.455625,0 -0.987187,0.430313 -0.531563,0.421875 -0.57375,0.421875 -0.337501,0 -0.337501,-0.379688 0,-0.253125 0.244688,-0.691875 0.928125,-1.645313 2.075625,-1.645313 0.57375,0 2.649375,0.936563 2.075625,0.928125 3.113438,0.928125 0.43875,0 0.43875,0.08437 -0.0084,0.05906 -0.05062,0.118125 z m -2.311875,6.193125 -1.139063,1.147503 -1.1475,-1.147503 1.1475,-1.1475 z"
           id="path1731" />
        <path
           d="m 84.148454,97.402955 h -0.37125 q -0.818437,0 -1.265625,-0.219375 0,2.565 -1.5525,4.06687 -0.4725,0.45563 -0.599062,0.45563 -2.252813,0 -3.366563,-0.43031 -0.219375,-0.0844 -0.01687,-0.16032 1.527188,-0.56531 2.961563,-1.645308 1.603125,-1.206562 1.603125,-2.075625 0,-0.413437 -0.582188,-1.122187 -0.430312,-0.523125 -0.953437,-0.970313 l 0.885937,-1.78875 q 0.07594,-0.151875 0.185625,0 1.265625,1.72125 2.337188,1.72125 h 0.734062 z"
           id="path1733" />
        <path
           d="m 76.082204,95.49608 q 0,0.599062 -0.64125,1.9575 -0.16875,0.354375 -0.23625,0.354375 -0.109688,0 -0.177188,-0.784688 l -0.801562,-8.91 1.5525,-1.290938 q 0.151875,-0.126562 0.219375,-0.126562 0.08438,0 0.08438,0.177187 z"
           id="path1735" />
        <path
           d="m 71.331891,94.103892 q 0,1.24875 -0.480937,2.117813 -0.658125,1.18125 -2.025,1.18125 h -0.81 v -2.168438 h 0.936562 q 1.215,0 1.215,-0.455625 0,-0.396562 -0.945,-1.434375 -0.109687,-0.118125 0,-0.27 l 0.987188,-1.375313 q 0.126562,-0.177187 0.253125,-0.04219 0.379687,0.405 0.632812,1.1475 0.23625,0.691875 0.23625,1.299375 z m 1.510313,5.830313 -1.029375,1.037815 -1.037813,-1.037815 1.037813,-1.029375 z m -2.303438,0 -1.029375,1.037815 -1.037812,-1.037815 1.037812,-1.029375 z"
           id="path1737" />
        <path
           d="m 68.454704,97.402955 h -0.725625 q -0.455625,0 -1.366875,-0.126563 -0.902813,-0.126562 -1.358438,-0.126562 -0.388125,0 -0.725625,0.10125 -0.497813,0.151875 -0.497813,0.447187 0,0.177188 0.725626,0.286875 0.43875,0.04219 0.8775,0.08438 0.953437,0.118125 1.341562,0.30375 0.489375,0.23625 0.489375,0.759375 0,1.763433 -1.89,2.548123 -1.324687,0.54843 -3.391875,0.54843 -4.277813,0 -4.277813,-3.130303 0,-0.852187 0.556875,-2.067187 0.531563,-1.164375 0.835313,-1.164375 0.396562,0 0.396562,0.354375 0,0.0675 -0.23625,0.759375 -0.23625,0.683437 -0.23625,1.11375 0,1.38375 1.38375,1.847812 0.852188,0.286873 2.759063,0.286873 0.64125,0 1.712813,-0.18563 1.2825,-0.219368 1.2825,-0.51468 0,-0.143438 -0.8775,-0.210938 -1.18125,-0.08438 -1.636876,-0.219375 -0.885937,-0.253125 -0.885937,-0.860625 0,-0.928125 0.885937,-1.8225 1.164376,-1.18125 3.206251,-1.18125 h 1.65375 z"
           id="path1739" />
      </g>
      <g
         aria-label="دستورالعمل ها"
         id="text122-4"
         style="font-weight:bold;font-size:17.28px;font-family:'B Nazanin';-inkscape-font-specification:'B Nazanin, Bold';fill:#333333">
        <path
           d="m 148.9405,131.39472 q 0,3.06282 -3.83063,3.06282 -2.19375,0 -2.19375,-2.05032 0,-0.19406 0.0253,-0.405 0.135,-1.12218 0.6075,-1.12218 0.27,0 0.30375,0.38812 0.0422,0.53156 0.21938,0.73406 0.3375,0.38813 1.36687,0.38813 0.64969,0 1.40063,-0.12656 1.10531,-0.18563 1.10531,-0.55688 0,-0.66656 -1.18125,-1.65375 -1.07156,-0.89437 -1.755,-1.08 l 0.50625,-1.89 q 0.0506,-0.19406 0.10969,-0.19406 0.0506,0 0.18562,0.0844 1.23188,0.78469 2.0925,1.87313 1.03782,1.31625 1.03782,2.54812 z"
           id="path1692" />
        <path
           d="m 141.39736,131.23441 q 0,1.17281 -0.4725,2.08406 -0.59062,1.13907 -1.70437,1.13907 -1.04625,0 -1.72969,-1.15594 -0.64969,1.15594 -1.65375,1.15594 -1.08,0 -1.73812,-1.15594 -0.675,1.15594 -2.05032,1.15594 h -1.17281 v -2.16844 h 1.38375 q 0.75094,0 1.07156,-0.50625 0.12657,-0.19406 0.30375,-0.93656 0.12657,-0.50625 0.41344,-0.50625 0.31219,0 0.43031,0.50625 0.18563,0.79312 0.27,0.945 0.27844,0.50625 1.0125,0.50625 0.72563,0 1.02938,-0.50625 0.0928,-0.15188 0.30375,-0.945 0.135,-0.50625 0.45562,-0.50625 0.27844,0 0.38813,0.51468 0.16031,0.79313 0.26156,0.96188 0.29531,0.51469 1.05469,0.51469 1.05469,0 1.05469,-0.70875 0,-0.35438 -0.71719,-1.25719 l 0.76781,-1.18969 q 0.14344,-0.22781 0.16875,-0.23625 0.0506,0.0253 0.16875,0.17719 0.21094,0.27 0.42188,0.81 0.27843,0.70031 0.27843,1.30781 z"
           id="path1694" />
        <path
           d="m 131.32299,134.45754 h -0.80156 q -0.64969,0 -1.25719,-0.3375 -0.59906,-0.34594 -0.92813,-0.90282 -0.73406,1.24032 -2.16,1.24032 h -1.33312 v -2.16844 h 0.99562 q 1.23188,0 1.70438,-0.54844 0.24469,-0.27844 0.37969,-1.02094 0.10125,-0.54843 0.41343,-0.54843 0.30375,0 0.39657,0.54843 0.12656,0.7425 0.32062,1.02094 0.38813,0.54844 1.40063,0.54844 h 0.86906 z m -1.30781,-6.66563 -1.03782,1.02938 -1.02937,-1.02938 1.02937,-1.02937 z m -2.30344,0 -1.03781,1.02938 -1.02938,-1.02938 1.02938,-1.02937 z"
           id="path1696" />
        <path
           d="m 125.30705,134.45754 h -1.485 q 0,2.13468 -1.45125,3.78 -0.46406,0.52312 -0.59063,0.52312 -2.12625,0 -3.36656,-0.43031 -0.23625,-0.0844 -0.0169,-0.16031 1.45968,-0.52313 2.92781,-1.6875 1.56094,-1.23188 1.56094,-2.05875 h -0.56532 l -0.55687,0.008 q -1.12219,0.0169 -1.65375,-0.25312 -0.70031,-0.35438 -0.70031,-1.33313 0,-0.88593 0.56531,-2.03343 0.68344,-1.39219 1.62,-1.39219 0.95344,0 1.57781,1.00406 0.48938,0.78469 0.64969,1.86469 h 1.485 z m -2.73375,-2.14313 q -0.22781,-0.57375 -0.71719,-0.88594 -0.37125,-0.23625 -0.65812,-0.23625 -0.26157,0 -0.48094,0.18563 -0.21938,0.18562 -0.21938,0.43875 0,0.59062 0.945,0.59062 0.43875,0 1.13063,-0.0928 z"
           id="path1698" />
        <path
           d="m 117.28299,133.87535 q 0,2.41312 -1.60312,4.07531 -0.49782,0.51469 -0.6075,0.51469 -2.26969,0 -3.36657,-0.43031 -0.23625,-0.0928 -0.0169,-0.16875 1.56094,-0.55688 2.93625,-1.62 1.57781,-1.215 1.57781,-2.18532 0,-0.405 -0.57375,-1.13062 -0.48094,-0.6075 -0.93656,-0.95344 l 0.81844,-1.72969 q 0.0759,-0.16031 0.2025,-0.0337 1.56937,1.56938 1.56937,3.66188 z"
           id="path1700" />
        <path
           d="m 110.79455,132.55066 q 0,0.59906 -0.64125,1.9575 -0.16875,0.35438 -0.23625,0.35438 -0.10968,0 -0.17718,-0.78469 l -0.80157,-8.91 1.5525,-1.29094 q 0.15188,-0.12656 0.21938,-0.12656 0.0844,0 0.0844,0.17718 z"
           id="path1702" />
        <path
           d="m 107.39424,126.12972 q 0.0337,0.0844 0.0506,0.14344 -0.0169,0.0337 -0.10125,0.0337 -0.14344,0 -0.49781,-0.0675 0.16875,2.87719 0.14344,5.70375 -0.008,1.05469 -0.54844,1.74656 -0.59063,0.76782 -1.61156,0.76782 h -0.62438 v -2.16844 h 0.56531 q 0.66657,0 0.8775,-0.27 0.15188,-0.19406 0.11813,-0.71719 -0.0675,-1.13062 -0.32906,-3.16406 -0.27844,-2.21063 -0.45563,-2.89406 l 1.40906,-1.39219 q 0.11813,-0.11813 0.18563,0.0422 0.22781,0.72563 0.81844,2.23594 z"
           id="path1704" />
        <path
           d="m 104.65205,134.45754 h -0.4725 q -1.20656,0 -1.9575,-0.46407 -0.42187,-0.26156 -1.00406,-0.97875 -1.290939,1.44282 -2.986877,1.44282 h -0.489375 v -2.16844 h 0.84375 q 1.189688,0 1.780312,-0.45563 -1.012499,-1.32468 -1.392187,-1.32468 -0.23625,0 -0.23625,-0.27 0,-0.37125 0.405,-0.81844 0.675,-0.75094 2.084067,-0.75094 0.86062,0 1.53562,0.34594 0.78469,0.405 0.78469,1.06312 0,0.4725 -0.56531,1.03782 -0.16875,0.16875 -0.90282,0.75937 0.48094,0.41344 1.88157,0.41344 h 0.69187 z"
           id="path1706" />
        <path
           d="m 98.180489,134.45754 h -0.793126 q -0.464062,0 -0.8775,-0.3375 -0.388125,-0.31219 -0.565312,-0.77625 -0.489375,1.29937 -1.704375,1.29937 -1.08,0 -1.85625,-1.22344 -0.54,1.03782 -1.58625,1.03782 h -0.725625 v -2.16844 h 0.725625 q 0.725625,0 0.91125,-0.12656 0.151875,-0.10125 0.118125,-0.46407 -0.0675,-0.84375 0.50625,-1.60312 0.624375,-0.82688 1.569375,-0.82688 1.265625,0 1.898437,1.40907 l 0.531563,1.18968 q 0.278437,0.43032 0.852187,0.43032 h 0.995626 z m -2.970001,-2.25282 q 0,-0.50625 -0.354375,-1.1475 -0.405,-0.72562 -0.860625,-0.72562 -0.57375,0 -0.57375,0.76781 0,0.58219 0.30375,1.215 0.37125,0.76781 0.8775,0.76781 0.6075,0 0.6075,-0.8775 z"
           id="path1708" />
        <path
           d="m 90.5108,134.45754 h -0.556875 q -0.97875,0 -1.409062,-0.61594 0,1.96594 -0.649688,3.01219 -1.071562,1.72968 -3.974062,1.72968 -3.476251,0 -3.476251,-3.11343 0,-0.70032 0.362813,-1.71282 0.379687,-1.06312 0.717187,-1.06312 0.312188,0 0.312188,0.405 0,0.22781 -0.160313,0.73406 -0.151875,0.49781 -0.151875,0.75938 0,1.83937 2.632501,1.83937 1.738125,0 2.657812,-0.56531 0.624375,-0.38813 0.624375,-0.72563 0,-2.59875 -0.210937,-5.91468 -0.194063,-3.01219 -0.354375,-3.93188 l 1.603125,-1.39219 q 0.01687,-0.008 0.05062,-0.0337 0.03375,-0.0253 0.05906,-0.0253 0.05062,0 0.05062,0.10969 l 0.07594,6.77531 q 0.01687,1.56094 1.324687,1.56094 h 0.4725 z"
           id="path1710" />
        <path
           d="m 75.238924,131.4791 q 0,0.97875 -0.64125,1.83937 -0.590625,0.79313 -1.155937,0.79313 -0.345938,0 -1.282501,-0.43031 -0.936562,-0.43875 -1.004062,-0.43875 0.23625,0 0.23625,0.0591 0,0.135 -1.08,0.54844 -1.58625,0.6075 -2.084063,0.6075 h -0.725625 v -2.16844 h 0.683438 q 0.725625,0 0.928125,-0.17719 -0.421875,-0.35437 -0.421875,-0.98719 0,-0.66656 0.489375,-1.27406 0.43875,-0.54844 1.096875,-0.84375 -0.345938,-0.28687 -0.759375,-0.43031 l 0.818437,-1.72125 q 2.176875,1.13906 3.214688,1.96594 1.6875,1.34156 1.6875,2.65781 z m -0.961875,0.46406 q 0,-0.37969 -0.649687,-0.88594 -0.109688,-0.0844 -0.818438,-0.59062 0.03375,0.18562 0.03375,0.3375 0,0.66656 -0.57375,1.18969 0.784688,0.52312 1.51875,0.52312 0.489375,0 0.489375,-0.57375 z m -2.303438,-1.37531 q 0,-0.28688 -0.23625,-0.59906 -0.227812,-0.32063 -0.50625,-0.32063 -0.329062,0 -0.784687,0.32063 -0.480938,0.34593 -0.480938,0.65812 0,0.30375 0.4725,0.6075 0.413438,0.27 0.658125,0.27 0.219375,0 0.514688,-0.23625 0.362812,-0.29531 0.362812,-0.70031 z"
           id="path1712" />
        <path
           d="m 67.948924,134.45754 h -0.995625 q -0.835312,0 -1.425937,-0.55688 -0.784688,-0.7425 -0.784688,-2.26969 0,-1.03781 -0.126562,-3.13031 -0.143438,-2.34562 -0.278438,-3.08812 -0.04219,-0.24469 0.03375,-0.32063 l 1.392188,-1.13063 q 0.253125,-0.2025 0.295312,-0.2025 0,0 0.0084,0.008 0.05062,0.008 0.05062,0.23625 l -0.01687,7.09594 q 0,1.19813 1.341562,1.19813 h 0.50625 z"
           id="path1714" />
      </g>
      <g
         aria-label="فرم ها"
         id="text122-4-5"
         style="font-weight:bold;font-size:17.28px;font-family:'B Nazanin';-inkscape-font-specification:'B Nazanin, Bold';fill:#333333">
        <path
           d="m 147.71605,166.14247 q 0,2.14312 -1.10531,2.88562 -0.945,0.63281 -2.94469,0.63281 h -1.52718 v -2.16843 h 1.74656 q 2.00812,0 2.69156,-0.34594 0.30375,-0.15188 0.30375,-0.52313 0,-0.22781 -0.3375,-0.19406 -1.07156,0.10125 -1.51031,0.10125 -1.67906,0 -1.67906,-1.24031 0,-1.02094 0.51468,-2.025 0.62438,-1.215 1.58625,-1.215 1.31625,0 1.89844,1.72125 0.36281,1.07156 0.36281,2.37094 z m -1.27406,-1.26563 q -0.23625,-0.57375 -0.72562,-0.88594 -0.36282,-0.22781 -0.65813,-0.22781 -0.27,0 -0.48937,0.18563 -0.21094,0.17718 -0.21094,0.43875 0,0.59062 1.1475,0.59062 0.42187,0 0.93656,-0.10125 z m 0.0675,-4.91906 -1.13906,1.13906 -1.1475,-1.13906 1.1475,-1.1475 z"
           id="path1681" />
        <path
           d="m 142.57762,169.6609 h -0.37125 q -0.81844,0 -1.26563,-0.21937 0,2.565 -1.5525,4.06687 -0.4725,0.45563 -0.59906,0.45563 -2.25281,0 -3.36656,-0.43031 -0.21938,-0.0844 -0.0169,-0.16032 1.52719,-0.56531 2.96156,-1.64531 1.60313,-1.20656 1.60313,-2.07562 0,-0.41344 -0.58219,-1.12219 -0.43031,-0.52313 -0.95344,-0.97031 l 0.88594,-1.78875 q 0.0759,-0.15188 0.18563,0 1.26562,1.72125 2.33718,1.72125 h 0.73407 z"
           id="path1683" />
        <path
           d="m 134.50293,166.74997 q 0,0.675 -0.37969,1.43437 -0.52312,1.04625 -1.45969,1.04625 -0.50625,0 -1.51031,-0.19406 -0.99562,-0.2025 -1.50187,-0.2025 -0.58219,0 -0.58219,0.36281 0,0.0591 0.008,0.14344 0.27,2.59875 0.17718,3.40875 -0.0253,0.19406 -0.3375,0.71719 -0.11812,0.18562 -0.41343,0.66656 -0.10969,0.18562 -0.16875,0.18562 -0.0759,0 -0.0928,-0.31218 -0.0675,-1.24032 -0.24468,-3.18094 -0.15188,-1.66219 -0.15188,-1.96594 0,-0.85219 0.57375,-1.35844 0.54844,-0.48937 1.4175,-0.48937 -0.008,-0.0928 -0.0506,-0.36281 -0.0337,-0.23625 -0.0337,-0.37125 0,-0.56532 0.58218,-1.31625 0.64125,-0.83532 1.35,-0.83532 0.83532,0 1.84782,0.99563 0.97031,0.95344 0.97031,1.62844 z m -1.29938,0.48937 q -0.35437,-0.44719 -0.89437,-0.82687 -0.64969,-0.45563 -1.11375,-0.45563 -0.43031,0 -0.43031,0.43031 0,0.7425 -0.008,0.58219 0.008,0.135 0.16031,0.16875 0.62438,0.135 2.10938,0.41344 0.27843,0.0506 0.27843,-0.10125 0,-0.0844 -0.10125,-0.21094 z"
           id="path1685" />
        <path
           d="m 122.62293,166.68247 q 0,0.97875 -0.64125,1.83937 -0.59063,0.79313 -1.15594,0.79313 -0.34594,0 -1.2825,-0.43032 -0.93656,-0.43875 -1.00406,-0.43875 0.23625,0 0.23625,0.0591 0,0.135 -1.08,0.54843 -1.58625,0.6075 -2.08407,0.6075 h -0.72562 v -2.16843 h 0.68344 q 0.72562,0 0.92812,-0.17719 -0.42187,-0.35438 -0.42187,-0.98719 0,-0.66656 0.48937,-1.27406 0.43875,-0.54844 1.09688,-0.84375 -0.34594,-0.28688 -0.75938,-0.43031 l 0.81844,-1.72125 q 2.17687,1.13906 3.21469,1.96593 1.6875,1.34157 1.6875,2.65782 z m -0.96188,0.46406 q 0,-0.37969 -0.64969,-0.88594 -0.10968,-0.0844 -0.81843,-0.59062 0.0337,0.18562 0.0337,0.3375 0,0.66656 -0.57375,1.18968 0.78468,0.52313 1.51875,0.52313 0.48937,0 0.48937,-0.57375 z m -2.30344,-1.37531 q 0,-0.28688 -0.23625,-0.59907 -0.22781,-0.32062 -0.50625,-0.32062 -0.32906,0 -0.78468,0.32062 -0.48094,0.34594 -0.48094,0.65813 0,0.30375 0.4725,0.6075 0.41344,0.27 0.65812,0.27 0.21938,0 0.51469,-0.23625 0.36281,-0.29531 0.36281,-0.70031 z"
           id="path1687" />
        <path
           d="m 115.33293,169.6609 h -0.99563 q -0.83531,0 -1.42594,-0.55687 -0.78468,-0.7425 -0.78468,-2.26969 0,-1.03781 -0.12657,-3.13031 -0.14343,-2.34563 -0.27843,-3.08813 -0.0422,-0.24468 0.0337,-0.32062 l 1.39218,-1.13063 q 0.25313,-0.2025 0.29532,-0.2025 0,0 0.008,0.008 0.0506,0.008 0.0506,0.23625 l -0.0169,7.09594 q 0,1.19812 1.34157,1.19812 h 0.50625 z"
           id="path1689" />
      </g>
    </g>
    <path
       stroke-linecap="round"
       stroke-linejoin="round"
       d="m 458.05833,162.87083 c -0.0534,0.17383 -0.0822,0.35843 -0.0822,0.54965 0,0.34271 0.27622,0.62085 0.61657,0.62085 h 3.69943 a 0.61657066,0.6208453 0 0 0 0.61657,-0.62085 1.849712,1.8625359 0 0 0 -0.0822,-0.54965 m -4.76815,0 a 1.8505341,1.8633637 0 0 1 1.7675,-1.31289 h 1.23314 c 0.83196,0 1.53485,0.55297 1.76751,1.31289 m -4.76815,0 c -0.30911,0.019 -0.61657,0.0414 -0.92403,0.0662 -0.92979,0.0778 -1.62446,0.87498 -1.62446,1.81452 v 1.77314 m 7.31664,-3.65388 c 0.3091,0.019 0.61657,0.0414 0.92403,0.0662 0.92979,0.0778 1.62446,0.87498 1.62446,1.81452 v 8.60244 a 1.849712,1.8625359 0 0 1 -1.84971,1.86253 h -1.84972 m -6.1657,-8.69183 h -2.77457 c -0.51052,0 -0.92486,0.4172 -0.92486,0.93126 v 9.31268 c 0,0.51406 0.41434,0.93127 0.92486,0.93127 h 8.01542 c 0.51052,0 0.92485,-0.41721 0.92485,-0.93127 v -1.55211 m -6.1657,-8.69183 h 5.24085 c 0.51052,0 0.92485,0.4172 0.92485,0.93126 v 7.76057 m -6.78227,-2.48338 1.23314,1.24169 2.46628,-3.10423"
       stroke="#0f172a"
       fill="none"
       stroke-width="1.23741px"
       id="path1" />
    <path
       stroke-linecap="round"
       stroke-linejoin="round"
       d="m 457.93748,198.01958 c -0.0534,0.17383 -0.0822,0.35843 -0.0822,0.54965 0,0.34271 0.27622,0.62085 0.61657,0.62085 h 3.69943 a 0.61657066,0.6208453 0 0 0 0.61657,-0.62085 1.849712,1.8625359 0 0 0 -0.0822,-0.54965 m -4.76815,0 a 1.8505341,1.8633637 0 0 1 1.7675,-1.31289 h 1.23314 c 0.83196,0 1.53485,0.55297 1.76751,1.31289 m -4.76815,0 c -0.30911,0.019 -0.61657,0.0414 -0.92403,0.0662 -0.92979,0.0778 -1.62446,0.87498 -1.62446,1.81452 v 1.77314 m 7.31664,-3.65388 c 0.3091,0.019 0.61657,0.0414 0.92403,0.0662 0.92979,0.0778 1.62446,0.87498 1.62446,1.81452 v 8.60244 a 1.849712,1.8625359 0 0 1 -1.84971,1.86253 h -1.84972 m -6.1657,-8.69183 h -2.77457 c -0.51052,0 -0.92486,0.4172 -0.92486,0.93126 v 9.31268 c 0,0.51406 0.41434,0.93127 0.92486,0.93127 h 8.01542 c 0.51052,0 0.92485,-0.41721 0.92485,-0.93127 v -1.55211 m -6.1657,-8.69183 h 5.24085 c 0.51052,0 0.92485,0.4172 0.92485,0.93126 v 7.76057 m -6.78227,-2.48338 1.23314,1.24169 2.46628,-3.10423"
       stroke="#0f172a"
       fill="none"
       stroke-width="1.23741px"
       id="path1-1" />
    <path
       stroke-linecap="round"
       stroke-linejoin="round"
       d="m 458.72752,233.13866 c -0.0534,0.17383 -0.0822,0.35843 -0.0822,0.54965 0,0.34271 0.27622,0.62085 0.61657,0.62085 h 3.69943 a 0.61657066,0.6208453 0 0 0 0.61657,-0.62085 1.849712,1.8625359 0 0 0 -0.0822,-0.54965 m -4.76815,0 a 1.8505341,1.8633637 0 0 1 1.7675,-1.31289 h 1.23314 c 0.83196,0 1.53485,0.55297 1.76751,1.31289 m -4.76815,0 c -0.30911,0.019 -0.61657,0.0414 -0.92403,0.0662 -0.92979,0.0778 -1.62446,0.87498 -1.62446,1.81452 v 1.77314 m 7.31664,-3.65388 c 0.3091,0.019 0.61657,0.0414 0.92403,0.0662 0.92979,0.0778 1.62446,0.87498 1.62446,1.81452 v 8.60244 a 1.849712,1.8625359 0 0 1 -1.84971,1.86253 h -1.84972 m -6.1657,-8.69183 h -2.77457 c -0.51052,0 -0.92486,0.4172 -0.92486,0.93126 v 9.31268 c 0,0.51406 0.41434,0.93127 0.92486,0.93127 h 8.01542 c 0.51052,0 0.92485,-0.41721 0.92485,-0.93127 v -1.55211 m -6.1657,-8.69183 h 5.24085 c 0.51052,0 0.92485,0.4172 0.92485,0.93126 v 7.76057 m -6.78227,-2.48338 1.23314,1.24169 2.46628,-3.10423"
       stroke="#0f172a"
       fill="none"
       stroke-width="1.23741px"
       id="path1-5" />
    <path
       stroke-linecap="round"
       stroke-linejoin="round"
       d="m 458.04348,270.2436 c -0.0534,0.17383 -0.0822,0.35843 -0.0822,0.54965 0,0.34271 0.27622,0.62085 0.61657,0.62085 h 3.69943 a 0.61657066,0.6208453 0 0 0 0.61657,-0.62085 1.849712,1.8625359 0 0 0 -0.0822,-0.54965 m -4.76815,0 a 1.8505341,1.8633637 0 0 1 1.7675,-1.31289 h 1.23314 c 0.83196,0 1.53485,0.55297 1.76751,1.31289 m -4.76815,0 c -0.30911,0.019 -0.61657,0.0414 -0.92403,0.0662 -0.92979,0.0778 -1.62446,0.87498 -1.62446,1.81452 v 1.77314 m 7.31664,-3.65388 c 0.3091,0.019 0.61657,0.0414 0.92403,0.0662 0.92979,0.0778 1.62446,0.87498 1.62446,1.81452 v 8.60244 a 1.849712,1.8625359 0 0 1 -1.84971,1.86253 h -1.84972 m -6.1657,-8.69183 h -2.77457 c -0.51052,0 -0.92486,0.4172 -0.92486,0.93126 v 9.31268 c 0,0.51406 0.41434,0.93127 0.92486,0.93127 h 8.01542 c 0.51052,0 0.92485,-0.41721 0.92485,-0.93127 v -1.55211 m -6.1657,-8.69183 h 5.24085 c 0.51052,0 0.92485,0.4172 0.92485,0.93126 v 7.76057 m -6.78227,-2.48338 1.23314,1.24169 2.46628,-3.10423"
       stroke="#0f172a"
       fill="none"
       stroke-width="1.23741px"
       id="path1-2" />
    <path
       stroke-linecap="round"
       stroke-linejoin="round"
       d="m 456.33089,306.22372 c -0.0534,0.17383 -0.0822,0.35843 -0.0822,0.54965 0,0.34271 0.27622,0.62085 0.61657,0.62085 h 3.69943 a 0.61657066,0.6208453 0 0 0 0.61657,-0.62085 1.849712,1.8625359 0 0 0 -0.0822,-0.54965 m -4.76815,0 a 1.8505341,1.8633637 0 0 1 1.7675,-1.31289 h 1.23314 c 0.83196,0 1.53485,0.55297 1.76751,1.31289 m -4.76815,0 c -0.30911,0.019 -0.61657,0.0414 -0.92403,0.0662 -0.92979,0.0778 -1.62446,0.87498 -1.62446,1.81452 v 1.77314 m 7.31664,-3.65388 c 0.3091,0.019 0.61657,0.0414 0.92403,0.0662 0.92979,0.0778 1.62446,0.87498 1.62446,1.81452 v 8.60244 a 1.849712,1.8625359 0 0 1 -1.84971,1.86253 h -1.84972 m -6.1657,-8.69183 h -2.77457 c -0.51052,0 -0.92486,0.4172 -0.92486,0.93126 v 9.31268 c 0,0.51406 0.41434,0.93127 0.92486,0.93127 h 8.01542 c 0.51052,0 0.92485,-0.41721 0.92485,-0.93127 v -1.55211 m -6.1657,-8.69183 h 5.24085 c 0.51052,0 0.92485,0.4172 0.92485,0.93126 v 7.76057 m -6.78227,-2.48338 1.23314,1.24169 2.46628,-3.10423"
       stroke="#0f172a"
       fill="none"
       stroke-width="1.23741px"
       id="path1-7" />
  </g>
</svg>
