<?xml version="1.0" encoding="UTF-8" standalone="no"?>
<svg
   class="feat-wwf-graphics"
   width="388.88889"
   height="382.87036"
   viewBox="0 0 419.86234 413.49999"
   version="1.1"
   id="svg123"
   sodipodi:docname="mobile-farsi2.svg"
   inkscape:export-filename="..\Desktop\images-dms\mobile-farsi.svg"
   inkscape:export-xdpi="96"
   inkscape:export-ydpi="96"
   inkscape:version="1.2.2 (732a01da63, 2022-12-09)"
   xmlns:inkscape="http://www.inkscape.org/namespaces/inkscape"
   xmlns:sodipodi="http://sodipodi.sourceforge.net/DTD/sodipodi-0.dtd"
   xmlns:xlink="http://www.w3.org/1999/xlink"
   xmlns="http://www.w3.org/2000/svg"
   xmlns:svg="http://www.w3.org/2000/svg">
  <sodipodi:namedview
     id="namedview123"
     pagecolor="#ffffff"
     bordercolor="#000000"
     borderopacity="0.25"
     inkscape:showpageshadow="2"
     inkscape:pageopacity="0.0"
     inkscape:pagecheckerboard="0"
     inkscape:deskcolor="#d1d1d1"
     inkscape:zoom="1.1525841"
     inkscape:cx="131.00997"
     inkscape:cy="180.46406"
     inkscape:window-width="1366"
     inkscape:window-height="705"
     inkscape:window-x="-8"
     inkscape:window-y="-8"
     inkscape:window-maximized="1"
     inkscape:current-layer="svg123"
     showgrid="false">
    <inkscape:page
       x="0"
       y="0"
       width="419.86234"
       height="413.5"
       id="page2"
       margin="0"
       bleed="0" />
  </sodipodi:namedview>
  <defs
     id="defs29">
    <rect
       id="fldr1-bg"
       x="0"
       y="0"
       width="110"
       height="29"
       rx="4" />
    <filter
       x="-0.026363636"
       y="-0.1"
       width="1.0527273"
       height="1.3034483"
       filterUnits="objectBoundingBox"
       id="fldr1-sdw">
      <feMorphology
         radius="0.5"
         operator="dilate"
         in="SourceAlpha"
         result="shadowSpreadOuter1"
         id="feMorphology1" />
      <feOffset
         dx="0"
         dy="3"
         in="shadowSpreadOuter1"
         result="shadowOffsetOuter1"
         id="feOffset1" />
      <feGaussianBlur
         stdDeviation="1"
         in="shadowOffsetOuter1"
         result="shadowBlurOuter1"
         id="feGaussianBlur1" />
      <feComposite
         in="shadowBlurOuter1"
         in2="SourceAlpha"
         operator="out"
         result="shadowBlurOuter1"
         id="feComposite1" />
      <feColorMatrix
         values="0 0 0 0 0 0 0 0 0 0 0 0 0 0 0 0 0 0 0.06 0"
         type="matrix"
         in="shadowBlurOuter1"
         id="feColorMatrix1" />
    </filter>
    <rect
       id="fldr2-bg"
       x="0"
       y="0"
       width="110"
       height="29"
       rx="4" />
    <filter
       x="-0.026340707"
       y="-0.099913027"
       width="1.0526814"
       height="1.3032743"
       filterUnits="objectBoundingBox"
       id="fldr2-sdw">
      <feMorphology
         radius="0.497477776"
         operator="dilate"
         in="SourceAlpha"
         result="shadowSpreadOuter1"
         id="feMorphology2" />
      <feOffset
         dx="0"
         dy="3"
         in="shadowSpreadOuter1"
         result="shadowOffsetOuter1"
         id="feOffset2" />
      <feGaussianBlur
         stdDeviation="1"
         in="shadowOffsetOuter1"
         result="shadowBlurOuter1"
         id="feGaussianBlur2" />
      <feComposite
         in="shadowBlurOuter1"
         in2="SourceAlpha"
         operator="out"
         result="shadowBlurOuter1"
         id="feComposite2" />
      <feColorMatrix
         values="0 0 0 0 0 0 0 0 0 0 0 0 0 0 0 0 0 0 0.06 0"
         type="matrix"
         in="shadowBlurOuter1"
         id="feColorMatrix2" />
    </filter>
    <rect
       id="fldr3-bg"
       x="0"
       y="0"
       width="110"
       height="29"
       rx="4" />
    <filter
       x="-0.026340707"
       y="-0.099913027"
       width="1.0526814"
       height="1.3032743"
       filterUnits="objectBoundingBox"
       id="fldr3-sdw">
      <feMorphology
         radius="0.497477776"
         operator="dilate"
         in="SourceAlpha"
         result="shadowSpreadOuter1"
         id="feMorphology3" />
      <feOffset
         dx="0"
         dy="3"
         in="shadowSpreadOuter1"
         result="shadowOffsetOuter1"
         id="feOffset3" />
      <feGaussianBlur
         stdDeviation="1"
         in="shadowOffsetOuter1"
         result="shadowBlurOuter1"
         id="feGaussianBlur3" />
      <feComposite
         in="shadowBlurOuter1"
         in2="SourceAlpha"
         operator="out"
         result="shadowBlurOuter1"
         id="feComposite3" />
      <feColorMatrix
         values="0 0 0 0 0 0 0 0 0 0 0 0 0 0 0 0 0 0 0.06 0"
         type="matrix"
         in="shadowBlurOuter1"
         id="feColorMatrix3" />
    </filter>
    <rect
       id="fldr4-bg"
       x="0"
       y="0"
       width="110"
       height="29"
       rx="4" />
    <filter
       x="-0.026340707"
       y="-0.099913027"
       width="1.0526814"
       height="1.3032743"
       filterUnits="objectBoundingBox"
       id="fldr4-sdw">
      <feMorphology
         radius="0.497477776"
         operator="dilate"
         in="SourceAlpha"
         result="shadowSpreadOuter1"
         id="feMorphology4" />
      <feOffset
         dx="0"
         dy="3"
         in="shadowSpreadOuter1"
         result="shadowOffsetOuter1"
         id="feOffset4" />
      <feGaussianBlur
         stdDeviation="1"
         in="shadowOffsetOuter1"
         result="shadowBlurOuter1"
         id="feGaussianBlur4" />
      <feComposite
         in="shadowBlurOuter1"
         in2="SourceAlpha"
         operator="out"
         result="shadowBlurOuter1"
         id="feComposite4" />
      <feColorMatrix
         values="0 0 0 0 0 0 0 0 0 0 0 0 0 0 0 0 0 0 0.06 0"
         type="matrix"
         in="shadowBlurOuter1"
         id="feColorMatrix4" />
    </filter>
    <rect
       id="file1-bg1"
       x="0"
       y="0"
       width="110"
       height="109"
       rx="6" />
    <filter
       x="-0.026340707"
       y="-0.026582365"
       width="1.0526814"
       height="1.0806877"
       filterUnits="objectBoundingBox"
       id="file1-sdw">
      <feMorphology
         radius="0.497477776"
         operator="dilate"
         in="SourceAlpha"
         result="shadowSpreadOuter1"
         id="feMorphology5" />
      <feOffset
         dx="0"
         dy="3"
         in="shadowSpreadOuter1"
         result="shadowOffsetOuter1"
         id="feOffset5" />
      <feGaussianBlur
         stdDeviation="1"
         in="shadowOffsetOuter1"
         result="shadowBlurOuter1"
         id="feGaussianBlur5" />
      <feComposite
         in="shadowBlurOuter1"
         in2="SourceAlpha"
         operator="out"
         result="shadowBlurOuter1"
         id="feComposite5" />
      <feColorMatrix
         values="0 0 0 0 0 0 0 0 0 0 0 0 0 0 0 0 0 0 0.06 0"
         type="matrix"
         in="shadowBlurOuter1"
         id="feColorMatrix5" />
    </filter>
    <rect
       id="file1-bg2"
       x="1"
       y="1"
       width="108"
       height="86"
       rx="4.9747777" />
    <filter
       x="-0.022222222"
       y="-0.027906977"
       width="1.0444444"
       height="1.0906977"
       filterUnits="objectBoundingBox"
       id="file2-sdw">
      <feOffset
         dx="0"
         dy="3"
         in="SourceAlpha"
         result="shadowOffsetOuter1"
         id="feOffset6" />
      <feGaussianBlur
         stdDeviation="1"
         in="shadowOffsetOuter1"
         result="shadowBlurOuter1"
         id="feGaussianBlur6" />
      <feColorMatrix
         values="0 0 0 0 0 0 0 0 0 0 0 0 0 0 0 0 0 0 0.06 0"
         type="matrix"
         in="shadowBlurOuter1"
         id="feColorMatrix6" />
    </filter>
    <rect
       id="file2-bg1"
       x="0"
       y="0"
       width="110"
       height="109"
       rx="6" />
    <filter
       x="-0.026340707"
       y="-0.026582365"
       width="1.0526814"
       height="1.0806877"
       filterUnits="objectBoundingBox"
       id="file3-sdw">
      <feMorphology
         radius="0.497477776"
         operator="dilate"
         in="SourceAlpha"
         result="shadowSpreadOuter1"
         id="feMorphology6" />
      <feOffset
         dx="0"
         dy="3"
         in="shadowSpreadOuter1"
         result="shadowOffsetOuter1"
         id="feOffset7" />
      <feGaussianBlur
         stdDeviation="1"
         in="shadowOffsetOuter1"
         result="shadowBlurOuter1"
         id="feGaussianBlur7" />
      <feComposite
         in="shadowBlurOuter1"
         in2="SourceAlpha"
         operator="out"
         result="shadowBlurOuter1"
         id="feComposite7" />
      <feColorMatrix
         values="0 0 0 0 0 0 0 0 0 0 0 0 0 0 0 0 0 0 0.06 0"
         type="matrix"
         in="shadowBlurOuter1"
         id="feColorMatrix7" />
    </filter>
    <rect
       id="file2-bg2"
       x="1"
       y="1"
       width="108"
       height="86"
       rx="5" />
    <filter
       x="-0.022222222"
       y="-0.027906977"
       width="1.0444444"
       height="1.0906977"
       filterUnits="objectBoundingBox"
       id="file4-sdw">
      <feOffset
         dx="0"
         dy="3"
         in="SourceAlpha"
         result="shadowOffsetOuter1"
         id="feOffset8" />
      <feGaussianBlur
         stdDeviation="1"
         in="shadowOffsetOuter1"
         result="shadowBlurOuter1"
         id="feGaussianBlur8" />
      <feColorMatrix
         values="0 0 0 0 0 0 0 0 0 0 0 0 0 0 0 0 0 0 0.06 0"
         type="matrix"
         in="shadowBlurOuter1"
         id="feColorMatrix8" />
    </filter>
    <path
       id="file3-bg1"
       d="M 5.9697332,0 H 104.03027 C 107.32726,0 110,2.6727406 110,5.9697332 V 41 41 H 0 V 5.9697332 C 0,2.6727406 2.6727406,0 5.9697332,0 Z" />
    <path
       id="file3-bg2"
       d="M 5.9747777,1 H 104.02522 C 106.77272,1 109,3.2272838 109,5.9747777 V 41 41 H 1 V 5.9747777 C 1,3.2272838 3.2272838,1 5.9747777,1 Z" />
    <path
       id="file4-bg1"
       d="M 5.9697332,0 H 104.03027 C 107.32726,0 110,2.6727406 110,5.9697332 V 41 41 H 0 V 5.9697332 C 0,2.6727406 2.6727406,0 5.9697332,0 Z" />
    <path
       id="file4-bg2"
       d="M 5.9747777,1 H 104.02522 C 106.77272,1 109,3.2272838 109,5.9747777 V 41 41 H 1 V 5.9747777 C 1,3.2272838 3.2272838,1 5.9747777,1 Z" />
  </defs>
  <g
     stroke="none"
     stroke-width="1"
     fill="none"
     fill-rule="evenodd"
     id="g123"
     transform="translate(-74.068828,-77)">
    <g
       class="wwf-device"
       transform="translate(134,77)"
       fill="none"
       id="g89">
      <rect
         fill-opacity="0"
         fill="#2d3342"
         x="0"
         y="0"
         width="302"
         height="393"
         id="rect29" />
      <g
         transform="translate(10,10)"
         fill="none"
         id="g88">
        <path
           d="M 57.834863,0 H 224.16514 c 19.07096,0 25.98655,1.9856832 32.95861,5.7143811 6.97206,3.7286979 12.44377,9.2004109 16.17247,16.1724699 3.7287,6.972058 5.71438,13.88765 5.71438,32.958613 V 403 403 H 2.9893993 V 54.845464 c 0,-19.070963 1.9856832,-25.986555 5.7143811,-32.958613 C 12.432478,14.914792 17.904191,9.443079 24.87625,5.7143811 31.848309,1.9856832 38.763901,0 57.834863,0 Z"
           fill="#333333"
           id="path30" />
        <path
           d="M 57.276845,1.9860627 H 224.72315 c 18.18395,0 24.77788,1.8933259 31.42566,5.4485961 6.64778,3.5552702 11.86499,8.7724842 15.42026,15.4202622 3.55527,6.647777 5.4486,13.241713 5.4486,31.425655 v 348.733364 0 H 4.9823322 V 54.280576 c 0,-18.183942 1.8933258,-24.777878 5.4485958,-31.425655 C 13.986198,16.207143 19.203413,10.989929 25.85119,7.4346588 32.498967,3.8793886 39.092904,1.9860627 57.276845,1.9860627 Z"
           fill="#565553"
           id="path31" />
        <path
           d="M 60.266245,4.9651568 H 221.73375 c 18.18395,0 24.77788,1.8933259 31.42566,5.4485962 6.64778,3.55527 11.86499,8.772484 15.42026,15.420262 3.55527,6.647777 5.4486,13.241714 5.4486,31.425655 v 345.77517 0 H 7.9717314 V 57.25967 c 0,-18.183941 1.8933259,-24.777878 5.4485966,-31.425655 3.55527,-6.647778 8.772484,-11.864992 15.420261,-15.420262 6.647778,-3.5552703 13.241714,-5.4485962 31.425656,-5.4485962 z"
           fill="#333333"
           id="path32" />
        <g
           transform="translate(14,11)"
           fill="none"
           id="g72">
          <path
             d="M 42.090706,0 H 212.00823 c 14.63586,0 19.94317,1.5238964 25.29382,4.3854554 5.35065,2.8615589 9.54988,7.0607806 12.41143,12.4114306 2.86156,5.35065 4.38546,10.657965 4.38546,25.29382 v 350.062604 0 H 0 V 42.090706 C 0,27.454851 1.5238964,22.147536 4.3854554,16.796886 7.2470143,11.446236 11.446236,7.2470143 16.796886,4.3854554 22.147536,1.5238964 27.454851,0 42.090706,0 Z"
             fill="#f7f9fc"
             id="path33" />
          <polyline
             stroke="#333333"
             stroke-width="2.5px"
             stroke-linecap="round"
             stroke-linejoin="round"
             points="17.04947 45.0766551 11.04947 50.3918744 17.04947 56.0766551"
             fill="none"
             id="polyline33" />
          <g
             aria-label="مستندات فرایندی"
             id="text33"
             style="font-weight:bold;font-size:17.28px;font-family:'B Nazanin';-inkscape-font-specification:'B Nazanin, Bold';letter-spacing:-0.1;fill:#333333">
            <path
               d="m 221.66452,54.538707 q 0,0.869062 -0.53157,1.4175 -0.52312,0.54 -1.39218,0.54 -1.15594,0 -1.93219,-1.223438 -0.54,1.037813 -1.58625,1.037813 h -0.72563 v -2.168438 h 0.72563 q 0.72562,0 0.91125,-0.126562 0.15187,-0.10125 0.11812,-0.464063 -0.0675,-0.84375 0.51469,-1.594687 0.63281,-0.81 1.58625,-0.81 1.18125,0 1.80563,1.1475 0.50625,0.936562 0.50625,2.244375 z m -1.02938,-0.480938 q 0,-0.50625 -0.35437,-1.1475 -0.405,-0.725625 -0.86063,-0.725625 -0.57375,0 -0.57375,0.767813 0,0.582187 0.30375,1.215 0.37125,0.767812 0.8775,0.767812 0.6075,0 0.6075,-0.8775 z"
               id="path777" />
            <path
               d="m 216.04389,56.310582 h -0.96187 q -1.07156,0 -1.74656,-1.155938 -0.65813,1.155938 -1.74657,1.155938 -0.99562,0 -1.67906,-1.155938 -0.64969,1.155938 -1.65375,1.155938 -1.08,0 -1.73812,-1.155938 -0.675,1.155938 -2.05032,1.155938 h -1.17281 v -2.168438 h 1.38375 q 0.75094,0 1.07156,-0.50625 0.12657,-0.194062 0.30375,-0.936562 0.12657,-0.50625 0.41344,-0.50625 0.31219,0 0.43031,0.50625 0.18563,0.793125 0.27,0.945 0.27844,0.50625 1.0125,0.50625 0.72563,0 1.02938,-0.50625 0.0928,-0.151875 0.30375,-0.945 0.135,-0.50625 0.45562,-0.50625 0.27844,0 0.38813,0.50625 0.16031,0.77625 0.26156,0.945 0.29531,0.50625 1.05469,0.50625 0.64969,0 0.93656,-0.50625 0.0591,-0.109688 0.30375,-0.945 0.14344,-0.50625 0.4725,-0.50625 0.27844,0 0.37969,0.50625 0.14344,0.725625 0.27844,0.936562 0.32062,0.50625 1.12218,0.50625 h 0.8775 z"
               id="path779" />
            <path
               d="m 203.84202,56.310582 h -0.80157 q -0.64968,0 -1.25718,-0.3375 -0.59907,-0.345938 -0.92813,-0.902813 -0.73406,1.240313 -2.16,1.240313 h -1.33312 v -2.168438 h 0.99562 q 1.23188,0 1.70438,-0.548437 0.24468,-0.278438 0.37968,-1.020938 0.10125,-0.548437 0.41344,-0.548437 0.30375,0 0.39656,0.548437 0.12657,0.7425 0.32063,1.020938 0.38812,0.548437 1.40062,0.548437 h 0.86907 z m -1.30782,-6.665625 -1.03781,1.029375 -1.02937,-1.029375 1.02937,-1.029375 z m -2.30343,0 -1.03782,1.029375 -1.02937,-1.029375 1.02937,-1.029375 z"
               id="path781" />
            <path
               d="m 197.9092,56.310582 h -0.80156 q -0.64969,0 -1.25719,-0.3375 -0.59906,-0.345938 -0.92813,-0.902813 -0.73406,1.240313 -2.16,1.240313 h -1.33312 v -2.168438 h 0.99562 q 1.23188,0 1.70438,-0.548437 0.24469,-0.278438 0.37969,-1.020938 0.10125,-0.548437 0.41343,-0.548437 0.30375,0 0.39657,0.548437 0.12656,0.7425 0.32062,1.020938 0.38813,0.548437 1.40063,0.548437 h 0.86906 z m -2.60719,-7.534688 -1.1475,1.1475 -1.1475,-1.1475 1.1475,-1.1475 z"
               id="path783" />
            <path
               d="m 191.96795,56.310582 h -0.90281 q -1.20656,0 -2.04187,-1.5525 -0.70032,0.8775 -1.13907,1.130625 -0.72562,0.421875 -2.12625,0.421875 -2.11781,0 -2.11781,-1.9575 0,-0.295313 0.0675,-0.649688 0.2025,-1.071562 0.68344,-1.071562 0.27,0 0.27844,0.421875 0.0169,0.565312 0.16031,0.77625 0.28687,0.413437 1.24875,0.413437 2.34562,0 2.34562,-0.894375 0,-0.565312 -1.18125,-3.07125 l 0.95344,-1.257187 q 0.10969,-0.151875 0.135,-0.151875 0.0591,0 0.14344,0.227812 l 1.46812,3.915 q 0.43032,1.155938 1.20657,1.155938 h 0.81843 z"
               id="path785" />
            <path
               d="m 182.20452,54.403707 q 0,0.599062 -0.64125,1.9575 -0.16875,0.354375 -0.23625,0.354375 -0.10969,0 -0.17719,-0.784688 l -0.80156,-8.91 1.5525,-1.290938 q 0.15187,-0.126562 0.21937,-0.126562 0.0844,0 0.0844,0.177187 z"
               id="path787" />
            <path
               d="m 178.94639,52.927144 q 0,1.8225 -1.20656,2.6325 -1.35,0.91125 -5.37469,0.91125 -2.18531,0 -3.3075,-0.497812 -1.65375,-0.734063 -1.65375,-2.615625 0,-0.835313 0.43875,-1.636875 0.39656,-0.717188 0.65812,-0.717188 0.32063,0 0.32063,0.354375 0,0.143438 -0.135,0.531563 -0.12656,0.379687 -0.12656,0.590625 0,1.333125 1.47656,1.695937 0.65812,0.160313 2.77594,0.160313 4.93593,0 4.93593,-0.826875 0,-0.151875 -0.43031,-0.70875 -0.36281,-0.4725 -0.57375,-0.683438 l 1.10531,-1.392187 q 0.0928,-0.118125 0.11813,-0.126563 0.0422,-0.0084 0.135,0.10125 0.84375,1.020938 0.84375,2.2275 z m -3.77156,-3.282187 -1.03782,1.029375 -1.02937,-1.029375 1.02937,-1.029375 z m -2.31188,0 -1.02937,1.029375 -1.02938,-1.029375 1.02938,-1.029375 z"
               id="path789" />
            <path
               d="m 162.38952,52.792144 q 0,2.143125 -1.10532,2.885625 -0.945,0.632813 -2.94468,0.632813 h -1.52719 v -2.168438 h 1.74656 q 2.00813,0 2.69156,-0.345937 0.30375,-0.151875 0.30375,-0.523125 0,-0.227813 -0.3375,-0.194063 -1.07156,0.10125 -1.51031,0.10125 -1.67906,0 -1.67906,-1.240312 0,-1.020938 0.51469,-2.025 0.62437,-1.215 1.58625,-1.215 1.31625,0 1.89843,1.72125 0.36282,1.071562 0.36282,2.370937 z m -1.27407,-1.265625 q -0.23625,-0.57375 -0.72562,-0.885937 -0.36281,-0.227813 -0.65813,-0.227813 -0.27,0 -0.48937,0.185625 -0.21094,0.177188 -0.21094,0.43875 0,0.590625 1.1475,0.590625 0.42188,0 0.93656,-0.10125 z m 0.0675,-4.919063 -1.13906,1.139063 -1.1475,-1.139063 1.1475,-1.1475 z"
               id="path791" />
            <path
               d="m 157.35108,56.310582 h -0.37125 q -0.81844,0 -1.26563,-0.219375 0,2.565 -1.5525,4.066875 -0.4725,0.455625 -0.59906,0.455625 -2.25281,0 -3.36656,-0.430313 -0.21938,-0.08438 -0.0169,-0.160312 1.52719,-0.565313 2.96156,-1.645313 1.60313,-1.206562 1.60313,-2.075625 0,-0.413437 -0.58219,-1.122187 -0.43031,-0.523125 -0.95344,-0.970313 l 0.88594,-1.78875 q 0.0759,-0.151875 0.18563,0 1.26562,1.72125 2.33718,1.72125 h 0.73407 z"
               id="path793" />
            <path
               d="m 149.38483,54.403707 q 0,0.599062 -0.64125,1.9575 -0.16875,0.354375 -0.23625,0.354375 -0.10969,0 -0.17719,-0.784688 l -0.80156,-8.91 1.5525,-1.290938 q 0.15187,-0.126562 0.21937,-0.126562 0.0844,0 0.0844,0.177187 z"
               id="path795" />
            <path
               d="m 144.73452,53.011519 q 0,1.24875 -0.48094,2.117813 -0.65813,1.18125 -2.025,1.18125 h -0.81 v -2.168438 h 0.93656 q 1.215,0 1.215,-0.455625 0,-0.396562 -0.945,-1.434375 -0.10969,-0.118125 0,-0.27 l 0.98719,-1.375312 q 0.12656,-0.177188 0.25312,-0.04219 0.37969,0.405 0.63282,1.1475 0.23625,0.691875 0.23625,1.299375 z m 1.51031,5.830313 -1.02938,1.037812 -1.03781,-1.037812 1.03781,-1.029375 z m -2.30344,0 -1.02937,1.037812 -1.03782,-1.037812 1.03782,-1.029375 z"
               id="path797" />
            <path
               d="m 141.96577,56.310582 h -0.80157 q -0.64968,0 -1.25718,-0.3375 -0.59907,-0.345938 -0.92813,-0.902813 -0.73406,1.240313 -2.16,1.240313 h -1.33312 v -2.168438 h 0.99562 q 1.23188,0 1.70438,-0.548437 0.24468,-0.278438 0.37968,-1.020938 0.10125,-0.548437 0.41344,-0.548437 0.30375,0 0.39656,0.548437 0.12657,0.7425 0.32063,1.020938 0.38812,0.548437 1.40062,0.548437 h 0.86907 z m -2.60719,-7.534688 -1.1475,1.1475 -1.1475,-1.1475 1.1475,-1.1475 z"
               id="path799" />
            <path
               d="m 136.02451,56.310582 h -0.90281 q -1.20656,0 -2.04187,-1.5525 -0.70032,0.8775 -1.13907,1.130625 -0.72562,0.421875 -2.12625,0.421875 -2.11781,0 -2.11781,-1.9575 0,-0.295313 0.0675,-0.649688 0.2025,-1.071562 0.68344,-1.071562 0.27,0 0.27844,0.421875 0.0169,0.565312 0.16031,0.77625 0.28687,0.413437 1.24875,0.413437 2.34562,0 2.34562,-0.894375 0,-0.565312 -1.18125,-3.07125 l 0.95344,-1.257187 q 0.10969,-0.151875 0.135,-0.151875 0.0591,0 0.14344,0.227812 l 1.46812,3.915 q 0.43032,1.155938 1.20657,1.155938 h 0.81843 z"
               id="path801" />
            <path
               d="m 126.21889,52.201519 q 0.0422,0.219375 0.0422,0.3375 0,0.143438 -0.0591,0.143438 -0.0591,0 -0.23625,-0.09281 -0.43875,-0.23625 -1.40062,-0.23625 -1.05469,0 -1.83094,0.725625 -0.59906,0.565313 -0.59906,0.919688 0,0.396562 0.64125,0.590625 0.3375,0.10125 1.31625,0.23625 0.8775,0.118125 1.215,0.388125 0.48094,0.379687 0.48094,1.324687 0,2.354063 -2.05875,3.349688 -1.37532,0.666562 -3.56907,0.666562 -4.02468,0 -4.02468,-3.315937 0,-0.666563 0.405,-1.940625 0.4725,-1.493438 0.95343,-1.493438 0.3375,0 0.3375,0.4725 0,0.143438 -0.26156,0.902813 -0.25312,0.750937 -0.25312,1.1475 0,2.134687 3.20625,2.134687 1.38375,0 2.61562,-0.278437 1.67063,-0.379688 1.67063,-1.063125 0,-0.37125 -0.97875,-0.489375 -1.43438,-0.16875 -1.8225,-0.320625 -0.98719,-0.379688 -0.98719,-1.392188 0,-1.130625 0.99562,-2.657812 1.11375,-1.712813 2.37094,-1.712813 0.81844,0 1.37531,0.70875 0.36282,0.464063 0.45563,0.945 z"
               id="path803" />
          </g>
          <g
             transform="translate(230,47)"
             fill="none"
             id="g34">
            <circle
               fill="#383838"
               cx="6"
               cy="6"
               id="ellipse33"
               r="6" />
            <polyline
               stroke="#ffffff"
               stroke-width="1.2px"
               points="4.98233216 5.95818815 5.97879859 5.95818815 5.97879859 9.93031359"
               fill="none"
               id="polyline34" />
            <line
               x1="6"
               y1="3"
               x2="6"
               y2="4"
               stroke="#ffffff"
               stroke-width="1"
               fill="none"
               id="line34" />
          </g>
          <g
             transform="translate(126.66258,86.650307)"
             fill="none"
             id="g35">
            <g
               aria-label="پوشه ها"
               id="text34"
               style="font-weight:bold;font-size:14.4px;font-family:'B Nazanin';-inkscape-font-specification:'B Nazanin, Bold';fill:#357bb8">
              <path
                 d="m 108.2511,-0.7685199 q 0,1.04062497 -0.40078,1.7648437 -0.54844,0.984375 -1.6875,0.984375 h -0.675 V 0.17366757 h 0.78047 q 1.0125,0 1.0125,-0.37968749 0,-0.33046874 -0.7875,-1.19531248 -0.0914,-0.098437 0,-0.225 l 0.82265,-1.1460937 q 0.10547,-0.1476562 0.21094,-0.035156 0.31641,0.3374999 0.52735,0.9562499 0.19687,0.5765625 0.19687,1.0828123 z m 1.22344,4.3734374 -0.86485,0.8578125 -0.85781,-0.8578125 0.85781,-0.8648437 z m -1.91953,0 -0.86485,0.8578125 -0.85781,-0.8578125 0.85781,-0.8648437 z m 0.97734,1.4273437 -0.85781,0.8578125 -0.86485,-0.8578125 0.86485,-0.8648437 z"
                 id="path832" />
              <path
                 d="m 105.87454,1.9806988 h -1.2375 q 0,1.7789062 -1.20938,3.1499999 -0.38672,0.4359375 -0.49218,0.4359375 -1.77188,0 -2.80547,-0.3585938 -0.196879,-0.070312 -0.0141,-0.1335937 1.21641,-0.4359375 2.43985,-1.40625 1.30078,-1.0265624 1.30078,-1.7156249 h -0.47109 l -0.46407,0.00703 q -0.93515,0.014062 -1.37812,-0.2109375 -0.5836,-0.2953125 -0.5836,-1.11093744 0,-0.73828123 0.4711,-1.69453116 0.56953,-1.1601563 1.35,-1.1601563 0.79453,0 1.31484,0.8367188 0.40781,0.6539062 0.54141,1.55390617 h 1.2375 z m -2.27813,-1.78593748 q -0.18984,-0.47812498 -0.59765,-0.73828123 -0.30938,-0.19687499 -0.54844,-0.19687499 -0.21797,0 -0.40078,0.15468749 -0.18281,0.1546875 -0.18281,0.36562499 0,0.49218749 0.7875,0.49218749 0.36562,0 0.94218,-0.0773438 z"
                 id="path834" />
              <path
                 d="m 99.180789,-0.70523865 q 0,0.97734372 -0.39375,1.73671875 -0.492188,0.9492187 -1.420313,0.9492187 -0.871875,0 -1.441406,-0.9632812 -0.541406,0.9632812 -1.378125,0.9632812 -0.9,0 -1.448438,-0.9632812 -0.562499,0.9632812 -1.708593,0.9632812 H 90.41282 V 0.17366757 h 1.153125 q 0.625781,0 0.892969,-0.42187498 0.105469,-0.16171875 0.253125,-0.78046869 0.105468,-0.421875 0.344531,-0.421875 0.260156,0 0.358594,0.421875 0.154687,0.66093744 0.225,0.78749994 0.232031,0.42187498 0.84375,0.42187498 0.604687,0 0.857812,-0.42187498 0.07734,-0.1265625 0.253125,-0.78749994 0.1125,-0.421875 0.379688,-0.421875 0.232031,0 0.323437,0.4289062 0.133594,0.66093749 0.217969,0.80156248 0.246094,0.42890624 0.878906,0.42890624 0.878906,0 0.878906,-0.59062498 0,-0.29531249 -0.597656,-1.04765624 l 0.639844,-0.9914062 q 0.119531,-0.1898438 0.140625,-0.196875 0.04219,0.021094 0.140625,0.1476562 0.175781,0.225 0.351562,0.675 0.232032,0.5835938 0.232032,1.08984375 z m -5.175,-3.36796865 0.864843,-0.8648437 0.857813,0.8648437 -0.857813,0.8578125 z m 1.919531,0 0.864844,-0.8648437 0.857812,0.8648437 -0.857812,0.8578125 z m -0.977344,-1.4273437 0.864844,-0.8578125 0.857812,0.8578125 -0.857812,0.8578125 z"
                 id="path836" />
              <path
                 d="m 90.785475,1.9806988 h -0.878906 q -1.132032,0 -1.645313,-1.70156248 L 87.670631,1.2353863 q -2.735156,0 -2.735156,-0.94218748 0,-0.49921874 0.45,-1.47656242 0.794531,-0.7734375 2.179687,-1.3289063 -0.07031,-0.2320312 -0.225,-0.6749999 l 0.984375,-1.1320313 q 0.126563,0.28125 0.639844,3.0515625 0.175781,0.95624994 0.485156,1.25156243 0.196875,0.18984374 0.660938,0.18984374 h 0.675 z m -2.636719,-2.22187496 q -0.133594,-0.47109374 -0.379687,-1.39921874 -1.490625,0.6117188 -1.715625,1.0125 0.246093,0.38671874 2.095312,0.38671874 z"
                 id="path838" />
              <path
                 d="m 80.583131,-0.50133241 q 0,0.81562498 -0.534375,1.53281251 -0.492187,0.6609374 -0.963281,0.6609374 -0.288281,0 -1.06875,-0.3585937 -0.780468,-0.365625 -0.836718,-0.365625 0.196875,0 0.196875,0.0492188 0,0.1124999 -0.9,0.4570312 -1.321875,0.50625 -1.736719,0.50625 H 74.135475 V 0.17366757 h 0.569532 q 0.604687,0 0.773437,-0.14765624 -0.351562,-0.29531249 -0.351562,-0.82265623 0,-0.5554687 0.407812,-1.0617187 0.365625,-0.4570313 0.914063,-0.703125 -0.288282,-0.2390625 -0.632813,-0.3585937 l 0.682031,-1.434375 q 1.814063,0.9492187 2.678906,1.6382812 1.40625,1.1179687 1.40625,2.21484369 z m -0.801562,0.38671874 q 0,-0.31640624 -0.541406,-0.73828123 -0.09141,-0.0703125 -0.682032,-0.4921875 0.02813,0.1546875 0.02813,0.28125 0,0.55546874 -0.478125,0.99140623 0.653907,0.43593749 1.265625,0.43593749 0.407813,0 0.407813,-0.47812499 z M 77.862038,-1.2607074 q 0,-0.2390625 -0.196875,-0.4992187 -0.189844,-0.2671875 -0.421875,-0.2671875 -0.274219,0 -0.653906,0.2671875 -0.400782,0.2882812 -0.400782,0.5484375 0,0.25312495 0.39375,0.50624995 0.344532,0.22499999 0.548438,0.22499999 0.182812,0 0.428906,-0.19687499 0.302344,-0.24609375 0.302344,-0.58359375 z"
                 id="path840" />
              <path
                 d="m 74.508131,1.9806988 h -0.829687 q -0.696094,0 -1.188282,-0.4640625 -0.653906,-0.61874999 -0.653906,-1.89140621 0,-0.86484369 -0.105469,-2.60859369 -0.119531,-1.9546874 -0.232031,-2.5734374 -0.03516,-0.2039063 0.02813,-0.2671875 l 1.160156,-0.9421875 q 0.210938,-0.16875 0.246094,-0.16875 0,0 0.007,0.00703 0.04219,0.00703 0.04219,0.196875 l -0.01406,5.91328105 q 0,0.99843747 1.117969,0.99843747 h 0.421875 z"
                 id="path842" />
            </g>
          </g>
          <g
             transform="translate(11,113)"
             fill="none"
             id="g40">
            <g
               fill="none"
               id="g36">
              <use
                 fill="#000000"
                 fill-opacity="1"
                 filter="url(#fldr1-sdw)"
                 xlink:href="#fldr1-bg"
                 id="use35" />
              <use
                 stroke="#a2acbf"
                 stroke-width="1"
                 fill="#dee7f7"
                 fill-rule="evenodd"
                 xlink:href="#fldr1-bg"
                 id="use36" />
            </g>
            <rect
               fill="#5a6274"
               opacity="0.4"
               x="33"
               y="14"
               width="38"
               height="2"
               rx="1"
               id="rect36" />
            <g
               transform="translate(88,13)"
               fill="#515151"
               id="g38">
              <circle
                 cx="1.5"
                 cy="1.5"
                 r="1.5"
                 fill="#515151"
                 id="circle36" />
              <circle
                 cx="7.5"
                 cy="1.5"
                 r="1.5"
                 fill="#515151"
                 id="circle37" />
              <circle
                 cx="13.5"
                 cy="1.5"
                 r="1.5"
                 fill="#515151"
                 id="circle38" />
            </g>
            <g
               transform="translate(8,7)"
               fill="none"
               id="g39">
              <path
                 d="M 0,0.94813412 V 12.507567 C 0,13.331815 0.66818516,14 1.4924333,14 H 15.507567 C 16.331815,14 17,13.331815 17,12.507567 V 3.3418224 C 17,2.8181823 16.575506,2.3936882 16.051866,2.3936882 H 7.8241259 c -0.1924375,0 -0.3657821,-0.1163308 -0.438708,-0.2944151 L 6.7066063,0.44162269 C 6.5972174,0.17449625 6.3372005,0 6.0485442,0 H 0.94813412 C 0.4244941,0 0,0.4244941 0,0.94813412 Z"
                 fill="#69758a"
                 id="path38" />
              <rect
                 fill="#dee7f7"
                 x="0"
                 y="5"
                 width="17"
                 height="1"
                 id="rect38" />
            </g>
          </g>
          <g
             transform="translate(132,113)"
             fill="none"
             id="g45">
            <g
               fill="none"
               id="g41">
              <use
                 fill="#000000"
                 fill-opacity="1"
                 filter="url(#fldr2-sdw)"
                 xlink:href="#fldr2-bg"
                 id="use40" />
              <use
                 stroke="#a2acbf"
                 stroke-width="1"
                 fill="#dee7f7"
                 fill-rule="evenodd"
                 xlink:href="#fldr2-bg"
                 id="use41" />
            </g>
            <rect
               fill="#5a6274"
               opacity="0.4"
               x="33"
               y="14"
               width="38"
               height="2"
               rx="1"
               id="rect41" />
            <g
               transform="translate(88,13)"
               fill="#515151"
               id="g43">
              <circle
                 cx="1.5"
                 cy="1.5"
                 r="1.5"
                 fill="#515151"
                 id="circle41" />
              <circle
                 cx="7.5"
                 cy="1.5"
                 r="1.5"
                 fill="#515151"
                 id="circle42" />
              <circle
                 cx="13.5"
                 cy="1.5"
                 r="1.5"
                 fill="#515151"
                 id="circle43" />
            </g>
            <g
               transform="translate(8,7)"
               fill="none"
               id="g44">
              <path
                 d="M 0,0.94813412 V 12.507567 C 0,13.331815 0.66818516,14 1.4924333,14 H 15.507567 C 16.331815,14 17,13.331815 17,12.507567 V 3.3418224 C 17,2.8181823 16.575506,2.3936882 16.051866,2.3936882 H 7.8241259 c -0.1924375,0 -0.3657821,-0.1163308 -0.438708,-0.2944151 L 6.7066063,0.44162269 C 6.5972174,0.17449625 6.3372005,0 6.0485442,0 H 0.94813412 C 0.4244941,0 0,0.4244941 0,0.94813412 Z"
                 fill="#69758a"
                 id="path43" />
              <rect
                 fill="#dee7f7"
                 x="0"
                 y="5"
                 width="17"
                 height="1"
                 id="rect43" />
            </g>
          </g>
          <g
             transform="translate(11,154)"
             fill="none"
             id="g50">
            <g
               fill="none"
               id="g46">
              <use
                 fill="#000000"
                 fill-opacity="1"
                 filter="url(#fldr3-sdw)"
                 xlink:href="#fldr3-bg"
                 id="use45" />
              <use
                 stroke="#a2acbf"
                 stroke-width="1"
                 fill="#dee7f7"
                 fill-rule="evenodd"
                 xlink:href="#fldr3-bg"
                 id="use46" />
            </g>
            <rect
               fill="#5a6274"
               opacity="0.4"
               x="33"
               y="14"
               width="38"
               height="2"
               rx="1"
               id="rect46" />
            <g
               transform="translate(88,13)"
               fill="#515151"
               id="g48">
              <circle
                 cx="1.5"
                 cy="1.5"
                 r="1.5"
                 fill="#515151"
                 id="circle46" />
              <circle
                 cx="7.5"
                 cy="1.5"
                 r="1.5"
                 fill="#515151"
                 id="circle47" />
              <circle
                 cx="13.5"
                 cy="1.5"
                 r="1.5"
                 fill="#515151"
                 id="circle48" />
            </g>
            <g
               transform="translate(8,7)"
               fill="none"
               id="g49">
              <path
                 d="M 0,0.94813412 V 12.507567 C 0,13.331815 0.66818516,14 1.4924333,14 H 15.507567 C 16.331815,14 17,13.331815 17,12.507567 V 3.3418224 C 17,2.8181823 16.575506,2.3936882 16.051866,2.3936882 H 7.8241259 c -0.1924375,0 -0.3657821,-0.1163308 -0.438708,-0.2944151 L 6.7066063,0.44162269 C 6.5972174,0.17449625 6.3372005,0 6.0485442,0 H 0.94813412 C 0.4244941,0 0,0.4244941 0,0.94813412 Z"
                 fill="#69758a"
                 id="path48" />
              <rect
                 fill="#dee7f7"
                 x="0"
                 y="5"
                 width="17"
                 height="1"
                 id="rect48" />
            </g>
          </g>
          <g
             transform="translate(132,154)"
             fill="none"
             id="g55">
            <g
               fill="none"
               id="g51">
              <use
                 fill="#000000"
                 fill-opacity="1"
                 filter="url(#fldr4-sdw)"
                 xlink:href="#fldr4-bg"
                 id="use50" />
              <use
                 stroke="#a2acbf"
                 stroke-width="1"
                 fill="#dee7f7"
                 fill-rule="evenodd"
                 xlink:href="#fldr4-bg"
                 id="use51" />
            </g>
            <rect
               fill="#5a6274"
               opacity="0.4"
               x="33"
               y="14"
               width="38"
               height="2"
               rx="1"
               id="rect51" />
            <g
               transform="translate(88,13)"
               fill="#515151"
               id="g53">
              <circle
                 cx="1.5"
                 cy="1.5"
                 r="1.5"
                 fill="#515151"
                 id="circle51" />
              <circle
                 cx="7.5"
                 cy="1.5"
                 r="1.5"
                 fill="#515151"
                 id="circle52" />
              <circle
                 cx="13.5"
                 cy="1.5"
                 r="1.5"
                 fill="#515151"
                 id="circle53" />
            </g>
            <g
               transform="translate(8,7)"
               fill="none"
               id="g54">
              <path
                 d="M 0,0.94813412 V 12.507567 C 0,13.331815 0.66818516,14 1.4924333,14 H 15.507567 C 16.331815,14 17,13.331815 17,12.507567 V 3.3418224 C 17,2.8181823 16.575506,2.3936882 16.051866,2.3936882 H 7.8241259 c -0.1924375,0 -0.3657821,-0.1163308 -0.438708,-0.2944151 L 6.7066063,0.44162269 C 6.5972174,0.17449625 6.3372005,0 6.0485442,0 H 0.94813412 C 0.4244941,0 0,0.4244941 0,0.94813412 Z"
                 fill="#69758a"
                 id="path53" />
              <rect
                 fill="#dee7f7"
                 x="0"
                 y="5"
                 width="17"
                 height="1"
                 id="rect53" />
            </g>
          </g>
          <g
             aria-label="فایل ها"
             id="text55"
             style="font-weight:bold;font-size:15.84px;font-family:'B Nazanin';-inkscape-font-specification:'B Nazanin, Bold';fill:#333333">
            <path
               d="m 239.47902,208.79157 q 0,1.96453 -1.0132,2.64515 -0.86625,0.58008 -2.6993,0.58008 h -1.39992 v -1.98773 h 1.60102 q 1.84078,0 2.46726,-0.31711 0.27844,-0.13922 0.27844,-0.47953 0,-0.20883 -0.30937,-0.17789 -0.98227,0.0928 -1.38446,0.0928 -1.53914,0 -1.53914,-1.13695 0,-0.93586 0.4718,-1.85625 0.57234,-1.11375 1.45406,-1.11375 1.20656,0 1.74024,1.57781 0.33257,0.98226 0.33257,2.17336 z m -1.16789,-1.16016 q -0.21656,-0.52594 -0.66515,-0.81211 -0.33258,-0.20883 -0.60328,-0.20883 -0.2475,0 -0.4486,0.17016 -0.19336,0.16242 -0.19336,0.40219 0,0.5414 1.05188,0.5414 0.38672,0 0.85851,-0.0928 z m 0.0619,-4.50914 -1.04414,1.04414 -1.05188,-1.04414 1.05188,-1.05187 z"
               id="path806" />
            <path
               d="m 234.77652,212.0168 h -0.91265 q -0.76571,0 -1.30711,-0.51047 -0.7193,-0.68062 -0.7193,-2.08054 0,-0.95133 -0.11601,-2.86946 -0.13149,-2.15015 -0.25524,-2.83078 -0.0387,-0.2243 0.0309,-0.2939 l 1.27617,-1.03641 q 0.23203,-0.18563 0.2707,-0.18563 0,0 0.008,0.008 0.0464,0.008 0.0464,0.21656 l -0.0155,6.50461 q 0,1.09828 1.22976,1.09828 h 0.46406 z"
               id="path808" />
            <path
               d="m 228.78238,208.99266 q 0,1.14469 -0.44086,1.94133 -0.60328,1.08281 -1.85625,1.08281 h -0.7425 v -1.98773 h 0.85852 q 1.11375,0 1.11375,-0.41766 0,-0.36351 -0.86625,-1.31484 -0.10055,-0.10828 0,-0.2475 l 0.90492,-1.26071 q 0.11602,-0.16242 0.23203,-0.0387 0.34805,0.37125 0.58008,1.05188 0.21656,0.63422 0.21656,1.19109 z m 1.38446,5.34445 -0.9436,0.95133 -0.95132,-0.95133 0.95132,-0.94359 z m -2.11149,0 -0.94359,0.95133 -0.95133,-0.95133 0.95133,-0.94359 z"
               id="path810" />
            <path
               d="m 226.14496,212.0168 h -0.51047 q -0.89719,0 -1.29164,-0.56461 0,1.80211 -0.59555,2.76117 -0.98226,1.58555 -3.64289,1.58555 -3.18656,0 -3.18656,-2.85398 0,-0.64196 0.33258,-1.57008 0.34805,-0.97453 0.65742,-0.97453 0.28617,0 0.28617,0.37125 0,0.20883 -0.14695,0.67289 -0.13922,0.45633 -0.13922,0.69609 0,1.6861 2.41313,1.6861 1.59328,0 2.43632,-0.51821 0.57235,-0.35578 0.57235,-0.66515 0,-2.38219 -0.19336,-5.4218 -0.17789,-2.76117 -0.32484,-3.60422 l 1.46953,-1.27617 q 0.0155,-0.008 0.0464,-0.0309 0.0309,-0.0232 0.0541,-0.0232 0.0464,0 0.0464,0.10054 l 0.0696,6.21071 q 0.0155,1.43086 1.2143,1.43086 h 0.43312 z"
               id="path812" />
            <path
               d="m 212.14574,209.28657 q 0,0.89718 -0.58781,1.68609 -0.54141,0.72703 -1.05961,0.72703 -0.31711,0 -1.17562,-0.39445 -0.85852,-0.40219 -0.9204,-0.40219 0.21657,0 0.21657,0.0541 0,0.12375 -0.99,0.50274 -1.45407,0.55687 -1.91039,0.55687 h -0.66516 v -1.98773 h 0.62648 q 0.66516,0 0.85079,-0.16242 -0.38672,-0.32485 -0.38672,-0.90493 0,-0.61101 0.44859,-1.16789 0.40219,-0.50273 1.00547,-0.77343 -0.31711,-0.26297 -0.69609,-0.39446 l 0.75023,-1.57781 q 1.99547,1.04414 2.9468,1.80211 1.54687,1.22976 1.54687,2.43633 z m -0.88172,0.42539 q 0,-0.34805 -0.59554,-0.81211 -0.10055,-0.0773 -0.75024,-0.54141 0.0309,0.17016 0.0309,0.30938 0,0.61101 -0.52594,1.09054 0.7193,0.47954 1.39219,0.47954 0.44859,0 0.44859,-0.52594 z m -2.11148,-1.26071 q 0,-0.26296 -0.21656,-0.54914 -0.20883,-0.2939 -0.46407,-0.2939 -0.30164,0 -0.71929,0.2939 -0.44086,0.31711 -0.44086,0.60329 0,0.27843 0.43312,0.55687 0.37899,0.2475 0.60328,0.2475 0.2011,0 0.4718,-0.21656 0.33258,-0.27071 0.33258,-0.64196 z"
               id="path814" />
            <path
               d="m 205.46324,212.0168 h -0.91265 q -0.76571,0 -1.30711,-0.51047 -0.7193,-0.68062 -0.7193,-2.08054 0,-0.95133 -0.11602,-2.86946 -0.13148,-2.15015 -0.25523,-2.83078 -0.0387,-0.2243 0.0309,-0.2939 l 1.27617,-1.03641 q 0.23203,-0.18563 0.2707,-0.18563 0,0 0.008,0.008 0.0464,0.008 0.0464,0.21656 l -0.0155,6.50461 q 0,1.09828 1.22977,1.09828 h 0.46406 z"
               id="path816" />
          </g>
          <g
             transform="translate(11,229)"
             fill="none"
             id="g60">
            <g
               fill="none"
               id="g56">
              <use
                 fill="#000000"
                 fill-opacity="1"
                 filter="url(#file1-sdw)"
                 xlink:href="#file1-bg1"
                 id="use55" />
              <use
                 stroke="#bdbdbd"
                 stroke-width="1"
                 fill="#feffff"
                 fill-rule="evenodd"
                 xlink:href="#file1-bg1"
                 id="use56" />
            </g>
            <rect
               fill="#666c81"
               opacity="0.4"
               x="8"
               y="96"
               width="46"
               height="4"
               rx="2"
               id="rect56" />
            <g
               transform="translate(87,97)"
               fill="#515151"
               id="g58">
              <circle
                 cx="1.5"
                 cy="1.5"
                 r="1.5"
                 fill="#515151"
                 id="circle56" />
              <circle
                 cx="7.5"
                 cy="1.5"
                 r="1.5"
                 fill="#515151"
                 id="circle57" />
              <circle
                 cx="13.5"
                 cy="1.5"
                 r="1.5"
                 fill="#515151"
                 id="circle58" />
            </g>
            <g
               fill="none"
               id="g59">
              <use
                 fill="#000000"
                 fill-opacity="1"
                 filter="url(#file2-sdw)"
                 xlink:href="#file1-bg2"
                 id="use58" />
              <use
                 fill="#323a48"
                 fill-rule="evenodd"
                 xlink:href="#file1-bg2"
                 id="use59" />
            </g>
            <path
               d="M 45,37.208333 C 45,35.43642 46.504821,34 48.361111,34 H 63.638889 C 65.495179,34 67,35.43642 67,37.208333 V 51.791667 C 67,53.56358 65.495179,55 63.638889,55 H 48.361111 C 46.504821,55 45,53.56358 45,51.791667 Z M 48.5,36 C 47.672,36 47,36.662106 47,37.477916 v 9.880753 l 0.7404,-0.607719 c 1.311148,-1.076545 3.239118,-0.99041 4.446,0.198632 L 55.2812,50 60.062,43.325733 c 0.548293,-0.765753 1.405262,-1.261178 2.351174,-1.359246 0.945912,-0.09807 1.888773,0.210759 2.586826,0.847296 V 37.477916 C 65,36.662106 64.328,36 63.5,36 Z M 48.8924,47.384927 47,48.937781 v 2.586122 C 47,52.338709 47.672,53 48.5,53 h 15 c 0.828,0 1.5,-0.661291 1.5,-1.476097 v -6.719194 c -0.03271,-0.02925 -0.06319,-0.06083 -0.0912,-0.09447 l -0.9984,-1.178516 c -0.298393,-0.352744 -0.746548,-0.548829 -1.212579,-0.530549 -0.46603,0.01828 -0.896904,0.248842 -1.165821,0.623839 l -5.3964,7.524552 c -0.15323,0.213238 -0.394288,0.349053 -0.658733,0.371137 -0.264444,0.02208 -0.525313,-0.07181 -0.712867,-0.256592 l -3.852,-3.788256 c -0.548365,-0.539968 -1.424648,-0.579397 -2.0208,-0.09093 z M 54,41 c 0,1.104569 -0.671573,2 -1.5,2 -0.828427,0 -1.5,-0.895431 -1.5,-2 0,-1.104569 0.671573,-2 1.5,-2 0.828427,0 1.5,0.895431 1.5,2 z m 3,0.5 C 57,43.432997 55.432997,45 53.5,45 51.567003,45 50,43.432997 50,41.5 50,39.567003 51.567003,38 53.5,38 c 1.932997,0 3.5,1.567003 3.5,3.5 z"
               fill="#5f6b7e"
               id="path59" />
          </g>
          <g
             transform="translate(131,229)"
             fill="none"
             id="g65">
            <g
               fill="none"
               id="g61">
              <use
                 fill="#000000"
                 fill-opacity="1"
                 filter="url(#file3-sdw)"
                 xlink:href="#file2-bg1"
                 id="use60" />
              <use
                 stroke="#bdbdbd"
                 stroke-width="1"
                 fill="#feffff"
                 fill-rule="evenodd"
                 xlink:href="#file2-bg1"
                 id="use61" />
            </g>
            <rect
               fill="#666c81"
               opacity="0.4"
               x="8"
               y="96"
               width="46"
               height="4"
               rx="2"
               id="rect61" />
            <g
               transform="translate(87,97)"
               fill="#515151"
               id="g63">
              <circle
                 cx="1.5"
                 cy="1.5"
                 r="1.5"
                 fill="#515151"
                 id="circle61" />
              <circle
                 cx="7.5"
                 cy="1.5"
                 r="1.5"
                 fill="#515151"
                 id="circle62" />
              <circle
                 cx="13.5"
                 cy="1.5"
                 r="1.5"
                 fill="#515151"
                 id="circle63" />
            </g>
            <g
               fill="none"
               id="g64">
              <use
                 fill="#000000"
                 fill-opacity="1"
                 filter="url(#file4-sdw)"
                 xlink:href="#file2-bg2"
                 id="use63" />
              <use
                 fill="#323a48"
                 fill-rule="evenodd"
                 xlink:href="#file2-bg2"
                 id="use64" />
            </g>
            <path
               d="M 45,37.208333 C 45,35.43642 46.504821,34 48.361111,34 H 63.638889 C 65.495179,34 67,35.43642 67,37.208333 V 51.791667 C 67,53.56358 65.495179,55 63.638889,55 H 48.361111 C 46.504821,55 45,53.56358 45,51.791667 Z M 48.5,36 C 47.672,36 47,36.662106 47,37.477916 v 9.880753 l 0.7404,-0.607719 c 1.311148,-1.076545 3.239118,-0.99041 4.446,0.198632 L 55.2812,50 60.062,43.325733 c 0.548293,-0.765753 1.405262,-1.261178 2.351174,-1.359246 0.945912,-0.09807 1.888773,0.210759 2.586826,0.847296 V 37.477916 C 65,36.662106 64.328,36 63.5,36 Z M 48.8924,47.384927 47,48.937781 v 2.586122 C 47,52.338709 47.672,53 48.5,53 h 15 c 0.828,0 1.5,-0.661291 1.5,-1.476097 v -6.719194 c -0.03271,-0.02925 -0.06319,-0.06083 -0.0912,-0.09447 l -0.9984,-1.178516 c -0.298393,-0.352744 -0.746548,-0.548829 -1.212579,-0.530549 -0.46603,0.01828 -0.896904,0.248842 -1.165821,0.623839 l -5.3964,7.524552 c -0.15323,0.213238 -0.394288,0.349053 -0.658733,0.371137 -0.264444,0.02208 -0.525313,-0.07181 -0.712867,-0.256592 l -3.852,-3.788256 c -0.548365,-0.539968 -1.424648,-0.579397 -2.0208,-0.09093 z M 54,41 c 0,1.104569 -0.671573,2 -1.5,2 -0.828427,0 -1.5,-0.895431 -1.5,-2 0,-1.104569 0.671573,-2 1.5,-2 0.828427,0 1.5,0.895431 1.5,2 z m 3,0.5 C 57,43.432997 55.432997,45 53.5,45 51.567003,45 50,43.432997 50,41.5 50,39.567003 51.567003,38 53.5,38 c 1.932997,0 3.5,1.567003 3.5,3.5 z"
               fill="#5f6b7e"
               id="path64" />
          </g>
          <g
             transform="translate(11,351)"
             fill="none"
             id="g68">
            <g
               fill="none"
               id="g66">
              <use
                 stroke="#bdbdbd"
                 stroke-width="1"
                 fill="#feffff"
                 fill-rule="evenodd"
                 xlink:href="#file3-bg1"
                 id="use65" />
            </g>
            <g
               fill="none"
               id="g67">
              <use
                 fill="#323a48"
                 fill-rule="evenodd"
                 xlink:href="#file3-bg2"
                 id="use66" />
            </g>
          </g>
          <g
             transform="translate(131,351)"
             fill="none"
             id="g71">
            <g
               fill="none"
               id="g69">
              <use
                 stroke="#bdbdbd"
                 stroke-width="1"
                 fill="#feffff"
                 fill-rule="evenodd"
                 xlink:href="#file4-bg1"
                 id="use68" />
            </g>
            <g
               fill="none"
               id="g70">
              <use
                 fill="#323a48"
                 fill-rule="evenodd"
                 xlink:href="#file4-bg2"
                 id="use69" />
            </g>
          </g>
        </g>
        <g
           transform="translate(101,20)"
           fill-rule="nonzero"
           fill="none"
           id="g77">
          <rect
             fill="#333333"
             x="0"
             y="0"
             width="79.5"
             height="23"
             rx="11.5"
             id="rect72" />
          <g
             transform="translate(57.5,6.5)"
             fill="none"
             id="g74">
            <rect
               fill="#121212"
               x="0"
               y="0"
               width="11.5"
               height="10.5"
               rx="5"
               id="rect73" />
            <path
               d="m 4.8105276,2.8781078 c -2.1881638,0.5329351 -2.9172928,3.5975272 0,4.7968464 -0.729388,-1.5990205 -0.729388,-3.064592 0,-4.7968464 z"
               fill="#5aaea0"
               opacity="0.8"
               id="path73" />
            <path
               d="m 6.7347386,2.8781078 c 2.1881639,0.5329351 2.9172928,3.5975272 0,4.7968464 0.729388,-1.5990205 0.729388,-3.064592 0,-4.7968464 z"
               fill="#4e65ac"
               id="path74" />
          </g>
          <g
             transform="translate(4,4)"
             fill="none"
             id="g76">
            <rect
               fill="#141414"
               transform="matrix(-1,0,0,1,15,0)"
               x="0"
               y="0"
               width="15.393688"
               height="15.349909"
               rx="7.6749544"
               id="rect74" />
            <rect
               fill="#333333"
               transform="matrix(-1,0,0,1,15,0)"
               x="2.8863165"
               y="2.8781078"
               width="9.6210556"
               height="9.5936928"
               rx="4.7968464"
               id="rect75" />
            <path
               d="m 8.6245888,3.803815 c 3.3212832,0.8602532 4.4280652,5.8067088 0,7.742278 1.1070944,-2.580759 1.1070944,-4.9464552 0,-7.742278 z"
               fill="#448378"
               opacity="0.8"
               id="path75" />
            <path
               d="m 6.7690995,3.803815 c -3.3212832,0.8602532 -4.4280656,5.8067088 0,7.742278 -1.1070944,-2.580759 -1.1070944,-4.9464552 0,-7.742278 z"
               fill="#3d5187"
               id="path76" />
          </g>
        </g>
        <text
           font-family="sans-serif"
           font-size="13px"
           font-weight="bold"
           fill="#333333"
           id="text77"><tspan
             x="44.5"
             y="35.5"
             fill="#333333"
             id="tspan77">9:41</tspan></text>
        <g
           opacity="0.9"
           transform="translate(193,28)"
           fill="#333333"
           fill-rule="nonzero"
           id="g80">
          <rect
             x="0"
             y="5"
             width="2.4911661"
             height="3"
             rx="0"
             fill="#333333"
             id="rect77" />
          <rect
             x="3.5"
             y="3.5"
             width="2.5"
             height="4.5"
             rx="0"
             fill="#333333"
             id="rect78" />
          <rect
             x="7"
             y="2"
             width="2.5"
             height="6"
             rx="0"
             fill="#333333"
             id="rect79" />
          <rect
             x="10.5"
             y="0"
             width="2.5"
             height="8"
             rx="0"
             fill="#333333"
             id="rect80" />
        </g>
        <g
           opacity="0.9"
           transform="translate(213,28)"
           fill="#333333"
           fill-rule="nonzero"
           id="g82">
          <path
             d="M 12.742315,2.6223592 C 11.115583,1.0028699 8.8660601,0 6.3773852,0 3.8827315,0 1.625735,1.0087894 0,2.637158 l 1.4092526,1.3952865 c 1.2650142,-1.2712226 3.025023,-2.0592623 4.9681326,-2.0592623 1.9381272,0 3.6919078,0.7818735 4.9549298,2.0444635 z"
             fill="#333333"
             id="path80" />
          <path
             d="M 10.450442,4.8897922 C 9.4141166,3.8504185 7.9717314,3.2064211 6.3773852,3.2064211 c -1.5993287,0 -3.0476926,0.6499169 -4.0875053,1.6979233 l 1.4095017,1.3955331 c 0.6775972,-0.691107 1.6292226,-1.1202742 2.6780036,-1.1202742 1.0437985,0 1.9879505,0.423001 2.6655477,1.1054754 z"
             fill="#333333"
             id="path81" />
          <path
             d="M 8.1610601,7.1572252 C 7.710159,6.697967 7.0774028,6.4128422 6.3773852,6.4128422 c -0.705,0 -1.3427386,0.291291 -1.7961308,0.7591819 l 1.7811838,1.7652581 z"
             fill="#333333"
             id="path82" />
        </g>
        <g
           transform="translate(233,28)"
           fill="none"
           id="g83">
          <rect
             stroke="#333333"
             stroke-width="0.7px"
             opacity="0.6"
             x="0"
             y="0"
             width="16.5"
             height="7.5"
             rx="1.5"
             fill="none"
             id="rect82" />
          <rect
             fill="#333333"
             fill-rule="nonzero"
             opacity="0.9"
             x="1"
             y="1"
             width="15"
             height="6"
             rx="1"
             id="rect83" />
          <path
             d="m 17.562721,2.8364495 c 0.550548,0 0.996466,0.4417461 0.996466,0.9865911 v 0.2466477 c 0,0.544845 -0.445918,0.9865911 -0.996466,0.9865911 z"
             fill="#333333"
             fill-rule="nonzero"
             opacity="0.6"
             id="path83" />
        </g>
        <g
           transform="translate(0,105)"
           fill="#262729"
           id="g87">
          <path
             d="M 0.99495555,0 H 2.9893993 V 0 19.860627 H 0.99495555 C 0.44545677,19.860627 0,19.41517 0,18.865672 V 0.99495555 C 0,0.44545677 0.44545677,0 0.99495555,0 Z"
             fill="#262729"
             id="path84" />
          <path
             d="M 0.99495555,39.721254 H 2.9893993 v 0 43.69338 H 0.99495555 C 0.44545677,83.414634 0,82.969177 0,82.419679 V 40.71621 c 0,-0.549499 0.44545677,-0.994956 0.99495555,-0.994956 z"
             fill="#262729"
             id="path85" />
          <path
             d="M 0.99495555,94.337979 H 2.9893993 v 0 43.693381 H 0.99495555 C 0.44545677,138.03136 0,137.5859 0,137.0364 V 95.332935 c 0,-0.549499 0.44545677,-0.994956 0.99495555,-0.994956 z"
             fill="#262729"
             id="path86" />
          <path
             d="m 279.0106,54.616725 h 1.99444 c 0.5495,0 0.99496,0.445456 0.99496,0.994955 v 64.54319 c 0,0.5495 -0.44546,0.99496 -0.99496,0.99496 h -1.99444 v 0 z"
             fill="#262729"
             id="path87" />
        </g>
      </g>
      <line
         class="wwf-Line"
         x1="-60"
         y1="413"
         x2="360"
         y2="413"
         stroke="#a2aebf"
         fill="none"
         id="line88" />
    </g>
  </g>
</svg>
