<?xml version="1.0" encoding="UTF-8" standalone="no"?>
<svg
   class="feat-wwf-graphics"
   width="565"
   height="500"
   viewBox="0 0 610 540"
   version="1.1"
   id="svg123"
   sodipodi:docname="svgexport-4(1).svg"
   inkscape:export-filename="..\Desktop\images-dms\mobile-farsi.svg"
   inkscape:export-xdpi="96"
   inkscape:export-ydpi="96"
   inkscape:version="1.4 (86a8ad7, 2024-10-11)"
   xmlns:inkscape="http://www.inkscape.org/namespaces/inkscape"
   xmlns:sodipodi="http://sodipodi.sourceforge.net/DTD/sodipodi-0.dtd"
   xmlns:xlink="http://www.w3.org/1999/xlink"
   xmlns="http://www.w3.org/2000/svg"
   xmlns:svg="http://www.w3.org/2000/svg">
  <sodipodi:namedview
     id="namedview123"
     pagecolor="#ffffff"
     bordercolor="#000000"
     borderopacity="0.25"
     inkscape:showpageshadow="2"
     inkscape:pageopacity="0.0"
     inkscape:pagecheckerboard="0"
     inkscape:deskcolor="#d1d1d1"
     inkscape:zoom="1.63"
     inkscape:cx="282.51534"
     inkscape:cy="271.47239"
     inkscape:window-width="1920"
     inkscape:window-height="1017"
     inkscape:window-x="-8"
     inkscape:window-y="-8"
     inkscape:window-maximized="1"
     inkscape:current-layer="svg123">
    <inkscape:page
       x="0"
       y="0"
       width="610"
       height="540"
       id="page2"
       margin="0"
       bleed="0" />
  </sodipodi:namedview>
  <defs
     id="defs29">
    <rect
       id="fldr1-bg"
       x="0"
       y="0"
       width="110"
       height="29"
       rx="4" />
    <filter
       x="-0.026363636"
       y="-0.1"
       width="1.0527273"
       height="1.3034483"
       filterUnits="objectBoundingBox"
       id="fldr1-sdw">
      <feMorphology
         radius="0.5"
         operator="dilate"
         in="SourceAlpha"
         result="shadowSpreadOuter1"
         id="feMorphology1" />
      <feOffset
         dx="0"
         dy="3"
         in="shadowSpreadOuter1"
         result="shadowOffsetOuter1"
         id="feOffset1" />
      <feGaussianBlur
         stdDeviation="1"
         in="shadowOffsetOuter1"
         result="shadowBlurOuter1"
         id="feGaussianBlur1" />
      <feComposite
         in="shadowBlurOuter1"
         in2="SourceAlpha"
         operator="out"
         result="shadowBlurOuter1"
         id="feComposite1" />
      <feColorMatrix
         values="0 0 0 0 0 0 0 0 0 0 0 0 0 0 0 0 0 0 0.06 0"
         type="matrix"
         in="shadowBlurOuter1"
         id="feColorMatrix1" />
    </filter>
    <rect
       id="fldr2-bg"
       x="0"
       y="0"
       width="110"
       height="29"
       rx="4" />
    <filter
       x="-0.026340707"
       y="-0.099913027"
       width="1.0526814"
       height="1.3032743"
       filterUnits="objectBoundingBox"
       id="fldr2-sdw">
      <feMorphology
         radius="0.497477776"
         operator="dilate"
         in="SourceAlpha"
         result="shadowSpreadOuter1"
         id="feMorphology2" />
      <feOffset
         dx="0"
         dy="3"
         in="shadowSpreadOuter1"
         result="shadowOffsetOuter1"
         id="feOffset2" />
      <feGaussianBlur
         stdDeviation="1"
         in="shadowOffsetOuter1"
         result="shadowBlurOuter1"
         id="feGaussianBlur2" />
      <feComposite
         in="shadowBlurOuter1"
         in2="SourceAlpha"
         operator="out"
         result="shadowBlurOuter1"
         id="feComposite2" />
      <feColorMatrix
         values="0 0 0 0 0 0 0 0 0 0 0 0 0 0 0 0 0 0 0.06 0"
         type="matrix"
         in="shadowBlurOuter1"
         id="feColorMatrix2" />
    </filter>
    <rect
       id="fldr3-bg"
       x="0"
       y="0"
       width="110"
       height="29"
       rx="4" />
    <filter
       x="-0.026340707"
       y="-0.099913027"
       width="1.0526814"
       height="1.3032743"
       filterUnits="objectBoundingBox"
       id="fldr3-sdw">
      <feMorphology
         radius="0.497477776"
         operator="dilate"
         in="SourceAlpha"
         result="shadowSpreadOuter1"
         id="feMorphology3" />
      <feOffset
         dx="0"
         dy="3"
         in="shadowSpreadOuter1"
         result="shadowOffsetOuter1"
         id="feOffset3" />
      <feGaussianBlur
         stdDeviation="1"
         in="shadowOffsetOuter1"
         result="shadowBlurOuter1"
         id="feGaussianBlur3" />
      <feComposite
         in="shadowBlurOuter1"
         in2="SourceAlpha"
         operator="out"
         result="shadowBlurOuter1"
         id="feComposite3" />
      <feColorMatrix
         values="0 0 0 0 0 0 0 0 0 0 0 0 0 0 0 0 0 0 0.06 0"
         type="matrix"
         in="shadowBlurOuter1"
         id="feColorMatrix3" />
    </filter>
    <rect
       id="fldr4-bg"
       x="0"
       y="0"
       width="110"
       height="29"
       rx="4" />
    <filter
       x="-0.026340707"
       y="-0.099913027"
       width="1.0526814"
       height="1.3032743"
       filterUnits="objectBoundingBox"
       id="fldr4-sdw">
      <feMorphology
         radius="0.497477776"
         operator="dilate"
         in="SourceAlpha"
         result="shadowSpreadOuter1"
         id="feMorphology4" />
      <feOffset
         dx="0"
         dy="3"
         in="shadowSpreadOuter1"
         result="shadowOffsetOuter1"
         id="feOffset4" />
      <feGaussianBlur
         stdDeviation="1"
         in="shadowOffsetOuter1"
         result="shadowBlurOuter1"
         id="feGaussianBlur4" />
      <feComposite
         in="shadowBlurOuter1"
         in2="SourceAlpha"
         operator="out"
         result="shadowBlurOuter1"
         id="feComposite4" />
      <feColorMatrix
         values="0 0 0 0 0 0 0 0 0 0 0 0 0 0 0 0 0 0 0.06 0"
         type="matrix"
         in="shadowBlurOuter1"
         id="feColorMatrix4" />
    </filter>
    <rect
       id="file1-bg1"
       x="0"
       y="0"
       width="110"
       height="109"
       rx="6" />
    <filter
       x="-0.026340707"
       y="-0.026582365"
       width="1.0526814"
       height="1.0806877"
       filterUnits="objectBoundingBox"
       id="file1-sdw">
      <feMorphology
         radius="0.497477776"
         operator="dilate"
         in="SourceAlpha"
         result="shadowSpreadOuter1"
         id="feMorphology5" />
      <feOffset
         dx="0"
         dy="3"
         in="shadowSpreadOuter1"
         result="shadowOffsetOuter1"
         id="feOffset5" />
      <feGaussianBlur
         stdDeviation="1"
         in="shadowOffsetOuter1"
         result="shadowBlurOuter1"
         id="feGaussianBlur5" />
      <feComposite
         in="shadowBlurOuter1"
         in2="SourceAlpha"
         operator="out"
         result="shadowBlurOuter1"
         id="feComposite5" />
      <feColorMatrix
         values="0 0 0 0 0 0 0 0 0 0 0 0 0 0 0 0 0 0 0.06 0"
         type="matrix"
         in="shadowBlurOuter1"
         id="feColorMatrix5" />
    </filter>
    <rect
       id="file1-bg2"
       x="1"
       y="1"
       width="108"
       height="86"
       rx="4.9747777" />
    <filter
       x="-0.022222222"
       y="-0.027906977"
       width="1.0444444"
       height="1.0906977"
       filterUnits="objectBoundingBox"
       id="file2-sdw">
      <feOffset
         dx="0"
         dy="3"
         in="SourceAlpha"
         result="shadowOffsetOuter1"
         id="feOffset6" />
      <feGaussianBlur
         stdDeviation="1"
         in="shadowOffsetOuter1"
         result="shadowBlurOuter1"
         id="feGaussianBlur6" />
      <feColorMatrix
         values="0 0 0 0 0 0 0 0 0 0 0 0 0 0 0 0 0 0 0.06 0"
         type="matrix"
         in="shadowBlurOuter1"
         id="feColorMatrix6" />
    </filter>
    <rect
       id="file2-bg1"
       x="0"
       y="0"
       width="110"
       height="109"
       rx="6" />
    <filter
       x="-0.026340707"
       y="-0.026582365"
       width="1.0526814"
       height="1.0806877"
       filterUnits="objectBoundingBox"
       id="file3-sdw">
      <feMorphology
         radius="0.497477776"
         operator="dilate"
         in="SourceAlpha"
         result="shadowSpreadOuter1"
         id="feMorphology6" />
      <feOffset
         dx="0"
         dy="3"
         in="shadowSpreadOuter1"
         result="shadowOffsetOuter1"
         id="feOffset7" />
      <feGaussianBlur
         stdDeviation="1"
         in="shadowOffsetOuter1"
         result="shadowBlurOuter1"
         id="feGaussianBlur7" />
      <feComposite
         in="shadowBlurOuter1"
         in2="SourceAlpha"
         operator="out"
         result="shadowBlurOuter1"
         id="feComposite7" />
      <feColorMatrix
         values="0 0 0 0 0 0 0 0 0 0 0 0 0 0 0 0 0 0 0.06 0"
         type="matrix"
         in="shadowBlurOuter1"
         id="feColorMatrix7" />
    </filter>
    <rect
       id="file2-bg2"
       x="1"
       y="1"
       width="108"
       height="86"
       rx="5" />
    <filter
       x="-0.022222222"
       y="-0.027906977"
       width="1.0444444"
       height="1.0906977"
       filterUnits="objectBoundingBox"
       id="file4-sdw">
      <feOffset
         dx="0"
         dy="3"
         in="SourceAlpha"
         result="shadowOffsetOuter1"
         id="feOffset8" />
      <feGaussianBlur
         stdDeviation="1"
         in="shadowOffsetOuter1"
         result="shadowBlurOuter1"
         id="feGaussianBlur8" />
      <feColorMatrix
         values="0 0 0 0 0 0 0 0 0 0 0 0 0 0 0 0 0 0 0.06 0"
         type="matrix"
         in="shadowBlurOuter1"
         id="feColorMatrix8" />
    </filter>
    <path
       id="file3-bg1"
       d="M 5.9697332,0 H 104.03027 C 107.32726,0 110,2.6727406 110,5.9697332 V 41 41 H 0 V 5.9697332 C 0,2.6727406 2.6727406,0 5.9697332,0 Z" />
    <path
       id="file3-bg2"
       d="M 5.9747777,1 H 104.02522 C 106.77272,1 109,3.2272838 109,5.9747777 V 41 41 H 1 V 5.9747777 C 1,3.2272838 3.2272838,1 5.9747777,1 Z" />
    <path
       id="file4-bg1"
       d="M 5.9697332,0 H 104.03027 C 107.32726,0 110,2.6727406 110,5.9697332 V 41 41 H 0 V 5.9697332 C 0,2.6727406 2.6727406,0 5.9697332,0 Z" />
    <path
       id="file4-bg2"
       d="M 5.9747777,1 H 104.02522 C 106.77272,1 109,3.2272838 109,5.9747777 V 41 41 H 1 V 5.9747777 C 1,3.2272838 3.2272838,1 5.9747777,1 Z" />
  </defs>
  <g
     stroke="none"
     stroke-width="1"
     fill="none"
     fill-rule="evenodd"
     id="g123">
    <g
       class="wwf-device"
       transform="translate(134,77)"
       fill="none"
       id="g89">
      <rect
         fill-opacity="0"
         fill="#2d3342"
         x="0"
         y="0"
         width="302"
         height="393"
         id="rect29" />
      <g
         transform="translate(10,10)"
         fill="none"
         id="g88">
        <path
           d="M 57.834863,0 H 224.16514 c 19.07096,0 25.98655,1.9856832 32.95861,5.7143811 6.97206,3.7286979 12.44377,9.2004109 16.17247,16.1724699 3.7287,6.972058 5.71438,13.88765 5.71438,32.958613 V 403 403 H 2.9893993 V 54.845464 c 0,-19.070963 1.9856832,-25.986555 5.7143811,-32.958613 C 12.432478,14.914792 17.904191,9.443079 24.87625,5.7143811 31.848309,1.9856832 38.763901,0 57.834863,0 Z"
           fill="#333333"
           id="path30" />
        <path
           d="M 57.276845,1.9860627 H 224.72315 c 18.18395,0 24.77788,1.8933259 31.42566,5.4485961 6.64778,3.5552702 11.86499,8.7724842 15.42026,15.4202622 3.55527,6.647777 5.4486,13.241713 5.4486,31.425655 v 348.733364 0 H 4.9823322 V 54.280576 c 0,-18.183942 1.8933258,-24.777878 5.4485958,-31.425655 C 13.986198,16.207143 19.203413,10.989929 25.85119,7.4346588 32.498967,3.8793886 39.092904,1.9860627 57.276845,1.9860627 Z"
           fill="#565553"
           id="path31" />
        <path
           d="M 60.266245,4.9651568 H 221.73375 c 18.18395,0 24.77788,1.8933259 31.42566,5.4485962 6.64778,3.55527 11.86499,8.772484 15.42026,15.420262 3.55527,6.647777 5.4486,13.241714 5.4486,31.425655 v 345.77517 0 H 7.9717314 V 57.25967 c 0,-18.183941 1.8933259,-24.777878 5.4485966,-31.425655 3.55527,-6.647778 8.772484,-11.864992 15.420261,-15.420262 6.647778,-3.5552703 13.241714,-5.4485962 31.425656,-5.4485962 z"
           fill="#333333"
           id="path32" />
        <g
           transform="translate(14,11)"
           fill="none"
           id="g72">
          <path
             d="M 42.090706,0 H 212.00823 c 14.63586,0 19.94317,1.5238964 25.29382,4.3854554 5.35065,2.8615589 9.54988,7.0607806 12.41143,12.4114306 2.86156,5.35065 4.38546,10.657965 4.38546,25.29382 v 350.062604 0 H 0 V 42.090706 C 0,27.454851 1.5238964,22.147536 4.3854554,16.796886 7.2470143,11.446236 11.446236,7.2470143 16.796886,4.3854554 22.147536,1.5238964 27.454851,0 42.090706,0 Z"
             fill="#f7f9fc"
             id="path33" />
          <polyline
             stroke="#333333"
             stroke-width="2.5px"
             stroke-linecap="round"
             stroke-linejoin="round"
             points="17.04947 45.0766551 11.04947 50.3918744 17.04947 56.0766551"
             fill="none"
             id="polyline33" />
          <text
             font-family="sans-serif"
             font-size="14px"
             font-weight="bold"
             letter-spacing="-0.1"
             fill="#333333"
             id="text33"
             style="font-style:normal;font-variant:normal;font-weight:bold;font-stretch:normal;font-size:17.28px;font-family:'2  Nazanin';-inkscape-font-specification:'2  Nazanin, Bold';font-variant-ligatures:normal;font-variant-caps:normal;font-variant-numeric:normal;font-variant-east-asian:normal;letter-spacing:-0.1;fill:#333333"
             x="114.62576"
             y="56.319019"><tspan
               sodipodi:role="line"
               id="tspan123"
               x="114.62576"
               y="56.319019">مستندات فرایندی</tspan></text>
          <g
             transform="translate(230,47)"
             fill="none"
             id="g34">
            <circle
               fill="#383838"
               cx="6"
               cy="6"
               id="ellipse33"
               r="6" />
            <polyline
               stroke="#ffffff"
               stroke-width="1.2px"
               points="4.98233216 5.95818815 5.97879859 5.95818815 5.97879859 9.93031359"
               fill="none"
               id="polyline34" />
            <line
               x1="6"
               y1="3"
               x2="6"
               y2="4"
               stroke="#ffffff"
               stroke-width="1"
               fill="none"
               id="line34" />
          </g>
          <g
             transform="translate(126.66258,86.650307)"
             fill="none"
             id="g35">
            <text
               font-family="sans-serif"
               font-size="11"
               font-weight="bold"
               fill="#357BB8"
               id="text34"
               style="font-style:normal;font-variant:normal;font-weight:bold;font-stretch:normal;font-size:14.4px;font-family:'2  Nazanin';-inkscape-font-specification:'2  Nazanin, Bold';font-variant-ligatures:normal;font-variant-caps:normal;font-variant-numeric:normal;font-variant-east-asian:normal;fill:#357bb8"
               x="56.981594"
               y="0.66257668"><tspan
                 sodipodi:role="line"
                 id="tspan125"
                 x="56.981594"
                 y="0.66257668">پوشه ها</tspan></text>
            <text
               font-family="sans-serif"
               font-size="11px"
               font-weight="400"
               fill="#333333"
               id="text35"
               style="font-style:normal;font-variant:normal;font-weight:bold;font-stretch:normal;font-size:14.4px;font-family:'2  Nazanin';-inkscape-font-specification:'2  Nazanin, Bold';font-variant-ligatures:normal;font-variant-caps:normal;font-variant-numeric:normal;font-variant-east-asian:normal;fill:#333333"
               x="23.190184"
               y="1.3251534"><tspan
                 sodipodi:role="line"
                 id="tspan126"
                 x="23.190184"
                 y="1.3251534">اسناد</tspan></text>
          </g>
          <g
             transform="translate(11,113)"
             fill="none"
             id="g40">
            <g
               fill="none"
               id="g36">
              <use
                 fill="#000000"
                 fill-opacity="1"
                 filter="url(#fldr1-sdw)"
                 xlink:href="#fldr1-bg"
                 id="use35" />
              <use
                 stroke="#a2acbf"
                 stroke-width="1"
                 fill="#dee7f7"
                 fill-rule="evenodd"
                 xlink:href="#fldr1-bg"
                 id="use36" />
            </g>
            <rect
               fill="#5a6274"
               opacity="0.4"
               x="33"
               y="14"
               width="38"
               height="2"
               rx="1"
               id="rect36" />
            <g
               transform="translate(88,13)"
               fill="#515151"
               id="g38">
              <circle
                 cx="1.5"
                 cy="1.5"
                 r="1.5"
                 fill="#515151"
                 id="circle36" />
              <circle
                 cx="7.5"
                 cy="1.5"
                 r="1.5"
                 fill="#515151"
                 id="circle37" />
              <circle
                 cx="13.5"
                 cy="1.5"
                 r="1.5"
                 fill="#515151"
                 id="circle38" />
            </g>
            <g
               transform="translate(8,7)"
               fill="none"
               id="g39">
              <path
                 d="M 0,0.94813412 V 12.507567 C 0,13.331815 0.66818516,14 1.4924333,14 H 15.507567 C 16.331815,14 17,13.331815 17,12.507567 V 3.3418224 C 17,2.8181823 16.575506,2.3936882 16.051866,2.3936882 H 7.8241259 c -0.1924375,0 -0.3657821,-0.1163308 -0.438708,-0.2944151 L 6.7066063,0.44162269 C 6.5972174,0.17449625 6.3372005,0 6.0485442,0 H 0.94813412 C 0.4244941,0 0,0.4244941 0,0.94813412 Z"
                 fill="#69758a"
                 id="path38" />
              <rect
                 fill="#dee7f7"
                 x="0"
                 y="5"
                 width="17"
                 height="1"
                 id="rect38" />
            </g>
          </g>
          <g
             transform="translate(132,113)"
             fill="none"
             id="g45">
            <g
               fill="none"
               id="g41">
              <use
                 fill="#000000"
                 fill-opacity="1"
                 filter="url(#fldr2-sdw)"
                 xlink:href="#fldr2-bg"
                 id="use40" />
              <use
                 stroke="#a2acbf"
                 stroke-width="1"
                 fill="#dee7f7"
                 fill-rule="evenodd"
                 xlink:href="#fldr2-bg"
                 id="use41" />
            </g>
            <rect
               fill="#5a6274"
               opacity="0.4"
               x="33"
               y="14"
               width="38"
               height="2"
               rx="1"
               id="rect41" />
            <g
               transform="translate(88,13)"
               fill="#515151"
               id="g43">
              <circle
                 cx="1.5"
                 cy="1.5"
                 r="1.5"
                 fill="#515151"
                 id="circle41" />
              <circle
                 cx="7.5"
                 cy="1.5"
                 r="1.5"
                 fill="#515151"
                 id="circle42" />
              <circle
                 cx="13.5"
                 cy="1.5"
                 r="1.5"
                 fill="#515151"
                 id="circle43" />
            </g>
            <g
               transform="translate(8,7)"
               fill="none"
               id="g44">
              <path
                 d="M 0,0.94813412 V 12.507567 C 0,13.331815 0.66818516,14 1.4924333,14 H 15.507567 C 16.331815,14 17,13.331815 17,12.507567 V 3.3418224 C 17,2.8181823 16.575506,2.3936882 16.051866,2.3936882 H 7.8241259 c -0.1924375,0 -0.3657821,-0.1163308 -0.438708,-0.2944151 L 6.7066063,0.44162269 C 6.5972174,0.17449625 6.3372005,0 6.0485442,0 H 0.94813412 C 0.4244941,0 0,0.4244941 0,0.94813412 Z"
                 fill="#69758a"
                 id="path43" />
              <rect
                 fill="#dee7f7"
                 x="0"
                 y="5"
                 width="17"
                 height="1"
                 id="rect43" />
            </g>
          </g>
          <g
             transform="translate(11,154)"
             fill="none"
             id="g50">
            <g
               fill="none"
               id="g46">
              <use
                 fill="#000000"
                 fill-opacity="1"
                 filter="url(#fldr3-sdw)"
                 xlink:href="#fldr3-bg"
                 id="use45" />
              <use
                 stroke="#a2acbf"
                 stroke-width="1"
                 fill="#dee7f7"
                 fill-rule="evenodd"
                 xlink:href="#fldr3-bg"
                 id="use46" />
            </g>
            <rect
               fill="#5a6274"
               opacity="0.4"
               x="33"
               y="14"
               width="38"
               height="2"
               rx="1"
               id="rect46" />
            <g
               transform="translate(88,13)"
               fill="#515151"
               id="g48">
              <circle
                 cx="1.5"
                 cy="1.5"
                 r="1.5"
                 fill="#515151"
                 id="circle46" />
              <circle
                 cx="7.5"
                 cy="1.5"
                 r="1.5"
                 fill="#515151"
                 id="circle47" />
              <circle
                 cx="13.5"
                 cy="1.5"
                 r="1.5"
                 fill="#515151"
                 id="circle48" />
            </g>
            <g
               transform="translate(8,7)"
               fill="none"
               id="g49">
              <path
                 d="M 0,0.94813412 V 12.507567 C 0,13.331815 0.66818516,14 1.4924333,14 H 15.507567 C 16.331815,14 17,13.331815 17,12.507567 V 3.3418224 C 17,2.8181823 16.575506,2.3936882 16.051866,2.3936882 H 7.8241259 c -0.1924375,0 -0.3657821,-0.1163308 -0.438708,-0.2944151 L 6.7066063,0.44162269 C 6.5972174,0.17449625 6.3372005,0 6.0485442,0 H 0.94813412 C 0.4244941,0 0,0.4244941 0,0.94813412 Z"
                 fill="#69758a"
                 id="path48" />
              <rect
                 fill="#dee7f7"
                 x="0"
                 y="5"
                 width="17"
                 height="1"
                 id="rect48" />
            </g>
          </g>
          <g
             transform="translate(132,154)"
             fill="none"
             id="g55">
            <g
               fill="none"
               id="g51">
              <use
                 fill="#000000"
                 fill-opacity="1"
                 filter="url(#fldr4-sdw)"
                 xlink:href="#fldr4-bg"
                 id="use50" />
              <use
                 stroke="#a2acbf"
                 stroke-width="1"
                 fill="#dee7f7"
                 fill-rule="evenodd"
                 xlink:href="#fldr4-bg"
                 id="use51" />
            </g>
            <rect
               fill="#5a6274"
               opacity="0.4"
               x="33"
               y="14"
               width="38"
               height="2"
               rx="1"
               id="rect51" />
            <g
               transform="translate(88,13)"
               fill="#515151"
               id="g53">
              <circle
                 cx="1.5"
                 cy="1.5"
                 r="1.5"
                 fill="#515151"
                 id="circle51" />
              <circle
                 cx="7.5"
                 cy="1.5"
                 r="1.5"
                 fill="#515151"
                 id="circle52" />
              <circle
                 cx="13.5"
                 cy="1.5"
                 r="1.5"
                 fill="#515151"
                 id="circle53" />
            </g>
            <g
               transform="translate(8,7)"
               fill="none"
               id="g54">
              <path
                 d="M 0,0.94813412 V 12.507567 C 0,13.331815 0.66818516,14 1.4924333,14 H 15.507567 C 16.331815,14 17,13.331815 17,12.507567 V 3.3418224 C 17,2.8181823 16.575506,2.3936882 16.051866,2.3936882 H 7.8241259 c -0.1924375,0 -0.3657821,-0.1163308 -0.438708,-0.2944151 L 6.7066063,0.44162269 C 6.5972174,0.17449625 6.3372005,0 6.0485442,0 H 0.94813412 C 0.4244941,0 0,0.4244941 0,0.94813412 Z"
                 fill="#69758a"
                 id="path53" />
              <rect
                 fill="#dee7f7"
                 x="0"
                 y="5"
                 width="17"
                 height="1"
                 id="rect53" />
            </g>
          </g>
          <text
             font-family="sans-serif"
             font-size="11"
             font-weight="400"
             fill="#333333"
             id="text55"
             style="font-style:normal;font-variant:normal;font-weight:bold;font-stretch:normal;font-size:15.84px;font-family:'2  Nazanin';-inkscape-font-specification:'2  Nazanin, Bold';font-variant-ligatures:normal;font-variant-caps:normal;font-variant-numeric:normal;font-variant-east-asian:normal;fill:#333333"
             x="200.76074"
             y="212.02454"><tspan
               sodipodi:role="line"
               id="tspan124"
               x="200.76074"
               y="212.02454">فایل ها</tspan></text>
          <g
             transform="translate(11,229)"
             fill="none"
             id="g60">
            <g
               fill="none"
               id="g56">
              <use
                 fill="#000000"
                 fill-opacity="1"
                 filter="url(#file1-sdw)"
                 xlink:href="#file1-bg1"
                 id="use55" />
              <use
                 stroke="#bdbdbd"
                 stroke-width="1"
                 fill="#feffff"
                 fill-rule="evenodd"
                 xlink:href="#file1-bg1"
                 id="use56" />
            </g>
            <rect
               fill="#666c81"
               opacity="0.4"
               x="8"
               y="96"
               width="46"
               height="4"
               rx="2"
               id="rect56" />
            <g
               transform="translate(87,97)"
               fill="#515151"
               id="g58">
              <circle
                 cx="1.5"
                 cy="1.5"
                 r="1.5"
                 fill="#515151"
                 id="circle56" />
              <circle
                 cx="7.5"
                 cy="1.5"
                 r="1.5"
                 fill="#515151"
                 id="circle57" />
              <circle
                 cx="13.5"
                 cy="1.5"
                 r="1.5"
                 fill="#515151"
                 id="circle58" />
            </g>
            <g
               fill="none"
               id="g59">
              <use
                 fill="#000000"
                 fill-opacity="1"
                 filter="url(#file2-sdw)"
                 xlink:href="#file1-bg2"
                 id="use58" />
              <use
                 fill="#323a48"
                 fill-rule="evenodd"
                 xlink:href="#file1-bg2"
                 id="use59" />
            </g>
            <path
               d="M 45,37.208333 C 45,35.43642 46.504821,34 48.361111,34 H 63.638889 C 65.495179,34 67,35.43642 67,37.208333 V 51.791667 C 67,53.56358 65.495179,55 63.638889,55 H 48.361111 C 46.504821,55 45,53.56358 45,51.791667 Z M 48.5,36 C 47.672,36 47,36.662106 47,37.477916 v 9.880753 l 0.7404,-0.607719 c 1.311148,-1.076545 3.239118,-0.99041 4.446,0.198632 L 55.2812,50 60.062,43.325733 c 0.548293,-0.765753 1.405262,-1.261178 2.351174,-1.359246 0.945912,-0.09807 1.888773,0.210759 2.586826,0.847296 V 37.477916 C 65,36.662106 64.328,36 63.5,36 Z M 48.8924,47.384927 47,48.937781 v 2.586122 C 47,52.338709 47.672,53 48.5,53 h 15 c 0.828,0 1.5,-0.661291 1.5,-1.476097 v -6.719194 c -0.03271,-0.02925 -0.06319,-0.06083 -0.0912,-0.09447 l -0.9984,-1.178516 c -0.298393,-0.352744 -0.746548,-0.548829 -1.212579,-0.530549 -0.46603,0.01828 -0.896904,0.248842 -1.165821,0.623839 l -5.3964,7.524552 c -0.15323,0.213238 -0.394288,0.349053 -0.658733,0.371137 -0.264444,0.02208 -0.525313,-0.07181 -0.712867,-0.256592 l -3.852,-3.788256 c -0.548365,-0.539968 -1.424648,-0.579397 -2.0208,-0.09093 z M 54,41 c 0,1.104569 -0.671573,2 -1.5,2 -0.828427,0 -1.5,-0.895431 -1.5,-2 0,-1.104569 0.671573,-2 1.5,-2 0.828427,0 1.5,0.895431 1.5,2 z m 3,0.5 C 57,43.432997 55.432997,45 53.5,45 51.567003,45 50,43.432997 50,41.5 50,39.567003 51.567003,38 53.5,38 c 1.932997,0 3.5,1.567003 3.5,3.5 z"
               fill="#5f6b7e"
               id="path59" />
          </g>
          <g
             transform="translate(131,229)"
             fill="none"
             id="g65">
            <g
               fill="none"
               id="g61">
              <use
                 fill="#000000"
                 fill-opacity="1"
                 filter="url(#file3-sdw)"
                 xlink:href="#file2-bg1"
                 id="use60" />
              <use
                 stroke="#bdbdbd"
                 stroke-width="1"
                 fill="#feffff"
                 fill-rule="evenodd"
                 xlink:href="#file2-bg1"
                 id="use61" />
            </g>
            <rect
               fill="#666c81"
               opacity="0.4"
               x="8"
               y="96"
               width="46"
               height="4"
               rx="2"
               id="rect61" />
            <g
               transform="translate(87,97)"
               fill="#515151"
               id="g63">
              <circle
                 cx="1.5"
                 cy="1.5"
                 r="1.5"
                 fill="#515151"
                 id="circle61" />
              <circle
                 cx="7.5"
                 cy="1.5"
                 r="1.5"
                 fill="#515151"
                 id="circle62" />
              <circle
                 cx="13.5"
                 cy="1.5"
                 r="1.5"
                 fill="#515151"
                 id="circle63" />
            </g>
            <g
               fill="none"
               id="g64">
              <use
                 fill="#000000"
                 fill-opacity="1"
                 filter="url(#file4-sdw)"
                 xlink:href="#file2-bg2"
                 id="use63" />
              <use
                 fill="#323a48"
                 fill-rule="evenodd"
                 xlink:href="#file2-bg2"
                 id="use64" />
            </g>
            <path
               d="M 45,37.208333 C 45,35.43642 46.504821,34 48.361111,34 H 63.638889 C 65.495179,34 67,35.43642 67,37.208333 V 51.791667 C 67,53.56358 65.495179,55 63.638889,55 H 48.361111 C 46.504821,55 45,53.56358 45,51.791667 Z M 48.5,36 C 47.672,36 47,36.662106 47,37.477916 v 9.880753 l 0.7404,-0.607719 c 1.311148,-1.076545 3.239118,-0.99041 4.446,0.198632 L 55.2812,50 60.062,43.325733 c 0.548293,-0.765753 1.405262,-1.261178 2.351174,-1.359246 0.945912,-0.09807 1.888773,0.210759 2.586826,0.847296 V 37.477916 C 65,36.662106 64.328,36 63.5,36 Z M 48.8924,47.384927 47,48.937781 v 2.586122 C 47,52.338709 47.672,53 48.5,53 h 15 c 0.828,0 1.5,-0.661291 1.5,-1.476097 v -6.719194 c -0.03271,-0.02925 -0.06319,-0.06083 -0.0912,-0.09447 l -0.9984,-1.178516 c -0.298393,-0.352744 -0.746548,-0.548829 -1.212579,-0.530549 -0.46603,0.01828 -0.896904,0.248842 -1.165821,0.623839 l -5.3964,7.524552 c -0.15323,0.213238 -0.394288,0.349053 -0.658733,0.371137 -0.264444,0.02208 -0.525313,-0.07181 -0.712867,-0.256592 l -3.852,-3.788256 c -0.548365,-0.539968 -1.424648,-0.579397 -2.0208,-0.09093 z M 54,41 c 0,1.104569 -0.671573,2 -1.5,2 -0.828427,0 -1.5,-0.895431 -1.5,-2 0,-1.104569 0.671573,-2 1.5,-2 0.828427,0 1.5,0.895431 1.5,2 z m 3,0.5 C 57,43.432997 55.432997,45 53.5,45 51.567003,45 50,43.432997 50,41.5 50,39.567003 51.567003,38 53.5,38 c 1.932997,0 3.5,1.567003 3.5,3.5 z"
               fill="#5f6b7e"
               id="path64" />
          </g>
          <g
             transform="translate(11,351)"
             fill="none"
             id="g68">
            <g
               fill="none"
               id="g66">
              <use
                 stroke="#bdbdbd"
                 stroke-width="1"
                 fill="#feffff"
                 fill-rule="evenodd"
                 xlink:href="#file3-bg1"
                 id="use65" />
            </g>
            <g
               fill="none"
               id="g67">
              <use
                 fill="#323a48"
                 fill-rule="evenodd"
                 xlink:href="#file3-bg2"
                 id="use66" />
            </g>
          </g>
          <g
             transform="translate(131,351)"
             fill="none"
             id="g71">
            <g
               fill="none"
               id="g69">
              <use
                 stroke="#bdbdbd"
                 stroke-width="1"
                 fill="#feffff"
                 fill-rule="evenodd"
                 xlink:href="#file4-bg1"
                 id="use68" />
            </g>
            <g
               fill="none"
               id="g70">
              <use
                 fill="#323a48"
                 fill-rule="evenodd"
                 xlink:href="#file4-bg2"
                 id="use69" />
            </g>
          </g>
        </g>
        <g
           transform="translate(101,20)"
           fill-rule="nonzero"
           fill="none"
           id="g77">
          <rect
             fill="#333333"
             x="0"
             y="0"
             width="79.5"
             height="23"
             rx="11.5"
             id="rect72" />
          <g
             transform="translate(57.5,6.5)"
             fill="none"
             id="g74">
            <rect
               fill="#121212"
               x="0"
               y="0"
               width="11.5"
               height="10.5"
               rx="5"
               id="rect73" />
            <path
               d="m 4.8105276,2.8781078 c -2.1881638,0.5329351 -2.9172928,3.5975272 0,4.7968464 -0.729388,-1.5990205 -0.729388,-3.064592 0,-4.7968464 z"
               fill="#5aaea0"
               opacity="0.8"
               id="path73" />
            <path
               d="m 6.7347386,2.8781078 c 2.1881639,0.5329351 2.9172928,3.5975272 0,4.7968464 0.729388,-1.5990205 0.729388,-3.064592 0,-4.7968464 z"
               fill="#4e65ac"
               id="path74" />
          </g>
          <g
             transform="translate(4,4)"
             fill="none"
             id="g76">
            <rect
               fill="#141414"
               transform="matrix(-1,0,0,1,15,0)"
               x="0"
               y="0"
               width="15.393688"
               height="15.349909"
               rx="7.6749544"
               id="rect74" />
            <rect
               fill="#333333"
               transform="matrix(-1,0,0,1,15,0)"
               x="2.8863165"
               y="2.8781078"
               width="9.6210556"
               height="9.5936928"
               rx="4.7968464"
               id="rect75" />
            <path
               d="m 8.6245888,3.803815 c 3.3212832,0.8602532 4.4280652,5.8067088 0,7.742278 1.1070944,-2.580759 1.1070944,-4.9464552 0,-7.742278 z"
               fill="#448378"
               opacity="0.8"
               id="path75" />
            <path
               d="m 6.7690995,3.803815 c -3.3212832,0.8602532 -4.4280656,5.8067088 0,7.742278 -1.1070944,-2.580759 -1.1070944,-4.9464552 0,-7.742278 z"
               fill="#3d5187"
               id="path76" />
          </g>
        </g>
        <text
           font-family="sans-serif"
           font-size="13px"
           font-weight="bold"
           fill="#333333"
           id="text77"><tspan
             x="44.5"
             y="35.5"
             fill="#333333"
             id="tspan77">9:41</tspan></text>
        <g
           opacity="0.9"
           transform="translate(193,28)"
           fill="#333333"
           fill-rule="nonzero"
           id="g80">
          <rect
             x="0"
             y="5"
             width="2.4911661"
             height="3"
             rx="0"
             fill="#333333"
             id="rect77" />
          <rect
             x="3.5"
             y="3.5"
             width="2.5"
             height="4.5"
             rx="0"
             fill="#333333"
             id="rect78" />
          <rect
             x="7"
             y="2"
             width="2.5"
             height="6"
             rx="0"
             fill="#333333"
             id="rect79" />
          <rect
             x="10.5"
             y="0"
             width="2.5"
             height="8"
             rx="0"
             fill="#333333"
             id="rect80" />
        </g>
        <g
           opacity="0.9"
           transform="translate(213,28)"
           fill="#333333"
           fill-rule="nonzero"
           id="g82">
          <path
             d="M 12.742315,2.6223592 C 11.115583,1.0028699 8.8660601,0 6.3773852,0 3.8827315,0 1.625735,1.0087894 0,2.637158 l 1.4092526,1.3952865 c 1.2650142,-1.2712226 3.025023,-2.0592623 4.9681326,-2.0592623 1.9381272,0 3.6919078,0.7818735 4.9549298,2.0444635 z"
             fill="#333333"
             id="path80" />
          <path
             d="M 10.450442,4.8897922 C 9.4141166,3.8504185 7.9717314,3.2064211 6.3773852,3.2064211 c -1.5993287,0 -3.0476926,0.6499169 -4.0875053,1.6979233 l 1.4095017,1.3955331 c 0.6775972,-0.691107 1.6292226,-1.1202742 2.6780036,-1.1202742 1.0437985,0 1.9879505,0.423001 2.6655477,1.1054754 z"
             fill="#333333"
             id="path81" />
          <path
             d="M 8.1610601,7.1572252 C 7.710159,6.697967 7.0774028,6.4128422 6.3773852,6.4128422 c -0.705,0 -1.3427386,0.291291 -1.7961308,0.7591819 l 1.7811838,1.7652581 z"
             fill="#333333"
             id="path82" />
        </g>
        <g
           transform="translate(233,28)"
           fill="none"
           id="g83">
          <rect
             stroke="#333333"
             stroke-width="0.7px"
             opacity="0.6"
             x="0"
             y="0"
             width="16.5"
             height="7.5"
             rx="1.5"
             fill="none"
             id="rect82" />
          <rect
             fill="#333333"
             fill-rule="nonzero"
             opacity="0.9"
             x="1"
             y="1"
             width="15"
             height="6"
             rx="1"
             id="rect83" />
          <path
             d="m 17.562721,2.8364495 c 0.550548,0 0.996466,0.4417461 0.996466,0.9865911 v 0.2466477 c 0,0.544845 -0.445918,0.9865911 -0.996466,0.9865911 z"
             fill="#333333"
             fill-rule="nonzero"
             opacity="0.6"
             id="path83" />
        </g>
        <g
           transform="translate(0,105)"
           fill="#262729"
           id="g87">
          <path
             d="M 0.99495555,0 H 2.9893993 V 0 19.860627 H 0.99495555 C 0.44545677,19.860627 0,19.41517 0,18.865672 V 0.99495555 C 0,0.44545677 0.44545677,0 0.99495555,0 Z"
             fill="#262729"
             id="path84" />
          <path
             d="M 0.99495555,39.721254 H 2.9893993 v 0 43.69338 H 0.99495555 C 0.44545677,83.414634 0,82.969177 0,82.419679 V 40.71621 c 0,-0.549499 0.44545677,-0.994956 0.99495555,-0.994956 z"
             fill="#262729"
             id="path85" />
          <path
             d="M 0.99495555,94.337979 H 2.9893993 v 0 43.693381 H 0.99495555 C 0.44545677,138.03136 0,137.5859 0,137.0364 V 95.332935 c 0,-0.549499 0.44545677,-0.994956 0.99495555,-0.994956 z"
             fill="#262729"
             id="path86" />
          <path
             d="m 279.0106,54.616725 h 1.99444 c 0.5495,0 0.99496,0.445456 0.99496,0.994955 v 64.54319 c 0,0.5495 -0.44546,0.99496 -0.99496,0.99496 h -1.99444 v 0 z"
             fill="#262729"
             id="path87" />
        </g>
      </g>
      <line
         class="wwf-Line"
         x1="-60"
         y1="413"
         x2="360"
         y2="413"
         stroke="#a2aebf"
         fill="none"
         id="line88" />
    </g>
  </g>
</svg>
