<?xml version="1.0" encoding="UTF-8" standalone="no"?>
<svg
   class="feat-wwf-graphics"
   width="565"
   height="500"
   viewBox="0 0 609.99999 540"
   version="1.1"
   id="svg123"
   sodipodi:docname="svgexport-4(1).svg"
   inkscape:export-filename="..\projects\dms-proj\public\images\mobile-search\search3.svg"
   inkscape:export-xdpi="96"
   inkscape:export-ydpi="96"
   xmlns:inkscape="http://www.inkscape.org/namespaces/inkscape"
   xmlns:sodipodi="http://sodipodi.sourceforge.net/DTD/sodipodi-0.dtd"
   xmlns="http://www.w3.org/2000/svg"
   xmlns:svg="http://www.w3.org/2000/svg">
  <sodipodi:namedview
     id="namedview123"
     pagecolor="#ffffff"
     bordercolor="#000000"
     borderopacity="0.25"
     inkscape:showpageshadow="2"
     inkscape:pageopacity="0.0"
     inkscape:pagecheckerboard="0"
     inkscape:deskcolor="#d1d1d1">
    <inkscape:page
       x="0"
       y="0"
       width="610"
       height="540"
       id="page2"
       margin="0"
       bleed="0" />
  </sodipodi:namedview>
  <defs
     id="defs29">
    <filter
       x="-0.16688742"
       y="-0.64615385"
       width="1.3337748"
       height="2.2923077"
       filterUnits="objectBoundingBox"
       id="collaborate-shw">
      <feGaussianBlur
         stdDeviation="10.5"
         in="SourceGraphic"
         id="feGaussianBlur10" />
    </filter>
  </defs>
  <g
     stroke="none"
     stroke-width="1"
     fill="none"
     fill-rule="evenodd"
     id="g123"
     transform="translate(0.15,-202.75)">
    <g
       class="wwf-collaborate-btn"
       transform="translate(0,203)"
       fill="none"
       id="g111">
      <path
         d="m 9,22 h 135 c 4.41828,0 8,3.581722 8,8 v 23 c 0,4.418278 -3.58172,8 -8,8 H 9 C 4.581722,61 1,57.418278 1,53 V 30 c 0,-4.418278 3.581722,-8 8,-8 z"
         fill="#333333"
         opacity="0.05"
         filter="url(#collaborate-shw)"
         id="path104" />
      <path
         d="m 10,0 h 134 c 5.52285,0 10,4.4771525 10,10 v 26 c 0,5.522847 -4.47715,10 -10,10 H 106.78832 92.175183 71.941606 10 C 4.4771525,46 0,41.522847 0,36 V 10 C 0,4.4771525 4.4771525,0 10,0 Z"
         stroke="#fea028"
         stroke-width="0.5px"
         fill="#fff3ce"
         id="path105" />
      <text
         font-family="sans-serif"
         font-size="15"
         font-weight="bold"
         fill="#313131"
         id="text105"
         style="font-style:normal;font-variant:normal;font-weight:bold;font-stretch:normal;font-size:18.72px;font-family:'2  Nazanin';-inkscape-font-specification:'2  Nazanin, Bold';font-variant-ligatures:normal;font-variant-caps:normal;font-variant-numeric:normal;font-variant-east-asian:normal;fill:#313131"
         x="11.263803"
         y="25.84049"><tspan
           sodipodi:role="line"
           id="tspan123"
           x="11.263803"
           y="25.84049">جستجو در اسناد</tspan></text>
      <path
         stroke-linecap="round"
         stroke-linejoin="round"
         d="m 143.54416,31.556402 -4.56042,-4.369194 m 0,0 a 6.5815701,6.3055968 0 1 0 -9.30774,-8.917461 6.5815701,6.3055968 0 0 0 9.30774,8.917461 z"
         stroke="#0f172a"
         fill="none"
         stroke-width="1.28837px"
         id="path1" />
    </g>
  </g>
</svg>
