<?xml version="1.0" encoding="UTF-8" standalone="no"?>
<svg
   class="feat-wwf-graphics"
   width="143.05556"
   height="106.54762"
   viewBox="0 0 154.44936 115.07142"
   version="1.1"
   id="svg123"
   sodipodi:docname="search-details2.svg"
   inkscape:version="1.2.2 (732a01da63, 2022-12-09)"
   xmlns:inkscape="http://www.inkscape.org/namespaces/inkscape"
   xmlns:sodipodi="http://sodipodi.sourceforge.net/DTD/sodipodi-0.dtd"
   xmlns="http://www.w3.org/2000/svg"
   xmlns:svg="http://www.w3.org/2000/svg">
  <sodipodi:namedview
     id="namedview386"
     pagecolor="#ffffff"
     bordercolor="#000000"
     borderopacity="0.25"
     inkscape:showpageshadow="2"
     inkscape:pageopacity="0.0"
     inkscape:pagecheckerboard="0"
     inkscape:deskcolor="#d1d1d1"
     showgrid="false"
     inkscape:zoom="1.05"
     inkscape:cx="73.333333"
     inkscape:cy="105.71429"
     inkscape:window-width="1366"
     inkscape:window-height="705"
     inkscape:window-x="-8"
     inkscape:window-y="-8"
     inkscape:window-maximized="1"
     inkscape:current-layer="svg123" />
  <defs
     id="defs29" />
  <g
     stroke="none"
     stroke-width="1"
     fill="none"
     fill-rule="evenodd"
     id="g123"
     transform="translate(-235.72731,-218.99541)">
    <g
       class="wwf-collaborate-options"
       transform="translate(235.87731,219.24541)"
       fill="none"
       id="g115">
      <rect
         stroke="#ffb24f"
         fill="#ffffff"
         stroke-width="0.551789px"
         x="0.025894493"
         y="0.025894493"
         width="153.94821"
         height="114.51964"
         rx="13.995292"
         id="rect111" />
      <g
         aria-label="جستجو در عنوان"
         id="text111"
         style="font-weight:bold;font-size:17.28px;font-family:'B Nazanin';-inkscape-font-specification:'B Nazanin, Bold';fill:#333333">
        <path
           d="m 118.12551,23.216894 -1.08844,1.560937 q -1.11375,0 -2.35406,0.615938 -0.64125,0.329062 -2.32032,1.1475 -1.31625,0.615937 -3.13875,0.615937 h -0.68343 v -2.168437 h 0.91125 q 1.80562,0 2.91093,-0.261563 0.91125,-0.219375 2.05032,-0.793125 -0.37125,-0.143437 -1.34157,-0.514687 -1.06312,-0.405 -1.51875,-0.405 -0.45562,0 -0.98718,0.430312 -0.53157,0.421875 -0.57375,0.421875 -0.3375,0 -0.3375,-0.379687 0,-0.253125 0.24468,-0.691875 0.92813,-1.645313 2.07563,-1.645313 0.57375,0 2.64937,0.936562 2.07563,0.928126 3.11344,0.928126 0.43875,0 0.43875,0.08438 -0.008,0.05906 -0.0506,0.118125 z m -2.31188,6.193125 -1.13906,1.1475 -1.1475,-1.1475 1.1475,-1.1475 z"
           id="path2014" />
        <path
           d="m 108.96238,27.157206 h -0.96188 q -1.07156,0 -1.74656,-1.155937 -0.65813,1.155937 -1.74656,1.155937 -0.99563,0 -1.67907,-1.155937 -0.64968,1.155937 -1.65375,1.155937 -1.08,0 -1.738122,-1.155937 -0.675,1.155937 -2.050313,1.155937 h -1.172812 v -2.168437 h 1.38375 q 0.750937,0 1.071562,-0.50625 0.126563,-0.194063 0.30375,-0.936563 0.126563,-0.50625 0.413438,-0.50625 0.312187,0 0.430312,0.50625 0.185625,0.793125 0.270005,0.945 0.27843,0.50625 1.0125,0.50625 0.72562,0 1.02937,-0.50625 0.0928,-0.151875 0.30375,-0.945 0.135,-0.50625 0.45563,-0.50625 0.27843,0 0.38812,0.50625 0.16031,0.77625 0.26156,0.945 0.29532,0.50625 1.05469,0.50625 0.64969,0 0.93656,-0.50625 0.0591,-0.109687 0.30375,-0.945 0.14344,-0.50625 0.4725,-0.50625 0.27844,0 0.37969,0.50625 0.14344,0.725625 0.27844,0.936563 0.32062,0.50625 1.12219,0.50625 h 0.8775 z"
           id="path2016" />
        <path
           d="m 96.660499,27.157206 h -0.801563 q -0.649687,0 -1.257187,-0.3375 -0.599063,-0.345937 -0.928125,-0.902812 -0.734063,1.240312 -2.16,1.240312 h -1.333125 v -2.168437 h 0.995625 q 1.231875,0 1.704375,-0.548438 0.244687,-0.278437 0.379687,-1.020937 0.10125,-0.548438 0.413438,-0.548438 0.30375,0 0.396562,0.548438 0.126563,0.7425 0.320625,1.020937 0.388125,0.548438 1.400625,0.548438 h 0.869063 z m -1.307813,-6.665625 -1.037812,1.029375 -1.029375,-1.029375 1.029375,-1.029375 z m -2.303437,0 -1.037813,1.029375 -1.029375,-1.029375 1.029375,-1.029375 z"
           id="path2018" />
        <path
           d="m 90.610814,27.157206 h -1.670625 q -2.7675,0 -2.7675,-2.59875 -2.809688,2.59875 -5.720626,2.59875 h -0.683437 v -2.168437 h 0.91125 q 1.535625,0 2.640938,-0.396563 0.750937,-0.27 2.379375,-1.215 -1.965938,-0.683437 -2.910938,-0.683437 -0.455625,0 -0.987188,0.50625 -0.531562,0.497812 -0.57375,0.497812 -0.320625,0 -0.320625,-0.295312 0,-0.320625 0.143438,-0.6075 0.97875,-1.974376 2.26125,-1.974376 0.666563,0 2.514375,0.599063 1.85625,0.590625 2.885625,0.590625 0.666563,0 0.666563,0.05906 -0.0084,0.02531 -0.05906,0.135 l -0.717187,1.544063 q -0.936563,0 -1.5525,0.253125 0,0.649688 0.750937,0.869063 0.405,0.118125 1.299375,0.118125 h 1.510313 z m -4.505625,2.252813 -1.1475,1.1475 -1.139063,-1.1475 1.139063,-1.1475 z"
           id="path2020" />
        <path
           d="m 80.232688,27.157206 h -1.485 q 0,2.134688 -1.45125,3.78 -0.464063,0.523125 -0.590625,0.523125 -2.12625,0 -3.366563,-0.430312 -0.23625,-0.08437 -0.01688,-0.160313 1.459688,-0.523125 2.927813,-1.6875 1.560937,-1.231875 1.560937,-2.05875 h -0.565312 l -0.556875,0.0084 q -1.122188,0.01688 -1.65375,-0.253125 -0.700313,-0.354375 -0.700313,-1.333125 0,-0.885938 0.565313,-2.033438 0.683437,-1.392188 1.62,-1.392188 0.953437,0 1.577812,1.004063 0.489375,0.784688 0.649688,1.864688 h 1.485 z m -2.73375,-2.143125 q -0.227813,-0.57375 -0.717188,-0.885937 -0.37125,-0.23625 -0.658125,-0.23625 -0.261562,0 -0.480937,0.185625 -0.219375,0.185625 -0.219375,0.43875 0,0.590625 0.945,0.590625 0.43875,0 1.130625,-0.09281 z"
           id="path2022" />
        <path
           d="m 68.479248,24.094394 q 0,3.062812 -3.830625,3.062812 -2.19375,0 -2.19375,-2.050312 0,-0.194063 0.02531,-0.405 0.135,-1.122188 0.6075,-1.122188 0.27,0 0.30375,0.388125 0.04219,0.531563 0.219375,0.734063 0.3375,0.388125 1.366875,0.388125 0.649688,0 1.400626,-0.126563 1.105312,-0.185625 1.105312,-0.556875 0,-0.666562 -1.18125,-1.65375 -1.071563,-0.894375 -1.755,-1.08 l 0.50625,-1.89 q 0.05062,-0.194063 0.109687,-0.194063 0.05063,0 0.185625,0.08437 1.231876,0.784688 2.092501,1.873125 1.037812,1.316251 1.037812,2.548126 z"
           id="path2024" />
        <path
           d="m 60.94456,26.575019 q 0,2.413125 -1.603125,4.075312 -0.497812,0.514688 -0.6075,0.514688 -2.269687,0 -3.366562,-0.430313 -0.23625,-0.09281 -0.01687,-0.16875 1.560937,-0.556875 2.93625,-1.62 1.577812,-1.215 1.577812,-2.185312 0,-0.405 -0.57375,-1.130625 -0.480937,-0.6075 -0.936562,-0.953438 l 0.818437,-1.729687 q 0.07594,-0.160313 0.2025,-0.03375 1.569375,1.569375 1.569375,3.661875 z"
           id="path2026" />
        <path
           d="m 50.692997,24.651269 -0.953438,1.755 q -2.100938,0.135 -4.007813,0.464062 -1.662187,0.286875 -1.982812,0.286875 h -0.852188 v -2.168437 h 2.084063 q -0.23625,-0.185625 -0.43875,-0.615938 -0.194063,-0.43875 -0.194063,-0.750937 0,-0.936563 1.071563,-2.067188 1.139062,-1.198125 2.295,-1.198125 0.666563,0 1.307813,0.497812 0.57375,0.43875 0.902812,1.088438 0.151875,0.295312 0.151875,0.421875 0,0.10125 -0.109687,0.10125 -0.09281,0 -0.3375,-0.08437 -0.91125,-0.312188 -1.923751,-0.312188 -0.624375,0 -1.223437,0.194063 -0.826875,0.27 -0.826875,0.767813 0,0.37125 0.523125,0.894375 0.675,0.683437 1.662187,0.683437 1.746563,0 2.666251,-0.118125 0.185625,-0.02531 0.227812,0.0084 0.02531,0.02531 -0.04219,0.151875 z"
           id="path2028" />
        <path
           d="m 43.343934,27.157206 h -0.801562 q -0.649688,0 -1.257188,-0.3375 -0.599062,-0.345937 -0.928125,-0.902812 -0.734062,1.240312 -2.16,1.240312 h -1.333125 v -2.168437 h 0.995625 q 1.231875,0 1.704375,-0.548438 0.244688,-0.278437 0.379688,-1.020937 0.10125,-0.548438 0.413437,-0.548438 0.30375,0 0.396563,0.548438 0.126562,0.7425 0.320625,1.020937 0.388125,0.548438 1.400625,0.548438 h 0.869062 z m -2.607187,-7.534688 -1.1475,1.1475 -1.1475,-1.1475 1.1475,-1.1475 z"
           id="path2030" />
        <path
           d="m 37.327996,27.157206 h -1.485 q 0,2.134688 -1.45125,3.78 -0.464062,0.523125 -0.590625,0.523125 -2.12625,0 -3.366563,-0.430312 -0.23625,-0.08437 -0.01687,-0.160313 1.459688,-0.523125 2.927813,-1.6875 1.560938,-1.231875 1.560938,-2.05875 h -0.565313 l -0.556875,0.0084 q -1.122187,0.01688 -1.65375,-0.253125 -0.700313,-0.354375 -0.700313,-1.333125 0,-0.885938 0.565313,-2.033438 0.683438,-1.392188 1.62,-1.392188 0.953438,0 1.577813,1.004063 0.489375,0.784688 0.649687,1.864688 h 1.485 z m -2.73375,-2.143125 q -0.227812,-0.57375 -0.717187,-0.885937 -0.37125,-0.23625 -0.658125,-0.23625 -0.261563,0 -0.480938,0.185625 -0.219375,0.185625 -0.219375,0.43875 0,0.590625 0.945,0.590625 0.43875,0 1.130625,-0.09281 z"
           id="path2032" />
        <path
           d="m 29.303934,25.250331 q 0,0.599063 -0.64125,1.9575 -0.16875,0.354375 -0.23625,0.354375 -0.109688,0 -0.177188,-0.784687 l -0.801562,-8.910001 1.5525,-1.290937 q 0.151875,-0.126563 0.219375,-0.126563 0.08438,0 0.08438,0.177188 z"
           id="path2034" />
        <path
           d="m 25.945808,27.477831 q 0,2.43 -1.493438,3.417188 -1.223437,0.81 -3.805312,0.81 -1.949063,0 -2.902501,-1.071563 -0.767812,-0.860625 -0.767812,-2.176875 0,-0.666562 0.405,-1.940625 0.4725,-1.493437 0.953437,-1.493437 0.3375,0 0.3375,0.4725 0,0.143437 -0.261562,0.902812 -0.253125,0.750938 -0.253125,1.1475 0,1.198125 0.953437,1.679063 0.691875,0.345937 2.050313,0.345937 1.265625,0 2.286563,-0.27 1.569375,-0.413437 1.569375,-1.333125 0,-0.480937 -0.649688,-1.493437 -0.590625,-0.919688 -1.037812,-1.31625 l 0.885937,-1.814063 q 0.08438,-0.177187 0.210938,0 1.51875,2.176875 1.51875,4.134375 z m -3.467813,-5.273438 -1.1475,1.147501 -1.1475,-1.147501 1.1475,-1.139062 z"
           id="path2036" />
      </g>
      <g
         aria-label="جستجو در کد"
         id="text114"
         style="font-weight:bold;font-size:17.28px;font-family:'B Nazanin';-inkscape-font-specification:'B Nazanin, Bold';fill:#333333">
        <path
           d="m 117.93271,56.989364 -1.08844,1.560938 q -1.11375,0 -2.35406,0.615937 -0.64125,0.329063 -2.32031,1.1475 -1.31625,0.615938 -3.13875,0.615938 h -0.68344 v -2.168438 h 0.91125 q 1.80562,0 2.91094,-0.261562 0.91125,-0.219375 2.05031,-0.793125 -0.37125,-0.143438 -1.34156,-0.514688 -1.06313,-0.405 -1.51875,-0.405 -0.45563,0 -0.98719,0.430313 -0.53156,0.421875 -0.57375,0.421875 -0.3375,0 -0.3375,-0.379688 0,-0.253125 0.24469,-0.691875 0.92812,-1.645313 2.07562,-1.645313 0.57375,0 2.64938,0.936563 2.07562,0.928125 3.11343,0.928125 0.43875,0 0.43875,0.08438 -0.008,0.05906 -0.0506,0.118125 z m -2.31188,6.193125 -1.13906,1.1475 -1.1475,-1.1475 1.1475,-1.1475 z"
           id="path1995" />
        <path
           d="m 108.76958,60.929677 h -0.96188 q -1.07156,0 -1.74656,-1.155938 -0.65813,1.155938 -1.74656,1.155938 -0.99563,0 -1.67907,-1.155938 -0.64969,1.155938 -1.65375,1.155938 -1.079998,0 -1.738123,-1.155938 -0.675,1.155938 -2.050312,1.155938 h -1.172813 v -2.168438 h 1.38375 q 0.750938,0 1.071563,-0.50625 0.126562,-0.194062 0.30375,-0.936562 0.126562,-0.50625 0.413437,-0.50625 0.312188,0 0.430313,0.50625 0.185625,0.793125 0.27,0.945 0.278435,0.50625 1.012495,0.50625 0.72563,0 1.02938,-0.50625 0.0928,-0.151875 0.30375,-0.945 0.135,-0.50625 0.45562,-0.50625 0.27844,0 0.38813,0.50625 0.16031,0.77625 0.26156,0.945 0.29532,0.50625 1.05469,0.50625 0.64969,0 0.93656,-0.50625 0.0591,-0.109688 0.30375,-0.945 0.14344,-0.50625 0.4725,-0.50625 0.27844,0 0.37969,0.50625 0.14344,0.725625 0.27844,0.936562 0.32062,0.50625 1.12219,0.50625 h 0.8775 z"
           id="path1997" />
        <path
           d="M 96.467702,60.929677 H 95.66614 q -0.649688,0 -1.257188,-0.3375 -0.599062,-0.345938 -0.928125,-0.902813 -0.734062,1.240313 -2.16,1.240313 h -1.333125 v -2.168438 h 0.995625 q 1.231875,0 1.704375,-0.548437 0.244688,-0.278438 0.379688,-1.020938 0.10125,-0.548438 0.413437,-0.548438 0.30375,0 0.396563,0.548438 0.126562,0.7425 0.320625,1.020938 0.388125,0.548437 1.400625,0.548437 h 0.869062 z m -1.307812,-6.665626 -1.037813,1.029375 -1.029375,-1.029375 1.029375,-1.029375 z m -2.303438,0 -1.037812,1.029375 -1.029375,-1.029375 1.029375,-1.029375 z"
           id="path1999" />
        <path
           d="m 90.418013,60.929677 h -1.670625 q -2.7675,0 -2.7675,-2.59875 -2.809688,2.59875 -5.720625,2.59875 h -0.683438 v -2.168438 h 0.91125 q 1.535625,0 2.640938,-0.396562 0.750938,-0.27 2.379375,-1.215 -1.965938,-0.683438 -2.910938,-0.683438 -0.455625,0 -0.987187,0.50625 -0.531563,0.497813 -0.57375,0.497813 -0.320625,0 -0.320625,-0.295313 0,-0.320625 0.143437,-0.6075 0.97875,-1.974375 2.26125,-1.974375 0.666563,0 2.514376,0.599062 1.85625,0.590625 2.885625,0.590625 0.666562,0 0.666562,0.05906 -0.0084,0.02531 -0.05906,0.135 l -0.717188,1.544063 q -0.936562,0 -1.5525,0.253125 0,0.649687 0.750938,0.869062 0.405,0.118125 1.299375,0.118125 h 1.510312 z m -4.505625,2.252812 -1.1475,1.1475 -1.139062,-1.1475 1.139062,-1.1475 z"
           id="path2001" />
        <path
           d="m 80.039887,60.929677 h -1.485 q 0,2.134687 -1.45125,3.78 -0.464062,0.523125 -0.590625,0.523125 -2.12625,0 -3.366562,-0.430313 -0.23625,-0.08437 -0.01687,-0.160312 1.459687,-0.523125 2.927812,-1.6875 1.560938,-1.231875 1.560938,-2.05875 h -0.565313 l -0.556875,0.0084 q -1.122187,0.01687 -1.65375,-0.253125 -0.700312,-0.354375 -0.700312,-1.333125 0,-0.885937 0.565312,-2.033437 0.683438,-1.392188 1.62,-1.392188 0.953438,0 1.577813,1.004063 0.489375,0.784687 0.649687,1.864687 h 1.485 z m -2.73375,-2.143125 q -0.227812,-0.57375 -0.717187,-0.885938 -0.37125,-0.23625 -0.658125,-0.23625 -0.261563,0 -0.480938,0.185625 -0.219375,0.185625 -0.219375,0.43875 0,0.590625 0.945,0.590625 0.43875,0 1.130625,-0.09281 z"
           id="path2003" />
        <path
           d="m 68.286451,57.866864 q 0,3.062813 -3.830625,3.062813 -2.19375,0 -2.19375,-2.050313 0,-0.194062 0.02531,-0.405 0.135,-1.122187 0.6075,-1.122187 0.27,0 0.30375,0.388125 0.04219,0.531562 0.219375,0.734062 0.3375,0.388125 1.366875,0.388125 0.649687,0 1.400625,-0.126562 1.105312,-0.185625 1.105312,-0.556875 0,-0.666563 -1.18125,-1.653751 -1.071562,-0.894375 -1.755,-1.08 l 0.50625,-1.89 q 0.05062,-0.194062 0.109688,-0.194062 0.05063,0 0.185625,0.08438 1.231875,0.784687 2.0925,1.873125 1.037812,1.31625 1.037812,2.548125 z"
           id="path2005" />
        <path
           d="m 60.751764,60.347489 q 0,2.413125 -1.603125,4.075313 -0.497813,0.514687 -0.6075,0.514687 -2.269688,0 -3.366563,-0.430312 -0.23625,-0.09281 -0.01687,-0.16875 1.560938,-0.556875 2.93625,-1.62 1.577813,-1.215 1.577813,-2.185313 0,-0.405 -0.57375,-1.130625 -0.480938,-0.6075 -0.936563,-0.953437 l 0.818438,-1.729688 q 0.07594,-0.160313 0.2025,-0.03375 1.569375,1.569375 1.569375,3.661875 z"
           id="path2007" />
        <path
           d="m 50.981139,50.458739 -0.354375,1.915312 q -1.35,0.43875 -4.471875,1.544063 1.04625,1.04625 1.510312,1.755 0.649688,0.995625 0.649688,1.99125 0,3.265313 -3.560625,3.265313 h -0.961875 v -2.168438 h 0.649687 q 1.78875,0 2.404688,-0.160312 0.489375,-0.126563 0.489375,-0.4725 0,-0.548438 -1.037813,-1.687501 -0.953437,-1.04625 -1.763437,-1.5525 l 0.413437,-2.176875 q 1.915313,-0.767812 6.032813,-2.252812 z"
           id="path2009" />
        <path
           d="m 44.231138,60.929677 h -0.902813 q -1.206562,0 -2.041875,-1.5525 -0.700313,0.8775 -1.139063,1.130625 -0.725625,0.421875 -2.12625,0.421875 -2.117812,0 -2.117812,-1.9575 0,-0.295313 0.0675,-0.649688 0.2025,-1.071562 0.683437,-1.071562 0.27,0 0.278438,0.421875 0.01688,0.565312 0.160312,0.77625 0.286875,0.413437 1.24875,0.413437 2.345625,0 2.345625,-0.894375 0,-0.565312 -1.18125,-3.07125 l 0.953438,-1.257188 q 0.109687,-0.151875 0.135,-0.151875 0.05906,0 0.143437,0.227813 l 1.468126,3.915 q 0.430312,1.155938 1.206562,1.155938 h 0.818438 z"
           id="path2011" />
      </g>
      <g
         aria-label="اعمال فیلتر"
         id="text114-0"
         style="font-weight:bold;font-size:17.28px;font-family:'B Nazanin';-inkscape-font-specification:'B Nazanin, Bold';fill:#333333">
        <path
           d="m 117.79189,91.158357 q 0,0.599062 -0.64125,1.9575 -0.16875,0.354375 -0.23625,0.354375 -0.10969,0 -0.17719,-0.784688 l -0.80156,-8.91 1.5525,-1.290937 q 0.15188,-0.126563 0.21938,-0.126563 0.0844,0 0.0844,0.177188 z"
           id="path1974" />
        <path
           d="m 114.38314,90.559294 -0.95344,1.755 q -2.10093,0.135 -4.00781,0.464063 -1.66219,0.286875 -1.98281,0.286875 h -0.85219 v -2.168438 h 2.08406 q -0.23625,-0.185625 -0.43875,-0.615937 -0.19406,-0.43875 -0.19406,-0.750938 0,-0.936562 1.07156,-2.067187 1.13907,-1.198125 2.295,-1.198125 0.66657,0 1.30782,0.497812 0.57375,0.43875 0.90281,1.088438 0.15187,0.295312 0.15187,0.421875 0,0.10125 -0.10968,0.10125 -0.0928,0 -0.3375,-0.08437 -0.91125,-0.312188 -1.92375,-0.312188 -0.62438,0 -1.22344,0.194063 -0.82688,0.27 -0.82688,0.767812 0,0.37125 0.52313,0.894375 0.675,0.683438 1.66219,0.683438 1.74656,0 2.66625,-0.118125 0.18562,-0.02531 0.22781,0.0084 0.0253,0.02531 -0.0422,0.151875 z"
           id="path1976" />
        <path
           d="m 107.02564,93.065232 h -0.79313 q -0.46406,0 -0.8775,-0.3375 -0.38812,-0.312188 -0.56531,-0.77625 -0.48938,1.299375 -1.70438,1.299375 -1.08,0 -1.85625,-1.223438 -0.54,1.037813 -1.586246,1.037813 h -0.725625 v -2.168438 h 0.725625 q 0.725626,0 0.911246,-0.126562 0.15188,-0.10125 0.11813,-0.464063 -0.0675,-0.84375 0.50625,-1.603125 0.62437,-0.826875 1.56937,-0.826875 1.26563,0 1.89844,1.409063 l 0.53156,1.189687 q 0.27844,0.430313 0.85219,0.430313 h 0.99563 z m -2.97,-2.252813 q 0,-0.50625 -0.35438,-1.1475 -0.405,-0.725625 -0.86062,-0.725625 -0.57375,0 -0.57375,0.767813 0,0.582187 0.30375,1.215 0.37125,0.767812 0.8775,0.767812 0.6075,0 0.6075,-0.8775 z"
           id="path1978" />
        <path
           d="m 99.36439,93.065232 h -0.995625 q -0.835312,0 -1.425937,-0.556875 -0.784688,-0.7425 -0.784688,-2.269688 0,-1.037812 -0.126562,-3.130312 -0.143438,-2.345625 -0.278438,-3.088125 -0.04219,-0.244688 0.03375,-0.320625 l 1.392188,-1.130625 q 0.253125,-0.2025 0.295312,-0.2025 0,0 0.0084,0.0084 0.05062,0.0084 0.05062,0.23625 l -0.01687,7.095938 q 0,1.198125 1.341562,1.198125 h 0.50625 z"
           id="path1980" />
        <path
           d="m 94.124704,84.737419 q 0.03375,0.08437 0.05063,0.143438 -0.01687,0.03375 -0.10125,0.03375 -0.143437,0 -0.497812,-0.0675 0.126562,2.016562 0.08437,7.889062 -0.02531,4.455001 -4.691251,4.455001 -3.47625,0 -3.47625,-3.113438 0,-0.700313 0.362813,-1.712813 0.379687,-1.063125 0.717187,-1.063125 0.312188,0 0.312188,0.405 0,0.227813 -0.160313,0.734063 -0.151875,0.497812 -0.151875,0.759375 0,1.839375 2.6325,1.839375 1.755,0 2.683125,-0.565313 0.641251,-0.388125 0.641251,-0.734062 0,-2.067188 -0.278438,-4.969688 -0.286875,-3.020625 -0.691875,-4.919062 l 1.5525,-1.392188 q 0.135,-0.118125 0.185625,0.04219 0.295313,0.869062 0.826875,2.235937 z"
           id="path1982" />
        <path
           d="m 80.295639,89.546794 q 0,2.143125 -1.105313,2.885625 -0.945,0.632813 -2.944687,0.632813 h -1.527188 v -2.168438 h 1.746563 q 2.008125,0 2.691562,-0.345937 0.30375,-0.151875 0.30375,-0.523125 0,-0.227813 -0.3375,-0.194063 -1.071562,0.10125 -1.510312,0.10125 -1.679063,0 -1.679063,-1.240312 0,-1.020938 0.514688,-2.025 0.624375,-1.215 1.58625,-1.215 1.31625,0 1.898437,1.72125 0.362813,1.071562 0.362813,2.370937 z m -1.274063,-1.265625 q -0.23625,-0.57375 -0.725625,-0.885937 -0.362812,-0.227813 -0.658125,-0.227813 -0.27,0 -0.489375,0.185625 -0.210937,0.177188 -0.210937,0.43875 0,0.590625 1.1475,0.590625 0.421875,0 0.936562,-0.10125 z m 0.0675,-4.919062 -1.139062,1.139062 -1.1475,-1.139062 1.1475,-1.1475 z"
           id="path1984" />
        <path
           d="m 75.165639,93.065232 h -0.801562 q -0.649688,0 -1.257188,-0.3375 -0.599062,-0.345938 -0.928125,-0.902813 -0.734062,1.240313 -2.16,1.240313 h -1.333125 v -2.168438 h 0.995625 q 1.231875,0 1.704375,-0.548437 0.244688,-0.278438 0.379688,-1.020938 0.10125,-0.548437 0.413437,-0.548437 0.30375,0 0.396563,0.548437 0.126562,0.7425 0.320625,1.020938 0.388125,0.548437 1.400625,0.548437 h 0.869062 z m -1.2825,2.53125 -1.029375,1.037813 -1.037812,-1.037813 1.037812,-1.029375 z m -2.303437,0 -1.029375,1.037813 -1.037813,-1.037813 1.037813,-1.029375 z"
           id="path1986" />
        <path
           d="m 69.132827,93.065232 h -1.350001 q -0.523125,0 -1.004062,-0.286875 -0.514688,-0.30375 -0.691875,-0.77625 -0.244688,0.43875 -0.700313,0.7425 -0.480937,0.320625 -0.961875,0.320625 h -0.936562 v -2.168438 h 0.919687 q 1.223438,0 1.223438,-1.155937 0,-4.311563 -0.37125,-5.796563 l 1.65375,-1.535625 q 0.135,-0.126562 0.135,0.03375 v 7.264688 q 0,1.189687 1.189687,1.189687 h 0.894376 z"
           id="path1988" />
        <path
           d="m 63.935326,93.065232 h -0.801562 q -0.649688,0 -1.257188,-0.3375 -0.599062,-0.345938 -0.928125,-0.902813 -0.734062,1.240313 -2.16,1.240313 h -1.333125 v -2.168438 h 0.995625 q 1.231875,0 1.704375,-0.548437 0.244688,-0.278438 0.379688,-1.020938 0.10125,-0.548437 0.413437,-0.548437 0.30375,0 0.396563,0.548437 0.126562,0.7425 0.320625,1.020938 0.388125,0.548437 1.400625,0.548437 h 0.869062 z m -1.307812,-6.665625 -1.037813,1.029375 -1.029375,-1.029375 1.029375,-1.029375 z m -2.303438,0 -1.037812,1.029375 -1.029375,-1.029375 1.029375,-1.029375 z"
           id="path1990" />
        <path
           d="m 57.894076,93.065232 h -0.37125 q -0.818438,0 -1.265625,-0.219375 0,2.565 -1.5525,4.066875 -0.4725,0.455625 -0.599063,0.455625 -2.252812,0 -3.366563,-0.430312 -0.219375,-0.08438 -0.01687,-0.160313 1.527188,-0.565312 2.961563,-1.645312 1.603125,-1.206563 1.603125,-2.075626 0,-0.413437 -0.582187,-1.122187 -0.430313,-0.523125 -0.953438,-0.970313 l 0.885938,-1.78875 q 0.07594,-0.151875 0.185625,0 1.265625,1.72125 2.337187,1.72125 h 0.734063 z"
           id="path1992" />
      </g>
    </g>
    <path
       stroke-linecap="round"
       stroke-linejoin="round"
       d="m 377.13164,250.55351 -3.66264,-3.85403 m 0,0 a 5.2858891,5.5621207 0 1 0 -7.47537,-7.86603 5.2858891,5.5621207 0 0 0 7.47537,7.86603 z"
       stroke="#0f172a"
       fill="none"
       stroke-width="1.08441px"
       id="path1" />
    <path
       stroke-linecap="round"
       stroke-linejoin="round"
       d="m 376.34218,284.02552 -3.66264,-3.85403 m 0,0 a 5.2858891,5.5621207 0 1 0 -7.47537,-7.86603 5.2858891,5.5621207 0 0 0 7.47537,7.86603 z"
       stroke="#0f172a"
       fill="none"
       stroke-width="1.08441px"
       id="path1-8" />
    <path
       stroke-linecap="round"
       stroke-linejoin="round"
       d="m 377.39063,314.98552 -3.66264,-3.85403 m 0,0 a 5.2858891,5.5621207 0 1 0 -7.47537,-7.86603 5.2858891,5.5621207 0 0 0 7.47537,7.86603 z"
       stroke="#0f172a"
       fill="none"
       stroke-width="1.08441px"
       id="path1-82" />
  </g>
</svg>
