<?xml version="1.0" encoding="UTF-8" standalone="no"?>
<svg
   class="feat-wwf-graphics"
   width="140.23148"
   height="81.851852"
   viewBox="0 0 151.40035 88.400001"
   version="1.1"
   id="svg123"
   sodipodi:docname="sharing.svg"
   inkscape:export-filename="sharing.svg"
   inkscape:export-xdpi="96"
   inkscape:export-ydpi="96"
   inkscape:version="1.2.2 (732a01da63, 2022-12-09)"
   xmlns:inkscape="http://www.inkscape.org/namespaces/inkscape"
   xmlns:sodipodi="http://sodipodi.sourceforge.net/DTD/sodipodi-0.dtd"
   xmlns="http://www.w3.org/2000/svg"
   xmlns:svg="http://www.w3.org/2000/svg">
  <sodipodi:namedview
     id="namedview123"
     pagecolor="#ffffff"
     bordercolor="#000000"
     borderopacity="0.25"
     inkscape:showpageshadow="2"
     inkscape:pageopacity="0.0"
     inkscape:pagecheckerboard="0"
     inkscape:deskcolor="#d1d1d1"
     showgrid="false"
     inkscape:zoom="6.4140271"
     inkscape:cx="70.158731"
     inkscape:cy="41.003881"
     inkscape:window-width="1366"
     inkscape:window-height="705"
     inkscape:window-x="-8"
     inkscape:window-y="-8"
     inkscape:window-maximized="1"
     inkscape:current-layer="svg123">
    <inkscape:page
       x="0"
       y="0"
       width="151.40034"
       height="88.400002"
       id="page2"
       margin="0"
       bleed="0" />
  </sodipodi:namedview>
  <defs
     id="defs29">
    <filter
       x="-0.24950495"
       y="-0.66315789"
       width="1.4990099"
       height="2.3263158"
       filterUnits="objectBoundingBox"
       id="share-shw">
      <feGaussianBlur
         stdDeviation="10.5"
         in="SourceGraphic"
         id="feGaussianBlur11" />
    </filter>
  </defs>
  <g
     stroke="none"
     stroke-width="1"
     fill="none"
     fill-rule="evenodd"
     id="g123"
     transform="translate(-414.85,-271.8)">
    <g
       class="wwf-share-btn"
       transform="translate(415,274)"
       fill="none"
       id="g119">
      <path
         d="m 33,23 h 85 c 4.41828,0 8,3.581722 8,8 v 22 c 0,4.418278 -3.58172,8 -8,8 H 33 c -4.418278,0 -8,-3.581722 -8,-8 V 31 c 0,-4.418278 3.581722,-8 8,-8 z"
         fill="#333333"
         opacity="0.05"
         filter="url(#share-shw)"
         id="path115" />
      <path
         d="m 10,0 h 91 c 5.52285,0 10,4.4771525 10,10 v 26 c 0,5.522847 -4.47715,10 -10,10 H 76.970803 66.437956 51.854015 10 C 4.4771525,46 0,41.522847 0,36 V 10 C 0,4.4771525 4.4771525,0 10,0 Z"
         stroke="#f56c28"
         stroke-width="0.5px"
         fill="#ffe5d4"
         id="path116" />
      <text
         font-family="sans-serif"
         font-size="15"
         font-weight="bold"
         fill="#313131"
         id="text116"
         style="font-style:normal;font-variant:normal;font-weight:bold;font-stretch:normal;font-size:17.28px;font-family:'B Nazanin';-inkscape-font-specification:'B Nazanin, Bold';font-variant-ligatures:normal;font-variant-caps:normal;font-variant-numeric:normal;font-variant-east-asian:normal;fill:#313131"
         x="13.251534"
         y="27.82822"><tspan
           sodipodi:role="line"
           id="tspan123"
           x="13.251534"
           y="27.82822">انتشار سند</tspan></text>
      <g
         transform="translate(86.944785,11.674847)"
         stroke="#313131"
         stroke-width="1.7px"
         fill="none"
         id="g118">
        <path
           d="m 10,5.9887695 h 1 c 1.10457,0 2,0.8954305 2,2 V 15.98877 c 0,1.104569 -0.89543,1.999999 -2,1.999999 H 2 c -1.1045695,0 -2,-0.89543 -2,-1.999999 V 7.9887695 c 0,-1.1045695 0.8954305,-2 2,-2 h 1 v 0"
           stroke="#313131"
           fill="none"
           stroke-width="1.7px"
           id="path117" />
        <line
           x1="6.5"
           y1="11.5"
           x2="6.5"
           y2="1.5"
           stroke-linecap="round"
           stroke="#313131"
           fill="none"
           stroke-width="1.7px"
           id="line117" />
        <path
           d="M 3.5,2.6933594 C 5.5,0.89778646 6.5,0 6.5,0 c 0,0 1,0.89778646 3,2.6933594"
           stroke-linecap="round"
           stroke-linejoin="round"
           stroke="#313131"
           fill="none"
           stroke-width="1.7px"
           id="path118" />
      </g>
    </g>
  </g>
</svg>
