<?xml version="1.0" encoding="UTF-8" standalone="no"?>
<svg
   class="feat-wwf-graphics"
   width="140.23148"
   height="81.851852"
   viewBox="0 0 151.40035 88.400001"
   version="1.1"
   id="svg123"
   sodipodi:docname="sharing2.svg"
   inkscape:export-filename="sharing.svg"
   inkscape:export-xdpi="96"
   inkscape:export-ydpi="96"
   inkscape:version="1.2.2 (732a01da63, 2022-12-09)"
   xmlns:inkscape="http://www.inkscape.org/namespaces/inkscape"
   xmlns:sodipodi="http://sodipodi.sourceforge.net/DTD/sodipodi-0.dtd"
   xmlns="http://www.w3.org/2000/svg"
   xmlns:svg="http://www.w3.org/2000/svg">
  <sodipodi:namedview
     id="namedview123"
     pagecolor="#ffffff"
     bordercolor="#000000"
     borderopacity="0.25"
     inkscape:showpageshadow="2"
     inkscape:pageopacity="0.0"
     inkscape:pagecheckerboard="0"
     inkscape:deskcolor="#d1d1d1"
     showgrid="false"
     inkscape:zoom="6.4140271"
     inkscape:cx="70.158731"
     inkscape:cy="41.003881"
     inkscape:window-width="1366"
     inkscape:window-height="705"
     inkscape:window-x="-8"
     inkscape:window-y="-8"
     inkscape:window-maximized="1"
     inkscape:current-layer="svg123">
    <inkscape:page
       x="0"
       y="0"
       width="151.40034"
       height="88.400002"
       id="page2"
       margin="0"
       bleed="0" />
  </sodipodi:namedview>
  <defs
     id="defs29">
    <filter
       x="-0.24950495"
       y="-0.66315789"
       width="1.4990099"
       height="2.3263158"
       filterUnits="objectBoundingBox"
       id="share-shw">
      <feGaussianBlur
         stdDeviation="10.5"
         in="SourceGraphic"
         id="feGaussianBlur11" />
    </filter>
  </defs>
  <g
     stroke="none"
     stroke-width="1"
     fill="none"
     fill-rule="evenodd"
     id="g123"
     transform="translate(-414.85,-271.8)">
    <g
       class="wwf-share-btn"
       transform="translate(415,274)"
       fill="none"
       id="g119">
      <path
         d="m 33,23 h 85 c 4.41828,0 8,3.581722 8,8 v 22 c 0,4.418278 -3.58172,8 -8,8 H 33 c -4.418278,0 -8,-3.581722 -8,-8 V 31 c 0,-4.418278 3.581722,-8 8,-8 z"
         fill="#333333"
         opacity="0.05"
         filter="url(#share-shw)"
         id="path115" />
      <path
         d="m 10,0 h 91 c 5.52285,0 10,4.4771525 10,10 v 26 c 0,5.522847 -4.47715,10 -10,10 H 76.970803 66.437956 51.854015 10 C 4.4771525,46 0,41.522847 0,36 V 10 C 0,4.4771525 4.4771525,0 10,0 Z"
         stroke="#f56c28"
         stroke-width="0.5px"
         fill="#ffe5d4"
         id="path116" />
      <g
         aria-label="انتشار سند"
         id="text116"
         style="font-weight:bold;font-size:17.28px;font-family:'B Nazanin';-inkscape-font-specification:'B Nazanin, Bold';fill:#313131">
        <path
           d="m 79.139972,25.912908 q 0,0.599062 -0.64125,1.9575 -0.16875,0.354375 -0.23625,0.354375 -0.109687,0 -0.177187,-0.784688 l -0.801563,-8.91 1.5525,-1.290938 q 0.151875,-0.126562 0.219375,-0.126562 0.08437,0 0.08437,0.177187 z"
           id="path803" />
        <path
           d="m 75.773413,24.52072 q 0,1.24875 -0.480938,2.117813 -0.658125,1.18125 -2.025,1.18125 h -0.81 v -2.168438 h 0.936563 q 1.215,0 1.215,-0.455625 0,-0.396562 -0.945,-1.434375 -0.109688,-0.118125 0,-0.27 l 0.987187,-1.375312 q 0.126563,-0.177188 0.253125,-0.04219 0.379688,0.405 0.632813,1.1475 0.23625,0.691875 0.23625,1.299375 z m -0.05906,-4.995 -1.139062,1.1475 -1.1475,-1.1475 1.1475,-1.1475 z"
           id="path805" />
        <path
           d="m 72.904662,27.819783 h -0.801563 q -0.649688,0 -1.257188,-0.3375 -0.599062,-0.345938 -0.928125,-0.902813 -0.734062,1.240313 -2.16,1.240313 h -1.333125 v -2.168438 h 0.995625 q 1.231875,0 1.704375,-0.548437 0.244688,-0.278438 0.379688,-1.020938 0.10125,-0.548437 0.413437,-0.548437 0.30375,0 0.396563,0.548437 0.126562,0.7425 0.320625,1.020938 0.388125,0.548437 1.400625,0.548437 h 0.869063 z m -1.307813,-6.665625 -1.037813,1.029375 -1.029375,-1.029375 1.029375,-1.029375 z m -2.303438,0 -1.037812,1.029375 -1.029375,-1.029375 1.029375,-1.029375 z"
           id="path807" />
        <path
           d="m 66.871848,27.819783 h -0.961875 q -1.071562,0 -1.746562,-1.155938 -0.658125,1.155938 -1.746563,1.155938 -0.995625,0 -1.679063,-1.155938 -0.649687,1.155938 -1.65375,1.155938 -1.08,0 -1.738125,-1.155938 -0.675,1.155938 -2.050312,1.155938 h -1.172813 v -2.168438 h 1.38375 q 0.750938,0 1.071563,-0.50625 0.126562,-0.194062 0.30375,-0.936562 0.126562,-0.50625 0.413437,-0.50625 0.312188,0 0.430313,0.50625 0.185625,0.793125 0.27,0.945 0.278437,0.50625 1.0125,0.50625 0.725625,0 1.029375,-0.50625 0.09281,-0.151875 0.30375,-0.945 0.135,-0.50625 0.455625,-0.50625 0.278437,0 0.388125,0.50625 0.160313,0.77625 0.261563,0.945 0.295312,0.50625 1.054687,0.50625 0.649688,0 0.936563,-0.50625 0.05906,-0.109688 0.30375,-0.945 0.143437,-0.50625 0.4725,-0.50625 0.278437,0 0.379687,0.50625 0.143438,0.725625 0.278438,0.936562 0.320625,0.50625 1.122187,0.50625 h 0.8775 z m -8.4375,-7.264688 1.037812,-1.037812 1.029375,1.037812 -1.029375,1.029375 z m 2.303437,0 1.037813,-1.037812 1.029375,1.037812 -1.029375,1.029375 z m -1.172812,-1.712812 1.037812,-1.029376 1.029376,1.029376 -1.029376,1.029375 z"
           id="path809" />
        <path
           d="m 54.569973,27.819783 h -0.995625 q -0.835312,0 -1.425938,-0.556875 -0.784687,-0.7425 -0.784687,-2.269688 0,-1.037812 -0.126563,-3.130312 -0.143437,-2.345625 -0.278437,-3.088125 -0.04219,-0.244688 0.03375,-0.320626 l 1.392187,-1.130625 q 0.253126,-0.2025 0.295313,-0.2025 0,0 0.0084,0.0084 0.05062,0.0084 0.05062,0.23625 l -0.01687,7.095938 q 0,1.198125 1.341562,1.198125 h 0.50625 z"
           id="path811" />
        <path
           d="m 49.423098,27.237595 q 0,2.413125 -1.603125,4.075313 -0.497813,0.514688 -0.6075,0.514688 -2.269688,0 -3.366563,-0.430313 -0.23625,-0.09281 -0.01688,-0.16875 1.560938,-0.556875 2.93625,-1.62 1.577813,-1.215 1.577813,-2.185313 0,-0.405 -0.57375,-1.130625 -0.480938,-0.6075 -0.936563,-0.953437 l 0.818438,-1.729688 q 0.07594,-0.160312 0.2025,-0.03375 1.569375,1.569375 1.569375,3.661875 z"
           id="path813" />
        <path
           d="m 39.213723,24.596658 q 0,1.172812 -0.4725,2.084062 -0.590625,1.139063 -1.704375,1.139063 -1.04625,0 -1.729687,-1.155938 -0.649688,1.155938 -1.653751,1.155938 -1.08,0 -1.738125,-1.155938 -0.675,1.155938 -2.050312,1.155938 H 28.69216 v -2.168438 h 1.38375 q 0.750938,0 1.071563,-0.50625 0.126562,-0.194062 0.30375,-0.936562 0.126562,-0.50625 0.413437,-0.50625 0.312188,0 0.430313,0.50625 0.185625,0.793125 0.27,0.945 0.278437,0.50625 1.0125,0.50625 0.725625,0 1.029375,-0.50625 0.09281,-0.151875 0.30375,-0.945 0.135,-0.50625 0.455625,-0.50625 0.278438,0 0.388125,0.514687 0.160313,0.793125 0.261563,0.961875 0.295312,0.514688 1.054687,0.514688 1.054688,0 1.054688,-0.70875 0,-0.354375 -0.717188,-1.257188 l 0.767813,-1.189687 q 0.143437,-0.227813 0.16875,-0.23625 0.05062,0.02531 0.16875,0.177187 0.210937,0.27 0.421875,0.81 0.278437,0.700313 0.278437,1.307813 z"
           id="path815" />
        <path
           d="m 29.139347,27.819783 h -0.801562 q -0.649688,0 -1.257188,-0.3375 -0.599062,-0.345938 -0.928125,-0.902813 -0.734062,1.240313 -2.16,1.240313 h -1.333125 v -2.168438 h 0.995625 q 1.231875,0 1.704375,-0.548437 0.244688,-0.278438 0.379688,-1.020938 0.10125,-0.548437 0.413437,-0.548437 0.30375,0 0.396563,0.548437 0.126562,0.7425 0.320625,1.020938 0.388125,0.548437 1.400625,0.548437 h 0.869062 z m -2.607187,-7.534688 -1.1475,1.1475 -1.1475,-1.1475 1.1475,-1.1475 z"
           id="path817" />
        <path
           d="m 23.098098,27.819783 h -0.902812 q -1.206563,0 -2.041875,-1.5525 -0.700313,0.8775 -1.139063,1.130625 -0.725625,0.421875 -2.12625,0.421875 -2.117813,0 -2.117813,-1.9575 0,-0.295313 0.0675,-0.649688 0.2025,-1.071562 0.683438,-1.071562 0.27,0 0.278437,0.421875 0.01688,0.565312 0.160313,0.77625 0.286875,0.413437 1.24875,0.413437 2.345625,0 2.345625,-0.894375 0,-0.565312 -1.18125,-3.07125 l 0.953438,-1.257187 q 0.109687,-0.151875 0.135,-0.151875 0.05906,0 0.143437,0.227812 l 1.468125,3.915 q 0.430313,1.155938 1.206563,1.155938 h 0.818437 z"
           id="path819" />
      </g>
      <g
         transform="translate(86.944785,11.674847)"
         stroke="#313131"
         stroke-width="1.7px"
         fill="none"
         id="g118">
        <path
           d="m 10,5.9887695 h 1 c 1.10457,0 2,0.8954305 2,2 V 15.98877 c 0,1.104569 -0.89543,1.999999 -2,1.999999 H 2 c -1.1045695,0 -2,-0.89543 -2,-1.999999 V 7.9887695 c 0,-1.1045695 0.8954305,-2 2,-2 h 1 v 0"
           stroke="#313131"
           fill="none"
           stroke-width="1.7px"
           id="path117" />
        <line
           x1="6.5"
           y1="11.5"
           x2="6.5"
           y2="1.5"
           stroke-linecap="round"
           stroke="#313131"
           fill="none"
           stroke-width="1.7px"
           id="line117" />
        <path
           d="M 3.5,2.6933594 C 5.5,0.89778646 6.5,0 6.5,0 c 0,0 1,0.89778646 3,2.6933594"
           stroke-linecap="round"
           stroke-linejoin="round"
           stroke="#313131"
           fill="none"
           stroke-width="1.7px"
           id="path118" />
      </g>
    </g>
  </g>
</svg>
