<svg xmlns="http://www.w3.org/2000/svg" xmlns:xlink="http://www.w3.org/1999/xlink" xmlns:serif="http://www.serif.com/" viewBox="0 0 512 640" version="1.1" xml:space="preserve" style="" x="0px" y="0px" fill-rule="evenodd" clip-rule="evenodd" stroke-linejoin="round" stroke-miterlimit="2"><path d="M184,96L100.923,96C97.794,96 96,99.558 96,103.251L96,265C96,269.415 92.415,273 88,273C83.585,273 80,269.415 80,265L80,103.251C80,90.071 89.755,80 100.923,80L184,80L184,72C184,58.754 194.754,48 208,48L304,48C317.246,48 328,58.754 328,72L328,80L411.077,80C422.245,80 432,90.071 432,103.251L432,408.749C432,421.856 421.683,432 410.577,432L248,432C243.585,432 240,428.415 240,424C240,419.585 243.585,416 248,416L410.577,416C413.758,416 416,412.503 416,408.749L416,103.251C416,99.558 414.206,96 411.077,96L328,96L328,106C328,119.246 317.246,130 304,130L208,130C194.754,130 184,119.246 184,106L184,96ZM200,72L200,106C200,110.415 203.585,114 208,114L304,114C308.415,114 312,110.415 312,106L312,72C312,67.585 308.415,64 304,64L208,64C203.585,64 200,67.585 200,72ZM40,304C40,290.754 50.754,280 64,280L208,280C221.246,280 232,290.754 232,304L232,448C232,461.246 221.246,472 208,472L64,472C50.754,472 40,461.246 40,448L40,304ZM96,296L64,296C59.585,296 56,299.585 56,304L56,448C56,452.415 59.585,456 64,456L208,456C212.415,456 216,452.415 216,448L216,304C216,299.585 212.415,296 208,296L176,296L176,320C176,333.256 165.255,344 152,344L120,344C106.745,344 96,333.256 96,320L96,296ZM160,296L112,296L112,320C112,324.419 115.582,328 120,328L152,328C156.419,328 160,324.419 160,320L160,296Z"/></svg>