<svg xmlns="http://www.w3.org/2000/svg" xmlns:xlink="http://www.w3.org/1999/xlink" version="1.1" x="0px" y="0px" viewBox="0 0 100 125" style="enable-background:new 0 0 100 100;" xml:space="preserve"><style type="text/css">
	.st0{fill-rule:evenodd;clip-rule:evenodd;}
</style><path d="M97.7,45c0.7,0,1.3-0.6,1.3-1.3v-30c0-3.5-2.9-6.4-6.4-6.4H40c-3.3,0-6.1,2.6-6.4,5.9c-3.1,0.4-5.5,3.1-5.5,6.3v4H9.5  C4.8,23.5,1,27.3,1,32v15.2c0,4.7,3.8,8.5,8.5,8.5h6.9l9.7,5.6l2.1,1.2v23.9c0,3.5,2.9,6.4,6.4,6.4h7.6c0.7,0,1.3-0.6,1.3-1.3  c0-0.7-0.6-1.3-1.3-1.3h-7.6c-2,0-3.7-1.7-3.7-3.7V64l5.3,3c0.2,0.1,0.4,0.2,0.7,0.2c0.2,0,0.5-0.1,0.7-0.2c0.4-0.2,0.7-0.7,0.7-1.2  V55.7h0.2c4.7,0,8.5-3.8,8.5-8.5V32c0-4.7-3.8-8.5-8.5-8.5h-7.5v-4c0-2,1.7-3.7,3.7-3.7h52.6c2,0,3.7,1.7,3.7,3.7v57.6H80.8  c-1.6,0-2.9,1.3-2.9,2.9V90H52.7c-0.7,0-1.3,0.6-1.3,1.3c0,0.7,0.6,1.3,1.3,1.3h26.5c0,0,0.1,0,0.1,0c0,0,0.1,0,0.1,0c0,0,0,0,0,0  c0,0,0.1,0,0.1,0c0,0,0,0,0,0c0,0,0.1,0,0.1,0c0,0,0,0,0,0c0,0,0.1,0,0.1-0.1c0,0,0,0,0,0c0,0,0.1,0,0.1-0.1c0,0,0,0,0,0  c0,0,0.1,0,0.1-0.1c0,0,0,0,0,0c0,0,0.1-0.1,0.1-0.1l5.4-5.4h7c3.5,0,6.4-2.9,6.4-6.4V54.2c0-0.7-0.6-1.3-1.3-1.3s-1.3,0.6-1.3,1.3  v26.3c0,2-1.7,3.7-3.7,3.7h-4.3l4.9-4.9c0,0,0.1-0.1,0.1-0.1c0,0,0,0,0,0c0,0,0-0.1,0.1-0.1c0,0,0,0,0,0c0,0,0-0.1,0.1-0.1  c0,0,0,0,0,0c0,0,0-0.1,0.1-0.1c0,0,0,0,0,0c0,0,0-0.1,0-0.1c0,0,0,0,0,0c0,0,0-0.1,0-0.1c0,0,0,0,0,0c0,0,0-0.1,0-0.1  c0,0,0-0.1,0-0.1V19.5c0-3.5-2.9-6.4-6.4-6.4H36.3c0.3-1.8,1.8-3.1,3.7-3.1h52.6c2,0,3.7,1.7,3.7,3.7v30C96.3,44.4,96.9,45,97.7,45z   M44.1,32v15.2c0,3.2-2.6,5.8-5.8,5.8h-1.6c-0.7,0-1.3,0.6-1.3,1.3v9.2l-8-4.6l-10-5.8C17.2,53,17,53,16.7,53H9.5  c-3.2,0-5.8-2.6-5.8-5.8V32c0-3.2,2.6-5.8,5.8-5.8h28.8C41.5,26.2,44.1,28.8,44.1,32z M80.8,79.8h8.2l-8.4,8.4V80  C80.6,79.9,80.7,79.8,80.8,79.8z M23.9,33.1h13.8c0.7,0,1.3,0.6,1.3,1.3c0,0.7-0.6,1.3-1.3,1.3H23.9c-0.7,0-1.3-0.6-1.3-1.3  C22.6,33.7,23.2,33.1,23.9,33.1z M39.1,40.1c0,0.7-0.6,1.3-1.3,1.3H10.1c-0.7,0-1.3-0.6-1.3-1.3c0-0.7,0.6-1.3,1.3-1.3h27.7  C38.5,38.8,39.1,39.4,39.1,40.1z M39.1,45.8c0,0.7-0.6,1.3-1.3,1.3H10.1c-0.7,0-1.3-0.6-1.3-1.3s0.6-1.3,1.3-1.3h27.7  C38.5,44.5,39.1,45.1,39.1,45.8z"/><text x="0" y="115" fill="#000000" font-size="5px" font-weight="bold" font-family="'Helvetica Neue', Helvetica, Arial-Unicode, Arial, Sans-serif">Created by Anto</text><text x="0" y="120" fill="#000000" font-size="5px" font-weight="bold" font-family="'Helvetica Neue', Helvetica, Arial-Unicode, Arial, Sans-serif">from the Noun Project</text></svg>