<svg xmlns="http://www.w3.org/2000/svg" version="1.1" viewBox="-5.0 -10.0 110.0 135.0">
 <path d="m98.77 79.406-6.5078-6.5078c-0.55469-0.55469-1.457-0.55469-2.0117 0-0.55469 0.55469-0.55469 1.457 0 2.0117l3.9453 3.9453h-21.758v-9.7539c0-0.78516-0.63672-1.4258-1.4258-1.4258h-32.754c-0.78516 0-1.4258 0.63672-1.4258 1.4258v9.7305c-11.969-0.24219-18.086-4.9141-18.191-13.895-0.039063-3.5508 1.0508-6.4766 3.2461-8.6992 3.043-3.0781 8.0703-4.7031 14.945-4.8438v9.1406c0 0.78516 0.63672 1.4258 1.4258 1.4258h32.754c0.78516 0 1.4258-0.63672 1.4258-1.4258v-8.9648c7.7031-0.12891 13.43-2.0273 17.02-5.6562 2.6953-2.7266 4.0938-6.4141 4.043-10.668-0.085938-7.4609-3.8438-16.324-21.062-16.605v-9.3477c0-0.78516-0.63672-1.4258-1.4258-1.4258h-32.754c-0.78516 0-1.4258 0.63672-1.4258 1.4258v9.3477h-16.141c-0.59766-4.9297-4.8047-8.7617-9.8906-8.7617-5.5 0.007813-9.9688 4.4766-9.9688 9.9727 0 5.4961 4.4727 9.9688 9.9688 9.9688 4.9375 0 9.043-3.6094 9.8281-8.3281h16.203v9.3438c0 0.78516 0.63672 1.4258 1.4258 1.4258h32.754c0.78516 0 1.4258-0.63672 1.4258-1.4258v-9.3477c11.984 0.20312 18.113 4.8398 18.215 13.793 0.039062 3.5234-1.043 6.4297-3.2188 8.6328-3.043 3.0781-8.0859 4.6914-14.996 4.8125v-9.7305c0-0.78516-0.63672-1.4258-1.4258-1.4258h-32.754c-0.78516 0-1.4258 0.63672-1.4258 1.4258v9.5547c-7.6719 0.15234-13.383 2.0625-16.969 5.6914-2.7109 2.7422-4.1172 6.4531-4.0664 10.734 0.085937 7.4844 3.8477 16.371 21.039 16.703v8.9648c0 0.78516 0.63672 1.4258 1.4258 1.4258h32.754c0.78516 0 1.4258-0.63672 1.4258-1.4258v-8.9375h22.023l-4.0977 4.0977c-0.55469 0.55469-0.55469 1.457 0 2.0117 0.27734 0.27734 0.64062 0.41797 1.0078 0.41797 0.36328 0 0.73047-0.14062 1.0078-0.41797l6.3984-6.3984c0.55469-0.55469 0.55469-1.457 0-2.0117zm-87.973-52.434c-3.9258 0-7.1211-3.1953-7.1211-7.1211 0-3.9258 3.1953-7.1211 7.1211-7.1211s7.1211 3.1953 7.1211 7.1211c0 3.9258-3.1953 7.1211-7.1211 7.1211zm58.789 2.4414h-29.906v-18.695h29.906zm-29.906 11.004h29.906v18.691h-29.906zm29.906 48.801h-29.906v-18.691h29.906z"/>
</svg>