<svg xmlns:inkscape="http://www.inkscape.org/namespaces/inkscape" xmlns:sodipodi="http://sodipodi.sourceforge.net/DTD/sodipodi-0.dtd" xmlns="http://www.w3.org/2000/svg" xmlns:svg="http://www.w3.org/2000/svg" version="1.1" x="0px" y="0px" viewBox="0 0 100 125" style="enable-background:new 0 0 100 100;" xml:space="preserve"><path d="m 62.2985,25.991138 h -24.597 c -2.722,0 -4.937,-2.215 -4.937,-4.937 V 6.7581381 c 0,-2.722 2.215,-4.937 4.937,-4.937 h 24.597 c 2.722,0 4.937,2.215 4.937,4.937 V 21.054138 c 0,2.722 -2.215,4.937 -4.937,4.937 z M 37.7015,3.8221381 c -1.619,0 -2.937,1.317 -2.937,2.937 V 21.055138 c 0,1.619 1.317,2.937 2.937,2.937 h 24.597 c 1.619,0 2.937,-1.317 2.937,-2.937 V 6.7581381 c 0,-1.619 -1.317,-2.937 -2.937,-2.937 h -24.597 z"/><path d="m 59.5775,11.662138 h -19.155 c -0.553,0 -1,-0.447 -1,-1 0,-0.553 0.447,-0.9999999 1,-0.9999999 h 19.154 c 0.553,0 1,0.4469999 1,0.9999999 0,0.553 -0.447,1 -0.999,1 z"/><path d="m 50.7255,18.150138 h -10.303 c -0.553,0 -1,-0.447 -1,-1 0,-0.553 0.447,-1 1,-1 h 10.303 c 0.553,0 1,0.447 1,1 0,0.553 -0.447,1 -1,1 z"/><path d="m 59.5775,18.150138 h -1.887 c -0.553,0 -1,-0.447 -1,-1 0,-0.553 0.447,-1 1,-1 h 1.887 c 0.553,0 1,0.447 1,1 0,0.553 -0.448,1 -1,1 z"/><path d="m 62.2985,98.178862 h -24.597 c -2.722,0 -4.937,-2.215 -4.937,-4.937 v -14.295 c 0,-2.722 2.215,-4.937 4.937,-4.937 h 24.597 c 2.722,0 4.937,2.215 4.937,4.937 v 14.296 c 0,2.722 -2.215,4.936 -4.937,4.936 z m -24.597,-22.168 c -1.619,0 -2.937,1.317 -2.937,2.937 v 14.296 c 0,1.619 1.317,2.937 2.937,2.937 h 24.597 c 1.619,0 2.937,-1.317 2.937,-2.937 v -14.297 c 0,-1.619 -1.317,-2.937 -2.937,-2.937 h -24.597 z"/><path d="m 62.2985,61.904218 h -24.597 c -2.722,0 -4.937,-2.215 -4.937,-4.937 v -14.296 c 0,-2.722 2.215,-4.937 4.937,-4.937 h 24.597 c 2.722,0 4.937,2.215 4.937,4.937 v 14.297 c 0,2.721 -2.215,4.936 -4.937,4.936 z m -24.597,-22.17 c -1.619,0 -2.937,1.317 -2.937,2.937 v 14.297 c 0,1.619 1.317,2.937 2.937,2.937 h 24.597 c 1.619,0 2.937,-1.317 2.937,-2.937 v -14.297 c 0,-1.619 -1.317,-2.937 -2.937,-2.937 z"/><path d="m 59.5775,47.575218 h -19.155 c -0.553,0 -1,-0.447 -1,-1 0,-0.553 0.447,-1 1,-1 h 19.154 c 0.553,0 1,0.447 1,1 0,0.553 -0.447,1 -0.999,1 z"/><path d="m 50.7255,54.063218 h -10.303 c -0.553,0 -1,-0.447 -1,-1 0,-0.553 0.447,-1 1,-1 h 10.303 c 0.553,0 1,0.447 1,1 0,0.553 -0.447,1 -1,1 z"/><path d="m 59.5775,54.063218 h -1.887 c -0.553,0 -1,-0.447 -1,-1 0,-0.553 0.447,-1 1,-1 h 1.887 c 0.553,0 1,0.447 1,1 0,0.553 -0.448,1 -1,1 z"/><path d="m 47.0525,91.442862 c -0.256,0 -0.512,-0.098 -0.707,-0.293 l -2.803,-2.803 c -0.391,-0.391 -0.391,-1.023 0,-1.414 0.391,-0.391 1.023,-0.391 1.414,0 l 2.096,2.096 7.99,-7.989 c 0.391,-0.391 1.023,-0.391 1.414,0 0.391,0.391 0.391,1.023 0,1.414 l -8.697,8.696 c -0.195,0.195 -0.451,0.293 -0.707,0.293 z"/><path d="m 49.293,72.088078 c -0.266,0 -0.52,-0.105 -0.707,-0.293 l -3.673,-3.673 c -0.391,-0.391 -0.391,-1.023 0,-1.414 0.391,-0.391 1.023,-0.391 1.414,0 l 2.966,2.966 2.965,-2.966 c 0.391,-0.391 1.023,-0.391 1.414,0 0.391,0.391 0.391,1.023 0,1.414 l -3.672,3.673 c -0.187,0.188 -0.441,0.293 -0.707,0.293 z"/><path d="m 49.293,36.29202 c -0.266,0 -0.52,-0.105 -0.707,-0.293 l -3.673,-3.673 c -0.391,-0.391 -0.391,-1.023 0,-1.414 0.391,-0.391 1.023,-0.391 1.414,0 l 2.966,2.966 2.965,-2.966 c 0.391,-0.391 1.023,-0.391 1.414,0 0.391,0.391 0.391,1.023 0,1.414 L 50,35.99902 c -0.187,0.188 -0.441,0.293 -0.707,0.293 z"/><path d="m 72.23675,32.388658 c -3.932,0 -7.131,-3.196 -7.131,-7.126 0,-3.929 3.199,-7.125 7.131,-7.125 3.929,0 7.124996,3.196 7.124996,7.125 0,3.929 -3.195996,7.126 -7.124996,7.126 z m 0,-12.251 c -2.829,0 -5.131,2.299 -5.131,5.125 0,2.826 2.302,5.126 5.131,5.126 2.826,0 5.125,-2.3 5.125,-5.126 0,-2.826 -2.299,-5.125 -5.125,-5.125 z"/><path d="m 71.39275,27.682658 c -0.265,0 -0.52,-0.105 -0.707,-0.293 l -1.157,-1.157 c -0.391,-0.391 -0.391,-1.023 0,-1.414 0.391,-0.391 1.023,-0.391 1.414,0 l 0.45,0.45 2.131,-2.132 c 0.391,-0.391 1.023,-0.391 1.414,0 0.391,0.391 0.391,1.023 0,1.414 l -2.838,2.839 c -0.187,0.187 -0.441,0.293 -0.707,0.293 z"/><path d="m 72.23675,66.610218 c -3.932,0 -7.131,-3.196 -7.131,-7.126 0,-3.929 3.199,-7.125 7.131,-7.125 3.929,0 7.124996,3.196 7.124996,7.125 0,3.929 -3.195996,7.126 -7.124996,7.126 z m 0,-12.251 c -2.829,0 -5.131,2.299 -5.131,5.125 0,2.826 2.302,5.126 5.131,5.126 2.826,0 5.125,-2.3 5.125,-5.126 0,-2.826 -2.299,-5.125 -5.125,-5.125 z"/><path d="m 71.39275,61.904218 c -0.265,0 -0.52,-0.105 -0.707,-0.293 l -1.157,-1.157 c -0.391,-0.391 -0.391,-1.023 0,-1.414 0.391,-0.391 1.023,-0.391 1.414,0 l 0.45,0.45 2.131,-2.132 c 0.391,-0.391 1.023,-0.391 1.414,0 0.391,0.391 0.391,1.023 0,1.414 l -2.838,2.839 c -0.187,0.187 -0.441,0.293 -0.707,0.293 z"/><path d="m 49.34504,33.96242 c -0.553,0 -1,-0.192093 -1,-0.429739 v -5.807917 c 0,-0.237646 0.447,-0.429739 1,-0.429739 0.553,0 1,0.192093 1,0.429739 v 5.808347 c 0,0.237216 -0.447,0.429309 -1,0.429309 z" style="" stroke-width="0.655545"/><path d="m 49.34504,70.031192 c -0.553,0 -1,-0.192093 -1,-0.429739 v -5.807917 c 0,-0.237646 0.447,-0.429739 1,-0.429739 0.553,0 1,0.192093 1,0.429739 v 5.808347 c 0,0.237216 -0.447,0.429309 -1,0.429309 z" style="color:#4f46e5" stroke-width="0.655545"/></svg>