<svg xmlns:dc="http://purl.org/dc/elements/1.1/" xmlns:cc="http://creativecommons.org/ns#" xmlns:rdf="http://www.w3.org/1999/02/22-rdf-syntax-ns#" xmlns:svg="http://www.w3.org/2000/svg" xmlns="http://www.w3.org/2000/svg" xmlns:sodipodi="http://sodipodi.sourceforge.net/DTD/sodipodi-0.dtd" xmlns:inkscape="http://www.inkscape.org/namespaces/inkscape" viewBox="0 0 100 125" version="1.1" x="0px" y="0px"><g transform="translate(0,-952.36214)"><path style="color:#000000;font-style:normal;font-variant:normal;font-weight:normal;font-stretch:normal;font-size:medium;line-height:normal;font-family:sans-serif;text-indent:0;text-align:start;text-decoration:none;text-decoration-line:none;text-decoration-style:solid;text-decoration-color:#000000;letter-spacing:normal;word-spacing:normal;text-transform:none;direction:ltr;block-progression:tb;writing-mode:lr-tb;baseline-shift:baseline;text-anchor:start;white-space:normal;clip-rule:nonzero;display:inline;overflow:visible;visibility:visible;opacity:1;isolation:auto;mix-blend-mode:normal;color-interpolation:sRGB;color-interpolation-filters:linearRGB;solid-color:#000000;solid-opacity:1;fill:#000000;fill-opacity:1;fill-rule:nonzero;stroke:none;stroke-width:40;stroke-linecap:round;stroke-linejoin:round;stroke-miterlimit:4;stroke-dasharray:none;stroke-dashoffset:1.06999993;stroke-opacity:1;color-rendering:auto;image-rendering:auto;shape-rendering:auto;text-rendering:auto;enable-background:accumulate" d="m 65.58572,970.94714 a 2.0002072,2.0001928 0 0 0 0,2.82842 l 13.000039,12.99994 a 2.0002072,2.0001928 0 0 0 2.828437,0 l 13.000039,-12.99994 a 2.0002072,2.0001928 0 0 0 0,-2.82842 L 81.414196,957.94719 a 2.0002072,2.0001928 0 0 0 -2.828438,0 L 65.58572,970.94714 Z m 4.242656,1.41421 10.171601,-10.17153 10.171602,10.17153 -10.171601,10.17153 -10.171602,-10.17153 z"/><path style="color:#000000;font-style:normal;font-variant:normal;font-weight:normal;font-stretch:normal;font-size:medium;line-height:normal;font-family:sans-serif;text-indent:0;text-align:start;text-decoration:none;text-decoration-line:none;text-decoration-style:solid;text-decoration-color:#000000;letter-spacing:normal;word-spacing:normal;text-transform:none;direction:ltr;block-progression:tb;writing-mode:lr-tb;baseline-shift:baseline;text-anchor:start;white-space:normal;clip-rule:nonzero;display:inline;overflow:visible;visibility:visible;opacity:1;isolation:auto;mix-blend-mode:normal;color-interpolation:sRGB;color-interpolation-filters:linearRGB;solid-color:#000000;solid-opacity:1;fill:#000000;fill-opacity:1;fill-rule:nonzero;stroke:none;stroke-width:40;stroke-linecap:round;stroke-linejoin:round;stroke-miterlimit:4;stroke-dasharray:none;stroke-dashoffset:1.06999993;stroke-opacity:1;color-rendering:auto;image-rendering:auto;shape-rendering:auto;text-rendering:auto;enable-background:accumulate" d="m 20,1017.3613 c -8.260582,0 -15,6.7394 -15,15 0,8.2606 6.739418,15 15,15 8.260582,0 15,-6.7394 15,-15 0,-8.2606 -6.739418,-15 -15,-15 z m 0,4 c 6.098822,0 11,4.9012 11,11 0,6.0988 -4.901178,11 -11,11 -6.098822,0 -11,-4.9012 -11,-11 0,-6.0988 4.901178,-11 11,-11 z"/><path style="color:#000000;font-style:normal;font-variant:normal;font-weight:normal;font-stretch:normal;font-size:medium;line-height:normal;font-family:sans-serif;text-indent:0;text-align:start;text-decoration:none;text-decoration-line:none;text-decoration-style:solid;text-decoration-color:#000000;letter-spacing:normal;word-spacing:normal;text-transform:none;direction:ltr;block-progression:tb;writing-mode:lr-tb;baseline-shift:baseline;text-anchor:start;white-space:normal;clip-rule:nonzero;display:inline;overflow:visible;visibility:visible;opacity:1;isolation:auto;mix-blend-mode:normal;color-interpolation:sRGB;color-interpolation-filters:linearRGB;solid-color:#000000;solid-opacity:1;fill:#000000;fill-opacity:1;fill-rule:nonzero;stroke:none;stroke-width:40;stroke-linecap:round;stroke-linejoin:round;stroke-miterlimit:4;stroke-dasharray:none;stroke-dashoffset:1.06999993;stroke-opacity:1;color-rendering:auto;image-rendering:auto;shape-rendering:auto;text-rendering:auto;enable-background:accumulate" d="m 71,1017.3613 c -3.289406,0 -6,2.7106 -6,6 l 0,18 c 0,3.2894 2.710594,6 6,6 l 18,0 c 3.289406,0 6,-2.7106 6,-6 l 0,-18 c 0,-3.2894 -2.710594,-6 -6,-6 l -18,0 z m 0,4 18,0 c 1.142594,0 2,0.8574 2,2 l 0,18 c 0,1.1426 -0.857406,2 -2,2 l -18,0 c -1.142594,0 -2,-0.8574 -2,-2 l 0,-18 c 0,-1.1426 0.857406,-2 2,-2 z"/><path style="color:#000000;font-style:normal;font-variant:normal;font-weight:normal;font-stretch:normal;font-size:medium;line-height:normal;font-family:sans-serif;text-indent:0;text-align:start;text-decoration:none;text-decoration-line:none;text-decoration-style:solid;text-decoration-color:#000000;letter-spacing:normal;word-spacing:normal;text-transform:none;direction:ltr;block-progression:tb;writing-mode:lr-tb;baseline-shift:baseline;text-anchor:start;white-space:normal;clip-rule:nonzero;display:inline;overflow:visible;visibility:visible;opacity:1;isolation:auto;mix-blend-mode:normal;color-interpolation:sRGB;color-interpolation-filters:linearRGB;solid-color:#000000;solid-opacity:1;fill:#000000;fill-opacity:1;fill-rule:evenodd;stroke:none;stroke-width:40;stroke-linecap:round;stroke-linejoin:miter;stroke-miterlimit:4;stroke-dasharray:none;stroke-dashoffset:0;stroke-opacity:1;color-rendering:auto;image-rendering:auto;shape-rendering:auto;text-rendering:auto;enable-background:accumulate" d="m 47.079136,1025.2726 c -1.115058,-0.024 -1.737612,0.983 -2.473992,1.6499 -1.396755,1.4155 -2.832891,2.7951 -4.205109,4.2331 -0.677945,0.844 -0.464777,2.1581 0.371251,2.8158 1.67492,1.6686 3.33764,3.3499 5.020277,5.0106 1.030816,0.95 2.898059,0.3765 3.217845,-0.9884 0.289574,-0.894 -0.216646,-1.7598 -0.882338,-2.3233 -0.435509,-0.4355 -0.871018,-0.871 -1.306527,-1.3065 3.782771,-0 7.565883,0.01 11.34844,-0.01 1.40051,-0.061 2.311054,-1.7887 1.569154,-2.9781 -0.427655,-0.832 -1.393356,-1.0866 -2.259401,-1.0148 -3.552731,0 -7.105462,0 -10.658194,0 0.668416,-0.7123 1.442507,-1.3373 2.016079,-2.1285 0.754612,-1.27 -0.280056,-3.0154 -1.757485,-2.9627 z"/><path style="color:#000000;font-style:normal;font-variant:normal;font-weight:normal;font-stretch:normal;font-size:medium;line-height:normal;font-family:sans-serif;text-indent:0;text-align:start;text-decoration:none;text-decoration-line:none;text-decoration-style:solid;text-decoration-color:#000000;letter-spacing:normal;word-spacing:normal;text-transform:none;direction:ltr;block-progression:tb;writing-mode:lr-tb;baseline-shift:baseline;text-anchor:start;white-space:normal;clip-rule:nonzero;display:inline;overflow:visible;visibility:visible;opacity:1;isolation:auto;mix-blend-mode:normal;color-interpolation:sRGB;color-interpolation-filters:linearRGB;solid-color:#000000;solid-opacity:1;fill:#000000;fill-opacity:1;fill-rule:nonzero;stroke:none;stroke-width:40;stroke-linecap:round;stroke-linejoin:round;stroke-miterlimit:4;stroke-dasharray:none;stroke-dashoffset:1.06999993;stroke-opacity:1;color-rendering:auto;image-rendering:auto;shape-rendering:auto;text-rendering:auto;enable-background:accumulate" d="m 11,957.36131 c -3.289406,0 -6,2.7106 -6,6 l 0,18 c 0,3.28941 2.710594,6 6,6 l 18,0 c 3.289406,0 6,-2.71059 6,-6 l 0,-18 c 0,-3.2894 -2.710594,-6 -6,-6 l -18,0 z m 0,4 18,0 c 1.142594,0 2,0.85741 2,2 l 0,18 c 0,1.1426 -0.857406,2 -2,2 l -18,0 c -1.142594,0 -2,-0.8574 -2,-2 l 0,-18 c 0,-1.14259 0.857406,-2 2,-2 z"/><path style="color:#000000;font-style:normal;font-variant:normal;font-weight:normal;font-stretch:normal;font-size:medium;line-height:normal;font-family:sans-serif;text-indent:0;text-align:start;text-decoration:none;text-decoration-line:none;text-decoration-style:solid;text-decoration-color:#000000;letter-spacing:normal;word-spacing:normal;text-transform:none;direction:ltr;block-progression:tb;writing-mode:lr-tb;baseline-shift:baseline;text-anchor:start;white-space:normal;clip-rule:nonzero;display:inline;overflow:visible;visibility:visible;opacity:1;isolation:auto;mix-blend-mode:normal;color-interpolation:sRGB;color-interpolation-filters:linearRGB;solid-color:#000000;solid-opacity:1;fill:#000000;fill-opacity:1;fill-rule:evenodd;stroke:none;stroke-width:40;stroke-linecap:round;stroke-linejoin:miter;stroke-miterlimit:4;stroke-dasharray:none;stroke-dashoffset:0;stroke-opacity:1;color-rendering:auto;image-rendering:auto;shape-rendering:auto;text-rendering:auto;enable-background:accumulate" d="m 27.088799,999.44054 c 0.02422,-1.11506 -0.98306,-1.73761 -1.64993,-2.474 -1.41554,-1.39675 -2.79515,-2.83289 -4.233078,-4.20511 -0.84399,-0.67794 -2.1581,-0.46477 -2.815782,0.37126 -1.66867,1.67492 -3.34995,3.33764 -5.01064,5.02027 -0.95001,1.03082 -0.37647,2.89804 0.98839,3.21784 0.89398,0.2896 1.75984,-0.2166 2.3233,-0.8823 0.43551,-0.4355 0.87102,-0.87105 1.30653,-1.30656 0.0048,3.78276 -0.0095,7.56586 0.0072,11.34846 0.06058,1.4005 1.788722,2.311 2.978122,1.5691 0.832,-0.4276 1.08659,-1.3933 1.01472,-2.2594 0,-3.5527 0,-7.1054 0,-10.65816 0.712328,0.66842 1.337338,1.44256 2.128488,2.01606 1.27004,0.7546 3.01547,-0.28 2.96272,-1.75746 z"/><path style="color:#000000;font-style:normal;font-variant:normal;font-weight:normal;font-stretch:normal;font-size:medium;line-height:normal;font-family:sans-serif;text-indent:0;text-align:start;text-decoration:none;text-decoration-line:none;text-decoration-style:solid;text-decoration-color:#000000;letter-spacing:normal;word-spacing:normal;text-transform:none;direction:ltr;block-progression:tb;writing-mode:lr-tb;baseline-shift:baseline;text-anchor:start;white-space:normal;clip-rule:nonzero;display:inline;overflow:visible;visibility:visible;opacity:1;isolation:auto;mix-blend-mode:normal;color-interpolation:sRGB;color-interpolation-filters:linearRGB;solid-color:#000000;solid-opacity:1;fill:#000000;fill-opacity:1;fill-rule:evenodd;stroke:none;stroke-width:40;stroke-linecap:round;stroke-linejoin:miter;stroke-miterlimit:4;stroke-dasharray:none;stroke-dashoffset:0;stroke-opacity:1;color-rendering:auto;image-rendering:auto;shape-rendering:auto;text-rendering:auto;enable-background:accumulate" d="m 72.911171,1005.2822 c -0.02422,1.1151 0.98306,1.7376 1.64993,2.474 1.41554,1.3968 2.79515,2.8329 4.233075,4.2051 0.84399,0.6779 2.1581,0.4648 2.81578,-0.3712 1.66867,-1.675 3.34995,-3.3377 5.01064,-5.0203 0.95001,-1.0308 0.37647,-2.8981 -0.98839,-3.2179 -0.89398,-0.2895 -1.75984,0.2167 -2.3233,0.8824 -0.43551,0.4355 -0.87102,0.871 -1.30653,1.3065 -0.0048,-3.7828 0.0095,-7.56589 -0.0072,-11.34844 -0.06058,-1.40051 -1.78872,-2.31106 -2.97812,-1.56916 -0.831997,0.42766 -1.086587,1.39336 -1.014717,2.2594 0,3.55273 0,7.1055 0,10.6582 -0.712328,-0.6684 -1.337338,-1.4425 -2.128488,-2.0161 -1.27004,-0.7546 -3.01547,0.2801 -2.96272,1.7575 z"/><path style="color:#000000;font-style:normal;font-variant:normal;font-weight:normal;font-stretch:normal;font-size:medium;line-height:normal;font-family:sans-serif;text-indent:0;text-align:start;text-decoration:none;text-decoration-line:none;text-decoration-style:solid;text-decoration-color:#000000;letter-spacing:normal;word-spacing:normal;text-transform:none;direction:ltr;block-progression:tb;writing-mode:lr-tb;baseline-shift:baseline;text-anchor:start;white-space:normal;clip-rule:nonzero;display:inline;overflow:visible;visibility:visible;opacity:1;isolation:auto;mix-blend-mode:normal;color-interpolation:sRGB;color-interpolation-filters:linearRGB;solid-color:#000000;solid-opacity:1;fill:#000000;fill-opacity:1;fill-rule:evenodd;stroke:none;stroke-width:40;stroke-linecap:round;stroke-linejoin:miter;stroke-miterlimit:4;stroke-dasharray:none;stroke-dashoffset:0;stroke-opacity:1;color-rendering:auto;image-rendering:auto;shape-rendering:auto;text-rendering:auto;enable-background:accumulate" d="m 52.920813,979.45021 c 1.115059,0.0242 1.737612,-0.98306 2.473993,-1.64993 1.396754,-1.41554 2.832891,-2.79515 4.205109,-4.23307 0.677944,-0.84399 0.464777,-2.1581 -0.371251,-2.81578 -1.67492,-1.66867 -3.33764,-3.34995 -5.020277,-5.01064 -1.030816,-0.95001 -2.89806,-0.37647 -3.217845,0.98839 -0.289575,0.89398 0.216645,1.75984 0.882338,2.3233 0.435509,0.43551 0.871018,0.87102 1.306527,1.30653 -3.782771,0.005 -7.565884,-0.01 -11.348441,0.007 -1.40051,0.0606 -2.311054,1.78872 -1.569154,2.97812 0.427655,0.832 1.393356,1.08659 2.259401,1.01472 3.552731,0 7.105463,0 10.658194,0 -0.668415,0.71232 -1.442507,1.33733 -2.016078,2.12848 -0.754613,1.27004 0.280056,3.01547 1.757484,2.96272 z"/></g></svg>